<mxfile host="app.diagrams.net" modified="2023-05-27T02:05:35.332Z" agent="Mozilla/5.0 (Windows NT 10.0; Win64; x64) AppleWebKit/537.36 (KHTML, like Gecko) Chrome/113.0.0.0 Safari/537.36" etag="tD0agjFIrQYou9iV96KS" version="21.2.9" type="device">
  <diagram id="eeLBlgnX9cyii8sExSv9" name="Page-1">
    <mxGraphModel dx="1432" dy="747" grid="1" gridSize="10" guides="1" tooltips="1" connect="1" arrows="1" fold="1" page="1" pageScale="1" pageWidth="850" pageHeight="1100" math="0" shadow="0">
      <root>
        <mxCell id="0" />
        <mxCell id="1" parent="0" />
        <mxCell id="MhEgrTpF8DCzF2hVE9Hj-1" value="&lt;div style=&quot;font-size: 1px&quot;&gt;&lt;font style=&quot;font-size: 25.4px; font-family: Calibri; direction: ltr; letter-spacing: 0px; line-height: 120%; opacity: 1;&quot;&gt;General Workflow&lt;br&gt;&lt;/font&gt;&lt;/div&gt;" style="verticalAlign=middle;align=center;vsdxID=3;fillColor=none;gradientColor=none;shape=stencil(nZBLDoAgDERP0z3SIyjew0SURgSD+Lu9kMZoXLhwN9O+tukAlrNpJg1SzDH4QW/URgNYgZTkjA4UkwJUgGXng+6DX1zLfmoymdXo17xh5zmRJ6Q42BWCfc2oJfdAr+Yv+AP9Cb7OJ3H/2JG1HNGz/84klThPVCc=);strokeColor=#c8c8c8;points=[];labelBackgroundColor=none;rounded=0;html=1;whiteSpace=wrap;fontColor=#33001A;fontStyle=0" parent="1" vertex="1">
          <mxGeometry x="280" y="60" width="214" height="28" as="geometry" />
        </mxCell>
        <mxCell id="MhEgrTpF8DCzF2hVE9Hj-2" value="&lt;div style=&quot;font-size: 1px&quot;&gt;&lt;font style=&quot;font-size:14.11px;font-family:Calibri;color:#000000;direction:ltr;letter-spacing:0px;line-height:120%;opacity:1&quot;&gt;&lt;b&gt;Assessment&lt;/b&gt;&lt;br&gt;&lt;/font&gt;&lt;/div&gt;" style="verticalAlign=middle;align=center;vsdxID=117;fillColor=#dae8fc;shape=stencil(nZBLDoAgDERP0z3SIyjew0SURgSD+Lu9kMZoXLhwN9O+tukAlrNpJg1SzDH4QW/URgNYgZTkjA4UkwJUgGXng+6DX1zLfmoymdXo17xh5zmRJ6Q42BWCfc2oJfdAr+Yv+AP9Cb7OJ3H/2JG1HNGz/84klThPVCc=);strokeColor=#6c8ebf;strokeWidth=4;points=[[0.5,1,0],[1,0.5,0],[0.5,0,0],[0,0.5,0],[0.5,0.5,0]];labelBackgroundColor=none;rounded=0;html=1;whiteSpace=wrap;" parent="1" vertex="1">
          <mxGeometry x="98.43" y="149" width="152" height="88" as="geometry" />
        </mxCell>
        <mxCell id="MhEgrTpF8DCzF2hVE9Hj-3" value="&lt;div style=&quot;font-size: 1px&quot;&gt;&lt;font style=&quot;font-size:14.11px;font-family:Calibri;color:#000000;direction:ltr;letter-spacing:0px;line-height:120%;opacity:1&quot;&gt;&lt;b&gt;Patient&lt;br&gt;Provider&lt;/b&gt;&lt;br&gt;&lt;/font&gt;&lt;/div&gt;" style="verticalAlign=middle;align=center;vsdxID=118;fillColor=#dae8fc;shape=stencil(nZBLDoAgDERP0z3SIyjew0SURgSD+Lu9kMZoXLhwN9O+tukAlrNpJg1SzDH4QW/URgNYgZTkjA4UkwJUgGXng+6DX1zLfmoymdXo17xh5zmRJ6Q42BWCfc2oJfdAr+Yv+AP9Cb7OJ3H/2JG1HNGz/84klThPVCc=);strokeColor=#6c8ebf;strokeWidth=4;points=[[0.5,1,0],[1,0.5,0],[0.5,0,0],[0,0.5,0],[0.5,0.5,0]];labelBackgroundColor=none;rounded=0;html=1;whiteSpace=wrap;" parent="1" vertex="1">
          <mxGeometry x="306.43" y="150" width="152" height="88" as="geometry" />
        </mxCell>
        <mxCell id="MhEgrTpF8DCzF2hVE9Hj-4" value="&lt;div style=&quot;font-size: 1px&quot;&gt;&lt;font style=&quot;font-size:14.11px;font-family:Calibri;color:#000000;direction:ltr;letter-spacing:0px;line-height:120%;opacity:1&quot;&gt;&lt;b&gt;Questionnaire&lt;br&gt;QuestionnaireResponse&lt;br&gt;&lt;a href=&quot;StructureDefinition-SDOHCC-ObservationScreeningResponse.html&quot;&gt;Observation Screening Response&lt;/a&gt;&lt;br&gt;&lt;a href=&quot;http://build.fhir.org/ig/HL7/fhir-sdoh-clinicalcare/branches/updates/StructureDefinition-SDOHCC-ObservationAssessment.html&quot;&gt;Observation Assessment&lt;/a&gt;&lt;br&gt;&lt;a href=&quot;http://build.fhir.org/ig/HL7/fhir-sdoh-clinicalcare/branches/updates/StructureDefinition-SDOHCC-Condition.html&quot;&gt;Condition&lt;/a&gt;&lt;/b&gt;&lt;br&gt;&lt;/font&gt;&lt;/div&gt;" style="verticalAlign=middle;align=center;vsdxID=119;fillColor=#dae8fc;shape=stencil(nZBLDoAgDERP0z3SIyjew0SURgSD+Lu9kMZoXLhwN9O+tukAlrNpJg1SzDH4QW/URgNYgZTkjA4UkwJUgGXng+6DX1zLfmoymdXo17xh5zmRJ6Q42BWCfc2oJfdAr+Yv+AP9Cb7OJ3H/2JG1HNGz/84klThPVCc=);strokeColor=#6c8ebf;strokeWidth=4;points=[[0.5,1,0],[1,0.5,0],[0.5,0,0],[0,0.5,0],[0.5,0.5,0]];labelBackgroundColor=none;rounded=0;html=1;whiteSpace=wrap;" parent="1" vertex="1">
          <mxGeometry x="507.43" y="150" width="212.57" height="88" as="geometry" />
        </mxCell>
        <mxCell id="MhEgrTpF8DCzF2hVE9Hj-5" value="&lt;div style=&quot;font-size: 1px&quot;&gt;&lt;font style=&quot;font-size: 16.93px; font-family: Calibri; direction: ltr; letter-spacing: 0px; line-height: 120%; opacity: 1;&quot;&gt;Activity&lt;br&gt;&lt;/font&gt;&lt;/div&gt;" style="verticalAlign=middle;align=center;vsdxID=120;fillColor=none;gradientColor=none;shape=stencil(nZBLDoAgDERP0z3SIyjew0SURgSD+Lu9kMZoXLhwN9O+tukAlrNpJg1SzDH4QW/URgNYgZTkjA4UkwJUgGXng+6DX1zLfmoymdXo17xh5zmRJ6Q42BWCfc2oJfdAr+Yv+AP9Cb7OJ3H/2JG1HNGz/84klThPVCc=);strokeColor=none;points=[];labelBackgroundColor=none;rounded=0;html=1;whiteSpace=wrap;fontStyle=1;fontColor=#33001A;" parent="1" vertex="1">
          <mxGeometry x="96.43" y="100" width="152" height="28" as="geometry" />
        </mxCell>
        <mxCell id="MhEgrTpF8DCzF2hVE9Hj-6" value="&lt;div style=&quot;font-size: 1px&quot;&gt;&lt;font style=&quot;font-size: 16.93px; font-family: Calibri; direction: ltr; letter-spacing: 0px; line-height: 120%; opacity: 1;&quot;&gt;Actors&lt;br&gt;&lt;/font&gt;&lt;/div&gt;" style="verticalAlign=middle;align=center;vsdxID=121;fillColor=none;gradientColor=none;shape=stencil(nZBLDoAgDERP0z3SIyjew0SURgSD+Lu9kMZoXLhwN9O+tukAlrNpJg1SzDH4QW/URgNYgZTkjA4UkwJUgGXng+6DX1zLfmoymdXo17xh5zmRJ6Q42BWCfc2oJfdAr+Yv+AP9Cb7OJ3H/2JG1HNGz/84klThPVCc=);strokeColor=none;points=[];labelBackgroundColor=none;rounded=0;html=1;whiteSpace=wrap;fontStyle=1;fontColor=#33001A;" parent="1" vertex="1">
          <mxGeometry x="307.43" y="101" width="152" height="28" as="geometry" />
        </mxCell>
        <mxCell id="MhEgrTpF8DCzF2hVE9Hj-7" value="&lt;div style=&quot;font-size: 1px&quot;&gt;&lt;font style=&quot;font-size: 16.93px; font-family: Calibri; direction: ltr; letter-spacing: 0px; line-height: 120%; opacity: 1;&quot;&gt;FHIR Resources&lt;br&gt;&lt;/font&gt;&lt;/div&gt;" style="verticalAlign=middle;align=center;vsdxID=122;fillColor=none;gradientColor=none;shape=stencil(nZBLDoAgDERP0z3SIyjew0SURgSD+Lu9kMZoXLhwN9O+tukAlrNpJg1SzDH4QW/URgNYgZTkjA4UkwJUgGXng+6DX1zLfmoymdXo17xh5zmRJ6Q42BWCfc2oJfdAr+Yv+AP9Cb7OJ3H/2JG1HNGz/84klThPVCc=);strokeColor=none;points=[];labelBackgroundColor=none;rounded=0;html=1;whiteSpace=wrap;fontStyle=1;fontColor=#33001A;" parent="1" vertex="1">
          <mxGeometry x="530" y="100" width="152" height="28" as="geometry" />
        </mxCell>
        <mxCell id="MhEgrTpF8DCzF2hVE9Hj-8" value="&lt;div style=&quot;font-size: 1px&quot;&gt;&lt;font style=&quot;font-size:14.11px;font-family:Calibri;color:#000000;direction:ltr;letter-spacing:0px;line-height:120%;opacity:1&quot;&gt;&lt;b&gt;Goal Setting&lt;/b&gt;&lt;br&gt;&lt;/font&gt;&lt;/div&gt;" style="verticalAlign=middle;align=center;vsdxID=123;fillColor=#dae8fc;shape=stencil(nZBLDoAgDERP0z3SIyjew0SURgSD+Lu9kMZoXLhwN9O+tukAlrNpJg1SzDH4QW/URgNYgZTkjA4UkwJUgGXng+6DX1zLfmoymdXo17xh5zmRJ6Q42BWCfc2oJfdAr+Yv+AP9Cb7OJ3H/2JG1HNGz/84klThPVCc=);strokeColor=#6c8ebf;strokeWidth=4;points=[[0.5,1,0],[1,0.5,0],[0.5,0,0],[0,0.5,0],[0.5,0.5,0]];labelBackgroundColor=none;rounded=0;html=1;whiteSpace=wrap;" parent="1" vertex="1">
          <mxGeometry x="98.43" y="278" width="152" height="79" as="geometry" />
        </mxCell>
        <mxCell id="MhEgrTpF8DCzF2hVE9Hj-9" value="&lt;div style=&quot;font-size: 1px&quot;&gt;&lt;font style=&quot;font-size:14.11px;font-family:Calibri;color:#000000;direction:ltr;letter-spacing:0px;line-height:120%;opacity:1&quot;&gt;&lt;b&gt;Patient&lt;br&gt;Provider&lt;/b&gt;&lt;br&gt;&lt;/font&gt;&lt;/div&gt;" style="verticalAlign=middle;align=center;vsdxID=124;fillColor=#dae8fc;shape=stencil(nZBLDoAgDERP0z3SIyjew0SURgSD+Lu9kMZoXLhwN9O+tukAlrNpJg1SzDH4QW/URgNYgZTkjA4UkwJUgGXng+6DX1zLfmoymdXo17xh5zmRJ6Q42BWCfc2oJfdAr+Yv+AP9Cb7OJ3H/2JG1HNGz/84klThPVCc=);strokeColor=#6c8ebf;strokeWidth=4;points=[[0.5,1,0],[1,0.5,0],[0.5,0,0],[0,0.5,0],[0.5,0.5,0]];labelBackgroundColor=none;rounded=0;html=1;whiteSpace=wrap;" parent="1" vertex="1">
          <mxGeometry x="306.43" y="278" width="152" height="79" as="geometry" />
        </mxCell>
        <mxCell id="MhEgrTpF8DCzF2hVE9Hj-10" value="&lt;div style=&quot;font-size: 1px&quot;&gt;&lt;font style=&quot;font-size:14.11px;font-family:Calibri;color:#000000;direction:ltr;letter-spacing:0px;line-height:120%;opacity:1&quot;&gt;&lt;b&gt;&lt;a href=&quot;StructureDefinition-SDOHCC-Goal.html&quot;&gt;Goal&lt;/a&gt;&lt;/b&gt;&lt;br&gt;&lt;/font&gt;&lt;/div&gt;" style="verticalAlign=middle;align=center;vsdxID=125;fillColor=#dae8fc;shape=stencil(nZBLDoAgDERP0z3SIyjew0SURgSD+Lu9kMZoXLhwN9O+tukAlrNpJg1SzDH4QW/URgNYgZTkjA4UkwJUgGXng+6DX1zLfmoymdXo17xh5zmRJ6Q42BWCfc2oJfdAr+Yv+AP9Cb7OJ3H/2JG1HNGz/84klThPVCc=);strokeColor=#6c8ebf;strokeWidth=4;points=[[0.5,1,0],[1,0.5,0],[0.5,0,0],[0,0.5,0],[0.5,0.5,0]];labelBackgroundColor=none;rounded=0;html=1;whiteSpace=wrap;" parent="1" vertex="1">
          <mxGeometry x="537.4300000000001" y="278" width="152.57" height="79" as="geometry" />
        </mxCell>
        <mxCell id="MhEgrTpF8DCzF2hVE9Hj-11" value="&lt;div style=&quot;font-size: 1px&quot;&gt;&lt;font style=&quot;font-size:14.11px;font-family:Calibri;color:#000000;direction:ltr;letter-spacing:0px;line-height:120%;opacity:1&quot;&gt;&lt;b&gt;Intervention&lt;/b&gt;&lt;br&gt;&lt;/font&gt;&lt;/div&gt;" style="verticalAlign=middle;align=center;vsdxID=126;fillColor=#dae8fc;shape=stencil(nZBLDoAgDERP0z3SIyjew0SURgSD+Lu9kMZoXLhwN9O+tukAlrNpJg1SzDH4QW/URgNYgZTkjA4UkwJUgGXng+6DX1zLfmoymdXo17xh5zmRJ6Q42BWCfc2oJfdAr+Yv+AP9Cb7OJ3H/2JG1HNGz/84klThPVCc=);strokeColor=#6c8ebf;strokeWidth=4;points=[[0.5,1,0],[1,0.5,0],[0.5,0,0],[0,0.5,0],[0.5,0.5,0]];labelBackgroundColor=none;rounded=0;html=1;whiteSpace=wrap;" parent="1" vertex="1">
          <mxGeometry x="98.43" y="400" width="152" height="90" as="geometry" />
        </mxCell>
        <mxCell id="MhEgrTpF8DCzF2hVE9Hj-12" value="&lt;div style=&quot;font-size: 1px&quot;&gt;&lt;font style=&quot;font-size:14.11px;font-family:Calibri;color:#000000;direction:ltr;letter-spacing:0px;line-height:120%;opacity:1&quot;&gt;&lt;b&gt;Patient&lt;br&gt;Provider&lt;br&gt;Coordination Platform&lt;br&gt;CBO(s)&lt;/b&gt;&lt;br&gt;&lt;/font&gt;&lt;/div&gt;" style="verticalAlign=middle;align=center;vsdxID=127;fillColor=#dae8fc;shape=stencil(nZBLDoAgDERP0z3SIyjew0SURgSD+Lu9kMZoXLhwN9O+tukAlrNpJg1SzDH4QW/URgNYgZTkjA4UkwJUgGXng+6DX1zLfmoymdXo17xh5zmRJ6Q42BWCfc2oJfdAr+Yv+AP9Cb7OJ3H/2JG1HNGz/84klThPVCc=);strokeColor=#6c8ebf;strokeWidth=4;points=[[0.5,1,0],[1,0.5,0],[0.5,0,0],[0,0.5,0],[0.5,0.5,0]];labelBackgroundColor=none;rounded=0;html=1;whiteSpace=wrap;" parent="1" vertex="1">
          <mxGeometry x="306.43" y="400" width="152" height="140" as="geometry" />
        </mxCell>
        <mxCell id="MhEgrTpF8DCzF2hVE9Hj-13" value="&lt;div style=&quot;font-size: 1px&quot;&gt;&lt;br&gt;&lt;/div&gt;&lt;div style=&quot;font-size: 1px&quot;&gt;&lt;font style=&quot;font-size:14.11px;font-family:Calibri;color:#000000;direction:ltr;letter-spacing:0px;line-height:120%;opacity:1&quot;&gt;&lt;a style=&quot;background-color: initial; font-family: Helvetica; font-size: 12px;&quot; href=&quot;StructureDefinition-SDOHCC-TaskForPatient.html&quot;&gt;&lt;b&gt;Patient Task&lt;/b&gt;&lt;/a&gt;&lt;b&gt;&amp;nbsp;&lt;/b&gt;&lt;/font&gt;&lt;/div&gt;&lt;div style=&quot;font-size: 1px&quot;&gt;&lt;font style=&quot;font-size:14.11px;font-family:Calibri;color:#000000;direction:ltr;letter-spacing:0px;line-height:120%;opacity:1&quot;&gt;&lt;b&gt;&lt;a href=&quot;StructureDefinition-SDOHCC-TaskForReferralManagement.html&quot;&gt;Referral Task&lt;/a&gt;&lt;br&gt;&lt;a href=&quot;StructureDefinition-SDOHCC-ServiceRequest.html&quot;&gt;ServiceRequest&lt;/a&gt;&lt;br&gt;&lt;a href=&quot;StructureDefinition-SDOHCC-Consent.html&quot;&gt;Consent&lt;/a&gt;&lt;br&gt;&lt;a href=&quot;StructureDefinition-SDOHCC-Procedure.html&quot;&gt;Procedure&lt;/a&gt;&lt;/b&gt;&lt;br&gt;&lt;/font&gt;&lt;/div&gt;" style="verticalAlign=middle;align=center;vsdxID=128;fillColor=#dae8fc;shape=stencil(nZBLDoAgDERP0z3SIyjew0SURgSD+Lu9kMZoXLhwN9O+tukAlrNpJg1SzDH4QW/URgNYgZTkjA4UkwJUgGXng+6DX1zLfmoymdXo17xh5zmRJ6Q42BWCfc2oJfdAr+Yv+AP9Cb7OJ3H/2JG1HNGz/84klThPVCc=);strokeColor=#6c8ebf;strokeWidth=4;points=[[0.5,1,0],[1,0.5,0],[0.5,0,0],[0,0.5,0],[0.5,0.5,0]];labelBackgroundColor=none;rounded=0;html=1;whiteSpace=wrap;" parent="1" vertex="1">
          <mxGeometry x="530" y="402.75" width="152" height="90" as="geometry" />
        </mxCell>
        <mxCell id="MhEgrTpF8DCzF2hVE9Hj-14" parent="1" vertex="1">
          <mxGeometry x="40.43000000000001" y="289" as="geometry" />
        </mxCell>
        <mxCell id="MhEgrTpF8DCzF2hVE9Hj-16" parent="1" vertex="1">
          <mxGeometry x="40.43000000000001" y="149" as="geometry" />
        </mxCell>
        <mxCell id="MhEgrTpF8DCzF2hVE9Hj-17" style="vsdxID=133;edgeStyle=none;startArrow=none;endArrow=block;startSize=5;endSize=5;strokeWidth=4;strokeColor=#000000;spacingTop=0;spacingBottom=0;spacingLeft=0;spacingRight=0;verticalAlign=middle;html=1;labelBackgroundColor=#ffffff;rounded=0;entryX=0;entryY=0.504950495049505;entryDx=0;entryDy=0;entryPerimeter=0;" parent="1" target="MhEgrTpF8DCzF2hVE9Hj-2" edge="1">
          <mxGeometry relative="1" as="geometry">
            <mxPoint x="-1" as="offset" />
            <Array as="points" />
            <mxPoint x="40" y="193" as="sourcePoint" />
          </mxGeometry>
        </mxCell>
        <mxCell id="MhEgrTpF8DCzF2hVE9Hj-18" parent="1" vertex="1">
          <mxGeometry x="40.43000000000001" y="149" as="geometry" />
        </mxCell>
        <mxCell id="MhEgrTpF8DCzF2hVE9Hj-19" style="vsdxID=132;edgeStyle=none;startArrow=none;endArrow=none;startSize=5;endSize=5;strokeWidth=4;strokeColor=#000000;spacingTop=0;spacingBottom=0;spacingLeft=0;spacingRight=0;verticalAlign=middle;html=1;labelBackgroundColor=#ffffff;rounded=0;exitX=0.5;exitY=1.00990099009901;exitDx=0;exitDy=0;exitPerimeter=0;" parent="1" source="MhEgrTpF8DCzF2hVE9Hj-11" edge="1">
          <mxGeometry relative="1" as="geometry">
            <mxPoint as="offset" />
            <Array as="points">
              <mxPoint x="174" y="501" />
              <mxPoint x="40" y="500.66999999999996" />
            </Array>
            <mxPoint x="40" y="190" as="targetPoint" />
          </mxGeometry>
        </mxCell>
        <mxCell id="MhEgrTpF8DCzF2hVE9Hj-21" style="vsdxID=76;edgeStyle=none;startArrow=none;endArrow=block;startSize=5;endSize=5;strokeWidth=4;strokeColor=#000000;spacingTop=0;spacingBottom=0;spacingLeft=0;spacingRight=0;verticalAlign=middle;html=1;labelBackgroundColor=#ffffff;rounded=0;exitX=0.5;exitY=1.00990099009901;exitDx=0;exitDy=0;exitPerimeter=0;entryX=0.5;entryY=0;entryDx=0;entryDy=0;entryPerimeter=0;" parent="1" source="MhEgrTpF8DCzF2hVE9Hj-2" target="MhEgrTpF8DCzF2hVE9Hj-8" edge="1">
          <mxGeometry relative="1" as="geometry">
            <mxPoint x="-13" y="-1" as="offset" />
            <Array as="points" />
          </mxGeometry>
        </mxCell>
        <mxCell id="MhEgrTpF8DCzF2hVE9Hj-23" style="vsdxID=76;edgeStyle=none;startArrow=none;endArrow=block;startSize=5;endSize=5;strokeWidth=4;strokeColor=#000000;spacingTop=0;spacingBottom=0;spacingLeft=0;spacingRight=0;verticalAlign=middle;html=1;labelBackgroundColor=#ffffff;rounded=0;exitX=0.5;exitY=1.00990099009901;exitDx=0;exitDy=0;exitPerimeter=0;entryX=0.5;entryY=0;entryDx=0;entryDy=0;entryPerimeter=0;" parent="1" edge="1">
          <mxGeometry relative="1" as="geometry">
            <mxPoint x="-13" y="-1" as="offset" />
            <Array as="points" />
            <mxPoint x="173.93000000000006" y="357.001287128713" as="sourcePoint" />
            <mxPoint x="173.93000000000006" y="397.13" as="targetPoint" />
          </mxGeometry>
        </mxCell>
        <mxCell id="cFj89fqnj5NargIZEi_Q-1" value="" style="shape=image;aspect=fixed;image=data:image/png,iVBORw0KGgoAAAANSUhEUgAAAmoAAAJqCAYAAACb0mx/AAAAAXNSR0IArs4c6QAAAERlWElmTU0AKgAAAAgAAYdpAAQAAAABAAAAGgAAAAAAA6ABAAMAAAABAAEAAKACAAQAAAABAAACaqADAAQAAAABAAACagAAAACZs1I+AABAAElEQVR4AeydCbQVxZ3/W8UNEUFccMOHioALKouCqCCKGyq474oxiTPZJzOZ7cycM/8zOWcmmUkymWSyGzVGo8bduG/gAiqKgGyu4BJ3FEVx1//3U9L4eHldXXVv33v73vurc+rd+7qru6u/XbfrW781SawYAoaAIWAIGAKGgCFgCJQSgbVK2SvrlCFgCLQrAuvpxjdQ7aG6Tpcaso02lI9UP+5Uu/7Pvqxt72nfB6pWDAFDwBBoOAJG1Br+CKwDhkDLIgDh6rmqbpjxnf2d90HOylAgcitX1Xc7fWdb5/87f4fgWTEEDAFDoFAEjKgVCqedzBBoGwSQXG2i2qdT7dvpOwRsbdV2Kp/oZiFyy1fVNzp9Z9ubqkjxrBgChoAhEIyAEbVgqKyhIdBWCECyfERsY+2390fckPhUzVeo+ogcZM+KIWAIGAKrEbAX7Woo7Ish0LYIIBXbslPdQt/7qbabREy33NACSVum+orqy50qxM6KIWAItCkCRtTa9MHbbbclAtiMQcJSUpZ+X78t0Wiem35fXYW4dSZwfDebuOZ5htZTQ6BiBIyoVQydHWgIlBoB7MW2UU3JGOQMyZmV1kEASVsqeYO4/VkVuzgrhoAh0EIIGFFroYdpt9K2COAp2V91O9UBq2ovfVppPwTe1i0/u6o+p8+XVPFgtWIIGAJNioARtSZ9cNbttkYAFSakLCVmSM7WbSZENtlkkw369OnTU589N9poow1V+ey5wQYbbKjac5111umx9tprr0Pt/L3z/2uttZbbv6pdj/R/cPjkk08+/vTTTz/W50d87/T/xyqrt7G98/98f++991aqvvvOO++sXFXfffPNN1cuX758pT6bTd34oeBA0gZ5g7hRm+0e1GUrhkD7ImBErX2fvd158yCAGhNJWUrMNtf30v12N9tss4369+/fR5/iYH02gXBtuOGGPddff/2e66233oaqfPbs0aPHhiJVpet/yHAQ+fv0o48+eveDDz5Yuaq++/7776989913IXeQuTdfe+215S+99NJyfb4Tcs46t8Hz9FXVlLjxaerSOj8Eu5whEINAU74sY27Q2hoCTYhAT/V5R9VBqjuolkKN2bdv3w232morR8T0vU/v3r379urVq48kYX1EyvpI8tVUUj3hWtMi6dyHIm/LJZVb/vbbby9/66233lCBwC1/8cUXl+s7wXLLUFCXPq36hOpTqitVrRgChkBJEDCiVpIHYd1oawTW1t1vrbqTKuSM7w35bfbs2XPdHXbYYYttt912y379+m2+8cYb99W2PpKM9ZEkzLxD9WCKKpLMvS9J3PKVK1cuX7FixRvLli179fnnn3/56aeffkXbUFk2oiBxe0EV0vbkqu+EDbFiCBgCDUKgIZNBg+7VLmsIlAmBjdQZiBkV6RlStLqW7bffflPVLSmSkG0he7EtRcj6Nqtasq7g1fBiqFdF4N6QPdzLkrq98rLKM888Q329hpfNOjXSNaRskDZqGdW56pYVQ6B1ETCi1rrP1u6sXAggNdtGFYkZ5AypWV0KKktJybaU2nIL2Y9tKfuxLaWy3MJUlXWBv7CLoEqVCvUV2cG9LPXpy1KfviLpG2SunipUpG0QNiRuf1Y1aZtAsGII1BIBI2q1RNfO3e4IYLMFKdt11SfemjUt8oBca8iQIf1FzLYTMRsg9eV2MubvXdOL2skbioCcGd6S2vQ5EbdnRdyeW7x48UvyZkWFWeuC9yikbcGqz0apa2t9n3Z+Q6ChCBhRayj8dvEWRKCH7glVJuRsiOp6qjUrsiFbf5dddtl2wIAB20mDOUDSsm0kKavpNWt2MzoxzqBSvyYil4nuY40qGznv/7SnDUX2X4kkUGvUrtu6/k97kZ5EasdE2kd3nmb8o/v4QFK3P0tj+qzKcwsXLnxeNnBkN6hl+UAnX6wKaUNV+pGqFUPAECgAASNqBYBop2h7BNYRAnhnpuSsZpKzbbbZZpPBgwcP0Od2m2+++QBUmGW1KZN0L5EjgquQr+6+s63zPnmPOrLWyBEFSZO3ZiKDflchbul3Pjv/3/m7pFiN7HbmtbF5Q2X66quvPvvnP//5uccee4zPNzMPqH4HkraUtOFN+nH1p7QzGALti4ARtfZ99nbn1SGAzdlAVcjZUNUNVQsvELNhw4btJC/MgVJjDpCkaePCL1LhCZFgSYK3usoWbvV3totEVnjm5jxMZCiRJGt1le3Y6u9sR2JXliLJ4QqpS5+Vl+mSefPmPVlD4ob93CJVJG1LVMvJZtUxK4ZAWREwolbWJ2P9KiMCkLPtVXdThZwV7qmpgLDr7LnnntvvpLL11lvvpBhlm+s6DSsQrpSApZ8pOZPateHSr4YBE3lhpHRSP65B3FIil35GnrLQ5or19uoLL7zwJGXOnDnPKJhvLVglHqSQtvmqz6gaaRMIVgyBPASMqOUhZPsNgSTpJxCGq+6hWriYSNKyPnvssccg2ZntJKnZQEmqcEKoa0HlKBs3V7fYYovVn9iKWak9AtjGvfLKK4nsylZ/8h0VbL2LJH8fStq2RPZtT86dO/cJSd1I/l50IcjuXNXZqsuKPrmdzxBoJQSMqLXS07R7KRIBrNJ3UYWgdagWVpCa7bXXXh2rpGaDZKcFEaxLwW5MITqSlIyl5Ewx1OpyfbtIHAKKpebIG6QtJXEKzUEu07gTVdFadnnLJG17AmnbI488srQG0ral6h6EbaGqOSEIBCuGQGcEjKh1RsO+GwJJsoVAGKE6TLUwu7NNN9205+jRo3dRgNmdJTXrqIfUDA9K5d5Mtttuu0S2bk5KBklLPSPtYTcnAnirQtYgbrItS5577rlEuUXr4qm6Stq2VMF3H7///vsXvv7666gziyrYs81TfVj1laJOaucxBJodASNqzf4Erf9FIEA4C5wCIGjbFnFCzkGg2X322WfojjvuuCvkTMQJG7eaFdSUUqM6YiY1qiNnprqsGdylOjGqU0ib1JWOuEld6UKN1LKTsrv7RCrSpU899dSCBx54YFHBgXefV98hbDghEPrDiiHQtggYUWvbR283LgTIDoBqc3fVQoyxpELcQORsiNSau0p6tUMtyRnqSggZEjM+UWei2rRiCKAaxeYtJW58okatVYG0Scr3tLSjkLbFulZRxnXEf3tUFdUoWRGsGAJth4ARtbZ75G1/w0jPcApAeta/CDQIOrv33nsP3nnnnSFnO4osEVet8AIRGzhw4Gpi1rt378KvYSdsXQTeeustR9wgbUuXLnVErhZ3K5L4sUjbU48//viCBx988LECg+2+pP4iZcMJwaRstXh4ds5SImBErZSPxTpVAwQ21jn3Vh2pWrXtmRwA1pXkTLFnB++mwLOQs89C4hfYcdSWSgWVDBo0KJGELjFiViC4dqoE4iYJWPLEE08kSj1VE1WpSNtHCrT7lILszpek7TE5JhSRZgpbtodUH1DFe9SKIdDSCBhRa+nHazcnBHAOGKOKc0DVkq6RI0cOVJyz4cqjOaQW5Azjf0gZFZUmQWWtGAK1RoBgvDglQNyoOCcUXSBtyke6WHHaZj/00EMEv622EOsN54OZquZ8UC2adnxpETCiVtpHYx2rEoGBOn5f1UFVngfbr15jx47dU5Kt4Up31Lfa83U+nvhlcjZYTc4IImvFEGg0AgTnTUmbnAUKj+em1FtvSJI3+7777psjW7oipGJPCLMZqkUQwEbDb9c3BNZAwIjaGnDYP02OAOInvDeRoG1V7b0onMZOCkQ7QrHGdi7SKUCq0mTo0KGOnOGlaQ4A1T4pO76WCOCYgBcpxG3RokWJVJmFXQ4nBIUZeVyBdR9WuI8nCzjxizoHEja8RWuRXaGALtopDIE4BIyoxeFlrcuJAEnQ8d4crVqVhb1Umr0lPdtLUq69JO0qLAos8ct23XVXV3EKsGIINCsCeJMuWLDAVeK5FVWUheFNSe8ekZTtEalI36ryvBx/vyreokV5oFbZJTvcEKgMASNqleFmR5UDAUgZ5AwPzvUr7ZIkWmuJnA3efffdR+C1KelZIb8LBbldTc6wPbNiCLQaAtiypaRNwW8LuT1J2T7Fa/TRRx99WKTtMUn0Pq3ixIT3wFMU0lYt+auiG3aoIVA5AoVMSJVf3o40BCpCAEOu/VTx4KzY2h7p2bhx40Yp5MWeSutUSA5PEpankjMlVa/o5uwgQ6AZEVCaqdWkbfnyYtKDKl3V20uWLJkzffr0WVVK2VCD4il6r+qKZsTX+ty+CBhRa99n34x3vpE6PVaVMBsVh8MYMmRIf0nQxiit0m5F2J4ReHaXXXZJdtttN5cNoBmBtT4bAkUiQJaE+fPnJwsXLiwk0C62bDrnfEnYZi5evLgal1RyiT6oep/qO0Xes53LEKgVAkbUaoWsnbdIBIh7hgfnPqoErK2o4BwwYsSIMWQMqOgEnQ5ad911HTFTcnUXRqMgbWmnK9hXQ6D5ERDBcmE/lMzdEbcPP6w+jBoZEB5++OGZVTofEDCXOGx4ihKXzYohUFoEjKiV9tFYx4QATgLYoOHFWZENmhKQrz1hwoRhsj8b06tXr6qt+KUuTUT2Ep0vsTyaeipWDIFABMhHKruzRCQrkRoz8KjsZm+//fYrOt/MO++8c54S1X+S3dK7Bxs2vESxYTOnAy9UtrNRCBhRaxTydl0fAkjNkJ4hRasoiwA5N0XQRkrNuU+19mcQMogZBA2iZsUQMASqQwCiBmGDuEHgqinYsUkd+oAI20NV5BhFqoZ0DSkb0jYrhkBpEDCiVppHYR0RAuuqjlLFUaCnanRRXLI+Bx544Jjtt99+T0X1r1hNyoXJDDB8+HDnHCCyF90XO8AQMAT8CIhkOQeE2bNnOxWpv7V/r7IrfPDMM8/Mueuuu2Yq7lul3gwrdRUcDmapVq+n9XfZ9hoCQQgYUQuCyRrVGAE8NwmxcYBqRd6XOAgccMAB+ysMxtBqwmso80CiILeOoFm8sxo/dTu9IdAJAeKzQdgU/DZR5oJOe+K+4nigsCGL77777nuqcDwgW8LdqoT2sMC5cY/AWheMgBG1ggG100UjsJOOOEx1s+gjdYByYm4uFeeBImhDqiFoZAhQknWXMUB2bZV0xY4xBAyBAhCQvZnLgKAk7i4jQqWnFGH7FMImlehdyqpQaToFIvrerFpE1oRKb8WOa3MEjKi1+QBo4O1DzA5R3bmSPij2Wb+DDjpovGKV7VopQcNTc/Dgwcm+++6bDBgwoJJu2DGGgCFQQwSeffbZZMaMGcljjz2W4EFaSYGwKcbbgjvuuGOaYrItq+QcOuZx1VtVIW5WDIG6ImBEra5w28WEAJ6c41RxFlhbNaqIUPU9+OCDx0kCtruIVvTxXAyJ2Z577pmMGTMm6devX9T1rbEhYAjUH4Fly5YlM2fOTObMmZMgcaukiK99Itu1R2+//fbpIoBvVHAOPEtxNpiuah6iFQBoh1SGgBG1ynCzo+IRgFSRj3OCarSjAFkEDj300HEiantWStA22mijZO+9905GjRqV9OwZ3YX4O7YjDAFDoFAEVq5cmcyaNSt58MEHk3feqSxeLYRNRG3OLbfcMr3CbAc4HNypSh5RyJsVQ6CmCBhRqym8dvJVCAzUJ3ZoW8YiIoP+XiJoB3R0dAxXTs6K0kWREB3p2bBhwxIC1VoxBAyB5kaAwLnz5s1zUrZKE8Mrh+jHS5cunS3CdrccGXAeiC0v6wDs15bEHmjtDYEYBIyoxaBlbWMR2FQHTFQdGn3gppv2POyww/bbcccdR4mgVWTdrxAdzv5s5513TrBHs2IIGAKthYCkY8njjz/u7NgUmqOimxNh++ipp56adfPNN9+rxPJIy2LLIh2A/Vol6tTYa1n7NkTAZq82fOh1uGWyCOyvSkaBKCnYBhts0OPII48cq3AbYxUHrSLxF8RMydYt72YdHrRdwhAoCwLkF1XydkfcKumT4rB9qHAe9/3pT3+677333os1hCOEBxkO7lGtLoJvJZ23Y1oaASNqLf14G3JzQ3TVSaobx15dgWp3U4iMicoE0Dv2WNpL+pboHAmhNqwYAoZAeyIgh4FEQW8TSckqAkCZEt5SaJDbdI75FZxghY65QXVxBcfaIYZAtwgYUesWFttYAQIEqj1CdZfYY3fdddet5cl5WJ8+fbaLPZb2sl9zBA1VpxVDwBAwBEAAVSiETXZoFQGyfPny5+QhevOCBQteqOAEC3XMjaqV2L5VcDk7pJURMKLWyk+3fveGNycx0Qi9EVxwFJg0adJBStW0h2zIosciKZ6QoO2www7B17SGhoAh0F4IPP30046wPffcc9E3Lhu4T3Xc3BtuuOGOChwOCOGB7RreoVYMgYoRiJ4cK76SHdiKCOAscJTqwJibU97MdUTQxkiStn8l+TgV5NYRtEGDBsVc1toaAoZAGyPwxBNPOMKm4LfRKJBHVJK1e0TYZio/KfZoMQWv0OtVX485yNoaAikCRtRSJOwzBgEcBHAUGK8a5ZGpfJxDR48efYhyavbRsVFlyy23dARNjgZRx1ljQ8AQMARSBOQw4Ajbyy8TXSOuKAfp8vvvv/9W5RHF0zOm4JwwTXWGqsVeEwhWwhEwohaOlbX8DIGt9XG0av8YQJSqactDDjnksE033bQj5jjaEgcNFecuu+xiYTZiwbP2hoAh8BcIENZj4cKFjrBVEodNYTyW3nrrrTcrtVUs23tJnblONV6s9xd3YRvaBQEjau3ypKu/T0JljFfdVzV43Gy88cbrH3PMMQfL4H9ErB2apG7J+PHjk5EjRyZSkeqyVgwBQ8AQKA4BqTSThx56KJk2bVoiaVnUibFfk6PCw1dfffXtK1asiAnJ8akuhGRtmuqHqlYMAS8CwROu9yy2s9URwFofW7S+MTe6//77Dxk7duwRCrcRFapDAW4dOYOkWaqnGMStrSFgCFSCAKmpIGuQNgXAjTqFwnmsuO+++2685557YkNyECAX27Wnoy5ojdsOASNqbffIo24YKdpE1b1jjsKbc8qUKUcoP2d0RgJioSllVKJzxFzS2hoChoAhUDUC8uxMlFKqohhsyhu66JprrrmxAu/QB9Xx21RNulb1E2zNExhRa83nWsRdYYN2nOrmMSdT2qfhI0aMmNijR4+oUB39+vVLZMOWyJYt5nLW1hAwBAyBwhGQ7VkiG7Rk2bJlUef+6KOP3nv44YdvUzqq2JAcr+pCV6piw2bFEFgDASNqa8Bh/wgBxsRo1YNVgw3DFGx206NV5CwQFXVWalGX7kkZCcwOTYBbMQQMgXIggP2aMhS4tFRSb0Z1Ss4Gz1ynoqC7MSE5CPtxu+r9qtixWTEEHAJG1GwgdEYAW7Ipqjt23uj7LnuytSZPnjx2t912GxeTPJ34tsOHD08mTJiQbLTRRr5L2D5DwBAwBBqGwDvvvJPceeedyezZsxO8RUMLyd7nz58//dprr71P38MPTBJyX12juiL0WtautREwotbazzfm7oaoMWE3eoYeROon2ZMdLc/OLUOPoZ08QBOpSJP+/aMifMRcwtoaAoaAIVAoAi+99FIilWZ0Sip5hL4su7frIlNRrVTnCeMR66BQ6D3bycqBgBG1cjyHRvZiPV38UNURoZ3YYIMNehx77LETdtppp30kGVs79DjCbWCHttdee4UeYu0MAUPAECgVAo888oizX4sJ5yFJ3CdPPvnkA1ddddWd7733HsFvQ8vDaniL6gehB1i71kPAiFrrPdOYOyJ4LQ4D/UIP2mOPPbaTFO0Yka6oUB2SviWHH3540qsXudutGAKGgCHQvAi8/fbbyU033ZRIShZ1EyJ3b0i6dvXcuXOfizgQjwYcDV6IOMaathACRtRa6GFG3ApSMALXTlANkohhi3bccceNGzp06P4xUrTevXsnyutp3pwRD8eaGgKGQHMggHeo8n8mb731VnCHka4tWrToniuvvHJ6hO0awd3uVJ2hGhfoLbhn1rCsCBhRK+uTqV2/cBhAitYReoltt922j0jacX369Nk29BjajRo1Kjn44IMTPDutGAKGgCHQigjgEXr77bcns2bNirq95cuXPy+yduXzzz+/POLApWqLdG1FxDHWtMkRMKLW5A8wsvuEzjhBNVj/KKK1h0JnHK64aMFsi9ycitSRDBgwILJ71twQMAQMgeZE4Nlnn00UkSOJyR2quGvvKwTITSJ6cyPu+m21/aPqMxHHWNMmRsCIWhM/vMiuExvtENUgVecmm2yywYknnnjk1ltvvWvodcjHud9++yVKHZWI2IUeZu0MAUPAEGgJBES8EqWSSu69996EOGyh5YUXXlhw+eWX/+nNN998L/AY1J+3qhJzzUqLI2BErcUfsG4Pr86jVHcPvVXFN9t+4sSJx8i7c5PQY6QedVI0S/0Uipi1MwQMgVZFgFRUSNek1gy+RXmDvnnbbbddrXhtMZKyR3WB61XNKzQY6eZraESt+Z5ZTI83VeOTVIPinEkKtvbxxx9/4M477zxWDgNBYwPJGXZoe++9d0IydSuGgCFgCBgCsvhXcvcHH3zQ2a8haQspcjT49PHHH7/viiuuuEvHhDoNvKxzX6YakwUhpDvWpiQIBE3GJemrdSMOgZ3V/FjVDUIOIwXUMcccc5xUnoTsCCpbbrllIh8DS6AehJY1MgQMgXZEAOmafAaSl1+GT4UVqUBfuPrqq6+MSEGFyvQq1cfDrmCtmgmB4FyOzXRTbd5XyPeBqqg7gwzFFBdtL8U4O1mx0fqEYjd69OjkhBNOSJSVIPQQa2cIGAKGQNshQIo8gnx/8MEHwapQmZ1svPvuu++ld/I7Tz311EsBoPGux7yF9/8zAe2tSRMhYEStiR5WQFc3VJsTVYcHtE3WW2+9dc4444wjladzvNSWQWOBgLVyMjBVZwjA1sYQMAQMASGAWYgyuSTY8j799NOOtOUBwztZ7QcPHDiw98KFC5+Sc0JIvtAOnXcb1SdVw/Stamil3AgETc7lvgXr3SoE+uvzLFV+pLllq6226n322WefIfUlKtKgMnjw4OT000+3HJ1BaFkjQ8AQMATWRGDTTTdNlN0lWbZsmatr7u3+P8Wv3GrYsGE7SQ36pDIivN99qzW29tN/eOsjWSOUh5UmR8CIWpM/wFXdH6bPU1Q3CrmdkSNHDpTTwJk9e/bE2SC3rLvuuskRRxyRSEWKFC63vTUwBAwBQ8AQ6B4B3qFSa7p0ekuWLHFOB923/HwrqlCRtT2UgupFhfIICZCLdmVPVdqGG8d9fkn7ViIEjKiV6GFU2BXs0Q5XDXK5nDJlyljFOpusmGdBjEuSt0TqUSe2r7B/dpghYAgYAoZAFwQUozLZZZddkueeey4hd2he0Tt73UGDBu3et2/fjxcvXvxcXnvtZ04Yqord2lJVK02KgBG1Jn1w6jbGo5NV9wm5BRm0ridV53Gyk9gnJPQG0TnGjh3rvDotkXoIwtbGEDAEDIE4BKTVcI4GBMcNibnGu7t///47yAxlS5G1Jz788MOQqLod6lVfVezWQkN+qKmVsiBgRK0sTyKuH4i1T1UdEnLYDjvssNmZKrKPIIVUboGYnXLKKcmIESMsNlouWtbAEDAEDIHKEcDRYMcdd0wUIimRh2eQo4G87TeXrdvQl156ackbb7yxMuDq2DCT0+8xVXMyCACsTE2MqJXpaYT1hZURTgNB8c4OOOCAoZMmTTpVNg69Q05Pfk5xuoQYaVYMAUPAEDAE6oOAVJrOdu3Pf/5zojhquReVrVvPXXfddQ8J2ZbJ0eC13AOShPBLLO6fUA1NVRVwWmtSawSMqNUa4WLPj0cnJI0fnLdolbbWSSeddLAcBw7X96B4akq+7lSdInXec9tOQ8AQMAQMgeIRWH/99RM5DSTvv/9+AmHLK7zbFb5jV9kSr6sQHkuU2CDvkJ5qQLw1PEJX5DW2/eVAwIhaOZ5DSC8wCsWzM5dFkVD9nHPOOUXSsT1CToxXp5wMXEJ1xPBWDAFDwBAwBBqDAO9gOQ0khPJ48skng7xCN9tsswGSrm2n9FOPi+TlqTZxJCNSAFK4EElcY4Cwq65GwIjaaihK/WWMene0au7zUoDEPmepKPZOUDw1xO14dWIjYcUQMAQMAUOgHAhgfqK8y85uTQnbczslx4S+Cvsx5Nlnn33irbfeyjuAuYRYax+oPp97cmvQUARyJ/6G9s4ujniL0BvjVHGx9hZlGNhGaZ3OCk0FxaqNALaQNSuGgCFgCBgC5UIAxy4C5JIv9PXXX8/tHHZrmgd2X758+TM6Jk+1yZyykyrq0KdUc/WmamOlAQjkTv4N6JNd8jMEEE8fpzo4BJD9999/yLhx444l1k5I+/HjxydqnxCGw4ohUAYEUvsaPtPvab86b+P7J598khDSIK2d/+c7hbGNGqlHjx7uO5/8r9+I25a26fwbSL93/ky/u5PaH0OgAQgw5qdPn55MmzYt6Or6XXyo9lfdc889i4MO+Mwb9Eq1RcJmpWQI2CxdsgeyqjuscE5XDfLsPProo0fvueeeh2hCyX2eOAoce+yxTqRezlu3XrU6Ainp4pOSki0MqNNKAmvqRx995D75rphR7jtErOt+tnEs2zsTNcgZBtoQND75H5vMdBvfiRRP5XvaPt1OO34z/M850p9Y+j39v9Wfmd1fORCQCVpy1VVXJSGqUP2+Pp0zZ86t11133f2BvX9B7X6vGhLuI/CU1qwIBHIn9iIuYueIQmBjtT5TdfO8ozRZrHXaaacdpjhpe+e1ZT82D/IEdUaqIe2tjSFQDQIQJsgYZIvvKdFauXJl8s4777ho7ERk53/CEbz22mtOvYOKRzY2q+uKFSvcftrwnfYpyaumf5AzBYJO5HyTyKbTpfThu2JUuYoxN9u32GILt4+2aUUlxXc+OU8qrYPA8d2KIVArBPh9XHbZZcnLL78cdAklgX/w4osvvlm/wRDV5qs66e9U89SmQde2RsUgYEStGByLOgthNyBpuTk4ZTi6rnwGjtcksnPIxUlVgmcnk4oVQ6BoBJCKQchS6RikDLJF8mkIGJ8QLdnOOHsbBepMOlfappKwovtWxPmQnEHaFBV+dSW9Gv9j40mF2KWfEDikcamalU+TvhXxJOwcIIDk+JprrkkUkiMIENmrPX7hhRdeoUXOhwEHYAwHWSNPqJUSIGBErQQPYVUX+ukTkrZJXpdEznpJknZq7969t8pry/599903mThxok0UIWBZmyAEUmLGhKFE0Y58QchSUqZo6S4lztKlS12IAQXkDFLXBF28hI0gaR0dHa4SNHqbbbZxkjiFTUj69evnpNn6vToVKoslqhG3Ej7IJuoSUuXbbrstmTFjRlCvtRh6UZK1S0Ta8hOLJgkRdyFry4JObo1qioARtZrCG3zyLdQSktYr7wjl6tz8uOOOO012M7mEjongiCOOSEaNGpV3WttvCHgRgJildmEQMyRkBOQkPyF10aJFLrm0QgM4SRkStXYvkDcSbytkTiLzBEfiMD+AxLGN/di/QdqQvlkxBCpBYNasWcmNN94YZA4g27Y3r7zyyosVnw0VZ16B0EHWXslraPtri4ARtdriG3J2HAbOUCV/p7coy8DAQw899CTZwOS+1Xn5H3/88eY04EXUdmYhgBoSQoa6EjsyJGUvvviiqxA0JGVUchNC2sqstsy6x0Zsh6R1SPIGcSNGFupTKttRl6b2cQqx04ju2TWbFAGcDK644gq3mMq7BZkovH/LLbdc9tBDDy3Ja6v976pepIqjgZUGIWBErUHAr7rsAH2epppLvMjZqXAax8lYOTf2HS/7U0891U0Ajb09u3ozIYCNGYb62JFBvp544olk9uzZzg7mueeec9sgbBA4K8UggE1bqh7dbrvtEnlvuxRCSgu02skBpwVTkxaDdyufhYXUJZdc4hxu8u5TC6uPFb7jyrvvvntRXlvtf1/1YtVnA9pakxogYEStBqAGnnIHtSMlVG7cs4MOOmjY2LFjJ+tlvXbeuVGtQNLwXrNiCOQhgDoTQ35syvAiQ4WplXayePFiJz1jG56WRXhZ5vWl3fdDxiBtVCRsClyaSIqeDBkyJNl8882dowJSNyNt7T5Ssu8fCThkLcQjVL/pT+67775r77jjjnnZZ1y9B1uGP6g+vXqLfakbAkbU6gb1GhcarP9OVM2VjsnGTO/qkUfo5Zz7rEgDdeKJJ5q9yxpQ2z9dEUByBjlDOoZN2cMPP5w88MADzugf13+qSc26olb//5GM42nK4muvvfZyTkHK5+iIHPZtOCcEvBbq33G7YkMRIJ7g5Zdf7swS8joisvapFmYycbvxoby22v+x6uWqjwW0tSYFIpA7+Rd4LTvVZwjspo9jVXOlY5MnTx5DINsQ4IYPH55MmjTJhQMIaW9t2gsBnAGQjL366qvO+B+VpqKWO7UmhA07NHMAKO+YwGYNYkZMN1IK7bfffgm/ef6nmk1beZ9dI3rG7/2GG25wpgsh1ycw7rXXXjszoO0nanOV6vyAttakIASMqBUEZOBp9lS7yaq5uMsRYJxWz+NDzivVaKIUUiFNrU0bIYCBf+oIgGfmI4884siZXsqOsGGPhnTNSnMhkGZLwHN0zJgxCb//wYMHu5huhAIhi4JJ2prrmdaqtyzGpNoMOv2CBQumySFhekBjAudeqzonoK01KQCBXMJQwDXsFJ8hgCSN3J25mJ9yyikT5RG2bx5wREE/5phjkt133z2vqe1vEwQgZ5AvbM7wypw7d25y1113JQ8++KALm4FNmpGz1hkMaWiPQYMGJePHj0/kdJTgiLD99tu7zAmWJaF1nnWld/Loo48mV199dZBntrxHZ/zhD3+4LeBakDVyg5pkLQCsapvkkoZqL2DHOwSwSTtJNVfdeeaZZ07Si3ZkHm68gE844QS3ks5ra/tbGwEM/SFfSMiI9q+UMcn999+f3HTTTYlWyc7ejDatUNII/+knxDMmNEgaaBY8UlLbCrhwDyzccDbAAUGxFld7j2LPhhSO/VbaE4HHHnss+eMf/xi0SFuyZMlDv/vd724IQAo16GWqZrMWAFY1TYyoVYNe2LE7qBkhOLyOA3qJrjV16tTJctHfI++0qDYkdXOxmPLa2v7WRQCigeEwxv96uTpSdu+99yZyu3fBaGMITFlRQoUHKYNgQUJQ7UE88Izk/pAUKtJ6kFcq5xkxYoQLNotKGNywz0P6mAbzxbanFQoLOSTthxxyiLtnPEdRlRLqAyyttB8CLOAkLQuyRVU4nrkXXHDBtfqN5a3w+MEQusO8QWs4pIyo1RBcnXqA6hmq3hAceqmu/YUvfOE4Bb7cJa87rIyVPiohTY2V9kQAMoFXJo4BSMxmzpyZTJs2LZk3b56zSWsFVFKVHgb0aZBY7LBQ8eHdzCfSw6985Svu/kMIFuTlBz/4QXLyySe7WHFMXMSKI2gvRBdVMbGoSBivCO5RkroyY05oD8VgdA4IeI9C2sCVrAhW2gsBvLyVRsot8PLuXL+Fhb/97W+vlLQeyZmvELqDoLjP+hrZvsoRMKJWOXZ5R5Jx4CzV9X0NNSGtc84555wkz61Bvnbsw7PrjDPOcGlp8tra/tZDIFVvkhkAUqYYSM5QGLVGCFFpBkQY44SlIHI/oSggFbvssovzcIRwIBVLC/Z3EDVCi4TcP8d+73vfS7QocjHJ0vMgmYO04Qk7f/78BJsekl0jqcNTNuTc6bnK/Mn9k/f34IMPdp/gSsBdCJs5H5T5yRXbtxdeeCG56KKLgkLw6DfwxHnnnXeZJM55omaC4l6oahkMin1c7myfv/VqcPI2PiW5OyFp3iUrkrQvfvGLJ4eQNNQ+U6dOdZ5dbYxrW946BI1sAaSJuf3225364vzzz09uvfVWJ1VrBfszVHL9+/d3aropU6Ykp59+enL22Wc7j0akZ4z/rjZWBPUkBAHENQQDjp84caKLSdY5nAUkBXUqxHD8+PEu/EVHR4cjjJA0aqwtXBkHKhghUcETEEki+KE6h6hhTmHeomV8asX3iYUQ6csIbs249hX9LvtJkr2VPMUX5KhBe+g8aISeUH3Hd07bF4+AEbV4zPKO6KcGU1U38jXEJk2StOM1OQ3xtWMfWQYgaUgUrLQPAqjfmEyR8Nx8881OZfH73/8+wQ4Nu6p6FtSGEJoQQhTTLwgSpAhvRXLTIjHGEH7o0KG5scGKImqd+8s98jtDRUg6Jya0VJLHvfNMipawYc5Q9Dk731PX79wHKcFmzJjhJutnnnlmtSoMsmYStq6Itd7/LIwwJUAaD1n3FciaFkubK7zPopzfPyY+Q1VxLrA8cz5QI/cZUYsELKd5H+2fqto7px3SgimyvcmNq8FEBknj00p7IEDgWdRuGMrL+yr51a9+lVx11VUuDhqquHoVCARG+0TGJ0I+kr28l3po35goUG8iPfva176WnHXWWcmECROc7SVkIaTUgqh1vi4LJAij0re5ijE+EgjIGjaCqEyLKASs3Xrrrd2CDKkf18iZEIu4rLsGdn6kDMNLmAwV3FfPnj2dl6gRtkJgLu1JeM6MbyT1eZlIJIXbXL/XPiJri3NuCE8VhA+0ey+nre0ORMCIWiBQAc02Vpupqn3z2hKCQ3GOhue1YyUPSbO8nXlItcZ+pCokQycwLQa/v/71r50NGkbuRREkH1JIk1AJMu5wViHy/ZFHHukM0bk+Rvd5qhLf+dmHnZScZtw5v/nNbzrv5WHDhq0mKXnHd95fa6KWXgviCCZMaqNHj3aLJggzabiqxYNrIK086aSTEmUicbjzHJhEIW2Q9npI27gfHCqw+8NWj/uiD6icTSWajoTW+4SMY6v45JNPuvA+vjvUPNRf81YvjRHUm76Cyc/OqgtV/bpV31ls32oEjKithqKqLz119FTVzfLOQjDbnXbaaZ+8dkxmSBl4UVppbQSYiAkVgSG7IoMnP/vZz1wMtHoRNF7W2IdhC7bPPvskxx57bCLbSecdCWHDqxR7OPpYjaQHw3XswL785S+7SlR9tkFIKin1Impp3/BEhbCRLJ3Kc4OsEeqjGjIFKQJbsosQG/Goo45K9t57b+ftCnFOVaO0qwb/9D58n9wLhA0p2+LFix2x5vqQtlBJp+/8tq98CPB8Gc841PD8fUW/Vwl/t15P76qnfe20b0NVHOQWqOIVaqUKBIyoVQHeqkMR9Z6p2j/vVKSF0qp8/7x2KUnrbPCcd4ztbz4EUJ3hJICHIcEof/rTnybXXHNNAkHLU0VUc7dIbFLSQRR7pESS8joV5IknnujCOHTIbgzygOoVuzhUZJWSBCZ4xQd0BPDv//7vk8MOO8yRECRJ1ZR6E7W0rxBb1KCQKQguz5BaKZECV+K5QdRRB2Mfh/SOmG9gheoVqTrPrV6kjeDJEDYcD5CkpuFSUFlX+9xSHO2zPAjwG4Ws8azzyJpiGW7HgkXvrWdy7gA77YGqj6rmeY3mnKq9dxtRq+75Iwo4QZXB6C0kWJeK5yBvI+3kB4AkzUhaHlLNu5+JGTsnXorYnv34xz92kjQmRghapYTIh0hKzrA1g5yNGjXKGe1/9atfdeMN6RZ2Uql3JV6BP//5zx1Jg0RUWhjHEA7UnHKeceE2irJ9ahRRAwukgHjPISEksCykGzJLDLZKbddwEMFODJs1CBvkjGtACgmrcfjhh7tsA2yDOEGYIIdcrxZjhvNyP6jF7rzzTueAgGSNMQRhrFQSWulYsuNqiwDjCTUoNmsQdV/RGO3QOPhAzgjP+9ppHyZBREFADZoXPFdNrHSHgBG17lAJ33a4muZmEjjiiCNGarKirbekjgOm7vTC1LQ7mUyZWAmqiqQCCZoCSrpQCRC3oidbyBk2YYwnJntszlCrnXvuuU71SDLvzjkhaY8Kj4n5F7/4hbOTQ6pWSWESxxHhwAMPTP7pn/7JkQzGN9coqjSSqKX3kNrckbaJe4bUog7FtqySwrHYKCJVh6ylpBaJB0FqZTbh4qARCw3CzTb2Qaq4Zi1IG+dk4kbyS9YLSmf7NSNslTzpch7DWEKaizdonlRf0uQdJWF9R4u6vNhpmAShCs2zbSsnKCXolRG1yh/CGB06Lu9wTYbDpFo6ShOUd4Zi9WyOA3loNu9+PCbJJIDtD8Emf/KTn7iAtbWQoDFxInFB8kF4ifGKDUbYi69//etO/chkjwoLktF5WELSULvixIAzA44NlRRe9hBAMgB85zvfcao8JDBFlzIQNe4JDCHDkDWkYZBbaqUOIJA1Mk5ArrERhKylhWfLc+PZ7rHHHsmkSZMcAcfWD+kl+1kM8CwhWEUWFhL07e6773b2a4xp+sZYYrx1HktFXtfOVV8E+K0SuoM4a3ljWFL4QZLEvSFtwMs5vdxG+4kDkieByzlNe+42olbZcx+qw45W9ZIvxYYaqnqsXmBea2le8pA0C8FR2cMo81FMlkxu2B+h5kSKdv311zvJS9H9ZgJH0oHdFOpGJnGi8KNyRHXG5J41mTKxE0/rggsucEQSNV4lhYkbdSDXJWtAR0dHzVRkZSFqKU4QVO4dezwkUIRYqZSIowbFmB/CC2HLIroQM1TWxKFDQkq6LaRskKp0koVQFVk4N4FzUYcSbJg+sNDk2Zv9WpFIN+5cPEsWeUhRIf5ZRe+TtTTeB2tMvKr3R56NxI46zyuqee2yLte2242oxT96VganqHqxk6HxDnpxnqSXmLcdq2BIGrZpVloLAV5wkJ9bbrnFqRIvueQSZ6BdtKSDyRG7JVRlTNjHHHOMU28i0WJlnGfvyMT7/PPPO8eBCy+80NkiVfIkkKzgmPDXf/3XLuwGCdRrWcpG1NJ7hZziQQv5JV0PxtmVPHMksNgxcj4kaxBBXwF/7OXIvgBZRLqHpAvCVoswH9wfZHLWrFluMcL1U8KWtSDw9d/2lQsBFn1I31lk+sg+ZE0LiiFanDyn8b7ccxcINgar4jFav4CQng41yy4viWiWm6hjP4mRlpsaSoN786OPPvoMSTi8b1ZWyXjbIQGx0joIpFK0zvHQCCiaSjiKulMIWmq3dMghhySnnXaak2RhdI6NE5KOvAJJe/PNN520D5UnDg2VFKTC46Vi/da3vuU8FelXrUtZiRr3DUnCMBvCQhYAMK6ErCHZRGqFJyiLOaSmeYVxkaq8kfBxHIQtdXSo1H4u67pIjMm3ulRqc+4X20TebXnEMut8tr08CEC+WQBC1iDmWUXPfW21GyL728ek9vd5IjCACYi7SNUC4mYB2mV7/q++ywFt/C/GkJA0sg9kFr2ge5166qlT9WL0ppDiJUY+Q9QaVloDAUgP0hO8pkj5REaBa6+91jkPFHmHqCXIFoA7PdITCBqEnzhcPvVmd32gvxiIXyCVJ8SyEjKBNI8wEt/+9rddaA9W4vUoZSZq3D9kFcNsfuuoQamMkdiC8wnkiwkT84gQAs41aIdalPAeJLdHLYrEK33Glapls/qP9JhguamXMOMUAh9CLrPOadsbjwC/b1TwkLV07HTXK423Hlog7CzngvlaFGTrS5OEkFY7qRK2o1i9fHcda4FtRtTCHiIBn05V3drXXBPUukoNdaZWId7At7x0ReacSsN3PtvXPAiw2mRChaARsBYV4rx58wqVojHxIX0lKC0kn8CxxD3DiL0SCRaepuR7pL+QtUokLVwXD8T/9//+n5P6ILmpVyk7UQMHJBLkDEXChnE2DhqxZC1VMSKtgnCBOd9jSjpuCMOC/SKED5LOMy/S45hzEmKE9GcQUxYOXCvLxi7mHqxt4xCA4CNUwMnFR9Y0t20gc4uBevfN09jyebOwmkNKMV/V165xN12iKxtRC3sYk9UMcW1m0WqCJOsn6qXUkdlIO1jlMrliw2KlNRBAMoE7O8FhCWuR2uwUdXdIJJCgMclqIeBqGp4B8lZJweYEIonUDxu6vLhJ3V0DwoBEj1hsTP4sQOpZmoGogQcSNaRheGYSn64SsobanLApkB7IGnaHsWSNviDhIqwHtmwQfP7n2aekjTZFFAIAQ0yZ2LFV5N4hrZX0uYj+2DmqR4BnyHsIBwPfYkOkfGPNb1tKurrA1049Qju1ieri6nvX2mcwopb/fA9Uk9yUT5JwHK4Vx7C805GeB9sVK82PAC8hwjDcd999yS9/+cvk0ksvdd5wPluOmLuG1DMxY2eEBBYvygmrEpdXI6FgRYwtGjHcrrzySmc/FdMv2qIOwS6OPqFaq6ckLe1rsxA1+gtZY3HG88QAn3GTM4mlt7n6E0KFWh01FGSrmjEAaeI8hPgg+DGLDSrX8BmOr+5MwBekddjnoVLnO7ZySGbqTegDumpNAhHA/pAxDAn3FY2vfnJo2VCLwSd97bQPA23Ew0tVrWQgYEQtA5hVmyFeh/ubKE7H0UePFvkal9cO93leilaaHwEmHkIUXH755S7kxrRp0yoiPN0hgdQBaRX2TXhwfuMb33AJu5lYq5mcuRbkABsi4qQhAawkDAdSGCR6eHfut99+a8T56u5+arWtmYgaGEDWdtxxR/dskaxVQtaQVGG0j30iNmfV2n9B2PAQhWzj4YfkDm9lHA+KWnAQamTOnDnOAzqd6JEEm3StVr+M2p4XqRrjLs/xSBK4bUTM3w/IXtChHr+umheLrbY3VuKzG1HLfjgwfcJweF3nZMA9RCqpo/XS8RqNEBUeCYSV5kcALzekBEjRzj//fKfO8sUairljSBATJjHQSLt00kknuf8rVXV1vTYT8I033picd955Tl3bdX/e/xDF8fLu/NrXvuacF/JCf+Sdr5r9zUbUuFckjzxfiDjkZcWKFdGSNWy/GIPYviHdQPJaTeHVBWGjXxBwQoGk0jXGS6zkr7u+QAAJNYJ3KGMImz2kstX2vbtr2bbaI8CikTGIXa6vyDZyR0nwX9aiNi92GrZAj6v6s8L7LtbC+4yodf9wUw9Pr+emVrXbyNvtFL1svDiyij7uuOPspdQ91k2zFQkD5OCmm25KfvCDH7jAtUg4fMa1ITfHRMkEjoSEifJv/uZvXJgNbJHwoCxqMkOlhaE3zgP33ntv9ARMH1GVfelLX3Jeno0kaeDajESNfkNUIEWMHezOIEMxBeKERA41ovIHuzGSs04MOj1SEggbphlI/zk/tmtUFiLVEjZ+P9jnYSqAlA1VKHZPjVCbBwFijbwIMIYJHcOzzCoal2uJ+A+W9PhpLTB8sdNYbeyoOk/VPEG7AOolGF3atsu/SMZOVCWwbWaRPVqfE0444SypM7zW3IiJ8dBD7WGleRFAwoBtEemfyC6ANAT1Z7WFccGEhUp86tSpzjAfI+8iCRp9ZJIlfAKx0siMEBvTjX4SmwtnhsmTJztvvmrvvdrjm5Wocd8pWSOoLSokPC9jCosDjLqxe2PCLJLssDBA2qWg3S49FSQwdTiA7FdL2Bh7c+fOdf2HqKEORRVa1IIkBkdrWzkCPC8WkywafIsNtVtHY3SwVPYLJYXzDXQEJFuq4glqpRMCRtQ6gbHqK84Dw/9y8+dbtNLc4CwVSRS8MdV42amZW6V+frR9ayYEmJSQfBDGgvyc2HYh7q92suIlh/oLR4Hjjz/eqTmPPPJIp8oqQjrSFWPsof7whz84ogk5iCn0FXUYDg2nnHKKi80Vc3yt2jYzUQMTQleAK1IJSHSs+pzFA8cRDJd4aTynIgvjkLAe46XqJjQD5JBrMilX63DA7wdHAwJBcx3IGhI8czQo8gnW/lw8LxZwePf6xq+ktespbMdOaveoiLpPYtZPvTbngi6PzojamoDsrH+PWnPTmv/pZbjWF7/4xVP1UvFK3FjhEoSUF5CV5kQgJWlXX3118n//93/J7bff7l05ht4lYwMD7kMPPdQlSof8dHR0FD7Rpv1BgnHHHXckv/nNb5wUI90e8skkisQPMok0DTV+WUqzEzVwROIOGUIqwQIglgBhr8YESXgUiE4tSD6TMZIT0pPxPoP0Y58UKwXsbtxgozdz5kzniMO5yahhZK07pMq7DWkoXsiPPvqo1wFF772ekqxtLfOLR3MWuh262xdUl5X3ruvbMyNqn+O9qb6eruoNBiXj7oM1yXrDcPCyxAicyddKcyKA9IAJCYLz3e9+10Vcj51Eu945Eg8mUxxLIGcErCV4LWqwWhXsgljtEi+NJNqx94BzA1kH8PAk9laZSisQNfBEqoZ0lYkOj9ycSWyNR0BbVKcQPmzLKo2rt8ZJM/5BHc/YZZGBPRu/D8ha7JjqenqOJ+o9kkUWAjhI1PI30fX69n/1CKA9YgzyHH1FY6ivFiY91I58n76Cc8FC1Xd9jdplnxG1z570evo4Q9WrytSKcqjsh3LDdeCxh5GvleZEAAkFEg5suSA42NNUWzDSRkVAHk6M8Qm7gfNArQvhN37/+9+7XJ6ocGMKzgKEbSCg7b777lsTaU1Mf7q2bRWixn0hsYJUY3eGtCqGrDFen3/+eXcOFoeQqFoWgvficcrETJ8hazgcxPS5a/849umnn3ZSRcgmxJVaCwlh12vb/8UgQGBj3nO8O31FktMBet6vSG3v8wRFYNKhinNBdpJR7WyHUttfdPMgOEVd3cHXXb2cNpMN0WmSingxY0JDRWClORHA/ob0N3hGoiok40A1hUmTUAQEqoXwfOELX3Cek7WUfKT95V4gmwS2lSFv1ERKv5mMieFGWJkyOsO0ElHjmSGxxGgfqQS2YDEFzzvUoDiiMGEWba/WtS+QKNStOBygGufaJJ6v1sGGEB7YrSGtwy4OdWit76Xrvdn/lSPA4pOFA/aHviIp8iAtLhZr3PoSuPfSORCe+KPr+i7UIvu8pKNF7jHvNkarwVhfI60S1pO92ZkSx2/sa4fq4aijjrJVoA+kEu9jornrrruSH/7wh8mtt97qdTsPuQ1URQStxQj/3HPPdSmgMCCvR2HCfOihhxxJI6VV7ATKJIlNGpk0UGuUsbQaUYMMo/pDIkHYjhiVIqp6yBJjrsiQHXnPHTUlYxyJIJJApLYsEKqRrmG3hof1Cy+84GyfkNzVWkqYd5+2PxwBJK44LPmclhB4yF5tB2kr5urd5JOY4QWKp+jz4T1ovZbtTtS21yM9TnUt36PVhHWcXki0zSy8TE477TR7oWQiVN4dTCpIJEio/v3vf9+t6GMlGl3vjrADeMth23XyySe7XI9FhlDoer2u/6MKw8vzT3/6U3TGBKQlOA8od21d1LNd+x76f6sRNe4b7CHJypPoiBcELLQgycDGDbLHZFkvo3zsyTAmx34NdTkTNIQNtWilhXuBrJIyi3PjcFFGqW6l99fKx6GuxsyDZwdpzyo4F+jZbibnggVZbVZtR9u1VPXNVf+33Uc7EzXEBGeqei25p0yZMlbMfx/fyECNRRgODK+tNBcCqSTi2muvdSQNtVOMJKPr3ULGmGgJcEz0ftTgSNHqaWvDJHfbbbe5FFHY/cRIN5h0IZg4OiCZKbPaqRWJGuMpjdpPcOJYe7VUosW4q5UXaNcxz/+Mb1SujBmIFc+GxU9svL7O54booULDyQKHCzxCzcmgM0Ll/Y4ElAUD9r2+96mk9ZtrUfuRJKg+XSmCFJwLHlX9oLx3XbuetStRW1uQkh5qCx+0svcYqFyGk/US8krcTjzxRDc5+85l+8qHABMB+TqRPP33f/+3S3ETI8HoekcQdaQKkBxs0VAH1Xtiof/Yo11yySXOyxPSFloY5qyE6fvEiROddCT02Ea0a1WixiRHXDSkYzgXxITBSBcemGEwUdZTissYYNGKNI/fAWOPTASxZLPzWGKRgUMMpBWtBTZQSO1yXsmdT2HfG4QAz4lFB0TbV/RcOyR5e06qbp+3Ew5/W6viXPCp73ytuK9diRo2ad6gtlq99Zb650y9NBkgmQXpA0a1VpoLASYRbIEuuOAC5ziAPUylBakTqk6M2ZqJ/QAAQABJREFU7kn/hJ1io4ygse9BmvbHP/7ReQKG3hMTH/ZGqGmpvGDLXlqVqIE7kxxhMAitgho7Ro0IsaM96b4w9K+3VBSiCanC0YDfAQsHyJpPspI31iB8OPlABMEFu0kja3moNX4/UlYKYyCr6DmuJSnsIKm658t7+P2sdtqOge+Hqs962rTkrnYkarDy41QzpWRaha4ju7QzZJhLbLXMQvoWcx7IhKe0O/CswwaIdEokVWcSqLQwCTIpSUXugtdKAuukaI2YRJgIWb1yT+TyjJEO4lZ/xBFHOGkaUrV6T+6V4N/KRI3xA3FmAYD6iDEao8JmYkT6ROaLRkig6D9jCs9hyBox0rBdi3Vq6TwuWITgIMM5SAqOSUEzjNPO99CO33lWLITx5M0qIvfrysRoe72X52qR4ZOYdegcxP9YkXWuVtyOCrCdCtIxSJr3vuWld4TsOyB0mYUXKB5xjZiQMztlO3IRwLiVpND/9V//lVx44YXRhvZdL8BEwYsImyCIeyPHA6oysicQ3iBmQqTPu+22myObTOz1MkLviqX9vyYCSKYg/gRHxt4spmAbdvnllyePPPJI1FiIuUZIW34fJHinFhEXDbu3n//85+73y6KkGildSP+tTfUI8H5hrmTO9BXmXOZeXxvtY+5mDvdqunLO0XS7202ixiDY0feUlNZnL01a431t8D4644wzcgee7xy2r/4IoBJCffKDH/zAhd+oxtA57T1SK6QdaWgEvNNQz9R7pc+9QNBQ5ebZhKR9Tz+ZQHF+IJsGUpxmKa0sUUufAdIwjOiRkGKrFSMlpT0qQuzFGqEqhETxjLABJegyeUlj+p9i0PWTRciiRYvc7w7nBZOsdUWofP8zZ3Z0dDjpsG8M6FlupffnW4qn95LnLnpqH/VxT5uW2tVORG2Intwhvqcnycimihx/iiZZLy6ouTDUtdI8CKTqzl/+8pcuZEWMxCnvLpmQUDXhYYk0CrsMHAvqJZlCJYZ3HJMhIUZiCCgvUIKkEloGm6Z6E8w8bH3724Gocf8QEbw5IeBkAIgpjAscC6RWqmt4C35vkKmLLroo+Z//+R/3+/BN0DH3RFt+c8Ra45zcm5G1WATr3553Is+JceErWpjsIFK/QHEt3/W0Q+MFmfNlN/Ac3ly7vISkuW7F21tCcZDHc92sVppU11aIjdO0gvVGJCU3I+oIK82DAOpObFtIrE6k/hgvupi7hDjgpUfgXF5ISKfwuqu1OhRiRk7Siy++2HmxhvaZfmHHhNeysm441VTosWVo1y5EjeeEUwBxqVgQxCwyIHY4zpAxhTFZ67HIuMAWCQkgKkrsJSGZtSiQNCZ9Yh6ycOb31kwLjVpgUvZzYs/L88JmMasgKJFzwXZ6Z8/RM/bZq+2gc+AF+kHWuVplezsQNZwGTlQlwnFm0WQ1QZPWrpkNtINYPqiI7GXgQ6k8+5A0YYB8zz33OM9Ogr9WG8g27+7wbmNCRZLBpIjKCfVVrYJ1co9I8lB5klUhxjsQlefBBx+cKOmGC8uRd29l298uRA3ckdIyhpCqxSZuZ1LEQYRwMbUM18GCiBRQV111lfu9sXiIke5WMr4goXjG8jtn0YHjQr0k2ZX0145RrkaFb2HBwYI2q0j9ubFI3TqKa7kkq422I3hhXn/U06YldrUDURujJzXK97Rkw7H9mDFjjtLEmukJitiWCQ37IyvNgQAvb1SB3/3ud5Np06bVzfCYyYmo6tjDQSYga6z2GTueIVYRqBDPK664wknTMLQOLUxmeOSR2orE6xiuN1tpJ6LGs5GUwak+582b53KChj4vJHCE+DjwwAOdZK7oMUg/8OjkN0ZmD5x0WDzELBpC76W7dqhB8YxlgTR48GAXg64Zx3N399aK2xB0oK5m0QHRzipanGynd/jSF198MZvRJQlGtYT0aOkUU833ds56qt1v76/NJ6hmennK02QDGVGfodVqJgPjxYbnFWJbK82BADYyrOiZOAiWGRPaoKg7hChC2NLE7qz2ka4VueInkwLSNFS7offIeKYvqDyPOeaYaI/CovCp9jztRtQYN2S94FkjsY0hQhApJE44FhQpVWNRgpPA7373u+R///d/C0m/Vum4IHj1kiVLXEgSAgbXgpBW2jc7bk0ECASOkwyLjqyi57eW7MYH6h03R+Pso6x22j5QFceCOANOzwnLtquViRpi0TNUvXmdJCWbIrfh7XwPBomDBbX1IVSufUiZUHf+53/+p5NqVWrEzMTIyrzS40GFFSOqJ15IEAvCLOCmzouq2okEMnr11Ve7MAyoXEMLEzU2S0iICcdRbT9Cr1t0u3YjauCHnRljijiAPtVRV6wh8cSyIkwGwYyLeOZ4Oj/wwANuMUQoENRZ1fxW6HNqIhC66Oh6nxBYahrst4j77HoN+78YBHgPIu3leWUVvYM3kMlRX433hVlttB1BzPaqc1TDk+OqcbOUViZqh+kh7Ox7ELLP2UMT1QG+NrB+s0vzIVSufTgKECfte9/7XjJjxoyK1J283JkQiS1GFHSkEahXKi1MOkyqSNZQz1BQhSqgclXSNSZrjLVR+4RObNwbYxqSNmnSpLqnuKoUw+6Oa0eiBg7Y+PDskR7FOBZA5pkc8fKtxoSDBQKqTTw6CXVDWJiYhUJ3z5JtLGL2339/FygXNX6MxDA9J78DJHyQUkJ3YNtnZC1Fp3yfHQrZQYYYnzezTEe2EIFfrjH3sucONtI+tGIEw2250qpEDW8Qb+A8WLoisZ8sfXmPrKfK6o54adinWSk/AkjSWOETzHb69OlRk1h6d7zUUQsedthhyT//8z+7T8gVnmxMiqGEKD1f508kIdgKMckykaS2a0i4Yh1UUKtim0b1veQ6X5/vqF4VKzA5/fTTnXNM1/3N9H+7EjVIFmNn5syZLvF56JiE+DDuJkyY4Mw4YsccxxMzEJMCFkKXXnqpG8/VLGIYb0iuiT+IGp6cu9iZocasdIGEVA/pHhK/3Xff3ZHT2Httpt9BM/eV5wJZIzCzTxorVfbAVSE73vPc7zba96xquLGu52Rl2tWKRA2VJ6E4NswCWoNjLYXiODUvRRQpdTB6tFJ+BFjls7JnhX/nnXd6jVSz7oaXBnaIpAUjZ+eoUaOcXQ8SDGxxmDi4ju+FknXudDuTKiSLMB6EFmCSI9UO0jUWBqGrfxwVsAviPKH94dy8FEm6jrdns09e7UrUGEs4FrCAwOMxRqrG+EXtLuepYKka44sxiz0kwWv/4z/+I5kzZ04hHtSQTiTXX/rSl5Jvf/vbTtpLhg8k2SxqCNobc3/p74zfFR6o/GZR7yNJbPbxnt5bq33y7qOm2obu7k/ProfG/DazZs2ak7MwGaDjZ6u2lAq0FYnawXpIXpWnkq2P14tgWHcDIt3Gqg7Jg5XyI4AkDeLy4x//uOKMA7zEUQmS6uSb3/ymW4lDbNgOuWEyYYIjNAJqzErUMp2R5Hhs15AAoqpBqoDkFokXdnE+woaaCdu0a665xk2gnc/r+865J0+e7ILbonpt9tLORC0dr3fffbcjIzmT1+pHDYFBKjZ+/HgnxeI8WYVzYkoA4bnhhhucpBopGmrJ0MVB1rkZ35An+vG3f/u3iVIHrY7jR5+IiwYZlcefkwIijY4t3CvOPPxehw4danHWYgGsY3ucP3jWjM2sIlLfm3iCWpwuzWqj7Qho0JI95WnTdLtajahtrScwWXWtrCchI9PtFLB2sl4UmW2YMFENFekdldUf214dAki6UCUSzPbGG2+sKJgtE0Ma+BWSRsyprgVigxoFQ2zUoFQmj9AJsuv50v+ZCImwjmcqEyBkELUWn92FGOB6tCW4LdKUGMLI4uPss8924Tg8wz/tWuk/25mo8XBQFy6Vig8bxRgiw2+GdxwSY8h7dyWVIGNCQDYPPDohbDHjrbvzsg3JMb83bH8xL0C6x7auhbiV/BZR1yJdi7nH9FwpWeN3Rhw5fsetMPbT+2ulTzQXOF35nrPMUgYogPIS/fZ93lPbCpeWStzeSkSNezlVlSwE3RaJV9fVyo1QHOQJyyyELeAlaKXcCLCqx6j5F7/4hZMuEXAztqQk7eSTT06+8Y1vOOlZ1jmY1FiZs9JHhcTqD2letdIFrseqH8IJaWOSRCXE9VLP07RP2KORXQFpWkzcNM6FDRD5PHGUaIXS7kSNZ4gkAlV/TBBcVIlIZTHc5z3XWarGJMlYJAQInpyYEpBlwDd5xowlVFyktJo6dWryd3/3d4nCL6xx/a7n4v5oj7QFu7VK+sExkEwW3oQnySKnXa9t/9cXAZ4PC+GAkB0dsmmbrXGcpd5ECIO92iOqvswG9b3BKq7WSkRtrHDwqjNPOOGEg2WDNMiH1+jRo5O9997b18T2lQABJEvYnxAF/de//nUUaUm7zwTFRAAxh6Sxgs8rSLk6pApldY4UgAmPiqShWukahA91KBIzJhYmGAgbkxvXpb+8xFA/YSOEtCC0MNnh6UkKtM4Tc+jxZWzX7kQNyRDqQ0gM4wGCH1qQMOERCXFhjDF+GcfYPPKb+tWvfuWIWgwB9F2b8UtfDzjggOQrX/lKIhvh1apO33Hsw26UBRJhHCqVrKUqXOzf+P2atiQP9cbsR+LJs+I5ZxW9dzcUoeuhgLk+9SYegB+q4lzQ9KVViFo/PQlvYFsZlG4tlac3+wAvBJG5lpnImn50ZtwAhAiPLlJCQdKQqsUWJFUYLKN+YeJAShZTsJXAbg2iB8FCssYLJoY8ZV2P8+CyjicUkxNSNEghkpDbb7/dSdMgqaEFVSq2d7LNrFu+x9C+VdOu3Yka2EG6GYt4gIJHqHQXUseYRf0JaUGSix0aWQUuuOACZ9tVhJqTPkLQIFqMwa997WsuQwKq/ZiCpAWSxT1CTOl7bMEhAjUqv1kCBxtZi0WwPu0h0oQy8mlIROi20SLiSb0HV3h6xcp7gWr8YPGctBG7WoWokcsTstZt0aS89mmnnXaqXg6ZalEmbkJxMKlZKTcC2Iddd911LtAmdlqxJZWKoX756le/6lbYseegPd6aSKqQUjGRIJFAAlGJl1p314egcX/Eg0PChlcUai5eYqGEEKkLcbO417322qtbu7furt0M24yoyRhXzxcixJjD6zmGwDBeWRQQj+2nP/2ps3vEs7Oo8csY4neBxBrbTyS6SK0rleji7EPaM0wOsM2j77GFhQ9Sw9SzlPe+lXIhwPhAJe4L2aFxv5YW2tvKC3S2FidZ6k08ZbZQnVuuO4zvTSsQteG67dG+W5en21i9IHb3tTnkkENc/B5fG9vXeAQgL9OUU/CHP/yhCxcQ2yNIGpI0bLXOOeecIHWn7xpMlATqxFCfVTrqSsgaE2aodMN3fvZxLjxDyY2HnU7MBIXROJ6e2Ke1im1aipcRtc+QYGJjDGJLRjiL0HEHIYOkYY/GIqAS+6/0WXT9xA6M0EZaIDuJNQSrCAkW6lqk30jUIV0xv4W0j4wbfkcExIX8VUoc0/PZZ/EIsAhmvOC1m1UkeOmld9pHkgb71Jt9dTyOBy9mnacZtjc7UUP8dYpq5rJIzHzTiRMnHq8JFXbdbWGCPfLII80bqFt0yrORiYRJhYC2SA9ibcIgVbyYydtK3CZe+GwroqDKQVpAzCZsyuSZ5EJnFDX5oYZCXRUqSUvviVQ63C8TZatJD4yoffaUGcMQI5wAJGGIIi8QHVRMsb+ldHx194kUbdy4ccl3vvMdp27n/VokGeL8hO+AlGL2EPuboM/YguKMg7QZiWRR74Hu8LBtlSGAihpNApLfrCK1/4BVgXB96k3SSyFVi4/xknXhOm9vdqI2RXht5cNM4vaTNHFumtUGCQurPiQPVsqLAEQFu62f/exnzjYt9uXMi5gXMhkHCGaLK3iRkwfIQYSwF2KlngbJhbAxGYZKOYp8AhDGww8/3NnhkW2h1SYjI2qfjxZsGHmHxcZV+/wM1X9DCkI4DRwFiI2GSQCmJEWPO87H7wyyhhMF0rVYezqIKSQP3FjE0Hcr5UKA5wzJxxs+ayGhNmtrgdxfcTTJ85lVEOTg6h5vJ5N1xjpvb2aiNkRYHejDS5PUCInfvS6ceCFhFG6lvAjwI2X1jKHzeeedF2WHk94VqiFW+RgzI2UqmqSl1+HlgnQDosZqnQkFdS2GzEjEsl446fFFfhL3DWka/ShC7VRk34o4lxG1z1Fk3EHMkarhNRzjAfr5WSr7xgKFuGgECP+Xf/kXp2ZHGsIiuFaF3y/OX6jzUdviXBO7GGKxh00ephB4cbfib6RW+NfrvBBoniumH1lF79s+GvtvS03qU29uruNfUn0t6zxl3l67X1Jt7xqXIdJE8dltkXi8l9SZ3lyeSBks4Xq38JVqI1Ip4ob96Ec/8kauzuo0ExhBNQnBAVmr5QSS9oFrIMFjtZ6qHZlEib/G6r/WhI3JkzhZeNqh7mUip7ZSMaL2+dNkPPHMGVt33XVXReFqPj9b2DfGOO9QQnzglPOtb33LeXeyUKnHWIOsIcFDkoiDAKrM2N8VhJaQNyxqOjo66vJuCEPXWqUIQKR5vrw7s4pI+wA5Wc2VGt+n3kQFSnqpj7POU9btzUrUkKR546Eps8AxvXv39katJcgpk6mV8iKA/QzOAySBRlUR+yLGdmzEiBGOpE2aNKlmkrTuEGSyYvJEukBsPiYCVvFI2Ip0Nuju2kyWBDPVb8CtSJlUkRgwudVjEu2uT0VvM6KWuPGEHSQSJSYzbDjJVIBndOxvJfT5MIaQdODxTDijf/3Xf00OOuigmqg58/pEXyBZFDykWQzFFqTdvFt4T2D/xjmtlAcBngfvMrxAs4ra9BCh21TSZJ96E8EOq9X4eE5ZF67T9mYkajCr41Qzf01SZw7Vj3ecD0PiB1GtlBeB1HkAD09yecbaoWB/Qvwm1J2NjI8HMYI4MbGhhkyDOrJCrJX9Gh59eEwhXcGOh5AGXIuXHuQR4sb3ZiZt7UrUUAXx28DIGrUfMdTIVvGTn/wkueSSS1yssVqRNBY+2IbJQcvZemKP1jW7Qb3fKIxhQs+w+IGs+uJvddc3sMK0ApKH9NucC7pDqbHbMF3huRIHL6tIsrqZnuUrUpP61JtkLHhUNT62S9aF67C9GYkauTyJjdJtkfHq+lJnnqrJKFMtipQBaRoTlpVyIgApw+OHPINMQrHekxAR7MTOPfdcZ9wMaStDwaaGSQXvUMZfKl3jfmNtbELuB9wIY3Dfffe5BPB8Z0JiO0Stc2020tZORA0ygZqOyYqo7RhY33bbbckFCk5LDLQ77rjDTWK1GEOMMwga0iYcBPCYJi4atr1l+V3xe8f2lAUJwXtZlMQUcCNUCWYSnIdPK+VCgNhqqKl99pfSXgyQRHm23m9Z6k0EPJuo+iRv5bpx9abZiNpA9flgH4oiYIfJboJ2mQW7HQxRrZQTgXSFe9lllznnAZ97dnd3AOFA3UiATSaVsgUxZlLB+BrCxsuHFD68fJAIQNi4/6IL58SGB+kaAXSRPEDaUJlx7VTCln4Wff1anK8diBrPBskrkgSeHYTs6quvdo41SM8gJb6Jq1rcUZcjYUL7gFQaWzRiTmIXVjZiz+8IqTUx0ljkxQbuZfGChLJDJgoExC0LCa32GbbK8Sxs0UbgAJJVENBIwruByNoTWW20HceCZ1SXe9qUalcziZRgwof50FPQ0S31Ixvha4Mkg+CkVsqLAMSMCPwXXXRRtPMAkwdBMY866qhk6tSp7odd1jvFIxRnFqQUqCixxcMOAw8npF6xqt7Q+8R+iWtRWbAgQYA0MskhhWQbEzEEF8kCUjcr9UEAyQ5S1tRTGNKBChtJAlI0PmOlRZX0HAka4xNj/bFjxzpyhp1l2T0jMTwnfhuSNX5TsSQWFSgqZBZSRAQwrUslo6d2xzB3M4f7MtLAAdTuITkXvOzpCVzil6qfeNqUZlczETUyEHjFYFrpHaaJeq0sdLETIq6UlfIiwCqYFdMvfvELlyoptqcQDFb8eKDpBxt7eEPaEyuI9GWMTUIr3HTTTU5ygoGzz9OpiM4ilbr11lvd9ZCcMNEh5cO2DwLHRI3KC3MBDMiNtBWB+prnYMxDzCDnEIxFixY5QgYpg7Qj+Yy1u1rzCnH/QdAg7eSGhazwvZkIC+P23//9350D0QMPPBBtUsBiiaDa2OIRxNozpcQBa60LQYD3JO9GNBDdFTgAXEBE7cLu9q/aBpeAUzzkaVOaXc2i+txAiJ2smmlohAOBXihjfcji9cckZKWcCCBNIOHypZdemlx11VXRdmms9pFOEWwTD65mK0ivyJbARAMpwmaGYJ71KKhGIYVIFFD/kK6KSQ4njjQ6OJIc1ENI+pi4UZM2sjSz6hOsSTWGShP1JfZmjPuLL77Y2WTec889jrAVmTs29FlNmTIl+fu//3u3cIC4NyM5x/QBA3S8YAnvE1N4D/FckC4TXw3popXyIMB7nvcjOY+zioQyffROy3Ms2FbHP6z6UdZ5yrK9WSRqeHBmWnfqwa0zevToQ3ygIl1BvWOlvAggUUAdB0nLWi1l9R7iwMofmzSNhaxmpd8O+cGLrpE2lExUTG5U1G4QNp4JkjXyN0Ik8Y4jPhsSTKRt2I40mriV+eGigmN8U5GOkWUDEoEKB6kZkrRGkLLuMOO3BEHh2TZzIQsJiwziL7LgibH9hEj/+te/dhLl/fbbr/Qq32Z+TpX0nbmcMDRLly7NPBxOoFSDj3scC+AUcItbMk9Skh3NQNQ2E1b7+PCSpGwMDDqrDaJrfrRWyosAExmqHgykkejEFFb8qChOPfVU95ybfQVMXCewQKLW6MLkltpMYS9Fv1CVYr8GOYO4EceKgMKozJjc04qpQTNKY6rFnFh5LDR4jmAHMUN9iVobYsb4xrEDW0zaxBCIavsWcvz06dOdZ2mzk2/GoeJpusn8D3/4gyPJIfeftoEI/OY3v3H2apgAmAo0RaYcn8zpRAXI+v3ACeAGcr6519NjuAVSNV9ID8/h9dnVDETtUEGRac2sVX4vGRfu74OLyNlIKayUEwEkOEgV/vjHPzoD4Bgjel6eOA8cccQRziut2QMY89IBCyb0etolhY4MVJ84I1DpJ/aEN998syNu/Maw68Hgl4kN8kw4EkgdkyZeeah3m8neyYcL4xY8IGXUlHhBwsAGqRnqGaSS4MXzpF1snlpfH2qxj/Af2GnxDFExNXNBBUocRZKws8CIcS7gPURGFHD4+te/7t4zzYxFq/Wd9w1zOwugrAI3UGiiOZKovp3RBm4Bx7g4Y38pNpedqO0klAb5kBJjPkgql/Wy2iBdmTBhQtZu214CBJjEeIlefvnlUS9Sus5EcuCBByZf/vKXW8Lwl8kB8oNBedZKsbtHBmGlQh7qWTCEpyIZwr4QiRtEjAopw3sONRoEDnsnJk7INPt4dkjd+MTuhIoELr0X7oPvaen8Pd1W1GeKdXefEKuUkKESSyv3jJ0c9kxIzHhmGDmjxqQ9x/E8G03MwDRmXNDnG2+80Umnm52oMWZwjMFulfGJ52wMFhBrpDao+pHgsNiwUh4EmNt5X2YRcLgBHOH888+/1tNrOAZc40lPm4buKjNRw1LZq68UW95aL/89fAiS27HZXza++2v2fRios3pH5UlMr5iS2tKcc845zj6tFdRsTP6QHZ/tRVeMwAEChNQKZwDUbZCnlHR0bV+r/7kepCQlJvSDZ8r9UJg0sWNDpQaBg7jxSd+xf0P6xm8VEseESGWhBYFLyV/6nc9K7hESwks9xYhzpH2GXFEZk9RUUsYzYTHBRJ+SMqROfKcdEz/3nn7WCt+Y84IzmKVYI9njnkPHxN133+3uF1tJztXMhfcCqnmkYjhJQK5jCr8pvNCRrLHoaIX3TMz9l7kt7wvmeBb6WQWOIK4wS1qKF7LaaDtc4+eqWYFyPYfWfleZiRpue9inZZaDDz7YG44DlRhegFbKiQATGyoJAniSBiemMOkziRCKg2fc7JNJeu+oy/C4zFohpu06fyKhOuWUU1x6KnDEtgbJDgbUnCclTp2Pqdd3iAHkKC30BcJDxZi+a4FsQtogGPx+qWzjhcwnFSKHRx/nQHoVSj64FtjecMMNjlRBXFBHUpGSQcgw9oeUYdgPyeQ7ZK5ZCgQWcot3O/aDeD8jcf63f/u3BPIFEQ0p3Du2ahCTVljoggsSMSSF1113nSPhITikbW655ZbkiiuucBkZGHtWyoMA73/Un7wLuiuaK9aCK4io/ba7/au2wTXgHA962jRsV1mJGmE4DvChopfPblqBb+drwyTeKhO47z6bdR8TJZHWeQHGFiYPvDsJGNsqL06Ia6zak9U9YQSId4Wd3uTJk51N1O233+5CaxD6AXspsIa0cY0yF/pJhWiGFAh7KFHj3n//+9+7GnLuZmlDBH2ICN63jAVSO2liSsaPH++ILhgRe4rMBhDQ0EI8PxYArUDUuGcWAF/84hedJyhS/M4LiBBMUIHyziEBvc0rIYjVpw3Pgrkeh5GsAleAMygI8vysNtoO53hEtXQrs7ISNbKl91Lttkgl0kMsemK3O1dtTI2afW1sX+MQQLICKalE5cnEJFG28+jCmLRVCitCnAiQFIUW1FvDhg1zql+OARtscqhMyoTWIM8nkiSM2pGyIT1CslJ20haCQShJ41wxbUOu3cg2PHckZ5AonDbSiO377rtvQgYBbP86F4gbRCNGAomUYunSpc6bl+u1QgEHvG75jaG6jhkTtCevKmGAUNlDgK2UAwHGP3M+4ViyCpxBGofFMlfIipsG54B7zMg6R6O2l9H4AMeAE1WRqnVbFJBxf8VwGtztTm1EykDS9VZZCWbdZ7Nu5+WI3cfvfvc750AQQxh4tkTyJ48nzxhJQqsUDJ1xqECaFDqBoBokdy1GtV1X+agIsavBPgdCSzDdNPZZijnXSb+3Co6teh88X54ptnw8S0gZUtSTTjopmTp1anLooYe67d3lqGSckJaNkC+hkiTGBXaEqE8hha1SmNBx/kDaHKoKTu+d3yZqZULSdIdz2s4+648A7zYWF1nvTi021peZyCfKc/yMp3dbad8s1c/tNTyN67WrjMskjMoyg9sq4fpGspvwZiAYOXKkE3PXC0S7ThwC2ARNmzbNheOItZ9iksLWhPQ2rUTEsYMiUTo2ajHEieTRqLp8hJXJnYmFSggJvBNRgzFRIV3AThBJC/ZZSNtCJ/K4p26tK0EAgoRKE/U+ZAu7MypSHTwRUXWGSLtog3ooxk6N3yYqdBZFhFhplYL947nnnusWROQDjXkH0fbnP/+5wx6i3HVx1CoYNeN9oNpm7iebSlaBO4hDPCRtwzsZbeAecJB7MvY3ZHPZiBq+z/v6kNCqcT/9ODKlbYj8sc2wUk4EIAGo91DDxAZ0ZdIaNWpU8pWvfMVNUOW8w8p6hSoG78iYCOqs6JGUQcBCC5M+xrdUCDMecASyRQ09a9YsR9zoQ2pYHytxCO2HtctGgHcYxIxFCWpNMkGgzkSKhjSZwMKVeB4eddRRTnUHIc+SOnTuFQuG1GaSmFW+xUDn45rhO5Ht/+Ef/sG9g1CXheCR3hcLne9///vJr371KyehTrfbZ+MRYO7HzAOP7e4K3AEOoVRtvmwEcBCkau91d45GbCsbUSP3z5rGFZ1QEWPupRXkyE6b/uIrDwoJgpVyIoDdFEbKGPPGFOxBUMOceOKJzj4t5thmaMtkgYQrxsOQyRNbPSQtlRQkkkhkqBBgJnJU0qh3II1I3SDTSOGovPxipH2V9Kkdj4EA4c0KiaaimkMygMoxJWaSAlREzjrjyXiB8OFckjWRdW7PdySs9957r1OftxJR4972339/9z758Y9/7BYtbAst5GK9/vrrk7PPPttUoKGg1aEdcz8cgDkmq8AhxCXu04L07Yw2cBC4yLSM/XXfXCaiBjhjfAiICR+glWRmn3mZ8YKzUk4EkM4gTSNvJBNATEH1wg+QhNGtpm5Aygg5osaoHXEYgKgVgQekjYr9DdKGiRMnutAUEEjCfbBKXSrD8jQHKJ9M9jGSiJjn3cpteV4QMyRmSM6II4cqE8koz5P3GOSbMV+kwTrqT+zYCE8SStTwFJ4xY4bzxIVEtlKBeP7VX/2VI6I43MT89pA4X3DBBc42FGJd5HNqJYwbcS9wALQDCAW6K3AIuMRFF110Y3f7V22Dizyg2r1oznNgLXZlkp5aXCznnIgbMy1WZSjYu6Ojw+vi151Bdc41bXedEGBCx4D3sssuc96HMZIZJhgmsbPOOsvF16pTl+t2GWJ1QdIgP6HEh0mGyR1vp6InCc4NWaAibUPygJoUqVqa75MXIcSNdEmpmhTyHfNc6wZwAy/EsyFwbyox4xNccfJAYobHLkbQkGRUnrStVUFdOnbsWGe/y5gLGWs8T8Ymv11sgELs4WrV/1qcFyn9t7/9bWcbijQ5BBP6AS4sXhTxPvnHf/zHlrLhqwXO9TwnCyFiB5KSMKvAJfS7u1cmJ29ltIGLwEnuyNhf181lIWob6a4x4MssYsDj9KLJ9FJFrI+EwUo5ESA2Fivz2267zUVzj+klEgecB1pVWop6EbuXUCkH2DHB4ERQaykHEzPkgkqAYYgbkz0qHyZ7nB9wSEBVyn2kxC2Nh0bkfiQV6QSYfsY8/zK3TUkyn9Q0ZAZ4IRFDYsazSh0AINaEdoCQQYjr7U2JpI6Ye6g/Q6XaPFN+u0j7uK9WK4TswHP6vPPOi3o3sXghWDfHg2kRku1Ww7ZR98MiFk4A+e6uwCXgFJKKXt/d/lXb4CT3q2Y5HngOLXZXWYgaXpyZcRZkUNtXdU/frcOg05emr53tqz8CeEphf0XoCVbmMZM1E8N+++3nEq7XUtpQf1Q+uyJYQHAgPDH2aXh7sjCpt4SDyYjKs4CEaGXqAoBCxiCapFbiXojZhiSG/1NvUogB0jc+acu4SMcCEor0e/rZqGeSXjclX/yfvluQSlEhWUjAUpUx4xTSjHQMMpt6Z4IPhI3nxHGNnswhhrwrCTIdStQgJKgGTz/99JYkajxDErfff//9znY2VCrMOGWsQ/Ag4Dz7dJykY8g+G4MAz4Fx7guCC6dQvVdagjcyegkngZvcmrG/bpvLQNTw+97bd8dasYwT8GtntUHiwg/FSjkRIPQDudhQl8W4wjO5ITVCeoM0pxUL6kSIGp6WoRME3p7YxUACGjnx8zKkQkB4VpAA7K54ZmnBxolVLRXSBlHnk/9R9SJ5g7QheUsrxAB7xs5Ejkmxc+X8/B9jV8Qx9DXtM/+n99B5H9u4F4hYWiGmfMdYGVKGZIqJmYrELK2QMq5R1sLYwQYRz9FQ9SfPAYkvHsLcd5nvr1LcIdff/OY3XS7QLClMd+cGG1JtYfeHaQYE3ko5EIATwA0IVNxd0e98bbjFb3/722u6279qG9xkpuoKT5ua7yoDUdtPd5nZD7mk95Pnkzf+ALZpVsqJAC8yJCvk14tNhoxNzKRJk1woiXpLjuqFJnZeOFhATkILuCCxqbXaM7Q/vnYQHhwUqIQE6Vww9oWgQuQhDajY+GQ7n0h8IGxUCB8SRyr/8wnJRYUHwQstqEMgKZAuJlWIC33kk/9TSRnSQtpBTNK8o3yyDRuzZh6P3BMx2Bh7odjxjMgjC6FpRa96nvuRRx7pTDOQ/DPeQgsLD2xvCT4MMYDoWykHAnAD0sZlFbiFOMY9Wiwvy2gDN4Gj3JSxvy6bMwlSXa6eJGS39bppKq/aeJhvVn9S+4+s/ba9sQig9iKN0WOPPRbVESQYrPzx8kRK0YoFiRDG+dh4hU6Y4IA0DRsMCEYzl9RhIesekJZB1pC6gQ/f08r/ENyf/exnbiEAlnkF6SPBkqmQLggHai8+U0kZn81MwvIwYD/3jIPIzTffHDzukH7yOya3Lhi1YkEa/KUvfckFTOU3GTKmUhzIKkKgVRaWkD4r5UCABS0cAUl+dwVuAcf4zW9+c2V3+1dtg6Pcp5rleOA5tJhdjSZqxCrJdBCQHc4WWqHs6rtVk6b50GnsPqRpSDyIhg5hCy2sSIkfRYJxVvCtWiAdqD1RtYSq8FA7IZ3SKrDlCQXECpKeRdSRLCpwZdTwwMuS0CNMyu1a0kUQElkIWEhBwgQxfvXVVx12raj+5L3D+CBW449+9CO3QAjBhjZIg1F/EqfOpGqhqNWnHRzhwgsvzLwYHENc4x7ZG76S0QiOQriOWzL213xzpqSq5ldOEvzQveE2ZAyINC1TjtwhGx0mLCvlQ4DVKOqradOmOY+xmB4yMeNZqJVOy67ewQOVCbY/MSQWgoFEDfWV56cRA3fTtmUhECP14EYrOaZpAfJ0nIUQNjyofEMLtj4EQUb13KoFlfcJJ5zgpPmx9p9IKFmUxqhNWxXHMt0XHAGukFXgGHCNrP2rtsNVahc7J+fijSRq3Him7kY5ufrLUNcbb8OkaTlPt4G7sSEid+W1114bZZvGSh0icsYZZ7j0OQ28hZpfGrUnGKHaCy14e2JfhPrKiiFQKQKofgkrEaPGxMYUz8gYNX2l/WvkcRDYr371q86rOaYf5MzFHgotQuwCIuY61jYegTyuINtVUY4h/T1nhqt4BUueY6ve1SiihigRtWdmUVya/TN3ageTuVxrfU1sXwMRQJqGSz+enjEFdQzqA+zTWtlWCA9P1EhMfpWoPc0OJmZUWduuCOBMAeHPUit3bc//SIpi7Sm7O0/Zt/HbwoaPHKux7yAkaqTcMqlauZ4yXAHOkFWQquVxDh3rNdXKOncR2xtF1LA7y8xHIrF8HzFck6YV8YQbcA5UI8RNi0lVQzd5KfJjwoaob9++Deh5/S6JfRqJ2PFcDC2QWMT4eB7qvRJ6mLUzBP4CASTXTF7YgMaqP/EADQ0l8xcXbpINhAPCRhYTg5iCdPzSSy+NjhcZcw1rWxkCAVK1oXAPz9nhLF6bec+xVe1qFFEjNUNmkb54DAw3qwHpV4jubaWcCCBNI2nxww8/HNVByBkRvvX8W56IQNCwUSMAbGhhzEs835JBR0MxsHbFIQDhHzVqVJT3MI4vqPiw9Wvlgn3aMccc46T7sdJrJGrEVjOpWrlGCO9PuENWgXPAPbL2r9ru5S45x1a8uxFEbQf1NlMXLGPODeTVtqfvjsaNG+fbbfsaiAC2aYTiwDYtxuiYlyE/ojR0QgNvoS6XxoEAiRqStdCCATg2ajF2RaHntnbthwALo+HDh7uYcqF3zyIMG6xQdX3oecvYjrAOkDW8iz1yg7/oOjZ8eBlCaM1W7S/gaeiGPO4A94CDeDoJd4HD1LU0gqh5Gak8/UZpNZMZiAbvDZOm1XWMRF0MAoJtGt5hMQVvRuxC9t3XOzxiTlnatqiNkExgoxaqQkI9hds/k0asN1ppgbCONRQB1J+o0lHvhYbbYPFFoNyYvLQNvckqLg45O/roo12g5lipGsGBkazFLFar6KodGogA3AEOkVXgHnCQrP2rtudJ3XIOj99db6K2hbq4U1Y39WNYRx433nRS7TCRZ+FT9u2ssp966qnkT3/6U9SKm5cgeSsPP/zwtlDrYccCTpC10NJM2QhC78naNR4B1J8ET44hIngqxzjBNP4uK+8BJJa4arF5PHkXXnTRRS7rhknVKse/FkeOGePnWXAQuIjn2oO0Dy5Tt1JvouZFaPz48bsLoF5Zd08kc1Q/VsqJAATkoYceirJNY9WKCgZp2ujRXkfgct50Bb3CLo2k5TFEjdRHjP0YL70KumaHtBkCLAAI8hrjUICjEJHe20H9yXAg2wDvphgyy3F4gGKn2y44cc/NUDCxgUtkFTgIXCRr/6rtXi6Tc2z07noSNfIADfP1cPfdd/fePEw4xlbAdy3bVywCrBp5eZPTM0bczwSBgTx59mJfhMXeQf3ORjR47HxCo8LTMyQf2MwQVd6KIVAUAngSM3HFpCND9YkjTLsQEGIWnnLKKdG2atjrnn/++VFxEot6rnaebATgEHlStTwuorPDZeA0dSn1JGqoNDPFiVqx7NSrV69McSI/FuLaWCknAhjFY5dGPsCYgm0anp4jR3pTvsacstRt8ZZDkobqKNQ+jbAlhAsgSGmoLVGpQbDOlQoBFgBIakMXwRjLIxGOCdRcqhuuoDOEDGJyj5E8cpk777wzefTRR9uG1FYAbUMOQYrsCxoOF4GTeDoHl/GaaXmOjd5VL6KGc4B3JtZE7bUiJwhqbPDBaDTsgIoRIL0Mtmkx4SZ4niTNRZrWLgbyEFrs0/D4DC28UFB9kt7GiiFQNALYXzG+Yn6D8+fPd84w7SJVI0DwmWee6RZLMfhDZslH2w7OFzG4NLothBtO4St5nETHwmkyHR99547dVy+ihihsw6zOkbpBRpsDs/YDKvF+rJQTAV5CvLhnzJgRLCXiTlC7kNOTCOntUsDq6aefjrJPQ9pBaA7wsmIIFI0AdmqMr1iixmIjVCpcdJ8bcT7ZLbl5KEZgAJElByh2fe2EVSOeT+w14RS+ZwknyUkrBaepi5qvXkRthA9ETdZe2zQmcosd5UOwsftQ4xE3LcY4HhUeWQiOP/74trFN4ylhl4YtX0widlSehOYw+7TGjvNWvToLATIUxNipMYaJE9YuEjWePZLtL3/5y9EOPWgbiKsWY7vbqmOtTPcFpyBVoa/kcRMd6+U2vnPH7KsHUdtaHcoMcCuxe2/FNtktq9PYTbSLN2AWBmXejs0VhvHETouJVs7kgOhZRptlvr1C+8akBql97bXXggNh4mCBtAOpR6gNUaGdtpO1BQIkIo+xgeS3jlPBO++80xb4pDdJwFQEBzHSR7DCVg0JpIXqSJEsxyfcwvdehZvAUTy9hdvAcWpa6kHUvIxTA3+UgMrsBy8QYtlYKScCb7zxhnNDR5oW+hLihwH5wDYN2492Kayo8ZaDrIUWVn1IHrEjsmII1AqBXXfd1Y2xGGcVMpCQCq2dVHosME899dQo6TbvRaSPqEBjFrO1etZ23s8RgFvAMbIK3ASOkrV/1XYvx8k5Nmh3JkEKOjq/EYZ2mSITvRTWUmRsr4GSBbjNB7lRLXhB8wK64447ooxlIWesSvfZZ59Gdb0h14WooTJ65ZVXgq8PUVNaExeeI/gga2gIRCJAiI5YhwLsrliohS7QIrtU2uYE5mbxFENqcbK64YYbokLylBaAFutYHseAo8BVPLcNx6mpU0GtiRoqzcwbkP53MMHlsgBA6jJgwICs3ba9wQig9iAkB676MbYq2FshTZMLdIPvoL6XJ6wB9irLli0LvjAYIU1jJW/FEKgVAngU87v0GVd3vTZOMYzldpKogQExDZGqxdj0gRFhOmbPnh31ruyKuf1fPAJwDLhGVoGjwFWy9ms7HCfTfMtzXPCuWhO14b6eyD7JKzJsN4mLD6sy7iNXJdK0GOLBy410UWQiiI1JVEYMYvqE9AHMQo2KsYNBykEUbZ8dRUwfrK0h0B0CjC9C5bAgCB1rOMZgd9Vu6jzsRqdMmeJyTodiBeb89q+//vrk/fff7+4R2LYGIpDHNfK4irru5TrV3lotidqW6lwmTcVATxPQjlk3gHqMCd1KORGAbCBJY4WIpCi0YBR/2GGHRccjCj1/WdsxmSFNi7FPg9SmjgRlvS/rV+sgkDoUxJAP1J/tFPg2fdpIHydPnhy12CQ0DyGMcMJoN3VxiltZP+EaPntpuEqOUwFcB85Tk1JLouZlmPvtt99wvRAy9b5kIYgRw9cEHTtpJgJI0e666y5no5bZqMsOJETYW2ET0G6hJiBq2KfFBLqFqBE1HnJrxRCoNQLkkiXvbozt1YIFC1yQ63ZTfxKqA1u12CDUkLQbb7wxIb2UlfIgANfwZT6Cq0j96Y/lUUOpWq2I2rp6BN68norb43UiGD7cy/PK84TbsCesBgkx8eCDD0bFA+OlNmLECGd36OHoLYkoL2YcL2IcCSBq2KcRNsGKIVBrBJDe4gUXQ9SQqOH52W4SIjDaZZddEuapmFAdmD9Mnz697cKa1HrsFnH+PM4hB5I8ogbngfsUXmpF1NBZZsZdIIeWJCqZ+XBMilD4cy70hKn34pIlS4LPCzFDMnTggQe2pWE8dimoPWMSsZOJAMPldpM+Bg8qa1goAowz3r0sEELLs88+25aen+BDnmLUn7G/T8KasGhrNylk6JhqVDvmJ8Z/VoGz5OT/hPPUxF6rVkTNKw6TiNHrRIDUxUp5EcDbk5V0jHSIlxkr0N122y3KrqO8KIT3DGkDhsTgFeodiygeOxiSsVsxBOqFALY6MQ4F2KeizmtHA3lsmkjUrvANUVJIzB8sUXu9RnTcdfKkanncRVfzcp+43nzeuhZErZ9O3/H5Jdb8JtbaS5PPzmtu/fw/VnNM6FbKiQCrQAjHvHnzosT3EI5DDz3UkY9y3lntegVmSB4Idhta8IhlAoCsWTEE6oUAdjrYqcWYJhCipx0dCngm/EaPPvroqMUnWD3wwANR0vV6Pf92vw6Bn30SZbgLHMaDU4f2wYEKLbUgal5GKYO8PfUSyLwuKYVwf7ZSTgRYOT/xxBPJ3LlzgzuIdAiRMnnVfJ41wSdssoYpucWuL7RA1CBpiOOtGAL1QiAN0RFjp0Y8Nd4L7WanxjNB+kioIchtTMH7E9MRU3/GoFb7tnAPX1pDuAscJqcnXg6Uc2y3uzMJU7et8zdyPm82eXkWeW/C1J75IDeyBWrPhQsXJthZhBZsOciphsdnOxZexpC0mHhzqIqRQoKdFUOgXghgE8nioBKiVq8+luk6qVMBnuwxUQpQfWI+Yt6fZXqan/Ulj4PkcRidBQ5UKLcq9GTqXIdqplhw5MiRAyVRyVx64OFGtVJOBLCvQu3JS4aYQKEFr0VsOdo1ZyuhOSBqoY4EqJ3AjEkzxqMs9HlYO0MgCwHGmzzyowzkUeuzgGtHiRo4MmeRrD2GqGHbd//997t3QrviljUGG709j4fAYeAynn7CgTo8+6N3FU3UdvX1QPkdTZrmA6jk+1BvIEl7+OGHg3vKywvJEC//diUdhC+AqIWunlmlI9UgI4EVQ6DeCKD+JMdsqJ0aJA2P5lBHmXrfT62vh5nCsGHDomOq3X333U79aUSt1k8o/vx5UrU8LqMrerlQbI+KJGrr6OKZrqkKELiemOqQrA4y2H264azjbHv9EOCFvGjRImejFnpVbNJIYOxzew49V7O2w+MzRu2ZErV2lUA263NulX7ze42xJYVoYKcWmhqtVXDqfB+QW2qMyph3qak/O6NYnu9wEThJVoHLwGmy9ms7XAhOVEgpkqghCuyZ1Svl0hqsQdwjaz9hG3zeFlnH2fb6IJCqPefPnx+1csbYNk1NU5+elusqTGJI0yBroSUlaiZRC0XM2hWJQEdHh1N9hkrUuDbp5EIlxkX2tSznwvFnyJAhUepPbFdnzpzp4tCV5T6sH58hABeBk2QVuAycJmu/tsOFfOpRz6F/uatIouYV9e28887e/XgEWikvAryEn3nmGReWI7SXqD2Jdt7uklKIGjW0gBuqT8tIEIqYtSsSAX6zvXr1ClZ9cu2nnnqqrSVqLK5GjRoV/ZuFqKE2Nu/PIkdwMefK4yR5nEa98HKemF4WRdQQ8WWqNSVVWV+G0ZkJ2Ekt1M6qsZgH1qi2qDUwGkbFEVpQn7DKlD4/9JCWa4dEDWlaDFHD4xOSRj5BK4ZAvRGApMU6skDU2jHobedno/zV0ba42PySA7hd7fs641e273ASXy5XOA3cxtNvOFEh6s+iiNoO6hDpE7otEhEO8ak9CTIXI2bv9iK2sWYIQDbIUff4448He3vyPFF7Eul8m222qVnfyn5iJJGQNBwKQgskzaRpoWhZu1ogQCBXn41O12uSEmnlypVt6/kJHph4xKo/WQDPnj07+L3aFXf7v3YIMIfBTbLKKvVnpoBKx8GJ4EZVl6KIWrYyV11U3JHsu9V+HxhV36GdoGoEWO3xIp41a1bwuVK1ZztL0wDrzTffdCFNQg2teTkgzTD7tOChZg1rgACG8Uh2QwvR9l944YW2lgzxziNeZGxmh2nTprVtvtTQ8dWodnncJI/bqN9ebhR6X0UQNRwEMlmlRIcbaNLJZJUE9GxniUvog2pkO0gG+fxIFRNaiPCsQZzkuTmHnq9Z22F/EpMTFaKGfRrViiHQKASQDsU4d2FjhRdj6IKkUfdV6+tOmDAhGTBgQJSG6MEHH3TqTzQXVsqFANzEF3QcbgPH8fQabpTpROk5bo1dRRA1bM8y9bSr1J6ZelqfZ8UaPbV/GoIALw/UdqSNisnnh30V6pN2V+ERloMa+hJOJWoWmqMhw90uugqBDnl+QtQYj6GFxVw7e36CE3ZN1JiYkYQ9IncyQXCtlA8BH0eR+nMdOI6n13CjTPt8z3Fr7CqCqHlFe5KqePfniRbX6K39U3cEIBjYWGFHEVrwgEJ1h31azAsr9PzN1I5sBK+//npwl8EO1We7E9xgwKxhTRCAbMQ4syBRwyieLBztXNAkDB8+3HnNxuAwffr0qIVwzLmtbXUI5HGUPI6jq3s5UEjvqiVqRIQbnHUh6eo3lGQgM5YIkxHpGqyUFwFewKjvSBsVWsw+7XOksFGjhkrUiAgPyeXTiiHQKAQYf7yb+S2HFmzU2p2ogRV5P5nbYqSRpJNCYxH6ngh9JtauegT4HfgWznAcuI7nSnCk/8/efYDbdpR1A99+6gcISk8CBHLTuElIIyEkJCQEQggSkNARBAOiIigtqPhY0MeuiIIFEBUsCFKkI6GkkYT0hEAKIb1XmhBQPuWb37pn3bvPuXvNmtlnl7X2nnmedfY+e7WZ/5r1zn/eNs3ZcyMn1rvWS9R2CRdqzM4bVIK7h87aeI82plpXsnzODwGmjJtvvrlKzZFaC7NKM3IZzpe9/Od//ufAllo4Iuc6I6deuxxXEEhFAMnYYYcdkokagrHswQQ1tvJvWTYvh6gJ1rKVfGo1it36jHEVHAfXidQYR8KVxi6NJCrxitFozhA5FFX5xWy/ifcvh00ZAf5pcv2k5vkhnDhfClPPcUaecjPmcnkklzYtZwF7eXtizqtzaUi56VIiwJE6R6MmhU9OX19UUL3DBnYT1tRCvp5zzjlLH4yRitesj2vjKm1cJ9Q3ypXa2rMeoubcRpYYVIU/ErYdmirAvGPWUUp3ETBL5mNl2ajUwseKqpifxrIXJBd+ObNkQv7HfuzHlh260v45I2DClWv6NDER4Zw6qZtzE6d6+0MPPTT7PT7zzDOXPhhjqg9lHRfHVXCWpoLr4DxN+8PvuNLYfGvsE8NNtw9bY1hqyCezB5VgOGZkiakSR55Qfpw5AogaR/iLL744+d6CB3Tq8nwHVbQsopbjd1Jr1AyUpRQE5omA9StzgoFMSJjvip/aYHDIIYdURC3nPaZRKxrJefb4+L1jYxqug/NEroAr4UxjlUYilXC1Rm2aczds2NAYZGB/rNH2lzJ/BAjcm266Kcs/jbnTWoFFW7qFqOVo1GjTikZt/n2/1GAwQNRyTJ/6OXlRiFpIR7/TToPtttsuy09NepPip9bdN6+NswSfzoe21D7KmWLnToWoBdv8D8bMniWhZ+yRdGefKCT501Lz+5g98q8Ki9V2pxFzrAnTZ07Ep6oWojbHB1ZuvQoBk62cZaSYPBG1YvrcBCO/phw/NUT33HPPLfit6oXd+aeNt4Tozw24T6TGMydqdw+VeWBThULUy4agMm8MR+VoXkr3EUA0LrrooqyKImryp5WySaMGw1SNGv8+ps+c/FUF54LAtBAwabBeb6r5DkETIV40apueiFVZcgOqrFJQ8JtWj17/dWPcBefBfSJ3wZlwp+wyrkYtygxDArhdYzWxjlwp3UcAyeCflupjhWgETWq1OHH3Wzf9GtKm5fioIWiIWo4WY1X278sAAEAASURBVPqtKHdYVgSYPWnVUs2f5ATTXdGobeoxAqpy1kuFH43asi/D1eX3rY27tHGf0LaxyM9UiFqIFmqsjI7Lh6mUbiNAC2TpoyuvvDK5otT8QvrlUCtli49aKtGtc6gV7AoCXUCAJs26lalErTZ9Fo3QpqfHp8kqI6kaSWeRt7fddlvy5LgL/WSZ6oC7xMh3jPus4NTIjWI4jkPUnNOYyTQ05F4hq/V9m24qCSrNSyndRoBfmiVhUv3TtOYe97hHtRB7qmDvNgLrq53Bio9fzuyYqYlGrbwf68O+nD0ZBPRDKTpyIj9pkf/rv/5rMhXo+VWYPZG1HPykOLnsssuS3SV6DlHvqu+diCVyx31woEjDcKdsApR9QrgJO2tjvpB99tmnmD0jT6kvuywUfNVVV2WZMRCNtsiYvrR/vfWEH9NxjhmoJmo5M/D11rOcXxBoQgDBELmYM/FCNGiEcvp90/0X4Xfmzxz84HbppZcW/Dr88NvMny0cCHdq9O9vavY4RC2quguq8uj+tkY2VbT8PlsEEA1q+ByBSxsUc7acbQvmezfaNEtHpQYSqC2iVpaPmu9zK3ffgoAJA1eGHI0QTTKXiRy5seWOi/dNQEEuUbvkkksKfh3uCm0cpo0DhaZFOdKopo9D1Bo1ZkJTY4uwm52JIiql+wjURC3Vv4pKGMng01LKoEpcCcMcoubdyImyKzgXBKaJgHdaSoJcomEpqZx+P802zPvaIuBjPk1r64fgFqK2FpVu/U9G4zJNBQdqSdPRyKGarplL1KJqu3333XeHMPv64aabtTHRpvPK77NFADmjDbr++uuTBS5hZPZ9t7vdbbaV7ejdZBjPJWrBv6Gk5ujo81zGatGomXwhbKkF0ShEbQtaouD5+aW6M5C9fIPJjlK6i0CMy+BAuFCk9lH3sVHnpb+Bm87mCNe4tk2ofFSl15K1Y1T9ym9zQIADvDX7+FilFqklQmbm1MMX/jhE7c4778yK3kLUEN1Uob7wIJYGzh0BeRFziBpNmoCCYvrc9Oi8y9xBcszHZMcVV1yRPEmeeydZwgq0cZkWLoRDNQZkjoIzl6hFVXZhyZFGolYvLTSqEuW3biGAYBAUOWH2SMaGDRuyBFK3Wj3Z2hC2/NRyTEC0krkJMidb63K1gsBqBOT0yzHdkRmIWk6/X33HxfoPQTOo5xA1UbPyVxay292+IE1HTFbHuNBKq6Jcam3Lc4naTmsvUP8fzF73DFqV+9f/r/209llOZ117fvl/dgggatdee+1ABFdqqYla0QZtQgxRs6X6+BkQvfjlHUntceW4WSCgPwoSSu2XCNpXv/rVQtRWHg5tJD+1HK0kuWuiXIjaLHr4ePfwPuA0TQUXwoma9offm08ecVIOUbt3OP8eI65R/bT33ns3atMc0KYqbLpu+X32CMidlru4MtOnWUYhapueFwxzfNSYPGFY8Jt9fy93bEYAwcjxUysatdVYep9zNWpcT6655ppCdldD2bn/2jhNCyfCpXCqpJJD1KLhfGGQ3jF2xxb3tdipZd+MEUAyrNmXOqMTFUaYh2iXQjRWnhWtZA5RqwMJcmbeM+4W5XZLiID+mOOnRqMmmCBVdiw6pIiaCazUO6kFdgK5UrXxqdctx00WgTZO08aJQm2inGq4tjlELbouUBikG28qxDunow5XsHyfPQKI2i233JI8o6MN4p8Ws9nPvhXzvSOzJxxTS03UikYtFbFy3CwQYOIRuZhq+kQuStTn6idDUy7QKmcSJmlwjvxYfcfy3ywQwGlwm6YS40Qr50Q51fB1c4haIxFjiw2DdGOCtB13jCrbhutTvs8ZAbM5TvA0QqkFUZOaI1WYp163r8cZrPiZ5ARjwBBZK0Str099Mevtnc4xfULBJKUEE2zpDzDM9dFG0sqan1sw7Oq3GLfBiVr81Bo51dr2phK1u4YTGwMFNm7cGL1hWaR7Lezd/Z9/BAGRE0hAk7btttsWorbyWGFosBqHqOXMurvbi0rNFgUBE4fc9Wf1exO9Yrrb1AsQtVz/XfJXQFchvN1+k9q4TQs3wqlwq9aSStSo6H6g6WqBNUZVeCVbfRNy3ftdaDj/tFyiRgVcSMam52k2nOOf5iwaNYvaF41a996JZa7ROBo1suPrX/96IRkrHYcPb0jXkCUfyZAbb7yxYNjxl6+N27RwI5wqyp3q5qcStajG7P73v3/jfrOx4p9Ww939T0SNfxqtUGqhUQt9IEsQpV67j8eNS9SK6bOPT3ux61wTNZ+phUYtd53b1Gv38TjY5RI18jdnZZg+4rIIdcZtcJymEuNGK+c0cqfha6YStUbWF9a9ukvQBDR61LUxzuHKlO/zRwDJGIeoifgsGrVNz4+QRXhzzBY0apyOC4bzfwdKDbYgoD8ajHL6pX6fm+x5yx0X79s4RI38uOGGG7JkyOIh148WxTgOboQjRVrSyK2Gz0khaqZSDxo+afj7HnvssX0w1zSaRdtsuMPXKt/njwCSwUct1b/Ko0cyLFRbyiYEmH7gmOOjExbxHUh6G3mVCrwFgZkjgKDlTiAEJJnw5fT/mTdsxje83/3uV73fqbclPxC1gmEqYvM7LsZxcCMcKVI73KpVXZ1C1CwT37jQegg7jqruYmwzUvmya04I1P4lqXmQEAzaNJ+lbEIAyYVjjpDlx1IwLD2oiwhwbciZQNCoFaK2+knCUD66HBz5+eXIkNV3LP/NCoE2jhP2x7RmuBWOFS0pRC1KxIITeWMldM5YnpFozcrOuSCAZHCETxUQyIXZYo4Py1waNsObjkPUaNOKRm2GD6ncKhkBGvMcglGI2tbQerf5qeXgyPyZatnY+o7ll1khgOPgOk0lZESIcqhwXtv+QQpRayRiQS3+A2GW0GgWFZKc49vQ1NDy++wQIBiklkgtNVEjiErZhABtJNNFjo8a/GjVSikIdA0B73gOwdD/kYzUyV7X2juN+sBwu+22yxoPYWjSXEq3EcBxcJ2mgiPhSk37w++NHKs+J4WoNbK93XbbbbugSWm0ecVst3UFymd3EEAsCAdmu9SCYHA2Lhq1LYghu7acgQp+hahtwbB86w4Cue+2fl+I2urn5922wkMO4SWHrfKQI0dW37X8NysEYlwHR8KVInVp5Fj1OW1ELboQ+8477xy9QZvttq5E+ewGArV/Wo66nQAqRG3184Nj7kAFx9wBcfVdy38FgekgoF/maMxp1GjlC8HY8jxgmOujRitfluPagmGXv7VxnRau1LpAextRazRrAi2ochtVdmYOMXVgl0Ff1roRsPIf5RA1Aig3KmzR8YUfspYzUOXMtBcdv9K+7iGQ46dWNGpbPz/mMRPanPccUSsBBVtj2cVf2laeiHGllfZEuVYbUds2BkqI9mskauzx7PKl9AcBBOOb3/xmlumTJqhk1F/9jHOJWq2xKP6cq3Es/3UDAf0zJ/Kz+Kht/dxqy0MOUTPZI49zJnxb37n8MgsEah/EpnvFuNLKOVGuNTZRCwv13i28vD/WVLE2VWDTeeX3+SGAYIyrUSPMS9mEABxzggnqQIIcIV6wLgjMCgETiLve9a7J2qDa17UQjC1PiHwcR6P2jW98oxC1LTB2+luM8+BKOFOkAesiao0rDuy0007RCwtFLqVfCJgJW0wZ0UgtZorF9LkaLfjZUgcqGOZG1q2+Y/mvIDA9BGqilqrxRdSKj9rq54GoSQqeMxkjQxC1UvqBQBvnaeFMjVxL62MaNau636sJolCpKFELuUOaTi2/dxSBeibsM7UgGWWNytVoMVnQqKUSNRo1W44QX33H5fwvFd9hdMY5Z/j8ZfyuXxbT5/qePAytCZnzjps458iR9dWwnL1eBNo4TwtnwrVwrpEllrgpyvBCktNGJmbmJQlqKf1CAEHL0QRpnXOs63fTTTclE5N+oZJXW33/9ttvz8rMTnjXa6zm5LDLq9liHQ1nEXG5QRtM+9ayLZnz0/uDJeVyCK5jOcHDOTf6Ob1W/TqyfsdzcYRfKf1AAOchl5oUHTHOtNJCnOvaUa2NEbVGIuZCYXbQSORUmKallH4hQIjkEjWk5L3vfW9FzHOEUL+QSa8tE8dll11WDVKpeBDGZ511VoU9X6DU89JrtXhHwvn6668f3HHHHVmNO/XUUyuzHFNzwbkdOgTDROy6664b0PCkFAOVd+Cd73xnpSkuOAfTVRjArd1JvqYWx+ZORFKvXY6bPAI4D+5z6623jrx4jDOtnIBzTZaoWRV+ZG3Cj20qwKbzyu/zRYBAJRiaZgSjanfzzTcP3va2t43aVX5LRED28RNPPLHaEk8ph42BAKJxwgknVNsYp5dTMhC49NJLB7ZS1ocA02cp/UEA92kiajHOtNLCRuVYzEet8aSwEPt9woy2cc2gQtT607GGa4qgmcXlELXh88v3gkBBoCBQEJgMArVGbTJXK1eZBQIx7oMz4U6RejRyrhhRa9SYhZs1XlAlykLskUfR4V21Rq2YKjr8kErVCgIFgaVAgBwuwQT9etRt3KeFOzVyriaiJgKhcTn4wBqjRK1ld7+QX6LaEgzMQ4WoLdFDL00tCBQEOokAOZzj09bJRixZpdq4Twt3wrlGZtpoImpRIhYWl23czxlaGHIp/UOAyZNjezF99u/ZlRoXBAoCi4UAolaiZvv1THEfHKipxLjTyjkjudVYRC1kWG5U0bUxyqYGlN+7gQCSVjRq3XgWpRYFgYLAciNQJs39e/4xDhTjTistnQxRC8lNfzgs0HvvJvhilWw6p/zeHQSkPchJytidmpeaFAQKAgWBxUKgyOL+Pc8YB8KdcKhIqyZD1MIyCNuEzvMDTTeKVbLpnPJ7NxCQ60cumMjj7UZFSy0KAgWBgsASIFDkcf8ecowD4U44VKRVyUSNObQxhHT77bcfeaH6xm1RD/Vx5bN7CCBoBAPCVkpBoCBQECgIzBcBS8uV0i8E2jhQC4fCvbYagLf6IRwkEmDU7xVa973vfe9ffWn401bJhtPKzx1AoCZqHahKqUJBoCBQEFhqBMhjK2iU0i8E2jhQC4fCvbaKxhy1ztPI8NAaqh/90R9t9E+7173uVS3eWx9bPvuFAMHARy1HozbOOf1CJb+2gjGkOclxBK7Nzvl3W84z9DsY56aT0b9pjUvATHq/gZUVS3JK3Z8LzptQ01/Jg5x0G/pq8RnO6XXdOPYud7nLABey3u2oEuNQK8fjYF8bPjebqAVHuEYid+97N3K44XuW7x1FgDAxg/OZWkJ/GOyxxx4Dzz7nvNTr9+04GFh/8sorrxx89atfTSIEiMNDHvKQwYYNG6q1EfvW5nnV95vf/Obgi1/8YrUWZWoddtlll8GDHvSgqp8XEpGG2ne+853BBRdcMLCgfSpm/HR23XXXrElfWm36e9Q3vvGNwYUXXlhNLlJaQZaQDaX0DwHjYRNRi3GolZZuxbFG9YIo2wpRC1tdpIaxELUaiX5+Egz1LC61Bdttt93g5S9/+eCAAw5IPWWhj4Pf2WefPXjrW99aLbSeookwAzvyyCMHxx577CCEby80PpNqnAHMoPf6179+cMkllyQRCM/mqU996uBZz3rW4O53v3vSOZOqb1+vQyZYTPxVr3pVMs6ezSMf+cjBa17zmoGJXCmDahJ71llnDY477rgB4ptSaCWLj1oKUt07Bhe66qqrRlYsxqFWTtiKg40iajEidrfwEjauWEDdV0p/ERhHMBAkZs+777570aitPPrbb7+9Un0b5FIKLUXwWxhs3Lix0kymnFOOGVQanlhyyVEYmVjQqhVZNQqd0b+FxaSzNGMIcXCYHuy9994F5yFIb7755iwca3mcKkeGblW+zhmBmHzBoQKRu9vXvva1Jsa+FZEaFTSw1UF1mx/wgAc07nNMrHL1NcpndxEgYAPbr7RqqbXkc8EkkuN7kXrtvh4HRxtBm1Jg993vfjfZJJJyzWU4ZpzkzOOcswxYxtpovcmcDPmIRdEErUaULyVTWI7fKs0keVxK/xBo40ItXGornjVqJNnqoBqm+93vfo37HNNWufo65bObCCAXwdExyy8Cyfj2t79dzEhDj5SAzYnWYh5NMZEO3aJ8LQjMFAHmulT/NHKEprNogrY8InKST2Uqhs4kR5jQCo5bcOzLtzYu1MKltuJZa4kaU+iPNoER1qnaynY6fGzxURtGo3/fCQZmDp+pxUyREPdZyiYE4EejkKpRI7zhlzPbLlgXBGaFgL6Z837XGrVCMLY8Ie84y0NOMdkjjwuOOah149g2LtTCpXCwVYPwWqImf0ejY03QtmzF9GpYzKJ0qlL6i0D9DHPMFgQ4olZIxpbnjqjlkF1nEuQ5s+0tdyvfCgLTRSD33TZBKRq11c+ERi0natbZ5DALRyFqq7Hsw3+4kPG0qcS4VDgHB1uVS20tUWskYm4Ybt64n6qvdCgo9bcgFwRDrIOtbR2i9q1vfasQtSFg4Gc2nKpRcypBnqO1GLpd+VoQmCoCzPI5k4i6/5fxYMtjqeVkDo7ksSjwguMWHPvyzTOLmT9jXGqljau4VhZRCyHtq04eBi1WqeHjyvfuIkAwCKfP0QYR4vIDFZKx5bnCz5YjYOGHrJVSEOgaAoIJcgiGfi/lTE7/71qbJ10f7/dtt92WhaPJ3j3vec+C46QfxoyuF+NEMS61Ur1VXGstUYv6oAV19qqTh9vbZpMdPrZ87yYCZsLyS+WYPhG1EGZcSMbQI0XSCNmcgQpJK0RtCMTytTMI5ER8qnTRqG396MhJCbBzzMjkcNGobY1lX36JcaIYl1pp3youtpaoNRKxEKVw9/ACNq4QG2OPfQG21HOTX0QOUTPbJoCKRm1L7xlHo0aQ20opCHQNgZyIz7ruRaNWI7Hp07t9yy23ZGnUyJGSAHs1jn36L8aJcCmcKtKeVVwsmaiFRJGrTlx7g1il1h5b/u8uArnCgQAqGrXVzxPRNVDl+KjVuapyZtyr71r+KwhMHgH98c4778zSBNGoyf+Vo1GefM27dUXa8lzTp4AMFo6CY7eeZWpt2jhRC6daxbeSiVpL3o+o41xqw8px80eAyU6WfMI2pdSCHNEoZRMCMMyNepPw1lZKQaBLCNCUj5P/S9RbzkSlS22eRl3Ix1wc+aflWDemUe9yzfERaCNqLZwqStQaF2YLN10VLrq2+jF77Npjy//dRQDJCB0oK2Gr2aKAglI2IYCk0SjkDFT8gHI1FwXvgsC0ETAR827naHpN8kpaidVPRmR8jnsI2bHNNttkyZDVdyz/zRuBNk7UwqlWcbFhjdpdQ8OG/1/VzjD4rDpxeKdORUVbSv8RYLIjIJhAU4vZIvNnjiBKvXYfj0N2c4larVHLia7rIzalzv1CQH+U/yuHqJEdRaO2+jlb5zPn3SaHrUtbzJ6rcezTfzhRbLIe41ShnbgYTlaVYWLWSMQcGQaexv1SOpSyGAggGfe///2zVO5IBkGUI8wXA63RrTBQEbSp5mNXgSGNWo4wH3338mtBYHIImHzl5knU/2nUYoPU5GrY/Svx473++uuz5CM5jKgVDLv/fGM1jHGjGKdaueZmYpVM1MLAs/mktRWLVWbtseX/biPAbBcWjM0yfYoKu+6660p6iaFHy7ckx78EhsX0OQRg+doJBEwcxllM3JhQtEGbHiGiduWVV2ZZHBC1Bz/4wYWodeItGL8SMW4U41Qrd9zMuQpRG/8ZLOSZBERYhyzL9EkbdNNNN2UJooUEb6hRNGpIb2rhowbHUgoCXUKAlpwTfI62nAwpmqAtT5EP77XXXpuFIfmx7bbbFrK7BcZefpsGUbtbDImgHWjczx+nlMVAgNlC7p4ckoFg3HjjjYWoDXUB+NlStQpFozYEXvnaGQTGMX0anApR2/IIYXj11VdnETVkl2Wj4LgFxz5+i3GjGKdaaetmYpWsUQsdZ7Mabi1gMda49tjyf/cRQDBo1VJJBm3QrbfeWkyfQ48Whl7SVEGL7I6TWHToluVrQWDiCIyjUSv+aasfA41aro8a2cFXOFUGr75j+a8rCMS4UYxTrdR/M+dKJmpB07KZ3a0FIVaZtceW/7uPgOfJPyLVGZ4wFxkm8rOUTQgganBMFbSFqJWe00UEvNs5Pmo08vJ/pU5QutjmSdeJXMxJX0RmMHvSqpXSbwRi3CjGqVZaPZKoNRKx8OLdNXSeH2iCLKbeazqn/N5dBHSuDRs2ZDnDIxo33HBDiVpceax8THI0arSSNGo5vkDd7UGlZouCALNdjo9anUOtELVNPUAwBrMnHFMLsrvrrrsWspsKWIePi3EjnAq3ilR/MydL0qiFxGybmd2oi8ZY46jjy2/dRkDneshDHpJF1L797W8PrrrqqkI0Vh6tdyJn+RfmEVGfZYWHbr8by1Y7kwfvdmraGASN20Qhapt6ionXJZdckkXUTPJ23nnnZIvGsvXJPrW3jRu1cKvNvCuJqAXWt/mEUSC1VWbUOeW37iLgeTJ9mtmlFsJcCHqqQE+9bl+PQ9IEZaSaj7UThrZSCgJdQeCrX/1qFsmQkoZvVU6/70pbp1EPRO3iiy/OwrBo1KbxJOZzzTZu1MKtNvOuJKIWskxvPmFUc9sqM+qc8lt3EeAbIdliznOVFDM3V1B3EVh/zRC1XKdqGPL1K2R3/fiXK6wfASTj9ttvzyIZCBqNWiFqm/Bn8qRRy3FpoFHbZZddilZy/V147ldoG0NbuNVm3jVM1DbbQ9e2LtyscZ9jY3bYtdcq/3cfAe6IOpiZcWrhYyVFB/NdKYNqCZ1xiBqyVoha6UFdQAC5uO2227KJmrWCC1Hb9ASZjnN91MjekpqjC2/A+uvQxo1auNVm3jVM1Dazt7XVC9qBxn2O1bFKWSwEaIR23HHHZIFLqItuskJBKZveiULUSk/oMwImDONo1Ezwio/apidPHuZGwz/oQQ/KymPZ5z626HVv40Yt3GozsaqJ2l0CYD/YBFpghZtPWHsM7YtUBKUsFgIWVd64cWMyUdN6ZrvLLrtssYAYszV8dZDdnBB70XVSIRSN2pigl9MmioDJlzV8cyIWi4/a6kdwwQUXZJk9+afts88+WXJ39R3Lf11CADfCkZpKjFuFc3Ay3Kxaod1nlGkFm/lmFZyDhwvVXqwiw8eW7/1BAFHjJ5FjwmC2+8pXvtKfRk65pmZTbarv4SoIJCimz2FEyvd5I5CrUavT0pQxYdOTu/DCC7MSgSNqe+65Z5bcnXcfKfdvRsB7EBsDYtxq5aqriFqjNs3BYbBuDP/zYpayeAggGTvttFOWWbsmajkz8MVDbkuLaNSYP1MHLfgVorYFv/Jtvgh4j3OJ2r3vfe9CMlYeG804jVqOPKSRLBq1+fb7Sd89xpFi3GqlHhX3qk2fYxO1HI3LpAEo15seAnxMCF351FKLpLcWHxbSX8qWgIIcosZ8XEpBoAsIIBo5wQTGgvve976FqK08PL5pl19+eZbpM6RrKBGfXej8E6xDjCMlELWKmyURtTBoNxK5WCUm2NZyqTkgQBu02267JWuECHYk7ctf/vIcatu9WzIfy6WW6lgtYpaf2ve+973uNabUaOkQqNfwTU0tYUKyzTbbFKK20lOYPbkz5Pic7r777llWjKXrlD1scIwjxbjVSlMLUevhM59plWuilnpTAsksUoLHUgaV2RNRS9WoGRAFExStWuk9XUCA2dPkIZVoGJDkX4wNTF1o16zqcPbZZw+Q3dRCTuy3334Fv1TAenJc7H3IJWqNPmiwiF0sJ3t9T3At1VxBAFF76EMfmryUFIFOIyTBY6pwX2SwmTHCEiHJRA0WiC6yVkpBYN4ISC1habPUQnMstUQZEzYhds4552QvCYeoFfxSe1w/jos9zxi3Wmlduo9a7GIxttgPGEstmxDgBEnw5iS+5QwvwaPPZS9IWu66h0haIWrL3nO60f4bbrghi6gZC7bffvtCNMLjq1MV5bgxiA4sEZ/d6PuTrEWMI8W41Uod0k2f4UaNGrdYJSbZ2HKt+SAgoICfWmphvuOAXPzUNpk+adViM6q1uNZErWgk1yJT/p81Atdff302USsatU1PiVWB6TjnPd5hhx0qH79UV4lZ94dyv/EQiHGkGLdauVs6UYuxvlglxmtWOasrCBAYiIZZXmpB1G699dbBF77whdRTFvY4BA1+sTw6axtfE7W1v5f/CwKzRADByNWoSe5cFmTf9JROP/307ECCgw46aBBL5TDL51/uNTkEYhwpxq1WarCKqDVqzBwcu1iOtmByTS9XmhUCNGp77bVXcoZ9RO2OO+4YXHTRRSV6MTwk+NlSC6JW0pukolWOmyYCuT5qUnPkTEqmWfd5Xptf35lnnpm97vGhhx6aLGfn2b5y7zwEYhwpxq1W7pLuoxY0KxWrG1W9GFscdXz5rV8IELw777xz5XuSWnMh6fIHmZEve+GjZgBLNWd84xvfqAIKcpy4lx3j0v7JI6D/5Zg+9W9rA0vYuuzlxhtvrCLfc/zTBG4dcMABhagtYOeJcaQYt1qBYpVGrZGIOTjcqFHjFqvEAmK+dE0igBGNvffeO7ntMnHfdNNNlVYt+aQFPZDpk0YNjimFcBf5WYIxUtAqx0wLAX1QBHeqj5X+/cAHPjDLH3NadZ/3dc8999zqHU7FTn25l5jUpcqJebex3D8dgRhHinGrlTukE7XQeRqJXKwS6U0pR3YVgaCaHdzvfvcrRG3MByTy05ZTip9aDlrl2GkgUJs9U8kGOSGQoIwHg8rsieimYuf5HXLIISXR7TQ6cgeuGXsnYtxqperpRC1mR41VogMYlSpMAAFaIQu0p/qfEFBm4xZoX3bNEG1aTi412ImaLX5qE+i45RJjI3DFFVcMLAmXU0pqjkHll/bFL34xCztatAMPPLAQtZzO1qNjYxwpxq1WmriKqDWaNh0cY30xR7keYVmqGkGA3wmzBrKWWv77v/97cOWVVw6+9KUvpZ6ykMdZmQBZo3FIKYiasH5bKQWBeSGAqHmHU4v+/eAHP3jpfdREu19zzTVZ63tyLZFYvIylqb2tX8fFnmuMW620Mj2YIMb6YmyxX3CW2jYh4Bkjavvuu2/TIVv9zteKwLrgggu22rdMPwi3ZzrmLJxSao0arVopBYF5IZBL1O5617tWRC02KM2rLbO87ymnnDK45ZZbsogabVqO1n2W7Sn3Wj8CMY4U41Yrd16lUVt/bcoVFhYBs2Vr+AkokCsppUjTQStEo7bMa1cyayBqttQivYkNhqUUBGaNgH531VVXZWnUmD1z1rWddZtmcT9yTiABH9PUQj489rGPzQo4Sr12OW5xEKjtMdEF3cKL+z9NTS5pBJqQWazf+aftuuuuWWk6LEh82WWXLb35c5tttskianyDEDVpTkopCMwaAf6lfCRFb6cWKXyWPTUH3zRpiXImWPx/H/GIRxT/tNSO1sPjYhwpxq1Wmlpxs5qoRd/IYI5p3J/zMvcQ41LlFQQI4Q0bNgwsGpxa+LhY93PZ/dRyNWreKas7FD+11J5WjpskAsyed955Z9YlEbVlz6r/+c9/vso9l0PUkDTRsqwWpSwmAjGOFONWK2hU3KvuHY1EzMGh4zVq3GKVWEzYl7NV7OzMn1YpiNnch9EhsJAN637mRpANX6fP32vTZ87C9nDj51KIWp+ffH/rLgjI+8pfMrUsu0bNpJQ/bq7Z87DDDqu07eREKYuJQIwjxbjVChpZRK2RyMUqsZiwL2+r7nGPe1TmT4QttXznO98ZmKHTEC1rEfUpmWUOwS0pOpa1t8y/3fzTvLepRA3JsCpBqv/q/Fs4+RqYWElHlDMe8ukToEWulrK4CMT6RCBqjdxqBZFC1Ba3a0ynZQSxmfPDH/7w5BuYaYr+5LsR67DJF+zhgUxCNGoEc0qhUSumzxSkyjHTQMDEKkcD/iM/8iODBzzgAUubXsL7yr2Dm4fvqYV1AsEtZs9UxPp5XGzcSyBqq3zUGk2boInZUWOOcv2EtdS6CQF+ag95yEMqP7XU2TPBZTmpM844Y2mjP2kcaCFTNZE0GTKbM32W96upN5bfp4GAiRWNWg5R47u6zBGfoj1PO+20bLPnEUccUcnTQtSm0ZO7c82YDI9xq5UWFI1adx5lf2pCTb/HHntUAia11hYaR9QsVryMhSAW+SmxZWoRMcucgrCVUhCYFQIWYtfncjRDO+2001IHElx77bUD+dNiA/La58cVgtmTNrKUxUZgnRq1dKIWbtSocYtVYrHhX87WSWy52267ZSW/5e/Cf0NQQY4wWxSEa6KWk0tNwmCDJrJWSkFgVgh4R3MWY1cvWfXJhWV0iDf+XXzxxQOpOXLGwkc+8pGDjRs3FrPnrDr2HO8T6xdhXyO3WqlyOlGL2VFjlZgjNuXWU0JA5nH+KJLf5uRN4hx/6qmnLqWGyABGo8ZPLXUwQ2gLUZtSJy6XbUTg0ksvHdCApwYSuBANe+o6wI037ukO+eZOOumkrHQmJm6iPbmRFLNnTx98RrVjHCnGrVZusYqoRVld7GLLqCHJeEYLeSjz5+677z7Ydtttk9snbP2ss86q/NWST1qgAy0hhaylDmjeK759ZSmpBeoEPWgKjZpEy6lETaAMHzUatWUsJlMnn3zygAY8tVguitlzWTFLxWlRjotxpBi3Wml/xc1S86hVrG4UcDG2OOr48lv/EUA2RH8S0KkaIv1EJON1112X5f/Sf7Q2tYAmUmLLXHILMw7epRQEpo0AFwXEI6e/WTqK72WqHJh2G2Z5fWSWf5otldiq3y677FK5jxRt2iyf1vzuFeNICURtlUatkYhpXuxisUrMD5py52kiQCgz41mlIMcZ1qxzWSMZmYkf/OAHJ0d+en4i72644YaiVZtmZy7X3oyA9BK5gQTMnjTsy0jUjH0333xz1sRTtDxtmgnbMmK2ubMt0ZcYRwr7otbMAFM6UYtdLFaJJXoWS9dUSVwPOeSQLOJhBkkbt4wCSrLbXI0azQYN5DInC166F2uODRbww+cqTMyTayGwiFl/Gd9pIOUum8X9wSLsOf69yQ+jHNhJBGIcKaYEW2lMOlGLXSxWiU6iVio1EQTufve7V8tJifhKybiPpFmAmFZpGYWU9tNCivxMNXlI0VE0ahPpruUiCQggajRqOWY87z+t+jISNe4MO+ywQ0VUE+CtMILXox71qCSZmXLNckz3EYhxpBi3WmnZKqIWVb+FGzXuN5iUspwIIB6Pe9zjquWR2hBA0vbff/9KsLUdu6j7DWhm1KlLxnjBpee44447srQci4pfadf0EKBFu/zyywff+ta3koka7TgftVyt0vRaMfsr89U98MADk5bPkhRYkluJr5eR2M7+6XTjjjGOFONWK7VfFUzw3ViTwo2+07Q/Z024pmuU3/uJAPPnUUcdNXjCE54QTeaKmBx88MGD5zznOZVGqZ+tXX+t+afQKOYEFMh6LlGwSLxSCgLTQoDvKDN7TvQibZLErctMOpCuF73oRYM999wzqiUjK5/4xCcOnv70pyeRumk953Ld2SJAO40jNZXgh3xn076V3ytu9kMr/wgro2L7wZX/V32EGzVeTEU4PaemHVh14fJPrxFg8uSj8trXvnZAEH3iE5+ofFxqUmGmTZDTpL3yla8cHHTQQUstpOBhbT956JiZUgoNh5QJovGkRCmlIDANBCRsNSGImWnW3hc58d6nmvLXnr8I/5t8IWAw+MM//MNq+S156GhR/GaSyt3BZPYVr3hFlRx4mYntIjzznDbgRjFXgrC/mcVt4mRVyH9N1NwbGfvRUZUIA28jUatOvPPOQtRGAbcEv/E3I7CPO+64yvfic5/73MCizmbmzCIHHHDA4NBDD62OWUbftOEuUCcLZjJOLXeGd0s0HhNoIWqpqJXjchG45JJLqj7GBJpaRHzKCbbMRA1WlBTIGtL66U9/enDOOedUAUAmZnzSjj766IGVCCS4LSQttXctxnHkd6y0cKvNJ0+MqOWsYxireNnXPwQQEDnVRDWKaKr9XAgwwivVJ6t/Lc+rMSEND35qhHjMd6G+8nDiWzOzIuhrZMrnpBCo/dNylo6iSdp1113Lu73yELzPVhswaRWQwdzF4iAilnmUjCxl+RCYBlFrVMEF1te4D/QxG+zyPZrlbTGNGbNeKc0IiJZl/qRVY85MKVZ1kKKjuBikoFWOyUWAq4Lo4hz/NJOyBz7wgYWArAGbq4etlIIABNq4UQu32sy76pUJXHOzms0/wyXY3Bv3Oa6NNQ5fq3wvCCwzAiI/d9ppp2qQS8WBhpL/kMCCUgoCk0bAJCDXP43ZU1DMsps9J/0syvUWC4E2btTCrTbzriSiFmb0m08YBWNbZUadU34rCCwjAkwkouVyIj9pPKz7yUm5lILApBHQt/hA5gQSPOxhD8vKCTjpOpfrFQT6gEAbN2rhVpt5VxJRCwPEd4N/zPebgGmrTNN55feCwLIhwMdMFBgTceqizExSBlJZ4yOv4bJBWdo7AQT0JyZ45vXUvmWyYb3KZV6RYALQl0ssAQIxbhTet+/jVhEYRhK1zfbQUScGp+bG/W122FHXK78VBJYVAcEVzJ+CClIL85Q8V/zUSikITAoB2lrpX3IWYjfJkA+wOMhP6imU6ywqAjFuFONUK3hs5lxJGjUnhRd5M7tbC2qMNa49tvxfEFh2BAQU5BI1GjWZ44uf2rL3nsm2n9nzggsuyCJq0sSIZExZOm6ytS1XKwj0C4EYN4pxqpVWbuZchaj167mX2i4AAkyeNBI5GrXbbrutyk9X/NQWoAN0qAmCCORQy4n4lBsMUSuBBB16kKUqnURgUkRtOLnLZjXbqBYH9te4P6beG3Wt8ltBYFwE+NEw/3F8lmNMDihbnV/MLL/e5Hrqonmm9lMTUCClScogqc1XXXVVlUZBzrplTx48bv8p521BQB4/K2Qwq6cmuvU+8U+zbmX9zm25Yje+eZ+YcsmIWj7U7SMb1NundyjVT7QbLSu16BsCMW4U41Qr7dzMuYaJ2mY12ygwwkvduD/GGkddq/xWEEhBgHDV0aWn0MeQFd+ZASWVNND43ScCx8nZJgUGPzAaKzmN/Cb5LpOjrQvkTUZ3KzdwyBYkkFKuDisUfOlLXxrsu+++VUb4lHPKMQWBJgTuuOOOwemnn57l9+h9kui2C++QdpmskQk2coCM8D4hn34jP+rfEbRaDpjEaUsd1ON3m/eR/CilIDAJBGLcKPTLRk61cu/N+5OJWujwm09a24BYZdYeW/4vCMQQMAuWId0ggoxdeeWVFTm55pprBjfffHOVoqIWyoS02XOdVqDWpJkpE8RIGcGLsFm+hcnG2qSEM40AsuS4eRT1QtTUI5Wo8SeiAeGnpu6lFATWgwBz+he+8IUs/zSJbvXbeRI1xItsICfIBOuUei8E25Ab3AMQtFqrRk7YEDX1rjfaNDLCaiG02zvvvHO1sgD/Ue8lIlfes/X0sHJujBvFONUKcps51zBRE05mobdhv7XNSIeZyuaTNv+48oXmw+BZlgpai0z5PwUB2jCC1cDBZ+bss88enHbaaRVJu/3226vUATo8wTtO4UtjlkzoWuqMQKaVsv7ehmBGtEqAfbP0uaHlQxil6rj22muTTE8wcCycDJZdNT2N84zKObNFgMzWl3IS3epvfCv12Vm+KzUyJjTkgbWETz311MGFF15YuQP4HWkTwTpuqSd2SFstIx73uMcN9ttvv4qw8cmjcSulIJCKAE5Um9xHnRPjVOF4XGxziP8wUXMtZOwevqwtIc9ONNumPDyFqK1FrfwfQ0AnJmANGBdffPHghBNOqEiavE5mxSm+W7Hr1/vqiYQXx7WZD93LgLNx48ZqfdJHP/rRldaN9o1mbhbFEjxm79oem3kN1wVWoj9lhi/+NcPIlO85CHgXzj///OR+59q0TxLdzpKweHe5OnhvTd4++9nPDi666KJKc0Z2TKqYBNpqLT5N44knnlhp2h7+8IcPnvSkJw1Eu0pWTdtWSkGgDQGcKFZaONUqxdhaoubKI4lamMlE76pSZvmlFATaECB8ETFmTT4yH/rQh6rZsRkxzdq0C1Op/mrjoG8AIICf+MQnDo4++ujKWRqJm7bDvveF8D/55JOTB0zmHXmvELtC1KbdUxb3+kjOWWedleWfRvOMtMzCXYCpEkHjl/nRj360khH8ztS7dnWY5tNB2tzfdtlllw0+/vGPV5Oj5z//+YNHPepR1aTunve85zSrUK7dcwSML7HSwqlWnTyKqI1kW8EXYNWJayvQVqm1x5f/lw8BJk4Eg0bIzPiDH/xgNavnADwL4TsK8Zq0IY7qZVB48pOfPPjxH//xyp/N4DQtDZtrc8xmbjEIwaet1KYfM38+NMtShrGpv/usv6fi4HjP3GRh2HQ8/D31Wn0+Tv/JTcvBVL/XXntNlah5Lvo4rfeHP/zh6n3km0lGzKu4t4259bzzzqvMoT/5kz85OPTQQyuNuAnTsvWfeT2LPt23jRO1cKpVfGstUftaExDh5fl2EHDfC4PWD486xotfSkFgFAIGRw7ABO7nP//5wb/+679WZgXCj2DuQlFHGj1mSD4wBonnPOc5g2OOOaYy99CuTVoY8/OhVeP3454ppl71vOGGGypTEP+6aZHIWTwTbak399MX6v9pVGg1YFI7g/te/49sXXrppZUG1jmphUaS6Qw55lTuudbO5b7baIzq5+0Z1c+9/l7/n3rPLh6nr5s0pWIHD76dXAOm4Z+mHuSBZ0N79c///M8DAUSefVeK/slk/LnPfa5y0eDD9tM//dODAw44YCDIAkalFARqBGKcCJfCqepjR3yuIlRridoqFrf25PAifT34Kdx/7e/+b2OPo84pvy0+AgSwDsvM8rGPfWzw7//+7xVh63LLkUrmxT/7sz+rBPKv/uqvDvbee+8BU8ekBynRqCJR4UOrl1JEtjHJIC19IGoGOBtypT/4NCgjCjbm7nqr/xfZCg8DY31cTS5qE7mgCr5LqUUdPvKRj1RaXP60Akz4Xdl8t/mdD5LN7/yxaEzs893mGJ+w1x+GP1PrMu/jkNOcvqPvC74RBDPpoj/QopnEeed8+q2rRR/WXxHKM888c/DsZz+72h7xiEdUfaar9S71mi0CMU6ES7XUZtX+LKIWBGQhai3olt1bECBsEYpPf/rTgze/+c2V2WDL3u5/Qwg+9alPVUL5hS984cAMWgDAJGfOosmkDZGuI5Wo1aSniwh65gikT9oQpFe7CC2b7zYDM6KFdNapWPzmGJ/T0KQYYPk82VKKSGDm5ToS0CffRZt0DsiLzXGen2ORu1pDV392UQOnLbS50lukkCL9lOZo0kRN/+An+oEPfGDwzne+s9Ise059Kfrq3/zN3wzOOeecwa/8yq8MHvOYx1T9YNITur7gUeq5BYEYUcOlthw58tuq/VlELcxuv071PaqolBesi0JpVH3Lb9NFgABmzhMo8J73vKfKdTTdO07n6gaxk046qUpjYIB/xjOeURGrSTny08wIZDAQMg2nDJoGWf5tiMA8S00Y64g5xLbW9iHoCJn/mRuZa5EC6SCkU5gGEZs0FmRaTNgiaeQh8u75MWF7LggbMuc3hI4GDsFhUq3J26Trmns99RQ84x1FNmJF3WnTJp3oVn9BcP7lX/5l8O53v3td6TVi9Z/FPhrx3/qt3xoce+yxg2c+85nVO13I2iyQ7+Y9cKGY7MClWmq+av9aSc/2YjrzA6MuEiJuVtlNh48xwDBXlNDlYVSW8zuzFmfgt7/97VXAAM1J34vIr7e97W0V4SCM999//8r8NYl2GQCZVvlcMfXFikGTr9A8/NMQMwSL2QcRF4EnCALB5E+EjPm8OhDaOvloCvGMtbfL+2rtoGSrw4V2jc+SZ8S07TtHfITOJ3JXm1E9zxwT5PB91vOdnOZ/KWchnyuye1RRv3322Wcg2hHhnFRxPxOgv/qrv6o+kf2+F/6tf/zHf1yZ43/+53++mtDNezLVd0z7Wn/9Oyb7YlwqtBkHW+UHs5ao8dz0xo5MFBN8jVaxvHDcqoJBFqK2CpKl+0cHNbv8h3/4h8ofqI149AkgWqL3ve99FUF58YtfXIXp06qst9CoPfaxj62yxMuy3jRoGTSlR6hNsNPWXiNmNSGj/UBMaMXkcuMbhqAhZL6LmG2q93rx6dv53gGk21YXGizPmdYNcauJnP9pSJEgBM/nJE3r9f1HfUoN88pXvrIy1yJsNGsmWbQBNMbqxSz/ohe9aHDQQQdNLNqzdod4y1veUhFFpvJFKTTIb33rWysZ8XM/93NVYm2kvJTlQiCmTYNEC5fCwVZF0awlaq6BjI0kauFFbiVqZpClLCcCBqjjjz9+8Kd/+qeDc889NzqjyEUIKTF48AHySfgZ0JgXahMDYmEj+A04NgSDM/qkCi2SiFDao5e//OVV3rX1kjVtkVBTPd/xjndU2kj1HvbVMYjT4tHmMVlxbp9GgR1yjZQJAuE/JBJPKgcEzSBb57Oaxv0X9Zq0yjamPoUWjWatNpFKfCyZ7J577lmZS5Ekvm/THOQR/yOPPLIyaX7iE58YnHHGGYOrgzZUv0Mg5QszgUDoJqUZ0nf+9m//dvD3f//3Fcn3vk6yeE9gZtO+WkbUkxr3o+kwqSAfaIf190lOMlyLvx0t/Otf//rB4YcfPjGSO0msyrWmh0AbUWvhUlvxrCaiNpJthRn0VhcYbmpb5YaPLd8XCwECjwkFSTM7HyYZ47YUAaNhsKSLgater5MTNI0EX6DhVApIBg2QfohI0fbQ9PDDQSLNdn3GVNIpdSWIDbg0AgYCxMkAsZ6iLXxbDN7vf//7K5++mmAacESUPfe5zx0ceOCBFRbrudfac5kzETO+Y3zIaPUQbdghZnBDUPvgV7a2bV39Xx+kkbTBG7FAzPR15lGk3LbLLrts9nmbBjlHYHbccceBYBmTBe+H4r3jX+eeNclZL5Y0diYif/d3f1dpYSdB0hBessH74x20YkdtcuYjyMLj/XEcmeTdtSGM+rrJB82n7yYm+nr93q23vZJ5/87v/E6Fpfd2Hibu9bahnD8eAm1cqIVLbcWzRhG1Rj+00JG/E4T1f4XZ1V1GVV9HL2X5EDAzFVL/hje8oRrg10vSkB+EBSGTYNPyTrQNtA/1jLkWvqPQdn/EUb1qgkYY0xggkfyoCGQCe9ziXNfih0fDxxxJ27eeYrCRaNcAjWQaPAxmBkyDqYFnUlnh1R/5ggNzJmKGaCNnBjHEDektZTYI6K82xI1/p7QPCAjSxn9R/6pJGzLnPZgUgdJC17NNqxi4/u3f/q16X5jK10vSvP/eB+Zk8gERopVEdpFM76StqZh0kA8274F3wLJRVgmRmse7RwO6XllGLv72b//24I1vfGNFImvtf1O9yu+LgUCMC+FQuFSkpVsRqVFEbSs2N3zBIEy+Hl7obYd/q7+3scj6uPK5OAgY8K0Z+KY3valaDmo92ioEDRljannKU55SmQyQNQMIwZxaDGA0ATbkhzBnUnrCE55QESCrIki7QSAT0OMSNkTGrJk2xKAgU3lscEipv3YyO2m3wURbhs27KddoOsb1EDBE7Opg4kLO+BMisbQdSK1jSpk/AsiDzaQCgWBuR0w49h988MGVr6LJjG0amrZJIsC0KPqbBlq/Ww9J837RptOcPfWpT61khHec5ixHY8WUi9DZyBwkj//n05/+9KqOXDjk3FNfg+64dUb0kD8m0D/8wz+szMyTJNiTfE7lWpNDIMaFcKiWO221P5uoBbVwI1GLsciWipXdPUQAKaOBoVWyyPm4GhhExEwYmbLWpiWcaJAI5UkJNZooApk2QoJZAll+Nwl4mZ6Ql3FIJl+yU045ZbP5hbCfxKxZuxHX9RSDhE0dac6srUpTY7FpfmdIG43COO1eT73KuXkI1No2Zmi+gkgP0kaTRNO2cePG6n/9G9Gf1DuTV8vRRyM4NLUc7E2Mxu1rSJg2SxNi+abDg99XbdYcfef8X2vfNuS3lkXcED7zmc9Uda/NwrlXNhFE/GjGf+M3fqPSknbpGeW2pxzfjkCMC+FQLVfYav8PjjhBao6DRvxe/RSEwoPCDGb7UfsJfQ6ok3I8HXWP8ls3EEAAmGnkP7LcS2wG0VRjwoo2AHGSn+w1r3nN4GlPe1ol0JCUaQgz13RtZiUmpcMOO6yaVSMyiMs4GiX9HtEzs2eiJfCnUfcmHId/HyZnzDcGdmkQ+Ab99V//dbU6BHJNW8Onz/GLVmA/L/ynjSWiY0Kkv5pgWO3D8/Ws9cN6soSwmTDME4daRvzu7/7u4LTTThtLc63+NOr77bff4CUvecng13/916vvNGHTGmfc08SO2Zl82HfffSu5QMbRDo6jXfOu8YerZUSOhWDafapcf7IIeAeR+6YSrDiXh3f3iqb94feTw7ZqcdtRRI3jzqFhG5lLLaid7xnMMhvD/pHF7G69UXAjL1x+7BQCBvpPfvKT1YoDOcv41I0wiBBaMnlLEfALv/ALVbCAmfOsBhf3QtgMAvotZ3oDoBctl8AQ4DQfzJZMrevVhtU4pX4aPAwG2iDajJbPmqrImYSizNMGGgN9bttS6zCJ4zx7z0X/MBAPbwbPeqNttSHFtZmbhsUATv74zmfQ/7WmpD7HNTwf2/D13XN46zJOsPbMTSyYrZmwRW56zv63T1u0sW7TJJ5PzjXICJM4m/cjt+gHyBIN++/93u8NfuInfqJ6ntozi1L3Re/04x//+OretYzwruUWmm1abbKGqVX7Slk8BCgwvIdNJeRdPD9Mlm9q2C8M+tNhWzWDHmX6dOAdYRu5pmcYlG/huNlUqOd17FIWFwGDPb8mIfYET26pBTDBKx8Z5/l5FgM9ExKCxUTDH8jsN1e7dsEFFwze+973Vv2fL9G0ZvzDWHkWtUZP4tXzzjuv8okxcBtUulhq4qAf1INhTZiQKxuNA2Lls/5e/+9Yvzm//qyJl2s7zifCDR/P0cDqkxkKifFpc4xPGNYaKb/ZkAsRgL47H3FzPZtr+OxSUVc+kzaBB1JvyH/G55MrAdIKm1kUWJ966qmDf/qnf6q0t7n39DzlcGPmfOlLX1q5LOReY5LHI/t1EluTH36u41gRvKN/8Rd/UfkaGidnNSmdJBblWnEEcKBYwaEi+3EvHGxVGUXUHHBr2EYStTAw3xoE1vdDBxupcWMCKmWxEWB/F82EmBiwcorBVZoNqSbkIeMY3IWiXgYG6/XJIP/OlTxIOTNnGjUmHpGqggH4ujS8JutusnoZmGkzL7zwwsr3jAkMgUYsulLgWmuufNJmMWXReNn4JvrfRrvJh5Cm1e+IhWPq/T79NkmNCnKGkNlogPgh+e4T0SXPfPrfxjxeH+e7Z4DoDZPBLmjimLdt73rXuwaHHHLIZhNeHT2NsE2rb2q/fkmjS7ubS2j1ET5iNO3khP+7UuSVQ7AEBpjQ0cDnFkE8fHqf85znVNre3PPL8d1GIMaBcCccKtKCkfuaiBrG97BRFwuC6XthQPpa0ELcZ9T+NjY56pzyW38QQAL4PTGzGKhyikGb1urYkLT1Z3/2Zyvn4JzzZ3Esh2WZ2BECUWramkPWaOKYhPm10NLR+EyyqAvc5YajXkcMmTndd96FpqvWbPnUdg7uMLUhYf6XpR+J9WnzG3PlJAlYKhYIi00dYgWhM0GRsoFpkTD2nbzzv43Jw/+IXk3ehrVxsetPax9S+R//8R/VxsTP5+rw4IhP0wb7aWBuwuIdEFnte05BymjYX/3qV1dRnV0iaXU7aCvlR9NvpBzJJWveX+fJjSh6dRrPoK5r+Zw9AjEOhDvhUJFajdS2xYha47VCR7ulELVGeBZ2B+2ZwYgDs5xkOcUgbo1KpgxLq4iA6mpBKCSfpXFgCqWxytEcOt7gSEPHF2Wd2KZlAABAAElEQVRSmgsaHTm2RNHZmDdjs7dp44uM1aZKmi+aMM8V6ak3GtMNGzZs1jDqB30sBmX+Ura1hQmMcJZKgybJd4N3Td4QOoSJj5JnSAs3D60bs7hN1K/38FnPelb1bCZJFLwnJjf8InMncvrGAQccMHjta19bJd/tIkmrnz2N+ete97pKLnzwgx+s3sOcZyplxwc+8IGqP5E3pSwOAjGihju1tHTk/iapOfLg+gZhZnlrEFi71/8Pf5p5ekFLQMEwKovx3ewYOSCYDDiphSbNYE2LRltlQO96QTSe/exnVyTr137t17L8vQzcfFhoBgzsfODWW2hpRBIhjszOOfiv9971+QZSvjrebQSNloxjNB8omgEkrTZb2j9JAlDXoYufzLQ2WNSFRs0zYjZF1ERlSokiRQU/JcSNnPRJZuYM8vU9xv2Ul83SYDSEIq1p1iY1mdBP3/Oe91S533I00dpC2/6bv/mblSbaJKDrhQn0t37rtyrtu7WNc3xCyVL+e4KppFnp6wSm689o1vXzTnufmwru1LRv5feR3KuJqMnjwdFlpN0mMMZbCOamglEWotaETj9/N5B4rhyECfmcYvCWwNYMvg8krW6bwVe0l8SXfEpyzDj8g2AlCS5H7vUMhLA3uL4z+M3RpOXUo27LuJ+0Gt5lG2K26667Vo7QUqrUxIxGADErZQsCcIOLDWb8tJjCDeYIkkTLTNeeq4AcvyH4iNssSJv76Nd8rmyT0F6pN5M8jTutYU7xrtFi86frA0mr22YiJiDKSiImsAh6aiFHmYj547WZ3lOvWY6bLwLGyFgJ+2MH4Fxb5VBzvSaiZp8LPsSXtSWo+GM3qwZ0Zp9SFgcBswRmN0liOU6nFgMAB+bnPe95nQkcSK07cmXWzKGZRoRJM9UxmsCWXJYGkplkPQOhQY/JSvDGtEmaNvMt49hv8KTl4NtEO8g3x+82xGw95DP1GSzKcbTKJin1RAWpQeJr0ubdsn4s4sZs6nez85x3LRcrfo2Iv9yX6+mf9X3JCGTFOrs5rgLujcQiPH0k/MY6EaGeH9KdSrQdx/x5zDHHVP1iWTTQdX9ZxM84Dxtwj4hxp8Z9MaJGRddE1L4aBqzvBeEzUj/dVtlFfECL3iaaAH5pNEWpheAx47TYs+SyBqu+FbP7I444ojJX1c7iqYKYmYuZkvM2bdS4xYBNU8HnaRoF4WKerTVAzNQywNtoAxE2EZfFPDM59GEOVxuMBZ9YEsl7dvHFF1ckHznX55hOkbfUSUJqLU0A9KtcE2XT9WkJrZrAFy+1wIHG8WUve9lAv+sj+SfXaAKt05ubjgSxOylEa5vMesdK6TcCMe6DMwWiFsuZ1GgWjRG1RnYHyuCLcGswh4zMrTBPB+d+P+Zu1p4gv/rqq6vowpwZvshJAkzCyknM2OeFDpJlnVAaLZFsMR+E4TrSqtHCSZkhynHcGbP70bCk3ne4Dk3fDYieCe0YEybzC38ZmjMaQM+uzlHWdI3y++QQqJPy6icCUJjcER5kn+O5wZxWl2zl+zYJ0mbC4d1OnXjEWkuDpo652jRBKHxB9bs+ywh1f+ELX1hpRE3OUuUk3JiKrczinesjUY31i2XbF+M+OFMLHo2ca2yiFvwpbmkiamb+OmqZgbc8lp7sZm5DNszwU4tZJrOZpLZ9N4MTnkLpEU4O4TnmDRFwCJ50CCIHxy3jkrz6ftpg807S4iCfCIF6SdngGZnR0yCWwaJGbT6fBn0bEoO4MU0yC8q/hbTpT0gbDRatWCopWNsaz5rGexJyWhoShCNHm6ZPSwz9/Oc/fyF8mrkIWEOYrKQFTS0sFQJMaFYn8SxS71uOmywC3sOY1QNnarlj4/4YUYuyv1ChWwzEo4pZggqvx9wz6rrlt9kjYLZNnWuWmOMfZdA3wHBU7qPJcy3StEvaY6M1SNVumWHxOzKwIkbjlNosyX8nN9qzJmdm6zU5s3A8cyxzG43aekngOG0q56Qh4N2x8ZWk6RSUoy/V+fNMHGi7yVt9Msc3TOoU/Xk9E4i6FfWqGDnJlvVJvqvI4iJMDjwnRE1qHsFHqQSadtQ5Jk21D2ONa/nsDwLewdj7hzO1tKaRc8WImhhTEQj3GnXx4DvReFHHG9wLURuFXL9+I0T4ySBqqaUeWDgI0wgsShHpyAGcA7acWamFVs0se1yiJuLSvb1P0h+kmKo8A1oZfme1DxTNGVO0gbGU/iGAzNTvlgAXmyAE5nhaGf0MiaPVaiNMSFKd/NYkZL1FkBFfypwic8BRRx21UNn5rbrCJ5f1wcCdWo4//vjBcccdV02cFoG0prZ7kY6L+adpZwtnwrUa83rEiJprY4AjiVow/0TZIa0DtXYp/UaAD4sknpyOUwvBX/s8pZ7Th+OYJfjS0EjBJMVPCKlC6mxmW+Nor/gvSQSKZBH+0jg0kTV1dDxtCQdl9RUMYVkrv5eyWAh4z2z6xUnBR0xKGOSNpq3O0TY8y2fupJnljyjx9CRyqLm+6OYcjbtJxNOe9rQqLcWiERPtsnyWwJBh7GM9T5AWmUJzioyX0j8EcJ5YaeFMUT6VQtQ2jrp5cG7+Tpi1fTMMyj82ar+8MqX0HwHCnkNz2wy9bimhS32PpC+iRrXOI8a0AZuUIhAAUXM8/7BxCo3aC17wgsq8ZUB2TcEKCBvyZ+AzAHNHEGFL88fsvKGnkXTjYLTM58jDJQ8ZksCXjYaGLxtNbh0xisQjAkxs/ML4VCFu6y0ICRmRk0OMyZ3GfREnD7RqJkjIcqrPnvcY2eULW4jaenvkfM6PcR5cCWeK1GxdRC1q3gwC4LqwgPXINUE5uhrcJ6FWjzSu7JoiAoQHQiByMbUQMnxpEIVFLBy8aaq0URqFlELzJrmlvFXjEjXvEUyRMSZUOdpcjxaDDxtChhwbhG0Wli9l+RDw/tWpVeoAIH2P/xq/UatIyISvH05Kk0U+xLS8o54CDbFJxaKSkqOPPrpatD2VqMHo9NNPH7zkJS+ZiM/gKMzLb9NDANfBeZoKrtS0b+X3KNdq06hFdXnB5nptE1EzyFMFjuuX09KosntGCCBqfF9Sixm6GSVzzKIWEZKWC0olaswfZlveB9qucQtsDzzwwCrxrHuLPjUQ8DdSJ1q3cYnguHUq53UXAf3BNu0iWEb0KZmfWo488siJLK2Wer9ZHydIg1nZ4J1q/rRSBUJtMlhKvxAg22P9H1dqaVGUa7URta+Fi38rbPcYdZMwUFxHxdtUzPgLUWtCp/u/EzAchD3H1ELImLUvsrChvZKlH3FKSRYKRwK7zdk0FWMBArRri6q1TMWhHNcNBEwaELXUwtxJ6zeJaNPUe876OO4fJmW0mqluIyZzzMiT8BucdXuX/X5tYySuFMEIx8K1Gsv/adyzZUfjKB064c3BrNO4uFnMZrvl8uVbVxGo1bmpgoYphe/JImvTPCvmR1pDhCm1ILy21Nl16nXLcQWBeSKgP3OCz/FPM3mXZHmcwJp5tjX33sy7Oa4/0nlcHVKtFBmRi/T8j49xHRwJV4rUspFj1eekELVGJhg61PeDb0Kjys4LXDpdDXX/Ps2S21S6w61C1JjhmvLrDR/b5+/aKe2ImW9qoXkzW5Zeo5SCwKIgoD/zT8uR89wGBL9Mykeuq1hKP5IbrMGfMCWavKttXsZ66fu4TlPBkXClpv3h94kQtehFgjmncT9NTGxJhUjFy64OIOD55ZjraqImsmyRi3YiaSLtUgvha0DLzTWVev1yXEFgHgiQ7zlpOdRxQ3AdWGSzZ/0cdt5554qQ1v+nfDKhxXydUq5RjpktAt6BmNUpxpFWatqoDKtbkqJRo7L7Xn3C2s/QsaI3abPdrr1e+b87CFDF52TCR2BEluUQmO60Nr0m2slpP8dxn/A1oMVe6PQalCMLAt1AoF53NIdcmMjRqC16EXmdqzk0kcvBctEx7EP72jhOC0fCrWJm0QqCFKL2P+HIRvNmcCS9PnSsRrVezHbbh4ewzHWkBcqZLQu15yi86OvVIWpSYuTkgPKKIGk5vjzL3PdK2/uBgKjj1KWS6haZ4CxqWo66jT7r3IbDv8W+kxHwjAynsdPLvjkhEOM44Vl+H0eKVA23wrGiJYWouUCjeTPMqP4rtip8G9uM1q7snCsCiFrqmpYqWhO1uVZ6RjfnJJzjKEz4FqI2o4dTbjMzBPix5vpUCcZZ9ECC+gGwMJjYpZbUJeJSr1eOmz4CMY6DG+FIkVo0cqvhc1KJWtS8edtttzXejCo3NYP7cMXK9/kjwEkSuUid4RG+uc6z82/leDXQzhytAAxpHnK1D+PVrpxVEJgNAuRDTiCBWnl3loWoaWsOUYNnKf1BALeJ+R3HuNFKK6PcqkYih6g1mjdDZGD0ZjHGWVekfHYPAQImh4wQ2MtCRHJJFywNTssyQHWvN5caTQOBHPlQ318EdOrkrz6nr5+5bR0Hz75iswj1buM2LdwIp4pypxqjVKJmVffb6pPWfoZ13ho1ao6N2XDXXqv83x0EkArRWakzwlyftu60NL8muWZMGPJZWRaNYz6i5Yw+IsBXM9cnlR9Wrrm0j9ioc64pk1m4lP4g0EbUWrgRToVbtZZUouZCjWQssMZvhIHrP5vuJjdMKf1DwOyOIE4thC+flZRs/anX7OJxtAEGm5xAC0SNT9syRLt18ZmVOk0HARO5XC2QNDXLoHk3mSMncoo8lKkT45zrlmOng4AExU0FJ8KNmvaH3xs51dpzcohaVEUXFh1tvKk8I8VPbS303f8fqbjnPe+ZXFGmT+H6wS6ffE4fD0TUrIEqgW1qIXwJ4Rzim3rtclxBYF4ISMWT64d1zTXXLPxkzvOQBFUwVqqZl4yw2kkhavPqzXn3xWlieWJjnGjlTlFONVybHKLWSMRcMHTKqNrs8ssvH75v+d4DBGiAZODPKVT9sSzNOdfq6rEELzIaXsTkKtI6SEuwyGugJoNRDlwYBMiH3OS1LCw50eR9BcuYl2tdeNCDHlT8WHvywNs4TRsnCs2McqphGHKIWr1A+/D5m79feOGFUSb2la98ZfOx5Us/ECCAH/CAByTP8BAYGrVFN3XTHFqxIUdzWBM1WrVSCgKLgoD+LAVFTpCMsYDbQKqmqa9YWZA9h6jRpFlDOAfLvmKzCPVu4zQtnKh1IfZhjHKImvOuHD55+DtbbLDHN9q8wurxS+NAOoxLn7/TqG233XbJDvAEL/+TL33pS31udmvd+Z1wIs3RqHESNqDl+vO0VqYcUBCYIwJIRZ2BP7UaxgImo0UPKDjrrLOyElzD0qoNhail9qT5Hafv6sdNBRdq8U9rPnnERXOJWlQtduONNzZq1ThWLrpJbAS+vf5JNNd97nOfAXV8apFT5rLLLquCClLP6dtxSJqXNNUhmuClmdx222371tRS34JAKwK77bZblvmT2fPcc89d6OXUWBZMWHNWIiEfTIwLUWvtcnM/QCYLnKapxLjQyjlRLrX2urlE7YpwgcZ8asFm20jU3LhNVbi2cuX/+SPAr2r33XdPrgjyohN/8YtfTD6nTwfSGurHV1zhVUgrBC+TBs1DKZNBwHNggjazZV6yGRQJT2Y10ccIgd/q/fqm4xfd5DYZhNOv8vCHP3xAY5zjBH/yySdnR0Sm12j+R5522mmD22+/Pauv7bvvvlmEd/6tXN4atFCdQQsXwqHSB5Bw8A9lQn1nOP7GsI1UsVxwwQXXPOEJT/heMO/88KjratzjH//4UbvKbx1EgODl/L7HHnsMPv7xjyfV0EAYVL6Dz33uc4MDDjhg4WaHgiWC70GWHx5zJ5NGjmYyCewlOggpsyFbiJjnIOqK5sKGlNlXEzbHikYUuQx/Znxkgk+VPs0M7btj7LeVMh4Ce+65ZxUdzmKSSoJPPfXUysIiynHRsNf3Pvaxj1UZ61PxgPwjH/nIrGXpxnta5axJIBAjamEM/B4uFLkPDoVLJZdcoubCVHYjiVqYvf5P8Nu5KkQCPXRUDW6++eZKqBKSpfQDgVqjZsBLUeMTTJzszz777MqH6/73v38/GppYy5DAcBBewizTLkKwww47VKH3ibcphwUE9CXECwnjD0h+BJNCNcBL8YAYXB3yGPmNbyQCZ5BcW/Rdz0Bf9By233776rMmz7VZGpFD6HITuK6937L9X+Pp3UiREfCR2ub4448fPPShD62ezSJhZqL6+c9/vuqPqe1CVh/xiEeUPIupgM3xOBNDsqip4EC4UNP+8HuW2dN1xiFqzJuHO3lUCf47lzcRNcdjolTlpfQDgbvd7W6DnXbaqRrYUk3XhLWIpxNPPHHwzGc+c2G0asxq55xzTmXWHUUImp7ohg0bBrvuumtyUEbTdZbl95qcIV8iiC+66KJq4/Pju0E+B3/90Tk2ZKIuSJm+/bCHPWyw1157VaRh48aNFZEzmbQ/x5xXX3cZPx/zmMcMaMlSiRrN+0c+8pHBs571rMHOO++8MDjrlx/+8Icr94+cPkrbznKxaNrFRXwXYto07cWBWtrdtn+r08charXabmTK+i984QtfMTNoKoWoNSHTzd9rR/hHPepRyT6GhPDVQdPxqU99avDYxz620mR0s3V5tRJAcPrpp1em3VSThoHe4I+olRJHQL9h0oRzkCMVKRM5x/E8N8N7/E6b9iLel1xySbW9//3vr0zTzE9M9vvss8+ASU+esELY2tH0nv/VX/1VpdlsP3pQEW3E+6STTqpwNyFchEKbhoCaFOSUI488sjLJl4lBDmrzObaNqOFAkZrV7mORQ7beNQ5RY1vgCLfX1perEt9+PTjy3hEysN931H5O2GYaJbJlFDrd+43gkH3c4PW+970vWZ3PmdsAS6v21Kc+tfe+FwiEQeWMM85Ijvb0NK3sYMBnHiplNAK0MMzlglD4/332s5+tsOaMnaOVGH319F8Nsh/84Acrf0watiOOOGJggsI85/kxnxa5NRpPAUeiP5mhaURTClP1u971rgpj5/Zdm0TmfehDH6r6sElHakFSH/e4x1U+lKnnlOPmgwB5FAskw32CS8bXI7XDnbb2z4icYNe4HrT/N5zbGAoYzAkhq8N9Ro5MHH6punOWJmppQ9k9ZQQ4XHtuBtHUFCs6NGdvwphpSdh5Xwuhy+fkH/7hHwbnn39+Vv4n2uXnPe95lVatzJa37gE0DzD9x3/8x8Hf/d3fDd7znvcMzjvvvEqDlqq13Pqq6/vF877pppsqUk6DytyqP1v+SyBC3wnF+tAZfTZMEO5TTjkleTLn+UocLbG2iEc+gn0uZMSf/umfVgN5Tt/db7/9Br/0S79UWR6KjOh2DzCZ5H/dVILv7IUh4wEy1lRODztuadrZ9Pu4RE1W3UOaLhpmCN/fZZdd9m7az/9jxx13bNpdfu8YAoQHB2taDxqlVC0HckcThZQzKfXVSZum5d3vfvfgE5/4RBUMk/p4OLE/5SlPGTzjGc+oogxTz1uG4wQIyEf37//+74O//uu/rqLkmDwR+64Ug628gEwdAkhoixA1G3JRBtXVT0oEp+hwciKVqJARkt/SOgv06KuMYJr/sz/7s8EJJ5yQ7KcHPRral73sZZWLSO5SXKvRL//NAgFWIoFMTSW4apwUxgurODWVj4UdaSrnoSuMS9Tc6KFhGxm+GV7Ubx588MGPCp1w5PWpiA3cpfQDAQMSrZrnZjZhQfLUYuA1KO+99969TOZIS8A5+F/+5V+qFzR1AIJPmKwMnvOc51Rm46KF2dJjkB/ahze96U2Df/3Xfx1cfPHFVR/ZckS3vnnmAhskcuY753+kxASkPNdNz4qMYMJDvmGUGlTgbFF0+sT+++9fuVn0jQBrq0AKRC1ntRJtZ1I/7rjjFiqgQrsWtZisGwdHlaCJ/94HPvCBj4fPplyzN4bzzhh1bttvI4lU20kr++8ZPncYdayKBnPXg4Mqe6SfmoaKcOm7qntU2xf1NwOS2S6TkGS2qVo1x9Gq+eTHIt1HXwSxOtOmMGcwx5n9pxbatCc+8YmD5z73uZVDel/anNq+cY5DcPSfj370o4M3vvGNlfaB6TO1L41zz0mew/dK/WnXDMjSfSBsnnUpwY8myAjvNx9Dk7nUSY3nT1vJ5MwnsE+BBepuovEnf/InlYzI6cu0aS94wQsGxxxzTNG49+AFovmVqLmpBJ/aK88888wLm/aH388P21WR/Y271kPUeEs25tkI0VJ3CSHHtG4jC3+PYv4cCU0nf0Q0RL8hK3yKcqKaaNT4ojhf9COC3nXiQuB6MWnTODznRh3Spj3/+c8fBM1yGchDj6Z1QHrf8pa3DN72trdVkZY5WpcuvRT6gjQf0tUgJiJDiyl0UL3T3FqQWf6sOc/XsVwMTObkt+sD+SUjRLe/+c1vroIIyLmcwtT7ute9rgrCKEEqOcjN51gR6DGzZyDsZwSZQGvWVD4TdnyzaWfs9/UQtf8MFz4wbCMjR8OM8+vBvPmoMCD/wKgKEHbF/DkKme7+RqOGZNEmEMQ5GiaBBXyQzJaRGES9oWvMHQCaABGHsosjFcw5OUUbjz766EqbJoiiq+3MadN6jqVBl3/uj/7oj6rIYckiczQP67n3tM6lXavNfEia5cFKVOigIli0jIIKcpdQonlH1hCY3IXep/Wcm66r/wqs+pu/+ZvB3//931dWg6ZjR/1u0vqSl7ykiogvCeBHIdS93/hfNpk9w5jxv8Hf9iPB1afJ/wyL/2TYmsyi0Qavh6i5oVC+bUbdQYWDg+gOYUC+96j9Giwkm3ArpR8IIBwGJbM/GgXmipzCz4cWAtmz9qXPrs0kCWDaP74ItD/MXKkmHFjAiD/eT/3UT1W+aX3QDOQ8w9xj+ShaToz5mEmMP9I0in5Ub0xw9fe6f+U8w9T6uaZJi6hQ3zds2FAFGtT3TL3OIh2n/5PpnnvuCh5wEFVHrpjgWDECoelaYaJVz7e//e2VNi1X2649kr6/+tWvriwMy9xfuvZsm+pjcmny0VSCHLgq7D+3aX/4/ZKwXRzZH921HqLmwsjank13CDOrHwrOkhub9tM8yAxeSn8QEFQQUq9UMwsRoDnmDa1E1vi40c4ha4R6VxyyawFcRyJyis4tcs7Jtm6jWVjmYjLGXECThqwZvCdRkAH9BwmmmdUfDeyyu9v0K07a2267beVHdu9737s6riZwzkesJkXeOMIja/oys52o0GUefJErGjFad1pH71VOYU40EeQD6DqecVcKeceE/9a3vnXwF3/xF2MFwegnv/zLvzw46qijOklEu4J1l+oRfM+ilpUwpp0a+sVNkTqfFPbdHtkf3bVeovaNcPWDwjbyOm3mT6ruAw9kPS2lTwjUC1kjXGa/uQMerQoHXKZTwpifj2vOsyARovr++Z//uRLChHFuoW2UYfzYY4+tkqR2hYDmtmMSx/PXIdz+/M//fGIkTR+hhdVnJKGVf4oPoKz4T3rSk6rgDQEcvhsEDz/88MGjH/3owUEHHVTl8nMOEoe41ZpOGtRcIjEKH6TUclcGYaY75iyEcFmL9ntW/FlzAgtqvPi5Ib/eKZq1LmjfjVfSM1iBQc6/1MS+dZt8IvCSh4v0NJFY5j4yjEvXv3ODaZpohvGvMnsGmdcUbfbfoX3ScmQnuq1xGelfVu9M+GSPvTRsI3OmhRf0OyIhgmDdZdS1OKQb6M2aSukPAgZMTr/W8TRj5leSS9aYF/l/mT0jNvwVaSJmTdgM1HXSVSk4ZKYfxzxH4DLl/8RP/ESVE2rW7ehS76F1oI1kOrYyxTimoeH20NAY+Ot1OUWMy7ulD5IdOVjT6CLhSIDJgmWMrEsr95d66g/jFkTNAM5SIHfeMg/Ensmhhx5a4SBPXk5Knxp/z+X1r399JWOkuUG0yYhZF4RM/U866aRqEscENg65JyNofMk7ZL6QtFk/yfHuh6PEgudwHFwncnUcqcl3LXLall0jNWFbdid9I9lGLifl7DB7/cFgDtit6UpmTFYqKKVfCDBHmOkSYMwU1k3MLc4xaFpvkXbNNWkkmLWmbToyIBuYEUVr8/3t3/5tFeGZa8qt20xL8+xnP7tahYD5c1kLXPWHv/zLv6yCMQSRjFsQNOZjmjMpDPj9GeQe//jHV749NLG5WkvyBrmTCd9C4vwJDZr6nhmz568v5k486jbyWTNxQdJc1/2WtdCCMUHTrNKQjUNuaGa5WNRJdPUH2tAccj4u/vqB/oswSngtTxq/u3HJvLx7L3rRiwY/93M/V2kIx61XOW+2COh/fBKbSjDxfy4sK3Vz0/7w+wlhuyOyv3XXJIga86fstSO1c4Ft1tGf/2dUbWgvmCZK6RcCBjJkCtkiiGMzjljLCG8zFlGBhLnB0kyTICaQcwfi2L3sI3wJfeu1mSFLvfFP//RPlT9N27lN+9XXoEybxqwxi0GkqS7z/p1A479jXdhxtCjq77kjOrB82tOeVpEzGhVaNIP/pDQR+hbfNst8IWz8yxA2fUQ/HMe0pf60xfpY7Su3zP3BpIvm0mQsN30FLBWyBlmqzaieiz5A/iDCk+oPm+62KZWM1Dy0rccff/zgne98Z7XEmWe6nqI/WCpqQwg6WeY+sR4M53GuvI9NfTeQ9v8R7RnGwSaz53dDnT8etvFV9eHkSRA1FaBC2C5sWxUNCMlvHxQE7EjPagDIrTUPlfZWlS0/JCGAXBmMLJfy3ve+tzIjNXXkpAuGgwyMBDqnc7NWDtoEca3ZINjG1bKZAZsQiNxxj/e///0VmbCupIzi69H6aJ+Bwj3Uj4mOdo02aNz6pmLWteM8M+Zsa6KOO6jBbZ999hm8+MUvrpbWQdSkc6l9yqbVZgEJIvEkXN24cWNF1gzWfM/qPphzby4BtGvMtEjnpCccOXWZx7HIFM2i6GkLlZuMIcDrKfqXSSENh0AF/yPu5BF819NH1JdZXJ2Z7WnQmGx9Imzrrbt260e0+GQEzSATeSndRkB/sN5vUwly7vIwhlzQtD/8/qWwjR3tWV93EkTNtYT1jPRTszOofP9PmE00LuJOOBPGpXQfAYSM0/2//du/VUsAEZoGs0kV15efCFlzbb5EBDLNHTJnf63pqGfS9ac6EKiOQcwMlLR0zKt8pdTZ7Ngs2Qyfc/CkirpdHcyo6ksYG/gJ5GWZOcOdw628UpJCjkNu6jVhX/Oa11T+jzQQNDKzLEzvfOH22muvqp8ha4j8OOYuQt7zpwnUtuF+Oss2zfpe3lcack73//iP/1hpw+p3dhJ1cX0yCFkjI/gGeufcw6f3vzazwnx4wuQ56qveV89Vrjfyhjz45Cc/OXjHO95RLRdnEup9ngRBq9usXjSDZBtNIBmhXwzXrz62fHYDAUvd6R9NJWh5Twn9L7bI+mfDuV9tOj/190mFJSF8rw3byClCGLDu8qpXveq1oUOOlLo6a9i/NIIs9eF06TgDrxmnGS1T4Wc+85mxtSY57TJLpqEyA+XvwmHfAM4/ji+YGXU9kyaokUZmWC8XM5y8bRLtqruNgJ5mIXQJ4COOOKJamYCGRt0XfZA2cMoLJVcaUp1TYAOzJz/5yYOf+ZmfqUyRXdA2IFrIvUhgA3luu2Bg1QLLCz396U+viHsOLn07loygOfuP//iPyueT9hpxmnZBrvkr2gQcsNBw2icv/KYv1RpNZEmdEHDP16QCeSIvEEDm+prkTbPetKyik/V3ZneTulK6hYD+LAWLfjGqBNL//8L+NwSlQJPAM9i8IWx5+WlG3GwkcRpxXNtPKiKy4eGjDtSQoCK8InTOjaP2A8KgagAupXsImFUy5RDAzFoEMIE3i8K5m5nVRqAyVdLA0lQQvrZ6Rmq27OVC2GwG1to5fBZ1dQ91MEu39BTyYhkpg7RBY1G1a3C2uDotSi6Z8ez4ifFB+9mf/dlOpTUx2HP8Rrbq5Me52mOEgBZXhCqfu0Ul7J47zbW2cilA2LwLsyg04zZkSyBLLR981vKhxh0JUy8yrZYR0568jcKAPIMTreDLX/7yKrUM8lbLslHnlN9miwBO0kTS1ASniZA0h1wStnWTNBealOnTtTgg7OPLqGLGEByu9xi1r/6NtqSUbiFAiPHZ4HvElMEcQMDNo9QkrJ4VE87MF14mm+9MnrX5Qz1nNVisxcNAYJCufWmQEZpBprx60Fh7Th//90wQ9ze84Q2V5tL/qcWgJAJTJNwv/MIvVNHfteYj9RrTPo62ls8askYD45nm9n/+ejSGUtDU2t9p13uW1/fOmUD99m//duWPZqKS0w8mWVfvu8kZGUE+qNuwjPC/3xFux0zStJnbDvfmN3vaaadV9TAxICMKWctFcjrHCzbzfJrKeeedd3IYD29t2h9+/0zYvhbZn7xrkkSNfvCAsP3wqLsHAfe1YAay9ufI6E/+RJLfztonZVRdy2+bHF8JNEJE0lJOtf6flwDu4zOBFcwQGb5yTLU2M/1FIWvaJ8LzAx/4QLaWFfn56Z/+6cFLX/rSKmq2q5iQScxpBlGmMtqQHPMYYuecxz3ucVWy3kUZiJEixFXAAJJmFYpZadr7KA+a6ow0cilB6GneJXQu42ATWrP5nYZYEEzTRD/8/v+C3PtIeLeb1MYctz8RtvSZa6RpkyRqKnSfsI3MXqtBwX9gmxDduc2o+gCEP0FJfjsKndn+hmCYFXO6lzvoU5/6VGOHnW3N+nk3M3zpQDg986mjXZMGoqvEJBVl/cTgzIeLWTqHxPNLZe7km9oHlwfkisafvxPzmvejSYiPws9gzJdKKpAu+N+NqmPOb4gq7bok0X/8x39cmT1z8Mi51zIcCzvRpdwlaNa6us7pMjwLbRTwQaY1lWDavziQaxGdTeXCsOPLTTtzf58kUXNvNrF9myoRhN13A1lrNI9SSxNkpcwPAQLDLFmGfms0BvXuRCrDpGWW2DdhboC25ZCQUYAZ2Pg88OPhq0YYG7hdu6+FSYkvnr7ie2rRfsEWv/Zrv1ZFe/eJsHJWR7oEF+S0mZlLMIts/Yh6n587DSFCIX2FnHm0hZMotQ/net+1SdQl5xrq7XlOQrbxBeZqgqjRri1zwuScZzDpY+VOYy1oKiGN1CcDWft60/7w+6fDFtsfOXXrXZMmaqT1/mH7v1vfasDB9OvBvLlP6Ngjo0MBwx+kRMCMQm/6vyETTHRyozF3IhXrLQQYTSnTEW0plTJBPwmhtt66xc5X7xW/yspcSSsGn/XU2wCEBItCdX1JcuUP7BNRqTHTFiS+zjMFm9QS8ipWJM2KA/XgnHruvI8z4bCSSk26c4InmAW9C/vvv39vB2DP2Rq/b3rTmypneORzvUUfoGGlsfQJJ+9b14u+wPdQ+hWfCHxOf2hqHxOo5L6CC+okzE3Hlt8nj4AxkH9aUwl+218LZs/jm/aH3zG8T4ZtImZP95k0UVOxu4etMXwz+KX8cOiAO7n5qGLQMmstZbYIEMCipkQiWf6HWWM9xXOkMUJGLJQtganFswlimghCjZaha7Nn9WaaMpvlU3TsscdWC3szWQqsqOu9HmykD4Gvaxr0+2gGhQPTeMjKXeWrS8XD83/FK15RpeLo64RMv5ZyRaAIoZ5K3g3iCIj3gK9i3wg6GWGS8Qd/8AeVTyILyHqK9usPImKt6sFfUWQsPAUHmdDN09k/1jYTLPn2nvWsZ1XBMI9+9KOrulI2eMbqvp4iTQjNGgK4IaxkQEaUMhsETj755CpqueluQZt+ejCLXtu0P/x+dtiuiOzP3jVpoqYCggoObKpJGKS+GsybB4WXdGQOtzqooGvRX03tWYTfCUYaAv4mTBnU7+spiA4Ccthhhw1e8IIXVBtBZsZMi1L7aBH8NgPYvAkbDZdBY8cdd6yy0z/3uc+tSNqRRx5ZrQspWz5zhNm/+iJt6xHGBDGTEayYQZE2dehLoW0VQHDuuecmaz9EPB511FGDl7zkJZVfWoMI6AUEHL4RFX4ssRD+tY3RZ7wbtIp90iYiTMyd1sQ1mYuZhda2edT/3jVJzp/ylKdUBE3kr/VXvWewga/+MiwjRl1nlr95PxFsz49ceOELX1j1ZcmRyTb1JyPUm4wQfa7+4xbaStpLsoFFopC1cZFMPw/JFkTQ9NzCOPW/wdXjQ+HZxlS+Hw53nGjCzmkQNRXcELZ7hW2rooGhUz8gzErvt9XO8AOAzFYN5qVMHwEkjVaA8H3jG99YfR/3rsi1SD5+OHIDyUFl4WuzwroQOgQb4kYom5l6OdTDINb0gtTnT/pTnfU3gwbhK5eXJJQW/taWujBZEcQS2NK2EcQmFeshmYiahLwGbASRpqYP5MWgbdbJRI7gpxaa8te+9rWV1qTvaSr4WzJLIawCRfThlMKsp8/R1tIo9uF5ezcRUj6r8uWth6QhOyYmRx999OC4446rSJr3ajjAwnt38MEHV2tA07bBC75kwzyiSvVVZkgE7ZnPfObgF3/xF6vJpywFwz5k5Bwfa2tX07aZjLEemNSNW0wC5CcUcOOaw/cb95rlvGYEaMmtLtNUgsz+8imnnHJ+0/7w+9Vh+3xk/1i7pkHUVETI6u5NNQoD03+FgbFxySkzEZqXUqaPAH8IMwiatJxBd23NCDMDMU3UK1/5yoqIDRO04eMNTmaHzKLIGp8dM1GFUKZdI5inpWUzWBgk3dNAYND4+Z//+UoIE7TqPWoA9RtiidRZw1GaDdF/Bq5xTTSEefDdrEiagaAPZlAEU/JjZC110EZGn/3sZw+e+tSn9tLsN9x/6++eFfLAVw9pTyn6tH6kzxt89fcuF/Vlpuezmhs0srZd8KJ5sjA5VwgyHkEb9a451+So1sJbh9VExmTOewf3VHK8th4p/6sT7ZlJmZUDfvInf7LK9UdW0PhpS1OhLeRrrX2u431Zjy8fNwMTOj6+G4IZtO+TnCbcuvC7VDOxIKGQrur44CIUWxLqhNCOyUTXDAEyLSlBajXmVNPQoJnYL8xK7zJUl81fAWUgpH0pZXoImOkZcC2TIYptnEIQEaCSedKiMXUiHCl5gBAm59JMIGyHHHJIJdzkqzJA2Fdfh2Ael7ipowGB4CfsmBEOP/zwqq60Z5Zy4RDsvikDJ0GJ5BHYhLlZL78z2rVxinMJc9eiWTMQdbnoKwbtnMWqaQNgbcBdlIFGXyGj4CD1Sqop3HEGXJOCrj9rExHRne9617sqDdG4/ZIpkxbxda97XeWP5v3x/rcV76731jur77gGElTLBu91Pbkbd7KkDrUsol1HzvTXY445prIKkGn8Ck3QPG91aivqRAtHrrEOcSchJ8atowk17a3JsL6Tgl1bHcv+1QgI9LIEXlMJ2txvhCXl5EZrKlSnHwlbU261pvNaf5/UElJrb2SVggvDduDaHfX/wVxwfiBjj6n/X/tplsoJvZTpIGCw4P9gxQGq3nFIEGGBXEi1ILM8LUFsptnUEtcxC7URREynBgiOyxxqEQOz+joIASEym9YGZhnCj/B0HRtyR4PDTECQE+rMLQS82THTK60ZrZr94xT3Q/rMtAlwi08jvQRqLpZIqHZaQ5XZh7m4qyYObZOtW+LXHGLKlIXYdrVd4/QB5xiEkQeLN7MEpBS+bZIgw6/LARW0pczb+iWNYW6/rrGgOUR2vCs0ZCmTofrc4U/Ex+YaJle0VPJdMVfJbWflCM+gjhr16d2qJ3nq79428sGEAVEmA2jKESB9lCnWZJOMIJPIlHGL+mo3oiknpRUcUrWva++pnVYAMbFlCVhPvdZeu/w/aE1FhbO04ITz4D4TL9Miaip6btgaiVrosOeFznZYGPBGTk8MXPyEao3KxFu+xBckuJAg5s7TTz+9EmS5cHguBBtTFl80gm1cATx8b9cgIG2uKSDBgEbomvEQxrRPhJ0Bj1bQPoXgRQQQMzNjpMdAiqQhkPbX2/A91/PdvercWDRyBjb1g3FOQTZDbp6q3upusOhi30eQEbWcgdsgSHvkWSza4KK/maDQwjBhp2hMTC4QXUTDs24QgTndZ+LHmgTRLtC2e97jkDT917v3q7/6q4NnPOMZVYDAJNoKcxsSRAPNHKm+SBr5wOfWhMlGPjAd2q/U5yJgsHcNEy4avlo2OGaS/RQRZC3Q/9/85jdXuQdF2Odi6vjgH1URvt/5nd+pCNvEH/ySXtB7i3M0lYD994PZs42o4TxTKdMkatbAuj5s24+qeXiZvhm0JlcElfguo/Z7wWhSaD9KmRwCXnbaKqYMWy3Acu5AANNOid7jk0bYTUIAr60D0oZg1Vq62tzoOIOdttgUn7VwVRfffdbfq4Om9AceZvkIK6EsGjLHFFZXCyGllWMmMoggwtPAtb7fOJ/IMUIS8+NYe13mnza/nrXn9OV/zwcZEWRCq5OqLYEhQuEZd42Qe5doqn7/93+/0mR713ILTZV3QnDO8573vEozlXuNlONrcuVYEyXPQn2H5cOwnBglIyYxwWyrq/vSqv3Gb/xG9cwRNmQtF1vyWnQ+/95Xv/rVlSaw7d5lfzsCuAbO0VRwFZylaX/4HdeJrfsZObV917R81Oo7G0UbV1oPM5fvhRnRnvXBaz8NCiWoYC0q6/tfZ/z4xz8++L3f+71KI5V7NYIRSRNOTwjPWiNA4NkIVwNcvTFl1N/tq4+bFdFxHwQLNoilgZjGJFezhqzRyNFCGejGNc3mPtfU42kpkElLR6W2jQvDk5/85MpMPqvnkdqeSRznneBnSDud6jRuwGUxYOrvGlGjlaKxYabTH3MLjRS5/cu//MvVRI7WeVZF/6rlw7CMIB+aZMSs6uY+sKAt9/xN5vit1ZPN1Hogd1yDKDH0H+0tZX0IWIkgNvkMy0V9OvgZ3h65y4lhX/MK7pETU3ZN+wmLc21804Mq8cvBlNK4ToMZx3pzeqWAsCzH1OpdWcVp1XKLAYlmRITkscce22n/mty2Tep4JrCf+qmfqhYaF6AAs9yi30skK6qyNuvmXmNaxzMjGVxSI+4MjsxTTE2LSNLg7BnTcHB6T20jM52I31SyO63nufa66sUnjdnTs84tSBrtYh000LWJRm57pnG8iZzIV2k++LeOo9FDKpBpmqBS1ocAjkHmNhUcBVdp2h9+x3Gac3pETkzdNW2iJrnQF5sqE2YG3w+zigua9vvdLLWU9SNg1sbX5O1vf3uVlyf3igZcJO2lL31plfuIJq2U0QjQrMlYTuMoehl2OcXgbcb8/ve/vxLEueaRnHvlHKsPGchtqYVmkMm669GNqe1pOq42V+dox0yWukTUTOROPPHEKjCGhjC3IKxyiyFptKhIWymjEfBevOxlL6tW6TCRSSX4w1cTDCZAIVWLO3xu+b4FgTaOgaPgKlvO2OobjpOWSHGrU9N+mDZRU4voqt5Ba3B2GAAanSBy/D7SmrycRxlcP/nJT1aDfy4CBh+O/bRoIpi6HKmW27ZpHY/IPv3pT68wGyfQgibthBNOGFDJMzd2oRjI+WDlDAwGJFjkktUutDenDtopAjpHg8o87r3MNX3l1CvnWAEOb3nLW8bySyMjRFRLaCxqOQeHnDou0rEmLyZzJr808eOQNcFLH/7whztF+Pv0jMgzHKOp4CY4StP+ld+jHKfl3KTdsyBqN4aaNNpuOegFn4gvNdWWEBP6Xsr4CBhg5XqiTUtNUFrfjQCWU8g6fIWk1aikfdKyIGtMoWbNuSYOGhfraYr0GscMlVbL9KOYO2lacvoQUs8kmKNpSq9Rd47UTs7sOe30fPnhdoGoMWdzUrckWG6AER8p/lKvetWrqlQ9i649nWSvQ2iRNTkGRZ/mkjUTOpG5tGul5COAW8TeP9ykJYgAt8FxplpmQdQ0IBq2Guy/USYmAqkLA9VUn8SULq4Tii6TioM5LdYp11aB0GC2QtLM+hCPUvIQkPOIEIYhLHMKgn3++edXKT8Q7XmbQJnpBKOk+qdpK+dp2qZckpqDUxeO5YvFDy+HqCG8Btqcd3IabdWvPv3pTw/e/e53j5UH0CRENKPllYpPWv4T8n6I4BQ1juznFH0HSfuTP/mTLE13zj0W9VjabNwiVtq4STg3ym1i187ZNyuiJkFJY+xrWEfu5jC7vLKp4gass89u0z42nb3cvxsIOAZ/5jOfScrxNIwWAfLjP/7jlUaIVqSU8RCQP4nPmnxPMM0piNEZZ5xRaZXnPVkxoOtPORoXGoMc8pKDTZeORUS1NScCLxfLabWXKbtetzV3MmDyZkUSEaxFkzb+EyIXaNaOOuqobBxNoMh3yx+Vko6ANVRxi6aCk+AmTfvD7zhNc/K1yIm5u2ZF1DjanROrXFC5R7Vq0gHkDBCxey3LPkKXH0xY9qIKJMhpN6FrcWERnjKLl7I+BPipPf/5z6+WosnVOggCCeHhVTh/7kC6vlqvPtu9pWvIeQ+RtFxzzuq79ue/3LYi3rCcp0bNIM/caSIcyyM16ilYTok7BE1a8VsdhVDebzTuv/Irv1Kl78gh/O7CJeEd73hHldon767LebT3DqeIlTZOEs7FaaYaRFDXb1ZEzf2g0piuPWgNLg+mgMaEcdSUltAoJR0BA4GcaQRxTnQZ7YAcXhLaloTD6XjHjjSIW6vQwuSiZ3NMgWZ9VPSik/gSzasgauqSQxYNOMtC1DzTnLbCMjajn8VzlrOPM7qAlRzCqJ2y7R8bAowQjJx2z6Jdfb2HgAxRsxL35mBKvnNted/73jf3PtUH7HEJnKKp4CI4SdP+8DsuE2d6kZNzd82SqP1nqFyUaQVbe1Sr1ub4l9v4RT7eixvCiqt8XKnZ0ms8mDMsDcWcsejRenWbZ/HJX8vizk95ylOq5WRy7vmVr3yl8iMK681lke6ce7Qdi3QhIzmzff0whwC01aHL+5GunLZ6t+ZpFqZVoEljMss1q/O9ZKqT4Hmebehyfxinbt4tMoL2ncYyp8jL9573vKdavD3nvGU71jvaFqDYxkUCZrgMTjOTMkuipkFRIhbSEVwouVxTy0VJXXbZZU27y+9DCBC8ZsocTXM0IJIxSlhJUHCOLmWyCPBXQ4It5J2TsR0JMGOWLT4nPcYka28QyfU5QwZy+t8k6zvra3lGOW3lXoCs5WhOJtkm2jTLneWu5UkuIGmHH354CR6Y5ANZuVaNLzmco3lHQGiK5F/MmTBMoQmdviQOgUs0FRwEF2nav/J7lMu0nJu9e9ZEjWnzK021DILuf4Pz3plN+/3elpwudu6y7POSMmVwMM1JXEkoWJLkxS9+8WBDB9eZXITnZ1C25t/Tnva0Ku9UziAtz5WF22XSziEEk8INUZPENEfLWvu0LfrAQXMoOCDnueRiOann6DoINHO6BLc5vmn6K007rbAIxZz+O8n6L/q1rHTxile8Iju/mnQvUvrkyP1Fx3Jt+9o4BA6Ci6w9b+h/HKbRTWvouIl9nTVRU/HoUgOByZ4ThF6jg57Bylp0pTQjYHCU1uHiiy9uPmjEHolJn/CEJ1TZxWlOSpkOArSWMribMec4YSMBZszU9jm5zCbVCkSeOSYn4zzNruVuEJlFLvxdtJNWLbWI9IPlPMgOMxmNe+6ALvpb8ACTZ462JxWTctwmBGArmAvWOe+bsy+66KLKpL3ok6Nx+grugEM0FdwDB2nav/J7lMO0nDvW7nkQtatCTW9qqm1wlv5uADKa3MQaiKWMRsDLSQgbzHMy2hMGFgsmGEq+tNHYTvLXbbfddvDoRz96sPvuu2f5+PA7NCMkcGYtiJF3ZD7HZIu8IAM5BGaSOM/qWjQZfEFz2qkPIOqzJmoIvzUiTzrppCxtGvJw8MEHDw444IDsFBKzeg6LdB8rXYiqtQxdjl8o+f+pT32qSqa8SHhMoi1t3AH3wEEi98JdcJiZlnkQNQ2M2neDOv7zYRBqVD2yMccWUZ0pgh27mYGC4zmzZ07ZZpttqjxfoj1LmT4CBj1RoIcddliVuT/1jjRTkt9+4QtfyEo8m3r92HGcxpm7crSAiBoCw9S2yEU0bm47TYikapk1UaPlNJDzUcsh+4gl/8oS5Tm7nkxzyV84N6WPaP/iz736OeEMMUxwDtxj9Vlb/de2f6sTJvHDvIialea/2dSAAOjXg4PrpU37/c63opStEeBvwjxmxpxaDMCyiyMNOYNw6vXLcaMRkJ8O5nzWciLnRH4ybc86VQdCwfSZ00domuTyY45f5HLrrbdWDsqpGjVY0pjk+PtNCj8EzUQuJ9LTxGL//fevlojKJQ2TqvcyXof2mk9g7vJSCIm0TDmriCw6vm2cAefAPSI44Cy4y8zLvIgah5UzYq0N6xt+LjDcxhXrDVYxW3Ps2ou6j0lDBJeVCHJeUFoSQtianqXMDgGDtbxJhx56aJZjNv80ZPzyyy/Pcl6fRMsQNf0l1YcRcbnyyisrbVOOo/0k6jqrawgi0Ebaw4jIWlUdODIjI0CzLDSbMrLnpnmhTTvmmGOqtDKz1gDOEp8u3sskWsqOXIL80Y9+dGACUcqg4gr6fFPBNXCOpv0rv+Msc3G2nRdR024rzjdOsy3dULRqYEovyBmzWHCGTD7JgEujc+SRR2Yvb5R8k3JgIwLyUUnVweScM2iL2LO0FJIwy8IBXjLOnNQt6socv6haNYNhWBMwK22KNC2efc4zn8RzpnGXaysnGEUdObZb3kggTCmzRYBWzRJ0G0Ikfo6vGg1Sbnqm2bZsdndL0aa1LBeFq+AscynzJGpGmOiCpoFwnIjpNiFz9dVXVzPZpv3L9jszE98lM/vUYma/zz77DB7xiEeknlKOmyACtBOcheHvWaQWgSJBsFSaqtRzJnGcOiIZOQEFX/7yl6sJRA45mERdZ3ENWsLrrruu0nB6/1ILDRUftVkTNX46uf6NNKhPetKTBve5z31Sm1eOmzACiPJ+++2XrMl2e6ZteRdz0q9MuNqduBxtN67QVHAMXKNp/8rvuMpsZ8VDFZonUVONqCoxmHZuC/4tUZtwG1MeautCfzVgGLzl2UotSIJBV5oIZphS5oMA/xOm5xw/FEEFtFTMn5G5zMQbxKdK4An/qlQTmIGCuU2kaqoP18QrPqULSsthHdabbrop2QyNnNGm0U6mYjiJ6uszosElTE7tM+pXm95y00RMos7lGpsQMDE64ogjsuW0oBFRoMtc2jgCjoFrRDBqddWKnDuRXfMmalQ/0Zwlwd/qpCBUGiNAzWYNWMteCGEDIQfS1MKBnTYHUZvlgJFav2U5zsDNV00UaKrvF2yQNFq1WZIf/WT77bcf7LLLLllmMKZBKyvkOLB3/fkjO+QPn9CcZdqYjT3rXJ+j9eKhn3CLyNGwqCO3iBxivt56lvNHIyDHpSjQnMKXVYLsVGKec+0+HIsbeEebCm6BYzTtX/kdR0k3U7VcbJzd8yZq6nxq2BqzRIa8UXcEdf0XY41rY8yxcxdlX71ofY7Z0wzZoutmzKXMFwHERx67HJOiwBFmxVlHf9IG7bnnnll+avy45O0ymTCpWISC8MjLJLF0jq8gosuUZQmpWRbL5iDLOb6CSCWCUHzTZvmkRt9LWhQ57HImc/yWg5P8wqfHGY1Ye3YI3ALHaDo//I6b4ChzLV0gahw7zoqhEELJT45p1YT/0ywsazFbQtCYYFILp1Q+Mkxus/aTSa3jMh1Hc2G2vCE4DKdqNxGeeUQ/067QxDKbpzo3M81LCTGvVRUm3Ze0B/Yf+chHKrNn6vVpsS3TJtHxrFNzSOki+XCqdkU/VFdbTvqYVCzKcXkIeB7jmD9NkBZJk52K2v9v702ArqjO/P9ORGVVFhFF2VdBhaCiuIG7RuUXsTT/bMYylUwmlamp2WsyNVUzlapUzdTsM6mJk8SI4oqIIuCCKIuAASEgIKAsL4sKIoKguID6/35aWu/7cu/pc+7a997nVJ333tvn9OnT3+63n28/51ngBHCDQgVOAbco1H5kO9zE3/g0ZbBim7NA1Jj7ItWCaaOkut2r6sxWVJF0pQAAQABJREFUgFbN9wFULFhZ3Y/zRqvC27JvSexkIGpWsoEAnp9oqnyFItcdtT5LG9UsiQBn+S7EAQI7rkcffTTWAlZzubYS2OA4QAomPFpDNFTYguLlG4JbueaPnWCI5g8iiTYtRMtbrrnaOPkRGDt2bGzfmL81/1YIeoijS/5R6msrz8a0lTY4BdzCcWZwErhJzUtWiNr7QsKpDlKi2fl6iy24ZkIQx9DcljVHv0wTQLPCMpjLs6XtoZKwHKjTrWQDARIxo70IMdrGi494gtVeTkTzxzIM3oshBePm2bNnx/Gd6vXFCpIJ6Zk2bVpQnCoILqFwxo8fH3SNQ/At1BcNIC9yIUQNLS8x/qptS1foHGx7FJsb4CEesvyJ2QGp55qpwAXgBIUKXAJOUaj9yHY4Cdyk5iUrRA0gFqsWjKumt/H9IiJOlREMutoCq9ZXEGGHrQzx03zPHYGB7Ylp02p99VofH5slCFAIeeZNGa0annzVLNgs4QDBEl6I0CDg6kMPPRSHDcCush4LQu+uu+4KDjgMZmSiwEbNd8m4XPjg7ECYgpBUXnghY7/qq+Et11xtHDcCxZBnYi7yglGvL0duRFq3IgfTtGlwCThF6z1b/YKLwEkyUbJE1D4QIktcqIgBLxATLuh4gLEsb7rNVPjH4y157VpnFJNWkEDUunbtGsfladVgP2qOAEQNzZpvQVOCHQYa1WoXlmpJLE+4jpCC7cjvfve7+J4NIQ4hx6hUXwjxAw88EHt6hsSF438Oh5EbbrihJob5OJ2ELn+hMTUngkrdScWPe/755wcvR6NN9X2RL35m2dgTDgAXKFTgEHCJQu1HtsNF4CSZKFkiagBCXLWC4EiF+54MeJe5kGs2w8mEqIWEKEkcCSwBu+tOqk0bHpUQNQS7T+H6Q9Jcan6fcYrpQyBUiBreqqEOKYS0+M1vfhNrgkPSnRUzz3Ltw8MfG7v77rsvaMmT47OcTdDYkSNH1kRDRe5HcPbVqHD/YQ8VsgxfLpxtHDcCvMzxnAgpvMjzUtfoBacJOICrwCHgEo4+cBC4SGZK1ogakX+d6sannnrqBb0ZHCqEIMuAaReq0L71uJ0HL+cc4vXKEhtv9wTctJItBLD5gqj52gXx8K0VUQM5HArQEoXeS2jSIDz/9m//Fqe5ybpmDW9Jlmz/+Z//Ofb29CU8YATpwaP3tttuC9aEsH85yrp164Lip0G8ubbVDiFSjnNt9DG4nzBbCVmSJuZiSOimesUQ2Y88LFTgDnCIQu1HtsNBapaFIN/cskbUmCMGfAfzTZZtemAeFClxemKg+sSAshkKb8m86YcE3OQtGaNmK9lDAAHJUqJvpggIA9eeeyCEPJTrzBODc4hIiODg+DxQSRz9f//3f3EKpqxq1sD3kUceiedJSI7QJSS8JidNmhRrQaptm5ZcZ+zqQrxTuQcJ31Or+Sbzts/8CIRqZjGPwUaxkbVqyPw00ye4AxwiP6rxVtqcjo2OfSvWlEWihkusk/HOnDlzkR46BQ0BuRm1Bl0x0LI0MMIOzz9f4cHbGEQNjZqV7CHA9UGrFmL3xUOY8CwhHn3lPHNI/8SJE2PBHjou83744Yej//zP/4wfsrU6h3zzTrSVaP7+53/+J0IrFRpWhOtJcNsbb7yxZvZePBtYGg+ZO88HnhPM30r2EAgJ45PMnuXvWrzMJcev9Ccy30VE4Qxwh5R5wD0KhgpL2bdizVkkapwsdmgF15D1MD+s4K5zXKjw5osBbaMXBJsrqF++8+cBPHDgwHxNtq3GCCAYCShL9S08nFjWCDFu9x3bpx/xtr75zW8WbdOEgT62X//0T/8UzZkzJygXpc/8iukDuWG56Je//GX03//933Hon2KWZ/Hg/f73vx9rsGtFerg3sN0JEdKDBg0y+7Ribpwq7YMGO9QulKwgIfdAlU6lLIdB1iPzXQXOAHdw9IFzOG3gHftWtCmrRA0btAWuM5f77Ro94Asn8dLOxGzy1TS5jpXlNohaqMcfdiennXZalk+rqeeGR26IzVetiRoXC7u6O+64o2hjeUJ1yHYk+ru/+7t4mZEgvsUQo1JvHAQZxIYgob/4xS+iO++8MxYAxTxHWPL87ne/G4fkqEWA2wQLloTAMkRIQzBDl7KT49ln5RHgRS7UI7dRiRr/m8h6V4ErwBlcfdQG5yho/56yb0Wbs0rUOGmyixf2sVWj0j88pYfPZ3TOV7AtCUmrlG+MrG/D7iTEHo+3eogaZMBK9hDg+hDjrhiiFhp+oZxnz9v9lVdeGd1yyy1xaqlixsZGDe+0n//85/FS6OLFi2Pbu5Alu2KOyz6QXcwI8J7GaeAv//Iv44C2u3fvDiI4yfHBg8C23/rWtyLikdWyYL8YYp/GXEkPZkStllfNfezEc9/dq3VroxI1ZLzLRhuOAFdojcZRv+AacI5MliwTNbIQOMHVQ/0NBftc5UKWpMn1GljTdV5JG8LNdZMm/ZJP/sEJqxASpDTZ1z6rgwCamJC0PbyroAWq9X0OOSFcR0gO0LaIQpjQpv3Xf/1XTJYILMuDGMIE2aC9nIW3cZYFWTaZNWtW9I//+I/R3/7t38bJ1ktZSmY5+MILLwxawi7neeWOhccq5+l4p83tHn/HRtKI2lGwZGpD6KoIdooh90CmTrbAZHjmIeNdBY4AV3D1URtco2Dmo5R9K97cruJHKO0AG7X7q6pDCw2jh+vcH/3oRyMkJI7L14eH+3PPPRcb8+Zrr/dtaBtCBDTC1LRp2b7qCHm0npBqH2LCwxfCXiuvSUgAZIC8l3hHQrR85u26CoyJBxdLkKTMwRh/zJgxEbZTkAi8TSES3M8hhXkxNkuB/N/giENoG71xRzI0DtJOu47Lc2f69Onx8tRVV10VR/gPXapyjR/ShqYwVCvJM8KIWgjK1e/L8icaeF/yheNOoxVku0tbrP/1j+EIKecNx4BrZLZknagBHIvPuCjm1f5p2e89seWFSmdzBZ3zFaIyE2WbN/1GKwgd7NR8C//YvjG6fMe0fuVHALJGdT2EkqMmRC1UGCf7l/IJOSSF1YwZM6J77rknNrovJ2Hk/kajRsWA+qKLLoqJG6mN0ChA2nCOgbBRub+TCi4Qs6SCD44LJIeHoOEssGTJkmjRokXR3r2u3MzhCHFsiCZLqRDYm266KbZVgwAxv2oWng/gGFIgldWeZ8j8rG8U/BwPkRP1gC+22ch2V4EbwBEcfVDRwzEyXeqBqLF2TFyTcYWQFGNeohAB54iA5DW84qGJofLtt99eaIi63Y4Q8hHmyQny8EWwWckuAlwjSBoaDZ9ry/2NhqicBCkNHY6JRorkx1OnTo2zDECCKlnw7KKSwonwEWTWINcomgWW87HrY0kfbSQYgkmiOUObwPyIJcUY5MbFZCCUwISeH8edPHlyHNT3j//4j6Orr746zuXK9a1WAQOuV0gBRyNqIYhVv2/oC3eo52/1zyjsiMh0130tTfI+uEHKqHALpy18yv5Vaa4HogYQLEKPUu3Ij7ZFAuoTJZ195rLLLru1bVvyu6WlJV5GIdp2I5VQosZyGoLMSnYRQEBC0kKWnhDGlSYdCWJopjBQRxs1ZcqUOO9lNZdVWMpbvXp1XJkTpAKyhhMGmiAq9zkaBCq2ZjjcQCz5f6lF4c3/H/7hH2KSePPNN0fEwcITtBpkCLIfet6JdrIWWNkx/RAIJWr83zRKwSQCme4qcAK4gaMPwW3dBm6OnavZVC9EjbW951RvKATOggUL1o0aNaqle/fu/Qv1wYWX4JwhhtqFxsrKdt4oQh7CCAaEmJVsI4Cg9L1OyT1QDaKG1o7AmbNnz45jn7Gs56P1qyTazIlYgqHxBCs5p3xj43VH4FyWQ4k7h+0aGSgqTda4L1yah3xztW3ZRyDkRY6z4WWuEQovXmnhOGQz2wInSDlfOIW/3VDKYJVsrieJzWL0LhcYunjOcB28UTz55JOuIZqirdKCoSlArMJJZu068f/z8ssvxx6ZBKfFbqzWJK0Kl6Gsh0DD9/jjj0c/+9nPogcffDCCvIW8aJV1MgUGy9p9V2CaTb859DqF9s8qwMhwl3ZQLyWfwQVS5g+XcBu4pQxQzeZ6ImqsWTjBl+3JLqlDnbFQZFzYFBkLqnkT2bEaHwHeYlnq/Pd///fYsxMvTyvFI8CyDQnef/vb30bk4cwaWSv+zGxPQ6ByCGBfigx3FTgAXMDVR21widrYQaRMLF9zPRE15r9F1anOlEv8s3rLP5DvZJNtMjA0TUAChn0aAikIEKMNN/h//dd/jR577LGyeUj6Lu2mTK+qzWglyqWZwFuWeHGkqGI5uRpL11UFyw5mCJQRAbT3yG5XQfbDAVx91AaHgEvUTak3ogawc1QLGggqOvtHcref7boCCB7iJlkxBAyBwghg14SnJMmO0aTxP4PnWKmlS5cusccmAWEJs1EvwZcx/h8xYkSc05SUWeVwykEziVYNEoymoFHsiEq9R2x/Q6AtAjx/kN2uguyHAzj6wB3gEHVV6sWZIBdU1lyWqF6cuzH3+8KFC9fLbX+d8tWdkbs99/uyZcuis846K+rbt2/uZvtuCBgCQiAhabjAYwC/dOnS4KCpuUCihYLonH766dEFF1wQffvb346D1xJVnHAbq1atijV1WSMqzBtCRgzG888/Pw7xQ2gQ5j1t2rTY8xSPUhwaii0sK997772x3c1f/MVfxB6h1QzfUey8bT9DoFoIEEQbme0qio+4Dtnv6qM2uEPd2W3UI1HjOixUJVxHF37kK1qimf3DH/5wgDxjCgYNI0jnj3/846AwCPmOZdsMgUZCAJLGmyvLDCzNEbiVbcUWiE5C0Mh9OW7cuDjuGSSoT58+cTBqSI+SJsf2o2iZSiE+xc4zdz+8btH0EVR35MiR0aRJk+Jcpkl6rP79+0eXX3557BjAc4RwIcy7WFszlnVwLiD0CSms0NwZWcu9Iva9WRHgf4L/MVdRnw+R+a4+asMkCu5Qd6VeiRqqTRar/79CiBONePny5XP0FnxjoT7EghIDjxR/rVAX224I1ASBWtlvQchI7o77+//+7/9G+h8qmqRxDixzkgKKZO2kgZKWu5WNF2SEmGIEr504cWKcxgltFWmdyBYAgamW7RbEkZAHBISGkI0ePTq65ppromuvvTaed+41oR/Ltn/yJ38S5zeFZEFst27d6vRIc91MnCcpuIgD92d/9mdxMN/QEAyu8UPawMJKthFolmuEjEZWuwqyPiUDAbvDGVzLoq5D1LStXokaoKHifEV1BD/yFS3brFDctLMVW61fvna2vfDCC/EbM6lomqEgiHnrD8kP2gy4ZOkcCeHAEmApWqxiz4f7AqL0q1/9Kg6/UayGCG1U7969Y60TEfkV49CpIYKQEIwacvT1r389mjNnTpweBiN74qOxPMibdbmXRiFfHBvCSHonbM9IVXXJJZfEBA3C5hKIaN4gohBNKoSNYJzY9hWDHWTtvvvui8kiZG3gwIHB+UyLvfa5+6HR5F7IJae57fa99gjw/9DoBbMCZLSrSJO9FVnv6qM2uELasmjKELVrrmeiBmqoOgequpY3Z9x2221/rAdO3nPlwYha9Y477miKhxLnSxqdJ554AvysZBABhGQtDMvRXrHMeeedd8YPR+6VYgoBpVm6Q4tGYFeWPV1kJ/cY9DvnnHPiilcktnFE9cctX273cZ5OHBogbAlx8yVEjA2xSogZ5IxsBswP7Rhzxn6O44cGxab/D37wgzigNvZmGD4TI60YYcr1J28qc/vpT38aE15f/HKxLOU7y9DgXe3jljLnZtqX64LWuZEL/9fIZtdzSH0Oq497XfTzoLZwhboteclLHZ0NyVZJqDqx0Jy1FPGO8vrNdyVtJ0EzAoGHdKMXhLEiNseBSxv9XOv1/NCkoc0oh4elLwYQH/J23n333fH9UayNGFqpCRMmRHo5iq644oo4/6bvHNr2w36N+o1vfCNeUiQ/J8IJAkRi9d27d8cVezrmmzzQecCDYaINSrRmLGlCftCeU1mGhaChCWP5lSwByT5t5+LzG+E5fvz42K4NTRjaNQhmMVhy/fEGZY7f+c53Iq0KVI00gd1//Md/1I03rs+1acQ+mCjUQuteLSwJqI1sdhVkOzLe1UdtcARXYvaU3WvfXO9EDQRReZ6lOoAf+YoigS/SA/lM2cv0ytfONt6Aebg2+hJoQgIQBFYMARBItKxogoj6jQAILWiqIBUsW6KdZgmzHOErmAdj879JxY6NZVCIWpI2iuTqbIPYci7JsnGiPUODhscpJK1nz56xhoplWZY1K2Gwj1foT37yk/g4YIqWshihChH95S9/GS/JQlZJOl+twrGtGAK1QoAlz7lz5zoPr/+pXch2Z6fP46XBEeq6NAJR4wKwjvcT1bznozfszxQLaoaSIf9Ab715Y8exRIHnmTxFzQsURK00DQIY7XPvP/TQQ3Hy8tATR5OUkBOWO9PsukLHb9ufZUZy9lLzFcgaWjUIGnOrRUGz+L3vfS+2f8VzljAnaQbR+eaJjR4ZDLCdw1u2XmLO5TsX22YI+CCQyGKX2YAUDp8i05HtjjEx4msIG5+8pMVx4lltQvU5zzU52fy8sXHjxt+7+uzatcsC4boAsraGQwDHBeIToVHeuXNn8PmxVIgm7U//9E/jJTq+14ocJZNHk4amLAvzOO+886K//uu/jjWBxWrEWD59+OGHYw0iBNSKIdDICPAsQha7CrIcme7qo7Z5qnCDui+NQtS4EASyc0oaxVl5Xslc97qu2osvvhjpJnB1sTZDoCEQ4I0VEoAmDbIWSgIgacQZwx4NTRo2XlaORoDA2n/+538ex2Fj+TW0cJ0gathM403ayHZJodhY/8ZCANmLDHYVZPijjz76nKuP2uACcIKGKI1E1HBRw/ujoCpUNiyHpC6djtrUdfXIZ1gvNlxoDUoxgHbhYG31gwD3QYgGCWHPW6tsPGJtGjZeIYVjJSTtRz/6UXTSSSeF7N50ffEo/fu///uYrBWjWWPZ9Ne//nUsxHAICiloGK0YAlmXE8hcZK+rHFnynK6VAFdsEjgAXKA4t3XXBGrU1khEDQhRhS52YalUNdvXrVvnjE6M0Er3+HUdpXpt2OEQVNRK8yLAA7hDhw5x9UVBb6Wx0Md5AKP8kAJJww6N0Bu333571L9//5Ddm7IvmMnzPPrZz34WB9gODf8BaHpuRVOmTInDZoRoPzlWJZwmmvJC1vFJV9NzuBiYkLlpL4zIbmR4yvhwgLCHWsqAtW5uNKIGnvNUncubMpyeryUEp98vS0J4a2W98HbO27qV5kUAjQlejHg0+hSM7Tdt2hRp+SCOURaylAbh4DiQNOKGDRo0KEiT5zO/Ru0DocYbFrJGQF3ChYQUrhvXDHL97rvveu+K0wVkjWtnpXkRIKB0Vu8BZC0y11WQ2chuVx+1IfvnpfSpu+ZGJGqHdBWcnh54iuiCT5Pth3MNQcukRXlqVfMu6NWrV3TdddfFuROreVw7VnYQwMOQyP/9PTVb5KScPXt2UfHSSG/E/QZJI4J/Vh/82bk6rWcCWRs7dmz0V3/1V7GnbOiyJMuekydPjpPY+2ZpQJNHnLhyhUtpfUb2qx4QIDwNL1eh91s1zo1lfWStqyCrkdnIblc/tSH74QANVRrVeAFW3VH1tEJXS0EyP9SD60Dfvn2HF+rD8gLR0XkTyer6Pg9fjLi3bdsWvfbaa2VPsVMIG9teewQgSTyAyVVLUFRCZKQVDNMJJHnXXXfFicTT+ue2c6/xv0CctAsvvDCTD/3c+Wb5O/Z92OQQwJflnhCtJraFXHc8SvlMI8uE9EB7R+J4Ys6FLJtmGUObmx8CXHterv7mb/4mJutp94vfqOXphZaYlGlpGuIlS5bMXLly5daUoy5VO7XhSqMSNS5Ui+oZqp1U8xalUto1dOjQnrLxKpjok4coNxNLPFks/NNhn4SQJmI7byc8iHnwhzz8s3huNqf8CPBWjPBFk3bRRRdFf/RHfxQvpfm8TCDkeTCSQiwkYj5jc4/h4XnDDTeYXWT+S+O9lWtIbDSuB8vQ2AyGlC1btkTnn39+rEX10ZKg/eS5gD0igYGTZ0TIMa1v/SDA/ysvVngZT5gwIfrFL34RO/9kiaSBJkFtyYjiKrpn1z7yyCPPu/qojQjNU1WdjoIpY2S2OW+A2MzONmxiqD+nqf5QtSAhldv7zB//+Men662joN/84sWLYyFFupksFh7UI0eOjP8ZyRHIej+kjWjokEwrjYMAziMsPxKvDO0WEetZSmN7WuFe4N4g6Xpo9oFu3brFScpvvPFGb1u4tPk0ezvpsQiwTe5drkmINycvZBBu7gHsE30KhJ7MK9i44ZhA9gHi6NkLnQ969dMHkobtMvcFeWtvv/322Ewha2fAyway1VV0f76LjHb1URtCDlnfcEueyXl/JfnSwJ/jdG7XuM5vzJgx/aQl+L7eNgrigTEuD7qse1iiJXn55ZfjZVBiLrHU5TgtFyzWlkEEIOXcg/3794/OOOOMoNhlLI//y7/8S5xDMiSPKMTwyiuvjO2qLr744gyiUt9TeuCBB6Kf//znEVkIQl6s0JYQsgPyHOKYwEscy6AEOGb51Yhafd8/ubPnWvKM4MWKlGvnnntuJk0UeFG88847nV6eOpfPZs6cOXnFihVbc88xz3cM3BomZlqe88ufcilfxzreRvQ8jHcKrl1yI2gJdJGWBwpKIZZAp06dGn3/+9/P5I2fXB+WxPjnpFoxBBIEIOwLFiyI5syZE5TsPdHWkg4Jmygr5Udg0qRJcdJ5EqGT49CXOGHX86tf/SpeAkU75/tChn0c1YohUAsEeBlBlqaF4tCLyyIPkrZJ54CMb+jSiF6fbS8YXiJE0TvYtiH3N2vgevA5Y6+gkXjmmWdyd7PvhkBdIEASc5wItm5NezltfTpoba666qrYBg6bFyvlRwBcIcKE7giNd7Z8+fI4q0SIvWH5z8BGNAT8EUCGIktdBVnsYZeGTEe2p3mCug5VF23NQNS4EAdUiVRcsEjj8On06dOnie1/XLCTGhB2LC1aMQTqBQEMx/VmGt+72CT5Fuze0KJdc801EWFgrFQOgSTLAzZkvpoxZoNWghRge/c6Q0dWbuI2siEQgACyExnqKshgZDEy2dVPbch0ZHvDl2YhalzI9arLXVdU2oZ3li5d+qSrD214zBWTwDptXGs3BCqBAEIcJwLCt/guqzEPSMO1114bGyRXYl42ZmsEsDXDQy9Ec8ky0qJFiyIlqLbQPK3htF8ZQwCZiexMK8hgZHFKP2Q5Mr0pSjMRNS4oRod7XFdWatmVuklWuPoQaJK32FCXeteY1mYIVAoBhLgefqk2IbnHxzZt3LhxcYw2YnVZqTwCOIkQow6P3hCtGgGMEYD1kp+48kjaEbKGALISmZkWpBnZiwxOmT8y3B0hN2WAemtuNqLGsuY0VadK9f7775+dZq+GloJ0LiEainq7OWy+9Y8AS514+BGOAYcC3wJZGD9+fCbd+n3PoR77XXDBBdEVV1wRlLeVsB7PP/98rOVnmduKIZAlBJCRyMq05XlkLrI3Ze7c4Mhwp4lSyhh119xsRI0LhMPAc64rJcPcT8T+HxL7dzogsJRE/CMrhkBWEWhpaYnt09C6+JZEm0Y+ypBlON/xrV9hBMD7u9/9bhwDy1erhiAkkC1kLcQGsfAsrMUQKB8CyEhkpasga5G5yF5XP7Uhu51Ofyn712VzMxI1LhRR9lr4UqjIS26/VLCP6CHofEWdN29eHP+o0Di23RCoFQIIcFIUrVq1KmiZHscBUkQpZE3QElytzrORjkuwUoLYgn9IbDRiJj777LPBgYwbCTs7l+whQGxAZKSrIGORtchcVz+1tagiu5uuNCtRS9Sn77muuAywt8hLxal9Y3/UuiEaC9cxrc0QKBcCeATyJkuAU98lMYgCYSLIdmDatHJdibBxCDB8yy23xEFLffdkWZtUPLLxCQqa6zu+9TMEQhFAJiIb0woyFlmb0g9ZnWq2lDJG3TY3K1HjguHWm5ob7LHHHlskpr/OdYVZbpDWNtVQ0jWGtRkC5UaAFC1r1qwJ0rJg0D5q1KhoyJAhmQ7sXG6ssjQeYVGULSUaPnx4UFw10krhAWrLn1m6ms05F+L6IRPT7kVkKzI2BSUUK8jqpgjFkQ+LZiZq4EH0z9QItsqp95g8qt7OB2CyjeTKiv1izgUJIPZZUwRY9ty+fXu8LJ/2sMydKASN/IDkCrRSOwS6d+8eTZw4MSJ1nW+RMXYc/Na8P30Rs36VQIBnj8hXhEx0FWQqstXV50gbMjosUrfHoPXUpdmJGteK9BOrXRdNN9THUuE+pOWFj1z9WHogRY8VQ6DWCLDsiUZNb6zeS2FExSd/6IgRIyJSkVmpHQLYp2Gnhr0gy9E+hdAH2ASx1E18NSuGQC0QQAYiC10FWYpMRba6+qkN2dzwKaJSMIj8ngBpo9R/+xM6BSf937x589sLFy58PO1UFy9eHL/VpvWzdkOgkghA0AjJgZG5byHA7Zlnnhmdcsop5kTgC1oF+/Xr1y8mayG2gnh/EtyYkB1WDIFqI7Bs2bIIGZhWkKXI1JR+yGRkc9MXI2qf3wKw+odUnfl1lNR63YYNG9LW06PZs2enuiM3/Z1nAFQUAZYd0KgdPOiMMNNqDoMGDYrOPvvsyALctoKlZj+6du0aXXrppRHOBb6FWFUQ9LTAor7jWT9DwBcBtLnIvrSCDEWWpvRDFiOT0zRuKcM0RrMRtS+vI4GmUl1UHn744bky2t385W5Hf2ONfurUqfGy09GttsUQqCwC3H+7d++OY2v5Cmxip/Xp0yfq37+/LXtW9vJ4j87yMw4FPXv29F7+xB5x48aNqUbc3pOwjoaABwJo8JVEPdVGG9mJDPUYElmMTLYiBIyotb4NXtVPZwRbhTn4bMqUKVMxhGy9a+tfeL0oynKEga8VQ6CaCHDvQdRClj27desWDRgwIEKLYyU7CGCjNnLkyCDvT4Qm1943JEt2ztZmUo8IIOOQdTx3XAWZiexEhrr6qQ0ZjCy2cgQBI2pH3wrztMkZRlk35ocPPvjgfbox3z969y+3HDhwIL6BzV7kS0zsW+UR0AMxJmp8+hZSRrH0GeJl6Du29SseAbw/iWsXYqe2Z8+e2OPOiFrxuNuefggg2yBpyDpXQVYiM5Gdrn5qQ/bOS+nTdM1G1I6+5LB91K57j276csuOHTv2KRHyA/KuOvTl1qO/YSskVa95YR0NjW2pEAIkQEZY8+lbcCAYOHBgUI5J37GtX/EIENcuNJ4admoEGzXPz+Jxtz3TEeD+QralheFARiIrkZkpoyJzkb1pGreUYRqv2Yha/muKhMOQ0ZnFWsFEX1ces0dlE+S8sTZt2hTNmjUr/5FsqyFQZgRwIEBQ+8ZPI6ckmhtsobBVs5IdBLg2aDtDHDzQbkDUTaOWnevYiDNBpiHbXAXZiIxEVrr6qQ1Zi8z1f7tMGbCRmo2oFb6aO9U0o3Dz5y1yM16/cuXKZ9L6rVixIlLftG7WbgiUjABEbf/+/d4aFYzWsU0LIQMlT9IG8EYA+8EQEo2mAxtF0kpZMQQqgQCyDJmWVpCNyMi0fmpH1iJzreRBwIhaHlByNr2s707nAvrOmDHjRcWEWZqzX96vc+fOjVavJn6fFUOgMgigRYGkEfDWt3To0CHq0aOHLXv6Alblfmg7uT4h2k6Wo0KWvqt8Sna4OkYAGYYsSyvIRGRjWj+1I2ORtVYKIGBErQAwOZuf1/fUm0ipMJ566623Uj1VSDOlODI5w9tXQ6B8CBCOAy+skPhpxOmCDBAN30r2ECCdF0TNN0MBZ8DSN84ktvyZvetZzzNCdiHD0gqyEJmY1k/tq1SRsVYcCBhRc4CT04RatiXn91Ff9UD8bPLkyY9Im/HmUY05G3hwEmNNbxs5W+2rIVAeBFjuIjRDiMcnHoWQgRDPwvLM1kbxQYDrgjduMUQtxXzW5/DWxxCIEUBmIbvSyD8yEFmITEyBrkXtlnkgBSSajah5gKQuiaGjM3aatBiH9BZxv4y4ncHTEKYPPPBAtG3bNr+jWy9DwBMBYhmFatQgAtinkevTSvYQYMkTIh1C1BRYNF4CN6KWvetZjzNCViGz0uwekX3IQGRhynkiS1Md9lLGaJpmI2r+lxpvlPtUncGppPJ9b9q0affphnYm22OJSjd0HD3efwrW0xBwI4AhOdo0X49PRoOgseyJh6GVbCKAs0eIjRqen8S4MqKWzetZT7MifyyyKi3LCTIP2YcMTDk/ZCiy1Dw8U4BKmo2oJUj4fRLn5X5V59uCUrjsnjNnzsNS/X7iGpYHqSI1R7qxXd2szRDwRoBlCe6rtDff3AHx+jRtWi4i2fvO0mfINYKocw8YUcvetaynGSGb7r333viZ4po3su7pp59+CNnn6qc2ZCcy1BmnNGWMpms2ohZ+yYkHkxqUb+nSpZsVP2aaHpSfug6B0fc999wTxz1y9bM2Q8AHAYgaAhrNmm9BU9OuXTvf7tavBgiwPM018tV6sgSepgGpwWnYIesIAWLxIZvSvIeRcci6l156aUvK6WGzhuxEhloJQMCIWgBYOV3X6Xtq7LQFCxasW7Ro0eO6kZ1GlYRS4B8iJDdjzlzsqyHwBQIQNQR0CFGDAIQsq31xMPtSNQTQpqH59C1oVbkHUh49vsNZvyZDAFmETEoL84NsQ8Yh6zwgQmb69PMYqrm6GFEr/nov0a4+sdNe1pvG7LTDYADOP0ZazrS0cay9uRFAMIdo1NDQYKRuRC3b9w0kjevkq1GDrJtGLdvXNKuzQwYhi5BJaQXZpphqqeGrNA6yEplppQgEjKgVAVrOLsSJSQ2KNnv27Jd8shcQ+4h/kJAYWDlzsa+GQIwAWjVfTQqCH5LmSwAM4togwDUK8fo0bVptrlO9HzUxxUEWpRVkGrItrZ/akZE+MdU8hmrOLkbUSrvu2J9NU30jbZjHH398ydq1a+el9SP1C8abIV57aWNauyFgCBgChoAh4EIAmYPsQQalFWQZMi2tn9qRjchIp622xzhN3cWIWumX/2MNMUU19e5+5JFH5r/66quL0w755ptvRgoYaJq1NKCs3RAwBAwBQ6BkBNCkIXOQPWkFGYYsS+undmQishEZaaUEBIyolQBezq4H9f0e1VR9sYIGztmyZUuquph/mN/97ndms5YDsn01BAwBQ8AQKC8C2KQha3xIGrILGeYxA2QhMhHZaKVEBIyolQhgzu4H9J0bM9UCU3Zos7Zv306OM2dBBc0/kHmDOmGyRkPAEDAEDIEiEEC2IGN8ljuRWcguj8MgA5GFyEQrZUDAiFoZQMwZYp++c4OmRWaO7r777sf1BvNKzr55v2LUyT8SMW2sGAKGgCFgCBgC5UAAmYJs8XEcQFYhszyOi+xDBiILrZQJASNqZQIyZxgYFTeqMz2GPPM+u+uuu6Yp8vNrOfvm/YqbNP9QlsEgLzy20RAwBAwBQyAAAWQJMsUnBAcyClmFzEo5BDIP2WdahRSgQpuNqIUi5tefnFD3qjrzfSre1ae//e1vH/IhawQe5B+LvGtWDIFyI2DhOcqNaPnHs2tUfkybcURkCLIkLZgt2CCbkFHIqhSskHXIPMuHmAJUMc2WN6YY1Pz2gVGRePZ7qscW2kWpXj759a9//eAdd9xx86mnnjqiUD+2k8oDz5zvfOc7Ud++fV1drc0Q8EaAALk8tLFX8Y2/5j24dSwZAQgaoRNCsk2UfFAboCER2LZtW5xgncwVaYXlTjRpHiSN/J3IOtMipIFaZLsRtSKB89xtm/o9oPod1WMK7cM/wm9+85tHbr/99v/Xp0+fUYX6sZ1/MGLdfOtb34oGDhzo6mpthkAqAhCzXbt2Rc8880zU0tISESzXSrYQINjtsmXLYg9wI9LZujb1NJvNmzdH8tj0yliB4wA2aR7LnSQVRsYh66xUCAEjahUCNmfYzfr+sOo3VQsuNR+xWXvstttuOzRgwIBzc/Y/6iupYe6///7olltuiYYNG3ZUu20wBHwRQPDL5T7Si0JQ5Hvf8a1f6QigUUPrSaJ1I2ql49mMI2zYsCGaOnVqfB+lnT8hODy9O3mrQ7Yh46xUEAEjahUEN2doUmg8qnqz6ldyth/1lX8Qacs+Hjp06IVHNeZs4MH90EMPRTfddFN01lln5bTYV0MgDAGW1GxZLQwz620I1AsCq1evjqZPn+6lLSeYrWecNBwLkGnINisVRqCghqfCx23G4dfopHFvTvOcQT09xyfdFMtU06ZNixYuXNiMeNo5GwKGgCFgCDgQQDYgI3xMGpA5ASQNWYZMs1IFBEyjVgWQcw6xUt8Pq05SdZJkUnRoifPj0aNHX52zf96vc+fOjfbu3Rtdf/31cYLtvJ1soyFgCBgChkBTIICGfNasWdGKFSu8zpcE6565O1nuRJNmJM0L2fJ0MqJWHhxDRuEGx0vmVtWCDgYMyD+OyNqhc8899+uyU3EumfIPSUycW2+9NTr++OPZ3YohYAgYAoZAkyGAw9nDDz8cbdq0KfXMZfP42UsvvTRbJTWtoQbDcQCbNFvuTEW2vB2cWp3yHspGy0GAGx13Zgibs/APtGjRosf0/8SbjLPwjyl3aq8ghs6BrLGuEfjqV78apfD6uj4/m3w6Alx/uwfScWq0HrysIwM8SdqnyBZPkpaE4DCSVoObxohaDUA/ckg8ZQgQ+FHaFLS0+fK8efMekZ0BbzTOQqgFPPh8Euw6B7LGukSAUA4dO3aMjjvuuLqcv026PAh06dIlat++vZG18sBZF6PwzOfZjwxIK8gSZAqyJa2v2pFRyCrz7vQAqxJdnEtvlTigjdkKAZLXcvMT6LZgUFz22Lp169sHDx7crthpw6UxcS5Z48aPp0+vXr2iHj16sLuVJkGA8A07d+6MVq1aZSnHmuSa5zvNsWPHxh7hp5xyioVdyQdQg22Tt2Ycsomg6GlFEQM+euqppx5YsmTJa2l91Z6khdrh0de6VAgBI2oVAjZg2APqyz/MGapONYhSf+zTW9MGhe4Y2q5du/auY2BMumbNmqhTp07Raaed5upqbQ2EgO6LONTGunXrIh7eEDcrzYUA2tRvf/vb0dVXXx117ty5uU6+Cc+WYMiE3/AJsaMMF+8qntpkyYbXPaB6T30mq+706GtdKoiAEbUKghsw9Pvqy9r/cFUnAXvnnXcOvvbaa2sU6HaAnAa6pB1DfeNAmWQxMJuVNLTqvx37tA4dOkS6TyKCXO7fv9/IWv1fVu8zgKiPHDky+ulPfxoNGjTIvMC9kau/jryEzZkzJ3ruuee8Jq9nwZuK0zlZWQf2eezAag8k7W2PvtalwggYUaswwAHDo2JerzpUtYNrv/fff//jl1WGDBnSSxqz1LVN/WNGu3fvjqSIswe3C9gGacPrlyVvYie9/fbbkZbMvdLGNMjpN+Vp8BLWtWvXOPj1T37yk+jyyy+PCXtTgtEEJ012GuKj+YbfUHL1V5Vc/X7l8/3QA5531AeSttejr3WpAgLOkA9VOL4d4mgE0JLdptrz6KbWW6Q9+YoStF8rbdnY1i35f2Gz9s1vfjPq3r17/g62tWEQYBkEci6D4TieEppVEq/7LI80DAhNciIsdWLicN5558XheUaNGmVLng187dGWk5XGx2kAGJTjc+l99933lF7cfOwgdmuXe1QxybGSEQSMqGXkQrSZRkf9/q5q7zbb8/6cOHHiBQTG1Vt16vXEE2zSpEmxdi3vYLaxYRBgaQStmuxS4qVQgiLz3UpjIQBJ69mzZ3TiiSdGxx57rDkPNNblbXU22J0++uijXv/H+v//jEC2M2bMeLHVIIV/vKGmKaoHC3exllogkCrYazEpO2aMAI4FN6t6ZV2/5JJLho8fP36SwjM4vUcTbCdMmBCpv9mtJYDYpyFgCBgCGUWAl6758+fHGnKfKUpzfkj9H1UKKcxpfAo20tNUP/bpbH2qi4DZqFUX75CjETPtFVXs1VLdNrdt2/a2VOKbBw8ePExkDZLnLC0tLZG8SCPZucVv4c7O1mgIGAKGgCFQEwQIuUGmAV97NIVnel9atCnKOLDFc8JL1Y/cnaQ3tJJBBIyoZfCi5EwJmwJCdxBwcJCqUwMqg9EDImCvyCN0sOxWWD51FmwdXnnllah///5m0+JEyhoNAUPAEKg+AsRElKdm9PrrPtE0okiOZm/ff//9kzdu3IitWVpBvjyj+rwq361kFAEjahm9MG2mRbDBt1RZBnVeM7lgf7h27drV0qz1VoT6bm3GOeonNksER8VjDGcDK4aAIWAIGAK1R0CO/dGDDz4I+fKajDy8N999991T5ERE/LO0ckgdHlH9Q1pHa689Ak6hX/vp2QxyECCeDVkMiLXmXNpUUt7Dy5cvX62o5O1OOumkvjlj5P2KwTkBUlGxE2+NWFxWDAFDwBAwBKqPAJ7ZTz/9dPTss8/GzkA+M1DMxEWTJ09+XC/ePsuXML97VZEnVuoAASNqdXCRcqaIy/Q61cGqzqVNjE8VfXqzPt/q27fvEJGv1GuNeh3bNWnjImJxWTEEDAFDwBCoHgIHDhyIU0FhkuJTROo+ltPAtFmzZi3lme9ReOGfrMoKjZU6QSBVeNfJeTTTNImvsFr1dNWuaSdOjtAdO3asF/ka6GO39u6778Z5Qk899dSoW7fUldO0w1u7IWAIGAKGgAcCW7Zsie699944/qFH99geTU4G9ygExzaf/urTooomzWKkCYR6KkbU6ulqfTlX1NtrVE9UPeXLzfm/KX7WQdmhrRowYMBJXbp0SQ2kS1J37COIfo2jgS2F5sfVthoChoAhUCoCLHXOnTs3mjlzZpzuz2c85Xxed9ddd92PA5lPf/VZpYpNmoXf8AQsS92MqGXpaoTN5VN1J0YOnqD9VZ1FpOsT2a2tlZbssJwG+vsExyX1FBHtIWtyTHCOb42GgCFgCBgCYQiQ4k1ZA2Lve589tbz5qV6i55JpgGe6zz7qM1/1SVVkhpU6RMCIWh1etDZTbtFvcrMNUU31Ali/fv12eRFtl3ZtiE9wXNIO/eEPf4iJWu/eXokSNA0rhoAhYAgYAi4EFOcsTgWFuYlPETE7+NRTTz2oJOwv+/RXH1ZeHlP9vWd/65ZRBIyoZfTCBE5rl/q/qjpI1ZnQnXEV6Haf4uyskd1aP6WUIreos+AVSuoSqdtjr1ByC1oxBAwBQ8AQCEeAcBskVF+yZIm3V6fI3BtTpkyZrOcwz3qfQkL1e1U3+XS2PtlGwIhatq9PyOyIncObFsHQeqTtKE3ZR4p0vUoeoZ0VQ+3UtP6079mzJ7ZdO/nkky2xuw9g1scQMAQMgRwE9IIciXDFL705m51f5RC2QvZoD4us4UjmUwiSTs7OfT6drU/2ETCilv1rFDLDxMnAy25NRqwk7X1VWrX98vIc6BPCI3E0IFCuORqEXBrrawgYAs2KwOHDh6Nnnnkmmj17trfDgJ7Ph5YuXTpL2rf5PKs9scMe7QlVAtpaaRAEEOhWGhOBoTqtSartfU6vX79+3W+66aabTzzxRG9DNDIZ3HzzzREaNiuGgCFgCBgCRyMgz8x4qXPXLt9VyyhiqXP69OnTpE3D/tinoG17VBUTGCsNhoBp1Brsguaczh59J2pif9XOqs6iB8MHMm5dKfJ1TI8ePfr4eIVia4GjATZrOBpoH+cxrNEQMAQMgWZBANve3//+99HUqVMjAtn6FHl1fiY7tEVKBfUoYZV89lEfGOA9qqQatNKACJhkbcCL2uaUsPy/UfWsNtsL/hwzZky/q6666iYtiRKnzaucfvrp0cSJE0275oWWdTIEDIFGRgAt2owZMyIFG/c+TZmTvDtnzpzpsh3e6r3T58HPWer8OGAf61pnCBhRq7MLVsJ0L9C+V6umhvDgGFoCbX/rrbfeIE3ZSH77FIX7iC6++OLokksuidq1a+ezi/UxBAwBQ6BhEMAWbeHChdELL7wQEcjWt8gTf62yDMwMcBggJtozqi/6HsP61S8CRtTq99oVM/N+2ukW1dSl0GTwK6+8ctT5559/nYiXd/JPJYKPtWvyKE2GsU9DwBAwBBoagW3btsVaNILY+hYRu4+0PPqkErCTOcC34OE/VTVE8+Y7tvXLIAJG1DJ4USo8JeKm3aza3/c4Ilzd5GgwSWE8Tvfdh37nnXdeJKJnCd5DQLO+hoAhUFcIfPTRR5GIVrRs2bKgee/bt2+HHAYeFcEj5plvaVHHaap+Rm++o1q/TCNgRC3Tl6dik2P580LVy1W9lkIVuuMr8vAcf8YZZ1wipwGvfZj9CSecEF1//fXRsGHD+GnFEDAEDIGGQWDDhg3RrFmzov3793ufE2mg1q1bt5CwG3I48A27wVLnc6qLVflupYkQMKLWRBc7z6n21ja0az3ytOXdNGrUqD7XXHPNTR06dOiWt0OBjSNHjoyuu+66qHNn71XXAiPZZkPAEDAEaosAqfWefPLJaO3atUET+eCDD/Y+/fTT01etWrU9YMc96osW7Y2AfaxrAyFgRK2BLmaRp4JX6DWq5/jurwTtx37jG9+4TCmozg/RroncRVdffXX0ta99zfdQ1s8QMAQMgUwhQEgigteKdHnPCy2ashL8/rHHHnv+4MGDIcFol+sgT6uaV6c32o3X0Yha413TYs9ouHacqNrRdwBpyXpLuzaxS5cupK3yLmQ0uPbaa6NTTjnFex/raAgYAoZALRHYuXNnpKToUUtLS9A0FENtl7RoM6R9C9GIEUNthur6oINZ54ZEwIhaQ17Wok+qi/b8huog3xHkDfrVG2+88cIzzzxzvOzYvGNyEBxX8dqiyy+/POrUqZPv4ayfIWAIGAJVRYDA3s8991yk+GaRNGPex5b92eE1a9bMf+KJJxbLuzPEroxE6o+pmsOAN9qN3dGIWmNf32LOjnuCmGtXqnpnriAFlQLeTuzevTshQLzL8ccfH40fPz5SCJCIOGxWDAFDwBDIAgLEQSOzwPz58yM8O0PKO++8s1UBb2cEpIBieAKvPatKbDR/RqjOVhobASNqjX19Szk71iVxNOgZMogcBs6RpuxKadq8cowmYyttVWy/Zt6hCSL2aQgYArVCAG9O7ND27MGO379Ic/ahNG/PytEA27KQsludp6nuDNnJ+jYHAkbUmuM6F3uWx2rHq1THhgygJO2dFXftetmgYfcWVAYNGhTJ7s1SUQWhZp0NAUOgHAiQ+kn2ZNGmTaw+hhXZsK1XXLRZGoOAtCFlqTrPUQ1xMggZ3/rWOQJG1Or8AlZp+gN1nBtVg0JyXHrppWdceOGF12l5s0vIPGXrFp177rnRhAkTInmYhuxqfQ0BQ8AQCEZAnpjRvHnzopdeeikimXpI0bLogcWLFz+5YMGCdSH7qS+Bbp9Q3Ry4n3VvMgSMqDXZBS/hdNGuXaY6TtX7vpFH6PHSrl0pT89z5EDgvR/zJJwHZA3SZvZrIGLFEDAEyokAdmiQM0haSLgN5iDHgs/kAbpcWrRn5dkZYsSG/dkS1edVTYsmEKy4EQgSnO6hrLVJECBILmE8gmJryPasl2KoXStng/6hOJE7FO9QZUWIArle6KGsvyFgCDQBAnhvKjtA7M0ZkpszgUbOAi2yYXtKtmy7km2en9igEXYjJFSH59DWrVERMKLWqFe2sueFeyaatQmq3iE51DdiOfSCCy64WtqyrvwOKcRdu+yyyywdVQho1tcQMARaIYCjwPPPPx8RFy20SOu278UXX3ymiGXOwzrWPFU0aXh3WjEEvBEwouYNlXXMg0APbbtBdUCetoKbjjvuuGOU/3OcAuZeoiXN4wp2LNDQu3fvWMOmzAgFethmQ8AQMARaI6DMALEG7Y03wpVZWiL9WAFrFyqv55KPP/44lGht0Uxmqu5pPSP7ZQj4IWBEzQ8n6+VGYIyar1Zt7+7WuhXvUBG2K/r06TMq1H6NkbRfTNgGDAjiia0nYb8MAUOgoRHYsmVLTNC2b98efJ7YoWm/VSJoc4vw5vxQB3xGdUXwgW0HQyAHASNqOWDY15IQwLPzOtURoaOQiurKK6+8tmvXrn1C96W/HBViwta3b99idrd9DAFDoAER2LZtW0zQQlM+JVDs27dv+7PPPvtUYOqnZPdX9OVJ1QPJBvs0BIpFwIhascjZfoUQIHba9apBITkYTPZnZypDwVUK53ECv0MLMdhwOjjttNNCd7X+hoAh0CAIvP766zFBKyYWGhAo3MZ+ZSSYIzu2NUVAAjGbpbq+iH1tF0MgLwJG1PLCYhtLROB47X+JKg4HQXmh2rdv3+6GG264aPjw4RfJfo2QIMFl6NChcVoqI2zB0NkOhkDdIgBBI93Tq6++WtQ5yA7t0Pr16xfNnDlz0Ycffojxf0jBbg1HgYWqIaE6Qo5hfZsUASNqTXrhq3Ta3XUcMhucEXo8heTopAwFFw8cOPDckGTvucdhSVQBd6MhQ4ZYWI9cYOy7IdAgCBBm47XXXosUcDYqdomT5OmbN29+SRkJXlCojveLgIZAt9iiEcDWiiFQdgSMqJUdUhswDwIDtO1a1V552pybcDgQYbtUpGuMCFuQdi4ZmDhs48aNi0aNGhUpB2my2T4NAUOgThFQTs1o1apV0ZIlS6Ji4qBx2iJon4jcrRBBW1CEowBDEEPtKVW8Oq0YAhVDwIhaxaC1gdsg8FX9xjv0ctXgvFBaxjzxqquuulQOA6PlIcpYwaVTp07R2LFjo/POO89SUwWjZzsYArVHgFRPy5Yti5YuXRq9/34xyq84o8CncjRYKYI2/80339xfxFkd1D7PqeLNGZZvqoiD2S6GgBE1uweqjQAhPMarnq8aTLhE1LrJQ3T86aefflaxhO3YY4+NRo8eHSnwbtSjB6HgrBgChkCWEdizZ0+kQLPRypUro0OHisu6pGXST3fs2LFanpzzRdSKWaaElP1edb4qoTesGAJVQcCIWlVgtoPkQeAkbbtGdUiettRNip3W44orrpig4Lcji4nBxgG0X5zlADs2C+2RCrl1MASqjgAhNrA/I5sA9mjFFO33mYLcrp07d+48xVQrNujsazr206pvFzMH28cQKAUBI2qloGf7lgMB0gtgvwZxCy5yFDhZYT0mnHrqqcEOC7kHk4YuUmiQOJ+o2bHlImPfDYHqIoD9GXk4FSIjkgaspINraXOdwmzMk8PBW0UOBDHDDm1jkfvbboZAyQgYUSsZQhugDAjgJHCO6qWqnYsZT+E8TlEe0UuUD/SMYjVsHFc5SGOngzFjxkRyZChmKraPIWAIFIGADPqjFStWxE4CyqlZxAif74IGTXk81ykf50KF29hZ5EDvab8FqstVQ1NGFXlI280QyI+AEbX8uNjW2iBA3LTzVC9WDXY4YMrSjHWVhm1cv379RheTR5QxkkKKqnPOOScaMWJEpPykyWb7NAQMgTIhoLyZ0SuvvBItX748KibFU+40yMe5devWldKgLZEmbl9uW8B3HAVeUF2mWpwxXMDBrKsh4IOAETUflKxPtRGAFeFscKFqh2IOfuKJJ7aXDdt5w4YNGyuSVZSWLjmuMiVEZ511VkzatMSabLZPQ8AQKBIBLUnG5Gz16tVkAihylM93E9l7TzZsS2WDtuzdd98t1sgfFd5iVZwFPv58ZPtrCGQDASNq2bgONov8COAheoHqOFWyHQQXkbRjJkyYIJ511rjOnTuXvJYJUUPLBnGDwFkxBAwBPwQgZBAztGcQtVLLe++995bGWzJv3rzVImvFLk/CEpeovqhaLMkr9VRsf0PAiYARNSc81pgRBNCqoV1Dy1b0GqTCcQw+99xzL1RIjgGlnhchPs4888zoa1/7WsQSKSdap1YAAAzLSURBVB6kVgwBQ6A1AjIXi5c0//CHP0Rr1qwpOrRG7qgK1bHlpZdeWqxwHaUY+KM1Q3uGFq14g7jcidl3Q6BCCJh0qRCwNmxFEOikUS9SHatadIoBHA8uuuiicQqie6YIVnAst7ZnpmXWaOTIkXG1/KJt0bHfzYgAeTfXrl0bVy1HlgyBCN+nGnPNokWLlpTgIMA8yOG5VHWRanERc7WjFUOgmggYUasm2nasciHQRQPhcHCualFppZiIljFPGD9+/HmKyTa6VDs2xqN07do11rRB3Mye7XNM7G9zIMByJuQMzdm+fcXa8rfGCvszxT5bqWTryzR+MVkEkgFZGn1JFUeBA8lG+zQE6gEBI2r1cJVsjoUQOFEN2LCRmqpogzHlEP2KNGzDZHd2jvKCDiolvEfuRLt37x5r2Vgi7dWrV26TfTcEGgKBXbt2xcQMgvbOO++U5ZwIr6H8nZtkf7ZcGrQNyslZXKTbz2eDDRqpnrBDK4XofT6a/TUEaoCAEbUagG6HLDsCOB1A1iBtJ5QyOlq2iy++eMzAgQNHt2/fHiJYlkJi+GR51OKzlQVSG6RGCBDvLFnWLDYher6pf/jhh+9u3rx55QsvvLCiRO0Zw0PKcBCApJmTgECwUr8IGFGr32tnMz8aAZZBR6rieHDK0c1hW3A+GDVq1DnShg0thy1bcnSImuzkosGDBxP3LZJGL2myT0MgcwhIoxVnCNi4cWMk+7AIolaugu2ZtHKvrlq1anmJzgHJlHbqCw4Ca1WL9QRNxrJPQyATCBhRy8RlsElUAIGBGhPCNrjUsUWsOmtpdLTSVY1R5oJupY6Xu7+0dtGgQYNi0gZx69IF8zsrhkBtEThw4EAEMaNu2rQpkrarrBNS5oG9Suu0QkubK0X8yAJQasEDFIK2udSBbH9DIGsIGFHL2hWx+ZQbAWKnEYftbNWiHQ+SSSm8x4DRo0eP0RLpcGnCivY8TcZr+6kUWDFpEymMtW3KrtC2i/02BMqOgKL6x1ozkaeYnCkFU9mPIc3cYS1prl+5cuUKhdfYUoYDoDF7WRX7s/Kp+cowMRvCECgnAkbUyommjZVlBFBVEdYDT9Gish3knlynTp2OUxL3YUOHDh3Zs2fPQZUgbQTUla1cBGlD23bCCSWZ3+VO374bAtH+/ftjUgY5k21YyRkC8kEKOdu9e/emV199da2SrG94//33iV9WaiHuGR6chNkwD85S0bT9M4+AEbXMXyKbYJkRIGDuKFWSwJdsx8bctFx5vEjbcBGqkXIaGCjSVhE1GLZtCiUSB9jt27evETfAt+KNAMRs27ZtcQBahbwoq61Z7iREzj6Rk8FmEUDI2Xoto+J5WY6Cmo8k6atUy0H4yjEnG8MQqDgCRtQqDrEdIMMI9NbcIGxnqULgSi7kGD1C2s4kA0I5nRDaTo5AuxA2MiPwCZETSWzbzX43IQI4AGD0nxAzPssReLYQlDgFkDFA5GwN5KyEnJttDwEhW60KQXujbaP9NgSaAQEjas1wle0c0xCApJ2pSoiP09M6+7Z369atg0jbGVq2PFMx1fpVkrQxJ5ZK8SJNiBvfFcjXd7rWr44RUGDY2MYsIWY7duyoyFJmLkSQM8VO2yqHA8jZur1795YzFdMOHYvQGmtUTXuWC7x9bzoEjKg13SW3E05BgMi0EDacD0q2ZUuOJaLWUeE+RvTv338YpE1OAscmbZX6FDGMcE5A29a7d+846C7x3Nq1K7sPRKVOwcbNg8Dhw4cj4pcRbPaNN96ItWYY/4s45eld3k1yOjgEOWtpadmgcBqv6PvBMh4BoodzAARtVxnHtaEMgbpGwIhaXV8+m3wFEYBInaEKaeuvWrYiLdcxSubeXzZtQ+Q9Orhjx449yjZ4ykAsjULWyJRAZbmUT5ZRrWQPAZYrIWQsY/JJhaSxtFmtcvDgwT3y1tyoZc3XlFy9Rdq7cscna9G5QM7WqR5StWIIGAI5CBhRywHDvhoCBRCASEHYcELoXKBP0Zu1RNlVgXWHSPM1GLu2amjb2k6WeG4JeUsIHCSO5VQrlUfgo48+islYLiGDlJU7fpnPmaA1w95My6gbFYj2NS2jlidxZ+uDEzsNpwAI2p7WTfbLEDAEchEwopaLhn03BNwIYKnfX5XsB2jbOqqWtaBtU5y2frJrG6zlysEKA9KzrAcIHIwk87K1iyvfk8q2zp07RyyvWklHgGXJ9957L5IdV5ywnKTlVH4n29JHqVwPhc3YrWVUmZtt3Kg4Z1sroDVj8iyTojUja0CLavXUgjqYFUOgXhGwp2y9Xjmbd60RIATHAFVI23DVstmzaawvymmnnXbi2WefPVhatwHStvWVhqvLF401/kIw3lzilnznEyInklnjGVb38CI7X5CuXCKWfCeobFaKNHgHpDXbJm3Zlpdffnnj66+//m6F5obd2XpVyBlBbrMDgiZjxRCoBwSMqNXDVbI5Zh0BSBspq/AchbRVbL0Q4jZs2LC++uyjQLt9pdU6WVqtTP4fYw8n+7svqtJv5f1On6SNJdhanw7aL5YcZZsVKdVR/Mn3tr/btlXTbkz3mHfR+Xwmbd5bCjy7TYRs+4YNG/isFDFjXsRNg5zhsUlKJyNnAsGKIVAsApl8wBd7MrafIZABBHCpHKQKaRumWtH4GATbHTFixOn9+vXrK5uyPtJmnSZNV0WPqXOqWIGkQdqwjUNjl1Q8VZPvfLb9nbuNyaG9wjuSz9zadlvb39iKQcAga/VadL4fS4v3uuzdtm/dunXbK6+8sqOMQWcLwUIIjQ2qkLNNqodVrRgChkAZEDCiVgYQbQhDoAACeI4OVmV5lM/2qhUt0mJ9Zfjw4aco0Xtfheboo+XSPiI9J1T0oDZ4TREQudyvZcztCtGxXQnUt61fv36ntHvVYJpkaicZOsuafJrHpkCwYgiUGwEjauVG1MYzBPIjgCMCwXQhbFSyIlSlEHhXOUN7yTmhl0Jz9FIojpNZMpUWquKx3Kpygk1yEGnKDrGEqZAdbylExy4Z/+9Sjs5dZQ40m4bmG+oAKaPuUDWHAIFgxRCoJAJG1CqJro1tCBRGAEv7hLSxVFp2D9LCh/68Rcul3VUVjaNXLwXh7aWk7ydr2bFbVm3e0s6nUdqxKdPy617l5nxLAWUVpWPXLi1hUt+pwTniqclSZkLO3q/BHOyQhkBTI2BErakvv518RhBA24aGDeI25Mj3mvxvyrD/WGnfTpaXaS8tm/aUDVw3besqAtdVdmEVc5LQOTddkX3cRyJk++SksE82ZHu1fLlbXphoyd7StlotI7JkitbsNVXIGd9NayYQrBgCtUKgJsKgVidrxzUE6gQBtGto2SBteJOWPciuxgwuLKEqk0JXLZ92lQaum0hcVy2hdlUYjq7y1uxqS6mtIWWpUt6j+xS2Y5+WLCFj+6Qh26tly32K9L+vykuWrSfX+hfBZ/HOhJyhPStnWigNZ8UQMARKQcCIWino2b6GQHUQ6KbD9FXtc+Szpz4z978rAtdJDgwxkZP36Ykibx2liesoZ4a4HnvssR0U0LejNHMd6nV5lWVJacI+UEDYg4cOHfpAhvwHqdKMHRQpOyhvy3chYjLs36fPLC4TojHbrbpNdfuRz736tGIIGAIZRSBzD/uM4mTTMgSyhADeowlp4/M01bpyDJBDQ3uRuY767CitnFZXO3aQZi4hdh2knWtHlRfrMbk1d5vInn4e045P+iSfXCh5PX4iTvVJ8int1uHkN9v4zWduZRtVxEu864OD0oRpBfLgB9KGHZQBPySMTzwd66mwhPq6akLK+Ky3c6gnvG2uhkDZETCiVnZIbUBDoOoIHKMjnqKaq3XLxHJp1ZGwA7KMmast26nfnxgshoAhUL8IGFGr32tnMzcEXAiwXIqmrdeRerI+u6paaRwESJb+luquIxXNmS1jCgQrhkAjIWBErZGupp2LIeBGgCVTCFtC3vjkt3lzCoQMF1Iy5RIyiBm/bQkzwxfNpmYIlAsBI2rlQtLGMQTqFwE0bbnkje/dVQkbYqV6CBAGg1hpiYYs+URzZsUQMASaFAEjak164e20DYEUBLB7I/UUJI7KUmrync8uqvb8EAgBBY/LA6r7cipLlclvEqVD1qwYAoaAIfAFAvag/QIK+2IIGAIBCLRT3xNVE/LWlsgRC67ZNHKQLGKQJcSLz7ZE7LC2WTEEDAFDwBsBI2reUFlHQ8AQCEQAmzgIW1I7FPhOe9KGJi8LBU9JSNcHRz753vZ32zazGRNIVgwBQ6C8CBhRKy+eNpohYAiUhgCODVQ0dpC2pKb9pl/SR1/jkBRoryBcubXttny/Md6nWjEEDAFDwBAwBAwBQ8AQMAQMAUPAEDAE8iPw/wOSjnkUQRwiWgAAAABJRU5ErkJggg==;" parent="1" vertex="1">
          <mxGeometry x="411.43" y="488" width="48" height="48" as="geometry" />
        </mxCell>
        <mxCell id="cFj89fqnj5NargIZEi_Q-3" value="" style="shape=image;aspect=fixed;image=data:image/png,iVBORw0KGgoAAAANSUhEUgAAAM4AAADOCAYAAAB2Hz3EAAAAAXNSR0IArs4c6QAAAERlWElmTU0AKgAAAAgAAYdpAAQAAAABAAAAGgAAAAAAA6ABAAMAAAABAAEAAKACAAQAAAABAAAAzqADAAQAAAABAAAAzgAAAACzL389AAA+c0lEQVR4Ae2dCbhd09nHdxKRQUhIKzElNzJJkZijSCRmQqNKaxa0qqi22j5U+1H0aZVqzVU1U9QsRGuo1hBNKoIQBEluBjQhEUXEEPn+v3X3e+xz7tln3GfY5+z3edbd++5xrXXe/17veqfVwUuoFj2wul7a3S/d/G1nbTv5ZTV/q423UuUzf8v+pyrLVT7yt+x/opJQFXugQxXf1Uyv6qjG9lZZV6WXytr+ln0KwIiSANayQHnX31+s7RKVz1USirAHEuCU35mAYD2VDVX6+OXL2kYNDj2yJAJUb6ss8stCbd9S4XhCJfZAApziO66Lbumv0s8v62ubEyQ9e/bsut566/X68pe/3Gvttdfu1b179x7dunXrvvrqq3fr0qUL2+6dOnXq3LFjx9VUOnXo0KETWz3X+/zzz1euWrVqJVuVz1auXPnpJ598svzjjz9eru1HouWiD959991lb7/99rK33npr2XvvvbeCe3MQoHlTZb5f5mn7sUpCBfZAApzCOgqRa7DKIBUA45ha2zRaZ511um+88cZ91l9//T69e/deV4Dps8Yaa6yz2mqrdU27sML/fPbZZys+/PDDpQLQoiVLlix+8803F82ZM2fR0qVLmQ9lI+ZOgOh1lddUEPESytEDCXDCO+dLOjVCZXMV5iXtqG/fvmtuuummA/r16zdAo0mLRpGs12XeKCB5utbTyJMqGnU8jTqucJ59SCOMJyC4LfsaZTyNMKmiEcedz3xHtv91LaNS6/z58+fOnDlz7n//+9/3s12nY8yXXlB5XuUdlYQyeiABTnqHoOnaTAXAbJB+yvMYUTbffPOW/v37D+jTp88AMT4KgKwEKHSN96UvfcmTeOb16tUrVTgXJQGkZcuWpYrENu+dd97xFi1a5AAW9i7dt0TXzJ03b97cF154oTVkRHpD9wOgF1XCRqywVzTs8QQ4bfOTIfqFAQviGBqxFA0fPnxDgWVTgNKjR491Nf9o12eap3gCkyuAhbLmmmumnlHLnffff98BCBAJIK5oftSuSppHrfrggw8WAySBaOaMGTNQIgQJzRxiHCB6VaWplQvtmEAd0iyE5mukCiNM2hxkww037DVy5Mjhmq+M0OiwTmaHdO7c2dtoo428AQMGuKI5jafJfOZldfm/FAye5jze3LlzXVmwYIH36aeYhtJJo9FSzYuenzp16oyFCxciugUJ5QMj0FQVNHZNR80IHFTHo1WGBX9tjRBddtxxx00HDx48XKJVv+DIAigMKC0tLZ6A5TEPaQRi/iRgeK2trSkgAS4jRiKJfvNfe+21GZMnT56pESxzuHpZ1z6ugoq7aaiZgIM2bJQK4liKvvrVrw7ebLPNRmiiP1QASUODVMjeiBEjPJ33JKal7mnkHYlr3osvvug9//zznlTbaU1FHS6Fwiydf/7f//43YluQ+P8JFbRzDU/NAJyN9SsywrTYr6nRouMuu+wyXKDYKXOCv9Zaa3ma0zjArLsuWujmpcWLFzsAac7j/e9//0vrCBQLAteTjz766AyNWl8MUZ7XqgsZgeak3dBg/zQycIbqtwIwG9hvJpVvp913330rjSA7du3atWfguDds2DAHFkSxuMxXrP6V3iK6IcoxCr388stOJW7vXLFixXsagSY//PDD06Uqxx5khDYOAM2yA420bUTgYH8ZpzLAfiiNKp0FmG2+8pWv7CDwpGQuRhfNa7wtt9zSw46SUP4ewI707LPPeprvpI1COv7BSy+99JQANE2jUVDbMFdPnaTyTv6nx+eKRgIOnM8cZgcVZz1kwr/HHnuMHDp06PbShOGF7Ej2GG+nnXZyI4wZGu1csi2sBzDGMgI9+eSTnuw/qZukofto1qxZUx566KGpAUUCI9FTKsyBGsKTu1GAs4l+kL1VnPglUavD3nvvvc0WW2yxi+YzKVWzrPveqFGj3GQ/EcfUWxEQYhzKhCeeeMKTV0Lqibj9PPfcc4/+7W9/m6ZrVvkn3tP2byqvpC6M6U7cgbO2+h3AYMB0pPnLBhLLxkkMQ+3sCO3Y6NGjvU022cTLYr+0y5JtGT0grbX3yiuveI8//niaNk5Khbckvk0SuJjzGGFABUDv2oG4beMKHNTGO6ogmjkVMh7I+++//26y4G9lNhhcXfbaay9PolrcfpdY11eimvf3v//dw/UHwhYkr4Xp99xzzyMBz208DxDdJqvEzgshjsBh8n+QSh8VR5rHbLHNNtvsrnmMcwLDOMkchtIohkpra1y2eCOgQGAOhJEV0rHl06ZNe1jzn+cC7Vik/dtVYqU8iBtwhquD91VxKjCNJH00ooyTA+VGOuZo0KBB3j777INDph2KzRZfMn2VvTvvvNOTr5iHMRKfN/nLeQceeKA3fvx4T57YsWkPFUVx8MADD3ivv/56qt5ySF2gEWmSRiZAA6EwuF9lBv/EgeICnM7qTOYyW1mnfv3rX99JhsqxEss6cgzVMmKZVM52SWy2eDJfdtll3pVXXun8yMIqvsEGG3jHH3+8d8IJJ8TuwyBVtRPfzJAq6e1zGVb/effddz8ZaO907TP3CaqzA6frZzcOwMEZE9HMmfFx7T/kkEMOkLv+QLoR7ZjcZrydd945lrYYrPLHHXecN2XKFJpTEGF7+tOf/uQpFqig6+vlImxAjz32mCd3HSJbXbX00Zh9yy233BUIaVisE4huX6jo6qUBgXrUO3BGqK6IZow43lZbbdVf85lvyI3f+ewT64IIIz8zTseO8FD+2te+5tS5xVYeH7qJEyfGTnSjnfJ38+644w4XM8T/CnN4X/OeO6dPnz6P/0WMOIhuhDDUJTlDYR3WDKDspzJWxdXxG9/4xmhN9sebXQa5XyOPJ21aHVY/f5WkXfKOOeYY76mnsAsWT8TXADzmc8QDxYlwmJWNzaMPaId+0y5DhgwZzodQLj2Ah998mAo/Lj5vbcOTduqF6hE4aMaOUHE6ZHXmGkcfffTB8iFzama0ZPvuu68nJ81UeHG9dGYx9bj55pu9Cy64oJhb2l376quvOtsUo0/cCI8N/AOZm86ePRuVdQc51Q6QHa6fPgizfbcdbHE46WIwrat5T72JanxhAA0qZ2/rrbduQTQz/zK+SN/85je9uHstE4G5ww47eBJNaGZZtN122zmrfZx97fDCvu2221KiG35viG7PPPNMq985qKpvVMHzoC6onkYcJv8TVPAGYETZfNddd/2miWZ8VRHN+ELFnbBtXHzxxVkjL4ttG7kGGH3jpqYOtlOZgJzohsYN0U2j0eoyK2yu3/5djT4oC5BC0ITMVvlQpeZUL8DBDnOkSg96RBPm7fUl3Vcas46IZvvtt583duzYWItmtMvo9ttv9+TDZf+WtcXZEu0amsU4k4luzFl90a2jPgab6P+PZe9ZqLYxkdtMZb5KenCQDlSbnA2k2i/NeB9+ZoCmG8cPPvjg3eTmvyduM4qZ8Y444gjn9s+5RqE33ngDmT6S5qDW5XmNQoR48Jvz28MD8AI84bcPHoFXUr6JtWp3rYGzhRp+sApZLDtICTBe3gD4oDmLuf53mWP4v5EIe0aUFPXzoqxbKc8iYxC/vWUKgifgDXhEz0PjCs/AOzWjWgIH2WJ/lY76uqz23e9+92ANza4zlAXTO/bYY12apZr1TAVfTPuipKifF2XdSn0WKbbgAWsbvAGPwCt6JnwL79RMPq0VcADInirYYbqqQ46UpswNv6Rawr5BAr9GJWxQUdleEGmwiTQiwQPwAjwBwSPwCjzjtxceqknja6GOBiAMtR3pgG9/+9tHk+iPjhg4cKD3rW99K5auM9S/UCLgC2Ynv1m5RNoqBYzFznetmHYjiv71r391SgPuU2Tpoquvvvo6P0QB4+itKsT4VI2qrVVDe3aoymoMuQLN4VIvu88JmWUOOuggj2R/jU6oX0m9hM9WufS9733PaR3LfU4934/GjRRdxPdg89Fo3UNBif0Vuv2CQhbQsmyi0qpSNW1bNYHDqIJGpAuTPIHmW5JfN9b/Lh3TAQcc0FTZZQiuU2RkWrgxfVEMIfL94Q9/iK3bUTFtFc84TwPCFACPPrw95abTV0bkmdJQMuXARec1larYeaoFHDwCJqg4O82ECRPGS251rr2IZ4w0dEwzEfI7KXTvuuuuVKBXMe1n1JK4guNrMbfF+lppp100L+p3Rh/1QW/1YU+JqrPUMESVoSovqXysUlGqBnCw+k5QcR4B6OQFlu1oFZO+ww8/vCnEM9qbSUq360YLIiWzJULPvN7+B3TnnXeemw/asWbZ2siDkZSE8pon91VOic7KaTBHfdBFZbDKiyoV9W2rNHD4CuB71lfFeQRIVh3LPmrGo446yq0Tw//NSviaYfUnLgd3k1yGUWR9hYh71113nSdv8WbtMudBQuIVchuwPpB8GPsJQOZhwIe6vwrr+6A4qAhVGjiEBjB8Ot8z3GiwBmPYkrjWEH5nUfwqZA/VSOySuaNBAjwW6IVIxsi87bbbej/96U+9888/32OkanbCqZV5ohbIcplFFZM1UB+Wpb5vGw6NxGwhwlWEKqmOxtf969QaL2fFjRyuYbYTdgeswhi4EsreA1pew40+iG/Ye+grLTmS/eImP8oofe2113pKxevWS1V+g5sCXtV3q3uer0QXVWrEIdz5EJVOxNMoFOBIvJxx2DzssMM8Yuebjcj6wmjC1vZx0KRPmPQyyvDjkxGGRCN4O6M8YEkRPMIBEecyr+eZHLfn2jObpX8JisOWRVJEtGsavQcpv9sMP55nkPrhFZXlUfdHJUYc5jXfUUH97J144olHCDzuc6m8Zw1r5aatmYSBU18/j0QVTGZxm4exIUQxPiBnnHGGW+6QcOIzzzwzLZ1s5vMA1FlnneVCxTGinn322c6IahpJAIgIw3OZA2BkxWmyGQgjMBmCIOUxmKPkJzf67SYs4c8qkSoLKgGcr6mSTkdKuLMpA4inUWYavy2NvSEyk6w1CsZy2S3DWsuoQuZLnBq1cJNTEmiV6LDLnUIFoylzHFYPIJ0vi0KFESl/JSZ73//+912Iddh1jXJcGXNcPmvaoxHon0qz9bjfNiIGJ/r7kWyiNp4MV60caEisoTiRnaklkZvjxo2LpML1/BDEpauuusobM2aMC1QjJWwuYv7CKAGxzee/Vuz1jEpk1OSD9YMf/MDLBcpc9YzLOXgMXoPgPXjQrzs8CW9GRlEChxrvS81I4UTIs5jBBaIR7hzn0N5CepvkgSeddJL3ne98Jy13ciH3Vvoa5kFEnOKdQdLDRiV4DF7z54Ed4UF40W8vvNmGqgg6ICrg4OpN7rPVqRN5z/R1RB3oRIS45wigHbmIyfk555zjEgrmui7zHPMcs9tgoymEYAqI++zeQu7jGsTCU045Jec8qtBn1et18BqZfyB4EF706wpvwqNtHegfLHUTFXB2VAWcfllftVEaLgdSIXypmsElhOSAWPKLJZQF5jFAbjgZ8XI+Ao8ByyGH4Y/0SsUSLj6l1LXY99TyengO3oPgRXjSrw88Cq+WTVEAZ23VwlVMBqk+UgaMoVbImqRxanQixzOarlKIOQe50aBu3bo5T4pcz8H+hR0M4j4cHkuhSy+91GXULOXeuNwD79l8B56EN/26w6vwbFkUBXD2Vg3c8EcCdOY1qEfJsNno8xpEpYsuuqhkD2dEtVtvJZSkjcgJjZ0rGxGHryCu1Km//OUvRYtqdvOHH37oXX755SnvBDveSFt4Dx6EF+FJeNNvH7wKz5ZFhQnW4a8gDsJpzvbcc88tldLHOW+SMyyOSfLCm5n9zPz5893cptQvP09FDU0u6JaWFqdV06JYbml4fnBEN30tncKBUc1i8P/xj384+w9zq1IJ8JA9CNtQoxLGURQjCxYscGEIGq3/J3vaf9VeYtfZvlNq28sZcZhsOeTqB+4qe8FuVAIrNwnQm4EQ03CPKYdgYEYSfK4gwHH66ae7vNAPPvigd99993mnnXaaAxPncQYleI05TjkE6DHMNjrBi5aLDx6FV/02w7tOmVVKH5QDnNF6oZvNshKaLerEUhuNLqJZRzNamDOmHStli5cvTp6ABFsQxJwHA6bNafhy3nvvvS6UgPeWS9Q7uGZNuc+r1/vhRXgSgkfhVb+u8C48XBKVChz04V/ljRIlNmD5QPZZ1CmO69NQ92KJ+Q1uMlERvlaECiA+MXk3ALHFBsNkF5ldScmjemXeMIbIXlTjB8GT8CYEr8KzfpXg4ZJsO6UCh4lWJ8nhHVioVpOvDtgXTH/uV6qhNwDHVMlRNRSQIJ4xn0GEgzCs/vKXv3Rh1uXMabLVkVGsWQje9A2jjmfhXbWdOb4pDYrqilKAQ3zNAN7CkuiSH9djn/U2G3miSRurRYCSAtm2Wu9u1PfAm/AoBM/Cu35b4WUXM+b/X9BmtYKuSr/IyYWaxHaR9+0unGJ1Z6tU+qXN/R8uLohfjEx87a6//noPjVg+0gCedknm/2knA/+gkUNtzciEXxs5qs1jOHBZ0+7Co8qM4/IVwLvypJih8OuP1SHw9KxiOqZY4Gyshzv5UH5AI8UMTkPB5AvGSCi9BwiLPvRQsmG1ESEGhQDHri92S4otgGOEkTQBjvWGjI3iUXhVSyey3xUe9j2o4Wl4e84XV+feK1ZUc6NN9+7dO8sSuz2PJqyXENaE2veAxd7Ymcz/7XhU28znRz0niqqetXwOvKrkHq4K8DC87NfH8XahdSsGOP300BYeLJFgG6n2urFPTEhC2XsgmZ9k75daHx09ug0j8DC87NenRVt4vCAqBjgOIdKLd5J6bweejp2BSMNmIJLgvaXsm41MRKwSw9/oBM/CuxC8DE/7bS54FCgUOIxtLrWKELqVXtSDFzHaFDpx9SsWyw3BYHIpcm75xTSg1BEn06ia+X+hdSj2vn/961+unajEG5ngWZOU4GV42m8vPN4mx+XpgEKB48Y2Tag6yni0I89EvYcfVSMTyTOI6yc4ipj2Yj8SpQIHtxuLz2FrPmqV7mvah9aJzKrEF9H+RiV418wn8DS87be1TY7L03C7ONdljGnDuEBrTQ6XC4hzs0G1hyNioxJpVo8//niXQIOMkVCxwCmlb3DsPPfcc1P+Vfz/61//Om+sTinvyrzH2kd7SSKCT1wUKypkvqce/od3zYQCT8Pbfr3g9TY5LkdFC+H8kXa/PJ6dBQmnuUb2fpZ+37m+YHepNklF6vzWgu8lTbAWEg4eqso+GUO1HqvHYr+NSPCwOYAab/vtTPF8WLvzAQfjjJPHlKZ1sFR3uGM7N3gTJcIeHNfjLGqLw+Wzzz5bdhNKEdXIfJONwo5nuzbKY9ieWO2blRUajeBhQjogeBse99sIz+c0TOYDzhA9wBk5JQeO4KGaTDVsri5GGL7uhWrPTLShX7JRKcDB8zmbPSYKj+hsdSzkGCmo+JjceOONhVweq2vIOwdPQ8bj2oXn4f1QygccBxbcaxTr7qycw4YNS70o9KkxPHHbbbeRPLHkcOSomsyXHcu2OZCyJdqzkh4HhdSdYD0iVO+4445CLo/NNYAGnobgcXjdr7zjfX+/3SbXcERaHTd0aTjbVJMpd20jzm1gBhQB5pHcrpeqeIAANRaNnTRpkgvRIMCNBBsWZlBMVUoZ8XI9H09tgu5wXSEra6MQPI02ER6H12V+mK62wftgIGv63FzAQc5zI5IyRzqNAxOplpYWHW4cgim1OlxBGWOKtYuUyri4+wdzEZTa28W+v5D2MfKwoC1i6vjx40utWl3dB0/D22Qdgtd94MD7YOA/2SqbS1RzQ5WSfveS97ObseJE2Egq6GnTpnknn3xyQaDR5DHl45StIxvhGAqIQmxGrIZGWl0UB41A8DS8DcHr8LzfrlBxLQw4RMXhMeqNHDlyuL4uHdhvJDENBQA/PvaafIR7Brmgzccp3/V2vtgvvt1Xqy12jSuvvLKgDwQJMEirG2UUbK3azXuNt+F1eN6vCxjIGiEaBpwU0rQui9vHo7RRMnIy4WaiO2XKFL9/wjckRGep8AkTJoRfVKdnSgEu2jO52he0eBVLMKJQKWX+VW9dBm+b17TxvF/HFBaCdQ4Djhu3lA1xQ4koLn+QITJ4cxz3YSZyihUSp0LIxM033+yNHTs2jk0tuc4srUi7kf3zEXNE+rMUkOZ7drXPG4/D8/C+//42GS6jMtmAw7o2TsaT3Lcp1yMD4tvTCIS6Fz+sfMTXhwk6OeJKpUIm26U+u5D7ymFm1hql/YUYXsmRUGt1eSH9ke8aeNzm8Mb7ugcsgIk0ygYcs56yhN4ArmbFK5K7xZ1IOcs6mkxucxH+YeSDNg/aXNc28jnJ+m7OY6lkw9pKf9Kv5SRmDHt2NY/b6m6803jff38KE1afbMAZxEl5jnbXgxzSWFIv7sTX9ze/+Y1HEsFchEHsggsucL5qua5rlnOEU/z+97/Pu3YP3uP0bzmjXD30qfE6vA8G/Do5TATrlwkcrKamem4xbZo9LHhj3PZZyeyKK67IW+3jjjuuIEWAr2jM+7xGuIB81igB8hH9O3Xq1HyX1fV543V4X+Jai19ZMGEeBe5QJnD662gnzkib5IYZhZfGfrFb4kr4GubzDEA0Y/5TqANrode5nq7Bn3zgNnk+X9W4jvVJ5Xqf81I8C+hncxfKeXGdnmT9VHgeMgxoF0yAjRRlAiflmmsyHvMbXCziTKiT77///pxNQINGxkzWoCmEYMpcS6gj8rFWZy2J9xsTZKsH9c8HLrsPyzorM7AKdi6aOHFirP3Z4HV4HjIM+O1NYYP/swJHzm5r4mbNBTZ0sR9HYvGlCy+8MG/V8VVjleZiaMyYMS7LT7Z7tAZlzedJpM0NS0kMAIpVs6N1YrnGfMScqJRFr/I9t1rnjefBAFjw3xsKHIaV9blIP3pKG2AP8W+O3eaaa65hBeKc9cZu8aMf/SjnNdlOAg6iNTNVtgAQTwMSNQap0ilnM5/fu3dvVw9zJ7G68EWl3mGgsuuybfG2yOdBwYoKtQgCzFbfUo4FeT6ABbCREr1SOzpIkgL3vxjBAYdskIgwcSXUozfddJPLbBnWBlYFQC4vVd1OAsBtt93WQ/lAhhg8DYjWzOZlwerPyNCFikdhdc52HG0W6uNMIlCL5BuPPPKIx9Ie2KewTZWanUhfYRfKjbYtbM6IJwGxO/RN5scjs371+D88D+8zV/OxgCoWbICRBdQ5CJyU8CrfrBZOwgSFTiC5vt4Il5B8kZxHHXVU2fYamLAQRiSLpC05Uc2+AizBDJ/lvpsRGg/pSy65JPRR06dP9+j/OC5nCc/D+6+++ipppFoCjQQjDjjBOU5fLkB3ra+wmyFzc1yJL/BVV12V066AoZPYlzh/HGrx+9BfrEeaazTBawIxOa52HeN9sBCw5/Sx/g4Cxxk7pWlJnZRWwa6L3ZbAJMSTXEQiimZYFTtXH5R6jnlcvmA2RETmO3GkIO8HMJEChAGHrUuJI/kudTJ4c9waT7jx8uXLQ6vN3AajXjLahHZRzhPM00gfxZwnjOh/foc4UpD3A5gAIw4zBhxUz26+I02MG3nokEKCmuqxU5YtW5Y3KwuT22yT6XpsT73WCUfQfHM2nGr5PeJG8L59FAwTagMYcWYaA44DC42T3O9GnCDiOB4nwh8t1/qWfC1RCiRUXg9YP+bSEpKdJ+7immHC7y2HFQOOUwZwYo011nDxN/k8Ysvr8sreTYBamKqUN7MeJCrkhMrvAUadXB4SuOH85z9Zw/bLf3mFn2AYMEz4r3NYMeA4S52Q1VUuBy6PWi6NSYXrW9bjSd/66KOP5nwGto0426dyNq7KJ1F1WyrZsFcTqwOA4kaGATABNvz6O6wYcByK1AmpkadQn6166wyMkBgjw4jlz3FWzCVehN2bHG/fA/Qjrke2rHz7K7yUcTjbuXo+FsRAABtpI477R8ae2AMH9xrS/IQRc7d8LiNh9ybHs/fAzjvvTDK/7Cd1FOXASy+9FHq+Xk8EgRPARnvgaGiKPXDyhfDin2XGrXr9weJWL3z1Mv3hMttAIvu4URA4AWw4jKBeI3GuU0VL/ebio3GtNlVc3BqLGpHVnnFwxKWePMyMQIT3Ejq93377xa1Jsagv85z77rsvtK7ksIsbgQGwwFqqhg21wWGGPykLloyCbh/jYFyJtWTCCMUBHZFQ9D2AwiUXzZ49233AbFmNXNfW0zmwAN8YNvy6dUc5kAKOgq8cYuI62uTrcEajOH8U8rWvludR8UvzFFoFzAOAJ25kWDBs+PVPB45cqR2I7OK4NTKpb+16gA/SkCHhK2Ogjp4zZ07tKljimw0Lhg3/Md2RW1JymVAVW+AQO0E6VizVpLVFk0NgF6IZ4gH2BgLP2BLWnFC0PYA6muUy3n77bWdcRmFAvxObQ7rhWbNmuTlmtG+t/NMMOIYN/43dAE5bZgLtiMkcR8WFsXBdxyp99913e6wMjSjAD4VCgHPm0o4jJ4k1aBdWbgLKDj30UOdBUPmub4438IEirRYBYIw+wbkkvwUfsTg61BoWDBv+r9kZ4LisNhyQMcvt13v2FupKdCfhzqxtk8sLmmv54SiAivxflKuvvtr90AceeCCXJFRmDwAKc1HJfBTnchlIM6+vp/8NC4YNv26dUA6kgKMGxgY4f/zjH70bbrghL2jCfgTCiH/1q1/FUnwIa1NyPPoeMOAYNvw3dGLEoTgyVAWHWTtXT1tGmFw2g0Lr+sorr3jYFwgxSCiaHli8eLH38ssvu3kNtjNEHbwKWlpaXHIQXHTiRIYFw4Zfd2fUiN2IA8NHodpEocDiSAlwymdlFDKXXnqpx6rd/D6ZSQlJUkLUKGm44pSHINeIU36vVfkJLGr0zjvvRPJWQqxZdzOx75TenSR8/MUvfpEzBgpgUfBcJ3HI+eef77Rupb+1tncyx1lpVdAE2u1nLhdu5+tlC3CiItSkcXR5j6r95T6HeSZrqOYKHAy+g48Uq76Rozuqj1/w+VHvGxYMG/7zVwKcz+xlUt864OCbU6+Eirm1tTWy6iHyJcAprTvvvfdet7JdKf3HKEXOgswkiqXVpHJ3GRYMG/6bPovdiENHz507N7Ke4kfHaJdQcT1AnyGe5Yq0zfdEVnNj9KlnChtx0KgFRTU31NjF9dggtDIYMEtJ3xrWHjypEyquB2677ba8qYXzPRHbGgt4HXTQQSQ4z3d5Tc4bFlTXoBi2EuB8ajXSRW6/nodP1JuHH364VTnZ1qAHSKjOaBEFEeCGSWDcuHFRPC7yZ5h20LDhv+BTgLPc3ibALFdigpKNivacSm6Z49DRUUUU2ggW11RYlezrsGczqY9qASlGHUwC++yzT12Gs6PMgMBGoD+WA5y2M9oRutzJfC4sgQdUfZcvAEnS8U+LinCJL2eR3KjqEZfn4HVRztwms53YfZBy8HOrNzIsGDb8+n2EciCFJFXegcgurrdGUB+0HPYViKp+cV/0Nap+KPQ5UScYJFDMtFeF1qFa1xkWDBv+e5enAUcM6UAUNWNG2UgsuYiTUVKpS3xEWYc4PStqsZbf0yz09dYPhgXDhl8/B5xP9I/TGAhdLvkV6Dek1VtD8LLF7ykqQjzAHSShwnuA1dzMh6vwu8KvZCGnehXTbCQ0bKgVYOUTRhxoGX/klOe27kCd5vtlMr/11ltHNpHcbrvtWAOFJidUYA+waBa/QRREyEGUv2cUdbJnBEXSADYcRtKAI6NW3QOHRjGRz7VwrTW8kC3xOLli5Qt5RrNdQ4ZLbC9REIoZFqqqRwoCJ4CN9sBRiGssgENetIMPPrjsvuZHY40cRrGECu8BU+EH18os/O70Kw877LC6FZWDwAlgIw0479IcGbZWSKZbwT6xFPVMRH9uv/32JVcRGf3UU0+NdL5UcmVieCMj/k9+8pOyJvXkYmMx3nolwwCYABt+PR0w0kQ1Tkg/v5RtvXuu4iZz7bXXlrzGzdlnn+28emlrQqX1AE6aZ555Zkk3Axp+P0tsXtJDKnyTYcAw4b8ubcRZbHUQshaxT/LyeicWrGXFr2IC0fCJIhbkZz/7Wb03r+7rh8iGoycG6WIULHgJsBo4onI9k2HAMOHX1WHFRpwlOuhU0koT606gjsYwVe80cOBA78477/Suv/56L1c2SfIAIxaQDQcRI6FoegDwnHbaaa5fTzjhhJyKFpLdAxgSrNR7/m5430wyhgn1GBgBK6l8A59rH9/69d58881FW265JefcqBO1scs9OOI/GNCOPPJI5yhIXjV82diSM5ov4fDhw51IB8hQfyYUfQ+wCPGIESO8k08+2fmxsSoeog4aSxIV2gJUWsE5+pdX4Ik22vBoMOG/AoyAlRRw2Ofkesq2aBc54NT7cErFjZj3UMpRGtizkm3xPYD1f+jQoa4Uf3d93REETgATKWzg5GnkDspva7ncC5YpBr/XvHnzcoo/dmOltnhCEyb99NNPe+ZYyDEIEQHHQGw6LOBKrrQHHnjArVCQrT7cx8hEmC/51Qj5JRgrOALxTK5BY8QXFAs5x5qZEFfoW9YdYrUHs6Rbn+y6664lOchq3uDdeOON7pnB3wBtJwZWlg1hBKuVRwG8D4EFMOG3NytwFvonYahWpTDdgptx+w42zK6p5JYfCBBcd9113rPPPutkTUBioAm+m4ycAAfR7Oc//3nwVLt9lAkTJkxwqYuY0C5cmGpy6lqAQswPqU8ZucjKMnbs2NiuwJ1qWJE79DsfF7zQEblWrFjhMqRmPoa5JbE5iMOFEuDDnMC98FcmAR5cq0hXfMghh3jYenLlpc68v9z/qZMBBywEnpdimKDA/5YucAoCfd1dbDIu/JLvAvdVfpeFoTBuMmchIwq6dOqRDTTUxnTtYVkkgzVGo8YXDMNWmFs87+F9PJdUR+PHj/eOPvpoN28KPqtR98lE83//93/e7rvv7l144YWOgegri4TMbDc5G/i4FJqsg/4999xznSo6G2h4PsAipJ2PIWYDPoxXXHFF6G+WWady/4fn4QHIsKBdsAFGHAWBwwmHkpkzZ6aC+qOM7/ffmXXDD4N2Bkv+I488kvWabAcNWCgx8nnYMv/hawZwTGOS7ZmZx9Da8eORYKKRCZGYSMxiM5yy5iofu0J4hfWLirX98FxsRkT+Il5XmoLtCGABbLiBhfcH5zj8P1+ln7L+vy/GWiJxpTcPGTVqFOcqRnxhTj/9dGdfKfYlaM74OpEtErGN2JpsoiVfN+RxiOsR/YohxMdjjz3WPTsqP61i3l/pa4noRCwKMk0x7ySKEzEYsY0PVDb685//7J1zzjlZxbNs12ceu+eee5zkgYhXSf9C6wMwABb8eoCNFGUDjjsprcJc+SL1ZnIOY/OlrhT97ne/Kwk01AcQoHNvUagBMnkhxD1hol+u+xFZsFWw4gFZKRuFYBTEUWOYUtvFOp8kG2TSnwkevAR+/OMfp0SgUt9BSiokk8svv7wiiht43fL2gYFAPdOA0zFwgl1UCS7rjSZH7iY0UMi9lSJsLgCnVCLQiDoWQ0x0SyUmyogbxYh6pb6rGvchItP/5HuOgpgXnnjiie6DZs8jIw6gicqgDgiZ/1aCUBgZPxkG9B4w0aZm81+aCRxmRA5ZL7zwQqu+yqu4rtwvkf+udhvEJfJqIQaVSjyDr0QxZBO/Yu4JXsuc58knnwweiu3+lClT3EQ9ygYwF/zhD3/oxOGnnnrKO+WUU1JKnCjew+/HahXlfADD6tHqJ7uE98GAfx2YaNMW+AcygcPh1/mD7loijXO/qRRw+MrhglEO8cUM086EPbdYoGU+h/eRD6wRCAZk1I6arrnmGif+oUquhMTCahXk/Y6ajNfh/YD9xmEi+K5swHnNLjAZD5mPeUHUhM9SuT8adpdaGCn5krKkRZwJsbNSIg/Cys033+zZFzzqfkLSYOSPkuDxkPlNChP2vmwzfrgB1+leGqpmyuVme76wWI6jdmVBHi6XMFZSGLbvv//+UK0ao8zIkSM9/PC4vlxCXp8+fbpTU5f7rFrdj/oZrWRc6eGHH4606vC4SS/wvv9wsNDuC5kNOFz/gsooOeotlMv+Uqml12FYjBo4rBRQLpGhBis/X388B2yozXwuX0C0MQAHt5pyCTk7m+dBuc+t5v24MVVinlCtNkSxRlKwrib6SfGzFN73z4GFdpRNVOOilPAoBze3z8rBUYsmUYh/eD8TDIX9BosvGpFsJahmRFWaz1jarqcyDvBlKlfMzHhk1f9FM2hf2Kq/PIIXRsE/Vg14Gx6HjOf9cyks+P+7TdiIw6pN6KA3kGFshpY5H6N5RAcQiStGPRHJ11kUiq9nvo4kYySgIrwA95ty3YkYxZqZWJKdRBvBOSbGZxjwn//8Z8W7Jsr+t9FGz1wFz/uVBwNZVzALAw73gbQNJI4sk1vLfMVR9Jfc56zv2Szz3BA1MSexeCC0ZzgeBhMoYJQdM2aMe20hbjp4+eK8N2zYMGcwzQQORk1GMPtByE+deU3Ubazn55Fvjr6CAAfuLvShEYGDKAAyCYVDKcBBckCUNv5iHhlVjurMOgb/Z9SFtyF4HZ73z2cdbTiXCzgv6vxeKh3lbDdDTNyfiSRakqhSM1GBXMSS6hrt3CXMKQiRfuyxx1K3IH7hFIrjJka2fMQzcBpkDcps8xOcD4Nh2LjYoFZtVsJvLah2f/DBB9OUIXxUJk2a1E7s5QNXChFGgMLIlDeMAtXw0ICnTUkCr/t1x20bDGSlXMAhBgE13NDJkyfP3HbbbffWl2A1GlMt4JgFl5qjfswmj5NzgFIo4Q5CyUZB+w772d6X7b5GPUb7GeltPhjsH9r8xBNPeKjlM8lG7Mzj+f7nffzOBhz2q0Empun9n8Hr/jvhfYvDaVeNMOWAXeiGKg2ZH8vZzanAMFpWq0FWiWRbnz0Ao4cpYuqzxu1rBS+buxE8Dq/7V4WKaZzPB5xXdY1z7JKO2z2IF5U6FPsVKnhT6per4BfkuJB31/L9OapWtVO17oNq9D+8bAOB8bg6GJ6H90MpH3BwAnNynmIuXsPNmidpOAsNbAp9UwxPFPvD5dPq1boL6r1+mf1TbP9n3p/vf8RQeBmCt+Fx/x54PqcDZD7g8Jyp/sPwDXqSfSZSJhfauUpsK91xUdf5t7/9rXfGGWd4Cn6K+tFlPY/6ENVJ/YqhuPV/MW3jWnjYlALG2/4zUjwf9sxCgEPInfM5l5pxhizN7/EwvIORcStJlX5+1HVH1U2gFpo5gurIm4AmrxbEe9F4EZxGfYjqpH7FUCMDB94yD3d4Gt72+wZezxtmmkurFuzjx/XPMGlVPpccOFk5svbBUo9vTzFJGoIPbMR90z7hDXzLLbe4aEgShLAiAsxLEj4yuFSKSGmEIZikizjQ4tIUBK7Vr1Lvj9Nz4V14GIKn4W2//vB6XioUOPgiIP8NlmPddIFltFSGPVBHksYnaDnO+8YmugCmRRygnHXWWc6YuNlmm7m0R9gsMC6Wk9GSEQQjLcn/eAfMgIYoU23cRF1eUFMZSeFdSIqBD+Bp/0Z4vM3vxj8QtikUONzPmwbrRSv1Yz0lw9QeWJJxYzHrcthLSj3eSKICzIx1msJoREZLLOVk52lpafFYMoN0SPy/1lprOTciRggmsPjEIYsTBoA7i3ypPIx2BADy1SRhSSmU74PXSP0f7B941pJ+wMvwtH++DU3Bi0P2iwHOfD2jVaVFCJ0mi/6ozp07dwO5jQqcSjIODE/BwzfTrcQYmq3VwbYhv2NFDtfincGGVOr95EaAZIP6CF7239mqLTxeEHUs6KovLnJvlOruU8nPUziM20UU4QFfvKJ+9mqlnIBhKLzf9uunV6pXk0oAB141L2h4GF72W9SGpgKbVyxw5ui5eIx6Dz300FSJH844ymQ0kavbEukV2O81uazZfyPaD69C8C487P8Q8DS8XTAVCxwe7JCJa4I8ZR/lADK2qfb4v1mJib559tZbHzBfKlYR0WijHTxq80F4N+BeU9Row29bCnDwWXOpo+TJOk2TVqeFoFKm3ouKaSoxVBdTt2Lfz7o7eGuTHmn99ddPOUcW884orwUshAacdNJJLjtq3NYFKrb/c/UdvGkfd3gW3vWvh5edH2au+zPPlQIcnjFJZaVk8FWaXE1SA1cxDGLwa2Zi8Srigy655BKnGibUgbSt2LoqmXky2Oe8B1U3ubdvv/12V4+LL77Y1Yv6xYmiBA68CY/Cq/AsvKu+QJsGLxdNxWjVgg8nKg5/8lGyHbyhdeqnS6W6NYm3sSsQlRkFRdlxUdSn0GegDUPVfMABB7jCkha4vZBE3Gwu2FuiCJJjZEOrSdwKNjWyjLK1AMBC65zturj2f2Zb4ElLCi/b13R41r8GHs4a4Zn5jMz/SwUOz0HnzdoOPZXT9xGJJ8Oknu7O5IvFqCymggtLpUb54RgFWMeHAiFnAya2qKOxyRBYh22BCFfJ3s7ij1aNOROBegCBEYMIVdbt0YfKhYADUJ7PNmpqhP7H89kUAlI/L4dX/X7Cdaxgu01m35YDHKKMyO90sJhghVLZPqz48/EY6ojSrLfcBJkNL+T/SjEOTE6B+W3ZyELqU+1rKtX+QtsRxfvhRXgSgkfhVf/98C48XBKVOsexl72iHRe3INXec/paLuAEyz4oKMiuSbZJD9SkB+BBeBGCN+FRvyLwLLxbMpULHF4Mcl3sgoZEFAWSMD53ToYMkwklPVCLHoD3cHSFF+FJeNOvB7wKz5ZFUQAHRyknK8oSu0i+WC4vEH5VZNYsh2h0QpXrAZQY5t6T7S1RiErZnluNY/AePAjBk/Cm/154tTTnPv8BbKIADs8hjM5VTGtGPqkKz+YgGiTSxIZRruUH+UEz11gJe04ljmMDyfV+Ju25zleiTlE/E0fTXAbbKBI3llPnfEu7kxsvG8Fz8B4EL8KT/nXwKLxaNkUFHIa/21WcbCbv37vkUu9WskJ/HpYBlMWMwmjnnXd22qOw85U+DkPttttuoUZMDItjxoypdDUq+nz6mJXsshEfDtqfC1jZ7ovy2EYbbeSNHj069JHHHHNMu3PwmtkT4UF40b8I3oRH3bSi3Y1FHogKOLyWcdHJZrLSLtdE7E5kS4xOGAKzzXdYvnD//fdvV2VcQ8477zyPvNC1JDSDxx13XLsqoBE7//zznVW+3ckYHSATJ+HU2YyzLIgLcGpJqODpZ+qZSdjITj311LTD8Bi85hs6P4cH4UX/InizJJtN2kv8f6IEDo9kfHSymYbLeTL6PcZBZE3CeDMJuwSra9EBREYSh0KHsNaj8rhlXp76+vE1jLrwskx5n2TuF1xwgXfRRRd5Q4cOdbYpsleyzmWjrANKiDfLZWBjwvZGO/F8gGFpf5Csf6Lue54HsbV32Hu32247xw98YAES4hnJ80kUmQl4eMzmNfAePOg/B5600Gh7dFnbDmXdnf3mzjr8HRUXIyzD6BGay2zMpSx9Xs92C+qYUDx7gDRPrA8KCTxzLrvsshv9lrBEx59VLHzAP1zeJuoRh9pQQWRJV1Eta3eXhtAPOMEXodiEEdyXUNIDuXoAnjKJBl6D5/zr03gx1zOKPdc2RhZ7V/7rkSsx1w4jUEihv2/JDWdzzXk6EraKP1Wt5y/5m5BcEYceIEEJKY2Z38h8sVL2mr/Kjcmy1ExUG+ZUoh2VAg51RfXXU2U9Rdwt08oC72qSt4li6DsQhYcjaNeuXbkuoaQHSuoB/Pquv/56twK4PsqrlFzwHuWyxisAelbFzbHdfxH/qSRwqCpoZ36zllZKW6zJ3MdKSDGIrwOewmR8icIZlBcl1Fw98OGHHzrQAB5IgWkPabRxiin9u1DlDpXPVSpClQYOFccnaKhKd400CwWczlIW9CNzC17BuMCbVqUiLUwe2nA9wIcX8czsg+KrydIMPu43FJXzDSoVzQRZaeDQFiZoRNhtqtJFsRBztExIL40+fXGfJyaFkaeWhjbVK6GY9ADpsm699VaXeJEqKwHjczfddJP5njGvvk7FKaO0rRhVAzhUHvTjhrOZSme5Q7yq4Kv1tIhtb2JSKARjZerwdW1CSQ+kekDTGE/uMy6XHwc14ryqxccwtPPvRyqMNEv5p9JULeDQjg9V5qs47ZpGnlc00gyQgqAnQy4x4RjfkpGHrkooswcYaQANCR0hwgSuuuqqWxScxnQAqeYmlbdUqkLVBA4NYihF27ap3CJWSTX9shIbDlaEYw/AQ85lRp5kzkNXJWQ9wJwG8QxTBiQRf5E8Tm6UggD/M4DDOpYk3agaVRs4NIw1dghb3UROeJ8pHvxFJSbvz8jzrh9KTKLyRNtGVyWE9gxFAMnkIUYaQBOI5MRdYKY7WcU/tQAOzSM8dIXKIMCjhOEvDBkypC9zHhQG2HkQ2xI7D13VvGR2GtOeMadBPPNHGjrm7yrTatFDtQIObUXXjhJ+CGKbHPJmKvG4lG09+6KqJivMwIEDEw8DeqoJCY8AjJtmp0F7hiLAn9MgnjHS1AQ0/By1BA7vZ+RhQreJNCMdZcSaZXYe5FopEDxiMuKWD4yGJVR6D+B7hngmdy33EOw0qJx97RmKAOY0VRfPgi2qNXCoC3OeVpVhKp2x8+BhoACrgbjnAB7CDcICrnRPQg3UA/p4pvJVCCir8AgIGDdROaM9q6oiIFv31gNwqBfattdUhqp0wcNAmrWlGm2GMBKhTUFxgOiWaNzUQw1ISBgTJ050qcXINYHDJr5nATcaeAQ7TdVUzrm6uV6AQx2x87ykMlilO75tmgTOV+6xQQLL6si8ZL/U/56UCLokoUbpASb/N9xwg6ff3DVJIPoAL+eAwyZuNNepVMW46SqR5089AYeq4mHwokp/lbXwqtZoM0MuOn0Vjbg2Mi8BS4QkaC6kSxKKew+QWAMbjS0lTxCaQHRjIDQAJRIjTcXdaIrpy3oDDnVn8od5eE2V9Yjnefrpp2fIMXSV0r/2l+jmwhLwNEhEN/VQTAnRjIhNVkdDNNPv+rk0qf+SJu0+fnO/WYQG3KHCB7WuqB6BQwehbpylQv6rQSqdJKbNk41nnkS1gYrt6WKiG4kckqA49VCMiAybaM1MNCMbjZbduDWwZDrAmahCPA28UHdUiZwDUTfyy3rgQSouh4FybXU/5JBDDtAINJAX4dumnNUeqY4SbwN6pH6JUYZczqSlZZSBJJrNJoVTIBsNOQIIvbcoTi6rO4oDcOi0zip7q2zFP5Cy4YySk+gYeVR35H9U1nvttVdkS4zwzISi6wGW2tCEP5UAHdFMpoZ/KWPQE4G3EIhGiICJaoFT9bUbF+BYrw3Xzr4qq3NAbjl9BJZxMpBuxP8QS4zss88+bjn0tiPJ31r2AHNREgTa+jTUBX8zgWiSzA44/EI4a96vMoN/4kBxAw59+iUVRLc+/APtueeeW2pxq91Yn4f/NQfydtppJ1fYT6j6PUBSQJYOpLAPsT7NM88888iDDz7IpN8I8CCaoXKODcUROHQuaNhRZZS/T3K6rkpat5uygG4l8c21i4ybiG84jCZUvR7ASRexDKM1JLFsFSuhsahTwKsZNCGmTVaJJC2tnlM1iitwrIPW1g5znyF2QPOeDZS6dpzmPClDD8v9jRo1yiNcIYkytZ6KditsuHiZJ554Im2JRhaqZc1NzWfeCLyRTDTMZdqQFTgRl924A8f6eRPtAKCeHJCmrcPee++9jdbF3EWiWioHFcsAAqAkxwG9FA2hHcOfEMCwFKORxLMV8jN7lNWddc0q/zhxWACmLSLNLo7htlGAQ9ejMBit8lUVZ59SruEue+yxx0iJattr/tNNxx2xfARzIFZnTnzfrFeK2xLKrDgqN4dBAWCkecxHEtWmKOH5VNndzHC5Uuf/rfK4CoqA2FMjAcd+DJQH41QG2AG563SW+LaNkiDuIFtPDzuOCpsk6uSzTmxA1iu5t9hicHuSA2ZKtcwd+JdJ5fyUxLJpAcs/p3BAm6QSq8k/Fc9FjQgcay8aAUagDeyAwNFJANpKotqOhGoHjrtcB4xA8kxIEoZYx/hbxLHW1lY3wuBoC3iMVqxY8Z5EtckCzHQdZ2QxYk7DCIMHSMNRIwPHfqyNtQOAWuyA5j0dd9lll+ECyk4ajXrbcbaMQiRJBEQsPdLMhNcy4hiZZWzlZusPjSpLdO5J3GQ0n2lzA2g72aoNgJnT9m9j/m0G4Ngv1087qK8H2wG2ctcZrBFohALlhkqpkGb0wQMbAKFMaBZ/OLyUmewDGHmnB7sKN5nP5Gc2S+efl9vMa2kn2+KpUC/PzzjekP82E3DsB0RNzQg0zA6wRZGg+c6mWklhuOw//cwWxDn84QjhVk4EV1jGsFEMqxgnScuFwyVlwYIFKT8y2o4NRvaY+cr1PUPzmpmBCT+noZdVGGHSUcaZBqZmBI79nDiPjlTZTCWlsubkhhtu2GvkyJHDFQc0QqLcOhwLkjR0aUDCTgS44kDMV0g7HASKNGHtqi5RbOmcOXOenzp16oyFCxe2ZTb/4ioyFL2oMlXlCx30F+cbfq+ZgWM/LuIZBtQRKohxaQgYPnz4hprzbKol9AZIXFs3OBLpWkdKqOixbimFpfYoLLtXD0S6LUIwKCTBoMiNv13VGFkkpi3WdXM1p5mpNMULMy5iHoN49rwKBszYWftV58goAU56V+LrxggEiFLaOLuEkAaBqEUAGQCQMhULdh1bnXMAUviDh+sPmXqscC5K0ujg0iiRSomCqwtrYQIWzoURE3yAIjABltaAa3/wFrRjgIURJvxhwTuaYD8BTviPjD0IAG2u0ivbZVIorKkUvgMUTDdAXgkt3bp1y3pd5r3Mj3StAxcgomBHwhhL4bwZZjE0Mg9hS0EVDBiskIOO84WQrl0m636rcpTNVbTlXE303w+5D9GMKFwA01D2l5D2Fn04AU5hXYZeGjFukAraOeeZoG0aMSJpXtRHc54+vXv3XleOp32UWGQdASFtDpV2UwX+EZBWKNHJUjlULlqyZMlizWkWab6yKGREoQbYX9CGva6COEYwWUI5eiABTo7OCTnVRcdJJgKAKOurpKmx9X8a4bkt1XYvjUq9JLb10gjTQyNOd40y3TQ/Yttd4Fpd86dOUjJ0si0P0WR+paYfK20rUGjQ+WS55inLtdUg8pEGn+UfSDxjNFlGgpOAB3JaPQL/MES9qQJYKPNU2k98dDCh7D2QACd7vxRzFNCg4t5QpY9f0NjlBJPOV4sACZqvRX5ZqC2qY44nVGIPJMApsePy3IZmDo8ERDzmPWv7W/YpUYMKEDAvsfKuv4/IRaZUNGIJRdgDCXAi7MwiHoUnN6o1K3hud1Zh7kQBWDaPYv4BMNhSMLp8pIKGy8oXzmM6mFDle+D/AcQ/FZA3rNc3AAAAAElFTkSuQmCC;" parent="1" vertex="1">
          <mxGeometry x="308.43" y="490" width="46" height="46" as="geometry" />
        </mxCell>
        <mxCell id="cFj89fqnj5NargIZEi_Q-4" value="" style="shape=image;aspect=fixed;image=data:image/png,iVBORw0KGgoAAAANSUhEUgAAAFcAAABXCAYAAABxyNlsAAAAAXNSR0IArs4c6QAAAIRlWElmTU0AKgAAAAgABQESAAMAAAABAAEAAAEaAAUAAAABAAAASgEbAAUAAAABAAAAUgEoAAMAAAABAAIAAIdpAAQAAAABAAAAWgAAAAAAAABIAAAAAQAAAEgAAAABAAOgAQADAAAAAQABAACgAgAEAAAAAQAAAFegAwAEAAAAAQAAAFcAAAAAUGiBFwAAAAlwSFlzAAALEwAACxMBAJqcGAAAFmFJREFUeAHtnWmQVOV6x5/pnunZV2CGgRlmEAYERSDiGES5iDcuKC4XRa7xJrlJpVKpSqUq3/ItVal8SVL5klTdxEoqiaUWbmCpiFJR8aJIRJDNjX0ZtlkZZl+6e/L7n54zNk33TPf0MnNzfYqXPn36nHf5ned93uddzjtZNj0ki2woeAheQhGhwOfzFQWDwTKOi0dGRnx8ZhP8WVlZQ3x2ezyezqGhoR6O+wj6DBCChJHRwMfUiQo0VSKQ+YQCQmVubu7cvLy8usLCwjnZ2dllBQUFFUVFRWX5+fk+QrbX64WlJwvYI4FAINjf3+8nDPX09HT29fV1+P3+zt7e3ssDAwPnBwcHLxFnC0HQ+wkCnnGZCrgOTEpaX1xcvGjWrFmLZ8yYUVdZWVlbXV1dUVVVVcK5opKSkhwA5wDbgGsANwAbYA2QBlgDpgF2uKura7i1tbWnubm568qVKx0tLS1N7e3t5zl3vLu7+wRpnSO4sDnMjGQS7myKtICw6NZbb105f/78lbW1tXU1NTVFHBfW1dX5gGtoq6HBhkmwnJwcQ1udEIkDDTaF4eFhwzQYGmtosQHXzp8/P3T27Nneixcv9jQ1NZ3n+ND3339/iDgE+jThamR86fieCbhVZHwV0H7nbgSId9xyyy2Vd9xxR86SJUs8s2fPdiC6IJMtpAtc0K9evWrfffdd8OjRo8NnzpxpAfrRLxAewlekc4DQnGx6492fTrjlJHwf1btx9erVjcuWLbv7tttuK1mxYoUtXrzYqerjZSyVv8mEHD9+3A4fPmzffPNN17Fjx77Yt2/ffszJftL5lHAtlem5caUDbi6Rr5g5c+aG5cuX34Oy3gnY8lWrVtnChQvddMf9dO0p1dmxrXgKN10vc1FeXm5z5851TIk0Px45deqUHThwwAB8DSU+eOTIkc/b2tp2cu9hwmA8ccR7TSrhqvW/hUbofmzqQ2vWrGm89957a++8807DDBju04R5UkOFbbTPPvvM0bTr1687jVc0uIoMD8N4iKYHt27dOud4wkS4QPFhJuzgwYNKq2nv3r37SXcXjeNufj5DSIl3IZ8yFSJtvReIv3jggQeee+KJJ1Y//fTTFZgDwwuICyzuk+3YscO2b99u0lh5BdJGt2HTp2CGB2kvQBxQeAqGCTI8jQnLowddUVFhCxYs0IMvpQYsRCkaiGvGtWvXBojgCkE+c1KSCrgzycETd91113OPPPLIU5s3b67j04sn4LhP8eROjdDbb79tH3zwwRhUgZOGCYSAUnjHTsstkzehoGOdl7smt+z06dOGK2e4dvEk6+RPD5+a5uW+Sh5mAw1hxeXLl2VjLhPkJ09akoW7gJSf27hx45aHkC1bthTJDKjQiYhs4NatW8dcL/deQS0tLXXik+bKz3Vds2ifcsdwvYyG04HvxjPRp9LBi7F58+YVkMat5H/WiRMnCrlP3sSkG7tk4C5Be37+/PPPb9mwYUMjZsBTX18f1Scdr3AyBy+88IJTvQXPFWmmqnn4Ofe3WJ8C3tnZ6ZiSeBtPNy7dK5PS0NDg4UHWl5WVzcYO59AOqPPR5l6XyOcPpYn/LrVMy6lGzz/zzDNbMAFLnnzySafljj+KH65Uo/Lhhx+OaZpMgaq6wMokxGrMfojhxiNBkv1tbGx0asKNv078TZ2YRYsWKe0qzE3NpUuXfJicVu4U5IRkMnCXo6G/pNHaDNT5WIOEzUB4Dt99913H2Vf3ViBV/QV2siK4auTkociTmIyoIVVjh3mooObU0Y3Oo0aokUuo05Eo3CXS2Mcff3zzs88+W7t27VqnsZlMAdx75CEIhqBIU6U5Ap2MqDtMt9qxo5ONR3nABsvml2K65sqWo8EaEIrbRCRSigXYwc2A3USolZslLUtW5NtKpLUqkNsZkAchEXCFREQPSuMMyYrKp3LSqakln5teeumlfhrNl4lX4xMTSrxwVb82oa2bMAML77///pSADc+dAAquwAi0vAQN5DD44oDS+akQAVZ50dqF1IhNL774ooYw/5MwoQbHA1cdhIcfe+yxDevWrVtGA5a0KYgFSYClsWrQqhnQkb8qH5bBF6cbnIgGu5ofK61EzstVU7kZvlzGUOYGTJl84DcI43aXJ1IH/b6aDsJj99133xpcLqfgiWQs3mulrXK71JjVMF6g4xFA4xIZo2eOJguYrptIpOXqVKRS9MBVfnEQD+JeTRiX30QNGo3uLX/w8MMPP6UOQj1+bKrl448/dho0Bs5tPvFX4mu6DVoBWittVadEgzQS2VJ1jScyE7qPQaOUZle1iG6zp6Ojoxp3b5Cu8kkSiNnJGA9uHk/rqfXr1z8H2Dr1vCYq0GRK4sBFy2Rf1cK7mqm0BFeicwIuwLLFGquVhyFNjpYnndPvdAiScuuilUdjEtjhAuAWM/jTSl6+4bpQqxxxw3hqvZxx1wcZ2WrQqFMiPaWINOL6Kk1zweoGAQq3se5vMhMMYTpBfqyukSZHmgyd27NnT1xpJ3KROIiHuIgP9y6PdX+sBq2MjD9KBI3r1q3zJePUx0rYPS9oN1lRzmUBN5q4kNVVVZBtpZExBr7HTIbuk0tH78roAMQ1UhYtrVjnxENcGIBvxP99lPHg41zbGXl9LLhrGeherfFY9VTSKWooJNlhg92CLQ2J1GbnwtH/pJkS3S97Lc2VuZDfrIEbab4AT7aXNppMzA9xEZ9vv/129UcffbSWC9+JvDiaelTyZBppDFbJzmoAJZ3y6KOPOpqVG9EhiTQLsfLgQnUbOeVXsxPqXcmOh5uWWHFM5rzSER9xEi/iqIyMJxrcVfRK7r799tvL1D9Pt6xcudKoJY4/61Z5pem4YnG4XeH50/2C7fb6wn9Lx7H4iJN4Ef+qyDQi4VZRzTTndTe+XNqeemQmVLXVE7oBbgybG3nvVH5XrRAn8RI38qKZ7jGJhNuAmktrixMdDx2LcRIHAhspwQS11r1f5iSTIk7iJW6k2xCednhONH2wCEO9TNPfmZRCNDdca5V2gIYpUXupONRVTbfbGMlGvMSN84sIY9Mw4XCrmEtaweqXWXK+MykzcakiZYiWPxJ45DWR32Vv5SZlGq54iZv4kacx0+DC1Wc9F6zEfuTKBmZSNKlYyDiu4EiksX7GZOVaJaK9Mgka7Mk0XPESN/Ej+/UEh6sLN0+L4uh+zlu6dKl7jmsyI/JTNUGIqo4lqKO+BAZf9GDUNVb3dCpE3MRPHEnf8V9dkEX0dhbjGxar15Np0biBnPJytM7VXuVBk5dafROP9kpbNTaR6MxzqsoqbqP8FhNnkeIV3CzCLKpTPVKY7k6DEo0mGpShalkhWhxuazUKJsjjia7XOgnBnSoRN/ETR/IgDc1y4NLC1rA4okbLON3hvqnIpHpVdAudqu320IJ0c7uYLpcGh2u1mz9prJx5zdhOpYib+ImjeJIXB66Hccp5c+bMqVB3MdN+YiQQaeA9a9bYPGyw8iLXykPGNUDTzeDMGGS0VcfyMxXiMR2RaaXyu/IqfuIonsTteNxeVHoOxEs08zodRA2TzEQz62t7ursdn1eZl5bK/5WpYKDaulioJ9druoj4iSM8q8mTV6NiRfSQyjDIRVNlb6PBkR3VFLmGEnXsRXvDPQGd498N9jlaPJk8J37iCE9NmxTJ5hZQ9WbgQnDu5m5oJjMXnhZLRGhpQ66Zqrxa3Uhhntiyo/0QeWGGvoufOIonSRZoXVQRJ0qxEwypanHf1EkQlu1DI/bltaD9R0eptfgqLGfEb56RUOdCORNLpi7NxxLaU1nl9i/nPXbketCuDYcexNTlPjRAL47iKa7ZtMDO60icnLLGrItx7696zfa2BuzzS4P26za/9Q6XWk3l79lDXV9Zw+AVK2WaKocls0Hwdmbl2RHPLNvuXWzN35n909kee6Ay2x6cl2t3lXttKR3MnCnQaLUL4oiv7RNX2dxibEWOnG/9mEk53m+2o8NsJ/On37MS9nI32tc2HMqCZ8QuemfYKxU/sTlD7VYZ7LZyr8e60dmrniJryiph0QDZ9watY3DE3rzst13+XKsE7DLmNR/B6j1IqNOqiwyJ+ImjeJJkcTYNg3zbrEz5t4PU8F3MNv0XS9r2d5l1wFJLuR3zmgusUnqOXc4ZzgVtICvHzuRWs5Z+Nj0eBsNvsL5ExvPwMYddPjPfWvAmunhgpwi7eGgVFHFNqdnv49I/DOhMaLM4iqfDlWJlQzwr3YMd/9sRsH8957f3B3zWGqDOykSGVxS3GhejatnQug6hgGwtF2bpYvdFhdCxTuv2wjyuLQUs98h7cNn3cdzHS6yv8RAVanhmP2NR1i+reBsmNGOvKFMu4iieRAxm5tyxD3rlM+UJKcJTvSP218cGbNsFVLSMOltIukrahRmZqgDlk63cYl4sHbKsfu4DsmfU9VK2R/jPl0Mh8nNskBqoF4GdhxUZl76PPsCL9KD/uYlwyWwDYzt/W2d2ZxrcenEUT1L2Z+PmDDHnNJKOeafDtOJ/vL/fDrVQ/ArAFgHth4Y/GorQOWVN8AuZ+inwGS/8EjjJP8wucD02AOARXRNPfIpV16Lkkp1tZodYBPlCg9nGFA6iyfcWR/EUVz3XbpZFDo91K53kk/+vA5fqL74CbCuap6pbiAGMF4SbvCAjIxD1o6kBjOsg1X8Iv9cxAYnGF4rOgXwFs/6nJ3mNEsipEsEVR/EkTr1V7+nkxJD67qhzqtKxfzs7bHuvkIa0JQeNTcYTEeTwkIpckq9mAP/VmRS8EzWaH/ETR/EUVw9dTLrv3dc56dfIfypEj+hXpzFyMpCqjmjdtBSy9Rlu4K+vpyZ34ieO4imuMgt9jJe2c4LvTtOQdEqftAXtknoGLlMBVpim8gY2OBUifuIonsTXJ7g9nLym/Qr0HlcqpKUfsJHr/kbtZyriH4tDD0wPUKVwRefCv7vnY31y/RF6h6kQ8RNH8SQ+R3MDnLzCBhBdqXiPQJkMKWk6aIYhwIyXDPptaXOvlQzwMGkvBbp0KGC13dTAeCFzXU+KvFDxE0fxJDcBsmhB7MQFXsns0EYQGtXHGIeVYrKHIcSTvXvc+8j1ksu99ue7L9j81j5rqsi3X91f6/i+f3mw2Sr7/LZvTqH9w13VeBfkY4J2OhVqoMZM/MRRPMl/UHBHsBEXIX6RzR5WsHCEAZ3pM/R4E2RYFWN2/uizS7b65DULoAezrg/a3/uD5ivhNdPOAQviqi3m8yru37+vpO87AdxUqIH8W+1QIo7iKa4OXA5aWeN6DulFpac93Ap6bfXtdI8RgVT3uH7A74zt+uWhIOphr2xhNCgVaunEOP5/sre8bd8rjlzZShhx638Phvj4hQsXurVYeFoLsPpzGB3L03D6DzKMAx8Q6FFRwa7Sw8uUlyJuLIQWv+Mk7XRNXLgDuBAneOfrAot5J6hEbvan6BOiLUD7sr401P11spFlw/24J06XPsRTmrurLnPza+ImfuJIlhy3y4UroOdQ60NsTzKolzWmtQBux/JZdq6q0HzYWmmwH49BgKW8pUN+e3VRhX1Bo3aTS5iGgomXuIkf0Z8jOArqwlWSzbwCf5gLWk+epNM9nQXX6VJFrv3dYwusvSzPCgcZicIsDFwfsAIat60NM+wfG5mAFfVw25GmMomXuIkfSTDAGZJwuGohTrDbxjHtYjTtBStwrKbI/uQPb7cvFs3A5w1YLi7Yf88vtb+5d471OMNnmSmFeImb+BFCLS0H8hbC5aT23WKt/1p2McroAujwTMR9DOCLZbn2Z79YYhuPtjl18f3bZ4bqZAY0VvnUbk9ff/11t7jx9YYqH665urYZ+3EQ+/HFl19+Oek1AZoUd4xfaEEP0ZIMp8aCUkqVyLphJt5dOdPeIzjGLhJseNpRjv06NwnREKM4iZe4EcWYSVB0kZqrcwfY0Ezau4o3BMu0+jBRqfZ32n29X1uBnz4pGRjJ1q4frB4nohZvoX2TV2XDCQ0AxJGDccacCv0DtrCryUr59DLxqYwE8wpt0JfHNAzLwZ0lBTe9jDNhoto+C63tFC8uPhB5QzS4LdopDi2/m7dsfqrXjhJdiTN3uN02duxzZkJHcI8KAyWW25/vaG6/x2cvzWy0PfnzMtLYqLasbT5kP71yAE1y9Jr303xWxJKpoMdrWug3Y1hrOB6KZDPud3UatIUMnA6M7qzXEnlDpFlwf9/DTnH7tKGZtpNKVJy1MlIQaYhu5oCX/Z15sOLAgDUEUjSAGkfGfIFhm9vXZrlB5uOUD0K2N8uZCfYFhy0nSM+OkKiIi/iIE/fuiXZ/LLidvHL5Hjfv/+STT4a0XithweGErSOhz9B3JpcSjiqZG9zUnAdORDfkhUeu724+401HPMRFfMSJ+1gscLPEgqsrj/Bu6y4iOKl9v9I1O3xzlqb3GXEQD3ERH3GKleNoNte9doAW8OP9+/cvxe7OZu3pDG0q8dsubOZmO3fubIfL/4gPPGLOMIwHVxzP0iK+zav11aw73cSS9Gw+f2v5MpxobNXlh8eH4iI+48GYCK7ao334cjW8zjQbsD9hr8a0bcUyXkan+je0VBprn3766V547BAXQsj9iJG5ieDqNqZx7QM2zZmD5lawPHIZmwmlbROhGPmc0tMMftv777+vRuwYHHaKB0FcxpV44CoCzY9ue+211/IZSc9nmeTC9evXx9z+Sj0Xhf8Pohnd3bt3265du05R/m3iQIhrvjheuOJ0Gsf59XfeeSefVXzPsVQy5sZtWkQtF8hdBzFMBt2F1biYNqQFdqpQ41YqJZmkkJZWVQ75Qzv0B53uOPkKLTlyXLAgx1r2GU0Elt6XUeYmwjaVn+vidvwTgav0v2PjnK1UkTzWQv2MlSW12tBMb9yEyxx6db97zz3WyUshmuzUyr98XuHUsaA3lpRZL6sOvWlWbq0l8wY91hiYa/Mr1Y3hBH62j4fP7kjO1lpa8hnNC5IpkMbSgDVR3u0qt8ofXs6JjlXWREX33EED93P2zXV2yIu235j8QU3a6WIxdN5rUAcCc+Gn2zmYxTx4muGqYEpfPTEva33d5Ny8yHTpgQtwuLiNl0wBcLeNgj3KNW4U4ZfHPL4x1piX3fCDEjhCgkMvv/xyPwA3MZW8jL3HnF2X3SulrbHW/GqJQfSK6N6d6k+lGJ9QLmcHajVer776qmsKEtJYNyWtV5mstAH2IgPFw2ipj43MavAmPHqdKTXrHiabrcndp5qmP3dAo+VHYz99/fXX36R8rxGbBsAnJcnAVYJatkOn5QTv210P8OJdNVWsQDsiRdrhSeUuQzdprODzzz+3N954ox37+h629lWSfpNwKZksJAtXaWs28zgrTXjh8eogvZhiIJfhrnn1dmOkPUsms6m+V8OG0lY8gSE2pP+eHajf4o90vEI6GjPoTja9VMBVHpgLsAtAPUW3sJn5+4Ag402UaixYr5qqEZkuooZMA93YVXvrrbfkZu3mb0W8Qp7lamkCMfExyCiFS0eJ5Zcl9RdOouQzZad+U//CSSSAck78+Ld5Iqmk+HsV8f34V6VSDDUyutmcWED48e+hRZJJ4fcC4tKgcNx/yU+7H7mdEvmjCupF0XnR549/yS/Kw9EUkzpqDmz84h//BmUUSKk4Ja9FQcDlHhYRfuP/eur/AUYoYDvvues5AAAAAElFTkSuQmCC;" parent="1" vertex="1">
          <mxGeometry x="307.43" y="152.75" width="42.5" height="42.5" as="geometry" />
        </mxCell>
        <mxCell id="cFj89fqnj5NargIZEi_Q-5" value="" style="shape=image;aspect=fixed;image=data:image/png,iVBORw0KGgoAAAANSUhEUgAAAEoAAABKCAYAAAAc0MJxAAAAAXNSR0IArs4c6QAAAIRlWElmTU0AKgAAAAgABQESAAMAAAABAAEAAAEaAAUAAAABAAAASgEbAAUAAAABAAAAUgEoAAMAAAABAAIAAIdpAAQAAAABAAAAWgAAAAAAAABIAAAAAQAAAEgAAAABAAOgAQADAAAAAQABAACgAgAEAAAAAQAAAEqgAwAEAAAAAQAAAEoAAAAAzffoSwAAAAlwSFlzAAALEwAACxMBAJqcGAAAEvpJREFUeAHtXPtzVFWe/3b37XR33oSEQB6QIAHEBHkNOj7wrRTWDDDWjGuVCs7q1Ey5W7W1tb/tf7A/7C/+sKW1jK46U0rBADXKiKUiESwEUYoA8jIJmAAh707S78d+Pid9w83N7c5NdzrO1vpNndy+557n537P93zP93zPdcjckxNVaghuBB9CmdvtLnW5XPMSiQSvjJd4PB51Op1+XAej0agfUcMIQYQoQgwhgTBn5JizmkQqUVcdQ2lp6R2LFi1aWlVVVVdUVFRZWFhYjqsXV7emaapNsVgsGQgEomNjYyFch3Dt6+3t7bpx40a73+//HuV0pUIfrnmnfANFzmlG+FlNTU3LqlWrmu64446VCxcurKmrq3MDLAeCzJ8/XzwejxQUFAi4SHUa3CWRSETC4bD09/cLAGJIdnV1RW/evHn9+++/v3D+/PnL169fb0OGkwhnEchpeaF8AMUyqxE2LF269JElS5asWbdu3Yrm5ubaZcuWSW1trRAcr9ebVYdCoZACrbu7W65cuSJnz57t/uabby5evXr1dHt7+2EU+jVCD0IyqwrSZJptoGpRzwN33nnnQxs3bnwKANXee++9nhUrVgiGlmBYpWlGdtEYnoIhKRcvXpTjx4+HAVj3iRMnDn333XdHUOJRhO7sSp6aa7aAKkDRD4N7tj311FOPkoM2bdokAGxqjRYxENiSTE5lAIfDIRDuFjmsowCQtLa2Cjns0KFDn4HL9iPl5wgR6xz2Y2cDqBYI5V/cf//9v3ryySdbHn/88YLGxkZb3DM0NCTffvutXL58WTikzESZBZkmd999tyxYsMD82PKeXNbR0SGffPJJ5OOPP247duzYXzAJ/BWJKcuyplyAYt6ta9eu/Q24aNvTTz/twzCzBRBbe/ToUXnvvfeUwKYAJ/eQyFlG7qJQ9/l88uKLL8qGDRtUGjv/CBiGo3z44YdBcNd+vJDdyHeAVdjJb05jn68n56zCVL7ziSeeeOWFF17YsnPnTjeHmT5jTU469e7gwYPyzjvvqPR6Hl6hT6nZj4KesyADfzMeQluBSQ6zQyxv8eLFsnr1andJSUkzhnctJoBC6GSdyB+wU4YxTTZANUAPeuW55577p5deemn1tm3bHLg3lpnxNwXvm2++qVQBchG5hxzDMnglOATGHDgRYFaT8vJygaqRsQ7jQ04iLS0tjurq6iUooxkzpQaV4yrSDBnTTfd7pkAtKysr+93LL7/8CkLtAw88MCNhy8a89tprMjIyMsF9xcXFCiSCpg+/dI0ml1CnWrNmje0hzrI4IVA1qa+vLwNYd0L/IlideDTA53ZoJkAtg170L+AijLSdlXhLdsqflIYcsX//fjWcyEkcVgTKKJMmZbC4IchQXBW4Fo8zRkHRJVjF4Nq7oLwWDg4OXkYGW2DZBaqBnESQXn311Xl25YS51dBxBG9TcQO5h8NoOi4yl0EhTYUVHTY/snWPGVpWrlzpw7Koqa2tLQnOuoKM0w5DO0BVUSaRduzYUZktSOzFV199JZ2dnWrYkZsok0gEi1xlBzQCRe0+l3ZQHgJsH+prOnfuXBRgnUczMgr48YWVaq7lPwdmt9+Afvv8889Xk+VzISqWOlFoc+onVy2F3uUBcHaHoN10el1WV/aFfWLf2EekyagqTQfU1ocffphALaYAzZWMHEPBjAbKAgwFclZLc7Oa6aYDgWVgis+1KSo/+8S+sY+I2Jqp0ExANVOZ3Lp166aHHnooUxkzfkZuwnQt9XV1E7oUdB1Zv369zJs3T3FaOsAI1MCALflrq13sG/vIviIDLR2WlA4oD0wfv6TGDVI6j2XuLCO5xKnGkoRcRUB45TDkkoWz6fLly9WUbhyqelW6PkUTzGwQ62Qf2Vf2GWV6rMpNJ8wfxbrtn6EGLLa7sLUq3Bx35swZJcwXgps47EgEioKdDdZJVyqp/3CYUYAbOSwYDKr7pqYmPUtOVyqlaIMbtq5yKMScBdvNBVrZPWphBdgOhFu4dptNYmeNHWbZHEpmCwE5iXENDQ0CA58QGJpTeCUncZjq3GiUe7m0lX1ln0+fPr0dVofzKGuSicaKo7ZAwP0j1nCQs1W51D0lLzt36tQppQNRTunEN2oGi88IKoEgt1ExJacRuM2bN6vhOVsgsS62DeW7enp6ymCmoan5HON1MgO1EEa2Hdu3b9/82GOPqcx6wtm4UoCzo6OjoxOcxc4WAQS7nWaHWIYVsLm2EUo1rafzsR7sxVLpFMob1cs0C/P199xzz2bOBBSa+SBOydSsddK5Rr+f7moX0OnKsXrOPrPvxADP1xvTGIFyYzZ6FFN0zWwKcGNl+m/qTUZZxRnPLtGqQK7KF7HvxIBYoA61dca6jDWugvBcQxt3vhrBcskRlZWVSh3Q68ESwvbQ4/Ijn0CxTcSAWODnxFLECNRG2rq5EZBvqsOCVgnzlLAOpab76eol59ECkM/hxzYQA2KBnxv1NulAVXLfjVtKnIHyTZzFfrZxo8RSa7849CRO/UAgbdX6YriioiJtmtl6QAyIBTFBmdy4nRh6dVgkLqdxK19C3NwJyABZu26dJAgWAOJMGEkzBHVOynVRbm5DuntiQCyICdLUMR05iqEOZosVNF/MJXG5shKreHILpLsMDQ4qxdLYhgTiOW1zJybfsslYb8qUw+FHoNT0oUFA0hegxjhtGzPl83cptOzeW7ckAM2bGjktmINY9PKeYaCvT5zguLkEif0lFsSE2OBWKUtujMWlUOLcXHPNNXHviADB4qiGXzGXJwBGcVnq2Vy3ifURC2ICzmqEU4ibw86H6boeWnN6SZrHlvb23JrQsjmbmRvBOK7zZqJrzVZziQksCouJEYEqg5SfP9fDLhCKybXuAWk726YMduk6xyHXAzA7rt2SkUBsTgEjJsSGGGnQdEth8iinEphPgkxWnRwNxWUskJA4IiJKhk+/cUstPorJcXg0Lv6xuBR6sD70aeKGK1U+dSpiQmyIkYbF5TyghiGZH/nEITMWCIt/FDYkB5R+h6bUJcohGF1wb+P1IA3TIouisVBCRoPwVUiEpKTQg7eO3WTNvL63Ue40SYgJsSFGGjpSAtQA2sSyZprs9h5HY3EZHB6VYX8QnBTHtIHt8cLJC20trokW1STqxBImQSlgQQDHATy1yG0glCxzuCQcccjN3iFx9julqNAr88uLIYRnrx/EhNgQI3JUARQsx2xMv4lEEuCMSP+AXxLJ8S0olutApwq8UzV+LeqSVSdbpKPhivgrhgFYVJJO8A6CYjaUUThSKHUdNeJdOZXjPd5CzJgRpbSOjAbEPzKGjQqPzCstkpJib84qBdtObBRGFu8wqyiCdOFyp/QPjUgFDGzUbpX8gHzRsGRx4T5pshIkwCruoFuWfdsk4aKwjJWMigNuBe7SAikIaVI0XAygfNCIXePgmVrmcNCxwyuhGPJxxkQIhSJyIxSVIb9bahZWzNqQ1KDDRKCzoA/2TR2m9qrbC1euSW//kPi8vsnbTmh8LBqSWIRgmYdFalyhBM8YvFf8XgDjEV+JVxKOBGTauAxLunC1oHgsimVPcPyFpJ6rl4PfQQD2w/U+aaxfMOm5RTFpo6jfERtiBO5yjtD7Npe9su6bvdLTO6BY3V0wWQ6xFZzxggE/AMtsTuGQS2hJiWvwwOPwSwnvqT1xYMhhIY0yk0nrF0zAwuGY3Lg1ODW7zRgqvcSGGDmB1iAUOji8TfV4s1NeDEL7h+7eCRZ3OW8LXXP+UHBUwqEAotMioGSTOZ/5Ph4LS3BsOC1Ienqn0yEjoyEI/ew2TIkJsSFGTnCSH6gN9WFNlQ2NjgUlykWtTYpGuNVkzQU2i0iBbTc1uDmY3R4gMSE2xIhz8jBQ64dR3X7NhpSRaCwTfxhSJtVSxVdUlrXM0AvzFZVC3nEf0Fp26en0K9uYDRETYoO8wwQqiB2Ha9imsVerqUYqgvybjpw4ueEtLIMcSz80pytDf87ZzldUIpobCqwNmr511oUQE2KDp0ECFYVvYwdPBGQrpyyrgTA109QlrzmF/XtOiMYNCubUZzz7paRPSSyICbFBqiiBivFsCdjserbDz1wdp9Xh4WGlCOqNT8Sj4g+MigYBmyu58RKGYTqOx27LHnLNsN+vdpJzLZ/5iQUxSZ27iREoStYunC25yGMTuRPccjDL0AYeDIUnitPQuWujYfnPjqgUsNYsyYu8b9+Iy4EbYfGmQOfLoN09gDpDqFN/OVlWobKBm4SY4KYLYWKB1QWXwUs8W6IbzHKphNKd6r+5wUVY7f9HR1z+1puwOQFMbgVH89f+pPz7d1HxuKZyJhfaqHRypizuiAFAohvlJWQnUBObC308pcQDOJDyWRQ9gywYI290hsVNITMDYmoy4l9vwFEDk1gOTDltrcSAWKRObim9yVjfCXj3w+uF3JZfisGaEByjVm0fLE4E8RiU4pQO5oJZhevJfBAxIBYo+4RevhGo8zhDcpqnlPSH+bmOe6jggKeEx0YA1vS1YBDL2PCQnDx5Srq7b2LV7ML5mXa5cOFyXsAiBsQCLaP7jyIjUFE8/AxuOdd5SikfxCUFaVyUOCWGVb7ZomBV70gyIH/+8C/y8aFW6e68qvZELp27IPv2HZS9ez5QltPcJdN4zew7MSAWiJlY+5h59xRcnD86cuTIH+jNNpusHYMZ5mTrMbnvTJdUFrql3bdR6gsXWeEyKc6d1ORcQYf0xYaxt3eX3Ld4gXQU9crKDUuk/UJErl7rwnm9dmlqapiUL5sbCnH0nW7eHyE/3X4myMhRjLyJ8XkEjlSXgOhEolx/aJAnHxz8VD479JnU9LVLbaBP9u3/SC5d6hAXZsdMxGE34gjhvxNeJqvl3hX18g81LlnbvEIalzaomRXrsUxF2H7GPrPvxACZMMZvk1Urj+Kc26c87zYbqgJVhCDs28e/+kapDCNjo7CCDmHdp8mZc+ckPgM7GG1mXC5x95gTQa6L69swQOsGN6XO+H2K+KPGZ/xtBVQ3fBj34YxbG8+75UoEKhSOKKdVdiwMH8yhoWElpyKwKSWS2F6ZAc2WLDJXyb6yz+w7nk3RvK2AYhmtOHi4l4cCb2G7OxciF5SWFEtVVaUaJmUlpbIEbj+MryqrEA2c9WMT+8i+ss9oS6tVe9IBFcaq+QOenORpqFx9uslVv37maTjblyuARqDQLVlSJz+/b4Mt9cCq4bMVx76xj+wr+4xyLdWjTK+zjcdLDxw4UNvY2LgJpz2zbhu5p6GhXv7tX38vP/zQjZ0SLxzCFkisJyIhO4pU1jVPn5GzHPrYmjpKm/bccSagWMuBzz//nA5VDXClzuk8DIWvy+WE31GjEsS0MNilcZ10/IQD7VnxeEIZAc1rSbvl6engUy67d+++hj7uRhzPG6el6YDiZz9Q1u5K+Cj9AZ5yOZ+wmulMyi2t4qRXybfjx0/JauhSNTXVSiundk6GLASHYnTPiHhu8N133+1B3/7IPiJzxjWCHXNjAM6oV1GwBr/Lu3gokA6nOo0FQtI/iFkMfySvZ3yjkg6sdEEsKDBvUek50bIxzILH4MptYC63F7vHntvNSsAKVJ4olk7fTemG0O3t7cMwXix//tM+5SpUXV0pD276Oa14yrSjYUvMa3D2V23ywqEfO8k60Zy0a9euwddff30X7E27EH9df5buertF6VKMxw+h450wZBUC/SZ4efj0Uw3YpMDOMKf77ICKGIHCOy0AUO4CNMvwfr3wWVj25HIpbyiHBt4Ir+L5+J7LPAzjBnnwwXuwA6QpH6sgrJJmoDjkfQagyEkECZz0J/Tnv9C99sxdH39qFyimHuAZXB4vxe8m+A4V00MX2814gD07bFuRKD80pwZ9KSwe2LQ9Hvd4n4mjKST88Gw5PCTxcFwSMfBONCFOeKo4PThtBZ1LBXBUHLqWZ12xLFqxEG6K4GYMx6rKCpmPoK8fqaMFAkFsvmrKCUwhjfo0yLTKilLEu4Qy6a233up54403dqVAuqIabePfOBvYSGhIwuP8O5599tnfPvPMM4sfeeQRNcRC4ajCgSgq5sIPJ4xrTmwEpKNEGF/0GTDMxshDhxcn/Nsoe4zkgpuPBk4zRU8kYTxfFoHTsCwaTze+80MV4PDhw7J3795r77///h8x3P4HyTsnMufxBz8Q8eqWLVta8XYS3K34eyW2jW1kW9lmYJLVSaiZDD0j7tyD/xrfVBmEbTmJb58sgy8RfUHVes6Y8Mf6zdn1yy+/lLfffjuIT5vs+eKLL/4bbX4X7cnKhJstUHr/L+CjV1xt9wCwcuy8VPIoF92daTP/MYgA0d69Z8+eCKb/01AmX8c9ZzbLpYndNmYjo6zK5rZt1p9Fsiowm7i/988iGftEj/6fPrRlRCTDb3LpT59uywCQ1SMukXhE/qePAVqhkyaO/tl1DKkjJZM+L4kzw14ceJz0eUnsNkdxmOj/xeclrTDjdEhO4yLw/8wHS/8XerJhscuIU9cAAAAASUVORK5CYII=;" parent="1" vertex="1">
          <mxGeometry x="410.43" y="150" width="48" height="48" as="geometry" />
        </mxCell>
        <mxCell id="cFj89fqnj5NargIZEi_Q-6" value="" style="shape=image;aspect=fixed;image=data:image/png,iVBORw0KGgoAAAANSUhEUgAAAFcAAABXCAYAAABxyNlsAAAAAXNSR0IArs4c6QAAAIRlWElmTU0AKgAAAAgABQESAAMAAAABAAEAAAEaAAUAAAABAAAASgEbAAUAAAABAAAAUgEoAAMAAAABAAIAAIdpAAQAAAABAAAAWgAAAAAAAABIAAAAAQAAAEgAAAABAAOgAQADAAAAAQABAACgAgAEAAAAAQAAAFegAwAEAAAAAQAAAFcAAAAAUGiBFwAAAAlwSFlzAAALEwAACxMBAJqcGAAAFmFJREFUeAHtnWmQVOV6x5/pnunZV2CGgRlmEAYERSDiGES5iDcuKC4XRa7xJrlJpVKpSqUq3/ItVal8SVL5klTdxEoqiaUWbmCpiFJR8aJIRJDNjX0ZtlkZZl+6e/L7n54zNk33TPf0MnNzfYqXPn36nHf5ned93uddzjtZNj0ki2woeAheQhGhwOfzFQWDwTKOi0dGRnx8ZhP8WVlZQ3x2ezyezqGhoR6O+wj6DBCChJHRwMfUiQo0VSKQ+YQCQmVubu7cvLy8usLCwjnZ2dllBQUFFUVFRWX5+fk+QrbX64WlJwvYI4FAINjf3+8nDPX09HT29fV1+P3+zt7e3ssDAwPnBwcHLxFnC0HQ+wkCnnGZCrgOTEpaX1xcvGjWrFmLZ8yYUVdZWVlbXV1dUVVVVcK5opKSkhwA5wDbgGsANwAbYA2QBlgDpgF2uKura7i1tbWnubm568qVKx0tLS1N7e3t5zl3vLu7+wRpnSO4sDnMjGQS7myKtICw6NZbb105f/78lbW1tXU1NTVFHBfW1dX5gGtoq6HBhkmwnJwcQ1udEIkDDTaF4eFhwzQYGmtosQHXzp8/P3T27Nneixcv9jQ1NZ3n+ND3339/iDgE+jThamR86fieCbhVZHwV0H7nbgSId9xyyy2Vd9xxR86SJUs8s2fPdiC6IJMtpAtc0K9evWrfffdd8OjRo8NnzpxpAfrRLxAewlekc4DQnGx6492fTrjlJHwf1btx9erVjcuWLbv7tttuK1mxYoUtXrzYqerjZSyVv8mEHD9+3A4fPmzffPNN17Fjx77Yt2/ffszJftL5lHAtlem5caUDbi6Rr5g5c+aG5cuX34Oy3gnY8lWrVtnChQvddMf9dO0p1dmxrXgKN10vc1FeXm5z5851TIk0Px45deqUHThwwAB8DSU+eOTIkc/b2tp2cu9hwmA8ccR7TSrhqvW/hUbofmzqQ2vWrGm89957a++8807DDBju04R5UkOFbbTPPvvM0bTr1687jVc0uIoMD8N4iKYHt27dOud4wkS4QPFhJuzgwYNKq2nv3r37SXcXjeNufj5DSIl3IZ8yFSJtvReIv3jggQeee+KJJ1Y//fTTFZgDwwuICyzuk+3YscO2b99u0lh5BdJGt2HTp2CGB2kvQBxQeAqGCTI8jQnLowddUVFhCxYs0IMvpQYsRCkaiGvGtWvXBojgCkE+c1KSCrgzycETd91113OPPPLIU5s3b67j04sn4LhP8eROjdDbb79tH3zwwRhUgZOGCYSAUnjHTsstkzehoGOdl7smt+z06dOGK2e4dvEk6+RPD5+a5uW+Sh5mAw1hxeXLl2VjLhPkJ09akoW7gJSf27hx45aHkC1bthTJDKjQiYhs4NatW8dcL/deQS0tLXXik+bKz3Vds2ifcsdwvYyG04HvxjPRp9LBi7F58+YVkMat5H/WiRMnCrlP3sSkG7tk4C5Be37+/PPPb9mwYUMjZsBTX18f1Scdr3AyBy+88IJTvQXPFWmmqnn4Ofe3WJ8C3tnZ6ZiSeBtPNy7dK5PS0NDg4UHWl5WVzcYO59AOqPPR5l6XyOcPpYn/LrVMy6lGzz/zzDNbMAFLnnzySafljj+KH65Uo/Lhhx+OaZpMgaq6wMokxGrMfojhxiNBkv1tbGx0asKNv078TZ2YRYsWKe0qzE3NpUuXfJicVu4U5IRkMnCXo6G/pNHaDNT5WIOEzUB4Dt99913H2Vf3ViBV/QV2siK4auTkociTmIyoIVVjh3mooObU0Y3Oo0aokUuo05Eo3CXS2Mcff3zzs88+W7t27VqnsZlMAdx75CEIhqBIU6U5Ap2MqDtMt9qxo5ONR3nABsvml2K65sqWo8EaEIrbRCRSigXYwc2A3USolZslLUtW5NtKpLUqkNsZkAchEXCFREQPSuMMyYrKp3LSqakln5teeumlfhrNl4lX4xMTSrxwVb82oa2bMAML77///pSADc+dAAquwAi0vAQN5DD44oDS+akQAVZ50dqF1IhNL774ooYw/5MwoQbHA1cdhIcfe+yxDevWrVtGA5a0KYgFSYClsWrQqhnQkb8qH5bBF6cbnIgGu5ofK61EzstVU7kZvlzGUOYGTJl84DcI43aXJ1IH/b6aDsJj99133xpcLqfgiWQs3mulrXK71JjVMF6g4xFA4xIZo2eOJguYrptIpOXqVKRS9MBVfnEQD+JeTRiX30QNGo3uLX/w8MMPP6UOQj1+bKrl448/dho0Bs5tPvFX4mu6DVoBWittVadEgzQS2VJ1jScyE7qPQaOUZle1iG6zp6Ojoxp3b5Cu8kkSiNnJGA9uHk/rqfXr1z8H2Dr1vCYq0GRK4sBFy2Rf1cK7mqm0BFeicwIuwLLFGquVhyFNjpYnndPvdAiScuuilUdjEtjhAuAWM/jTSl6+4bpQqxxxw3hqvZxx1wcZ2WrQqFMiPaWINOL6Kk1zweoGAQq3se5vMhMMYTpBfqyukSZHmgyd27NnT1xpJ3KROIiHuIgP9y6PdX+sBq2MjD9KBI3r1q3zJePUx0rYPS9oN1lRzmUBN5q4kNVVVZBtpZExBr7HTIbuk0tH78roAMQ1UhYtrVjnxENcGIBvxP99lPHg41zbGXl9LLhrGeherfFY9VTSKWooJNlhg92CLQ2J1GbnwtH/pJkS3S97Lc2VuZDfrIEbab4AT7aXNppMzA9xEZ9vv/129UcffbSWC9+JvDiaelTyZBppDFbJzmoAJZ3y6KOPOpqVG9EhiTQLsfLgQnUbOeVXsxPqXcmOh5uWWHFM5rzSER9xEi/iqIyMJxrcVfRK7r799tvL1D9Pt6xcudKoJY4/61Z5pem4YnG4XeH50/2C7fb6wn9Lx7H4iJN4Ef+qyDQi4VZRzTTndTe+XNqeemQmVLXVE7oBbgybG3nvVH5XrRAn8RI38qKZ7jGJhNuAmktrixMdDx2LcRIHAhspwQS11r1f5iSTIk7iJW6k2xCednhONH2wCEO9TNPfmZRCNDdca5V2gIYpUXupONRVTbfbGMlGvMSN84sIY9Mw4XCrmEtaweqXWXK+MykzcakiZYiWPxJ45DWR32Vv5SZlGq54iZv4kacx0+DC1Wc9F6zEfuTKBmZSNKlYyDiu4EiksX7GZOVaJaK9Mgka7Mk0XPESN/Ej+/UEh6sLN0+L4uh+zlu6dKl7jmsyI/JTNUGIqo4lqKO+BAZf9GDUNVb3dCpE3MRPHEnf8V9dkEX0dhbjGxar15Np0biBnPJytM7VXuVBk5dafROP9kpbNTaR6MxzqsoqbqP8FhNnkeIV3CzCLKpTPVKY7k6DEo0mGpShalkhWhxuazUKJsjjia7XOgnBnSoRN/ETR/IgDc1y4NLC1rA4okbLON3hvqnIpHpVdAudqu320IJ0c7uYLpcGh2u1mz9prJx5zdhOpYib+ImjeJIXB66Hccp5c+bMqVB3MdN+YiQQaeA9a9bYPGyw8iLXykPGNUDTzeDMGGS0VcfyMxXiMR2RaaXyu/IqfuIonsTteNxeVHoOxEs08zodRA2TzEQz62t7ursdn1eZl5bK/5WpYKDaulioJ9druoj4iSM8q8mTV6NiRfSQyjDIRVNlb6PBkR3VFLmGEnXsRXvDPQGd498N9jlaPJk8J37iCE9NmxTJ5hZQ9WbgQnDu5m5oJjMXnhZLRGhpQ66Zqrxa3Uhhntiyo/0QeWGGvoufOIonSRZoXVQRJ0qxEwypanHf1EkQlu1DI/bltaD9R0eptfgqLGfEb56RUOdCORNLpi7NxxLaU1nl9i/nPXbketCuDYcexNTlPjRAL47iKa7ZtMDO60icnLLGrItx7696zfa2BuzzS4P26za/9Q6XWk3l79lDXV9Zw+AVK2WaKocls0Hwdmbl2RHPLNvuXWzN35n909kee6Ay2x6cl2t3lXttKR3MnCnQaLUL4oiv7RNX2dxibEWOnG/9mEk53m+2o8NsJ/On37MS9nI32tc2HMqCZ8QuemfYKxU/sTlD7VYZ7LZyr8e60dmrniJryiph0QDZ9watY3DE3rzst13+XKsE7DLmNR/B6j1IqNOqiwyJ+ImjeJJkcTYNg3zbrEz5t4PU8F3MNv0XS9r2d5l1wFJLuR3zmgusUnqOXc4ZzgVtICvHzuRWs5Z+Nj0eBsNvsL5ExvPwMYddPjPfWvAmunhgpwi7eGgVFHFNqdnv49I/DOhMaLM4iqfDlWJlQzwr3YMd/9sRsH8957f3B3zWGqDOykSGVxS3GhejatnQug6hgGwtF2bpYvdFhdCxTuv2wjyuLQUs98h7cNn3cdzHS6yv8RAVanhmP2NR1i+reBsmNGOvKFMu4iieRAxm5tyxD3rlM+UJKcJTvSP218cGbNsFVLSMOltIukrahRmZqgDlk63cYl4sHbKsfu4DsmfU9VK2R/jPl0Mh8nNskBqoF4GdhxUZl76PPsCL9KD/uYlwyWwDYzt/W2d2ZxrcenEUT1L2Z+PmDDHnNJKOeafDtOJ/vL/fDrVQ/ArAFgHth4Y/GorQOWVN8AuZ+inwGS/8EjjJP8wucD02AOARXRNPfIpV16Lkkp1tZodYBPlCg9nGFA6iyfcWR/EUVz3XbpZFDo91K53kk/+vA5fqL74CbCuap6pbiAGMF4SbvCAjIxD1o6kBjOsg1X8Iv9cxAYnGF4rOgXwFs/6nJ3mNEsipEsEVR/EkTr1V7+nkxJD67qhzqtKxfzs7bHuvkIa0JQeNTcYTEeTwkIpckq9mAP/VmRS8EzWaH/ETR/EUVw9dTLrv3dc56dfIfypEj+hXpzFyMpCqjmjdtBSy9Rlu4K+vpyZ34ieO4imuMgt9jJe2c4LvTtOQdEqftAXtknoGLlMBVpim8gY2OBUifuIonsTXJ7g9nLym/Qr0HlcqpKUfsJHr/kbtZyriH4tDD0wPUKVwRefCv7vnY31y/RF6h6kQ8RNH8SQ+R3MDnLzCBhBdqXiPQJkMKWk6aIYhwIyXDPptaXOvlQzwMGkvBbp0KGC13dTAeCFzXU+KvFDxE0fxJDcBsmhB7MQFXsns0EYQGtXHGIeVYrKHIcSTvXvc+8j1ksu99ue7L9j81j5rqsi3X91f6/i+f3mw2Sr7/LZvTqH9w13VeBfkY4J2OhVqoMZM/MRRPMl/UHBHsBEXIX6RzR5WsHCEAZ3pM/R4E2RYFWN2/uizS7b65DULoAezrg/a3/uD5ivhNdPOAQviqi3m8yru37+vpO87AdxUqIH8W+1QIo7iKa4OXA5aWeN6DulFpac93Ap6bfXtdI8RgVT3uH7A74zt+uWhIOphr2xhNCgVaunEOP5/sre8bd8rjlzZShhx638Phvj4hQsXurVYeFoLsPpzGB3L03D6DzKMAx8Q6FFRwa7Sw8uUlyJuLIQWv+Mk7XRNXLgDuBAneOfrAot5J6hEbvan6BOiLUD7sr401P11spFlw/24J06XPsRTmrurLnPza+ImfuJIlhy3y4UroOdQ60NsTzKolzWmtQBux/JZdq6q0HzYWmmwH49BgKW8pUN+e3VRhX1Bo3aTS5iGgomXuIkf0Z8jOArqwlWSzbwCf5gLWk+epNM9nQXX6VJFrv3dYwusvSzPCgcZicIsDFwfsAIat60NM+wfG5mAFfVw25GmMomXuIkfSTDAGZJwuGohTrDbxjHtYjTtBStwrKbI/uQPb7cvFs3A5w1YLi7Yf88vtb+5d471OMNnmSmFeImb+BFCLS0H8hbC5aT23WKt/1p2McroAujwTMR9DOCLZbn2Z79YYhuPtjl18f3bZ4bqZAY0VvnUbk9ff/11t7jx9YYqH665urYZ+3EQ+/HFl19+Oek1AZoUd4xfaEEP0ZIMp8aCUkqVyLphJt5dOdPeIzjGLhJseNpRjv06NwnREKM4iZe4EcWYSVB0kZqrcwfY0Ezau4o3BMu0+jBRqfZ32n29X1uBnz4pGRjJ1q4frB4nohZvoX2TV2XDCQ0AxJGDccacCv0DtrCryUr59DLxqYwE8wpt0JfHNAzLwZ0lBTe9jDNhoto+C63tFC8uPhB5QzS4LdopDi2/m7dsfqrXjhJdiTN3uN02duxzZkJHcI8KAyWW25/vaG6/x2cvzWy0PfnzMtLYqLasbT5kP71yAE1y9Jr303xWxJKpoMdrWug3Y1hrOB6KZDPud3UatIUMnA6M7qzXEnlDpFlwf9/DTnH7tKGZtpNKVJy1MlIQaYhu5oCX/Z15sOLAgDUEUjSAGkfGfIFhm9vXZrlB5uOUD0K2N8uZCfYFhy0nSM+OkKiIi/iIE/fuiXZ/LLidvHL5Hjfv/+STT4a0XithweGErSOhz9B3JpcSjiqZG9zUnAdORDfkhUeu724+401HPMRFfMSJ+1gscLPEgqsrj/Bu6y4iOKl9v9I1O3xzlqb3GXEQD3ERH3GKleNoNte9doAW8OP9+/cvxe7OZu3pDG0q8dsubOZmO3fubIfL/4gPPGLOMIwHVxzP0iK+zav11aw73cSS9Gw+f2v5MpxobNXlh8eH4iI+48GYCK7ao334cjW8zjQbsD9hr8a0bcUyXkan+je0VBprn3766V547BAXQsj9iJG5ieDqNqZx7QM2zZmD5lawPHIZmwmlbROhGPmc0tMMftv777+vRuwYHHaKB0FcxpV44CoCzY9ue+211/IZSc9nmeTC9evXx9z+Sj0Xhf8Pohnd3bt3265du05R/m3iQIhrvjheuOJ0Gsf59XfeeSefVXzPsVQy5sZtWkQtF8hdBzFMBt2F1biYNqQFdqpQ41YqJZmkkJZWVQ75Qzv0B53uOPkKLTlyXLAgx1r2GU0Elt6XUeYmwjaVn+vidvwTgav0v2PjnK1UkTzWQv2MlSW12tBMb9yEyxx6db97zz3WyUshmuzUyr98XuHUsaA3lpRZL6sOvWlWbq0l8wY91hiYa/Mr1Y3hBH62j4fP7kjO1lpa8hnNC5IpkMbSgDVR3u0qt8ofXs6JjlXWREX33EED93P2zXV2yIu235j8QU3a6WIxdN5rUAcCc+Gn2zmYxTx4muGqYEpfPTEva33d5Ny8yHTpgQtwuLiNl0wBcLeNgj3KNW4U4ZfHPL4x1piX3fCDEjhCgkMvv/xyPwA3MZW8jL3HnF2X3SulrbHW/GqJQfSK6N6d6k+lGJ9QLmcHajVer776qmsKEtJYNyWtV5mstAH2IgPFw2ipj43MavAmPHqdKTXrHiabrcndp5qmP3dAo+VHYz99/fXX36R8rxGbBsAnJcnAVYJatkOn5QTv210P8OJdNVWsQDsiRdrhSeUuQzdprODzzz+3N954ox37+h629lWSfpNwKZksJAtXaWs28zgrTXjh8eogvZhiIJfhrnn1dmOkPUsms6m+V8OG0lY8gSE2pP+eHajf4o90vEI6GjPoTja9VMBVHpgLsAtAPUW3sJn5+4Ag402UaixYr5qqEZkuooZMA93YVXvrrbfkZu3mb0W8Qp7lamkCMfExyCiFS0eJ5Zcl9RdOouQzZad+U//CSSSAck78+Ld5Iqmk+HsV8f34V6VSDDUyutmcWED48e+hRZJJ4fcC4tKgcNx/yU+7H7mdEvmjCupF0XnR549/yS/Kw9EUkzpqDmz84h//BmUUSKk4Ja9FQcDlHhYRfuP/eur/AUYoYDvvues5AAAAAElFTkSuQmCC;" parent="1" vertex="1">
          <mxGeometry x="306.43" y="280.75" width="42.5" height="42.5" as="geometry" />
        </mxCell>
        <mxCell id="cFj89fqnj5NargIZEi_Q-7" value="" style="shape=image;aspect=fixed;image=data:image/png,iVBORw0KGgoAAAANSUhEUgAAAEoAAABKCAYAAAAc0MJxAAAAAXNSR0IArs4c6QAAAIRlWElmTU0AKgAAAAgABQESAAMAAAABAAEAAAEaAAUAAAABAAAASgEbAAUAAAABAAAAUgEoAAMAAAABAAIAAIdpAAQAAAABAAAAWgAAAAAAAABIAAAAAQAAAEgAAAABAAOgAQADAAAAAQABAACgAgAEAAAAAQAAAEqgAwAEAAAAAQAAAEoAAAAAzffoSwAAAAlwSFlzAAALEwAACxMBAJqcGAAAEvpJREFUeAHtXPtzVFWe/3b37XR33oSEQB6QIAHEBHkNOj7wrRTWDDDWjGuVCs7q1Ey5W7W1tb/tf7A/7C/+sKW1jK46U0rBADXKiKUiESwEUYoA8jIJmAAh707S78d+Pid9w83N7c5NdzrO1vpNndy+557n537P93zP93zPdcjckxNVaghuBB9CmdvtLnW5XPMSiQSvjJd4PB51Op1+XAej0agfUcMIQYQoQgwhgTBn5JizmkQqUVcdQ2lp6R2LFi1aWlVVVVdUVFRZWFhYjqsXV7emaapNsVgsGQgEomNjYyFch3Dt6+3t7bpx40a73+//HuV0pUIfrnmnfANFzmlG+FlNTU3LqlWrmu64446VCxcurKmrq3MDLAeCzJ8/XzwejxQUFAi4SHUa3CWRSETC4bD09/cLAGJIdnV1RW/evHn9+++/v3D+/PnL169fb0OGkwhnEchpeaF8AMUyqxE2LF269JElS5asWbdu3Yrm5ubaZcuWSW1trRAcr9ebVYdCoZACrbu7W65cuSJnz57t/uabby5evXr1dHt7+2EU+jVCD0IyqwrSZJptoGpRzwN33nnnQxs3bnwKANXee++9nhUrVgiGlmBYpWlGdtEYnoIhKRcvXpTjx4+HAVj3iRMnDn333XdHUOJRhO7sSp6aa7aAKkDRD4N7tj311FOPkoM2bdokAGxqjRYxENiSTE5lAIfDIRDuFjmsowCQtLa2Cjns0KFDn4HL9iPl5wgR6xz2Y2cDqBYI5V/cf//9v3ryySdbHn/88YLGxkZb3DM0NCTffvutXL58WTikzESZBZkmd999tyxYsMD82PKeXNbR0SGffPJJ5OOPP247duzYXzAJ/BWJKcuyplyAYt6ta9eu/Q24aNvTTz/twzCzBRBbe/ToUXnvvfeUwKYAJ/eQyFlG7qJQ9/l88uKLL8qGDRtUGjv/CBiGo3z44YdBcNd+vJDdyHeAVdjJb05jn68n56zCVL7ziSeeeOWFF17YsnPnTjeHmT5jTU469e7gwYPyzjvvqPR6Hl6hT6nZj4KesyADfzMeQluBSQ6zQyxv8eLFsnr1andJSUkzhnctJoBC6GSdyB+wU4YxTTZANUAPeuW55577p5deemn1tm3bHLg3lpnxNwXvm2++qVQBchG5hxzDMnglOATGHDgRYFaT8vJygaqRsQ7jQ04iLS0tjurq6iUooxkzpQaV4yrSDBnTTfd7pkAtKysr+93LL7/8CkLtAw88MCNhy8a89tprMjIyMsF9xcXFCiSCpg+/dI0ml1CnWrNmje0hzrI4IVA1qa+vLwNYd0L/IlideDTA53ZoJkAtg170L+AijLSdlXhLdsqflIYcsX//fjWcyEkcVgTKKJMmZbC4IchQXBW4Fo8zRkHRJVjF4Nq7oLwWDg4OXkYGW2DZBaqBnESQXn311Xl25YS51dBxBG9TcQO5h8NoOi4yl0EhTYUVHTY/snWPGVpWrlzpw7Koqa2tLQnOuoKM0w5DO0BVUSaRduzYUZktSOzFV199JZ2dnWrYkZsok0gEi1xlBzQCRe0+l3ZQHgJsH+prOnfuXBRgnUczMgr48YWVaq7lPwdmt9+Afvv8889Xk+VzISqWOlFoc+onVy2F3uUBcHaHoN10el1WV/aFfWLf2EekyagqTQfU1ocffphALaYAzZWMHEPBjAbKAgwFclZLc7Oa6aYDgWVgis+1KSo/+8S+sY+I2Jqp0ExANVOZ3Lp166aHHnooUxkzfkZuwnQt9XV1E7oUdB1Zv369zJs3T3FaOsAI1MCALflrq13sG/vIviIDLR2WlA4oD0wfv6TGDVI6j2XuLCO5xKnGkoRcRUB45TDkkoWz6fLly9WUbhyqelW6PkUTzGwQ62Qf2Vf2GWV6rMpNJ8wfxbrtn6EGLLa7sLUq3Bx35swZJcwXgps47EgEioKdDdZJVyqp/3CYUYAbOSwYDKr7pqYmPUtOVyqlaIMbtq5yKMScBdvNBVrZPWphBdgOhFu4dptNYmeNHWbZHEpmCwE5iXENDQ0CA58QGJpTeCUncZjq3GiUe7m0lX1ln0+fPr0dVofzKGuSicaKo7ZAwP0j1nCQs1W51D0lLzt36tQppQNRTunEN2oGi88IKoEgt1ExJacRuM2bN6vhOVsgsS62DeW7enp6ymCmoan5HON1MgO1EEa2Hdu3b9/82GOPqcx6wtm4UoCzo6OjoxOcxc4WAQS7nWaHWIYVsLm2EUo1rafzsR7sxVLpFMob1cs0C/P199xzz2bOBBSa+SBOydSsddK5Rr+f7moX0OnKsXrOPrPvxADP1xvTGIFyYzZ6FFN0zWwKcGNl+m/qTUZZxRnPLtGqQK7KF7HvxIBYoA61dca6jDWugvBcQxt3vhrBcskRlZWVSh3Q68ESwvbQ4/Ijn0CxTcSAWODnxFLECNRG2rq5EZBvqsOCVgnzlLAOpab76eol59ECkM/hxzYQA2KBnxv1NulAVXLfjVtKnIHyTZzFfrZxo8RSa7849CRO/UAgbdX6YriioiJtmtl6QAyIBTFBmdy4nRh6dVgkLqdxK19C3NwJyABZu26dJAgWAOJMGEkzBHVOynVRbm5DuntiQCyICdLUMR05iqEOZosVNF/MJXG5shKreHILpLsMDQ4qxdLYhgTiOW1zJybfsslYb8qUw+FHoNT0oUFA0hegxjhtGzPl83cptOzeW7ckAM2bGjktmINY9PKeYaCvT5zguLkEif0lFsSE2OBWKUtujMWlUOLcXHPNNXHviADB4qiGXzGXJwBGcVnq2Vy3ifURC2ICzmqEU4ibw86H6boeWnN6SZrHlvb23JrQsjmbmRvBOK7zZqJrzVZziQksCouJEYEqg5SfP9fDLhCKybXuAWk726YMduk6xyHXAzA7rt2SkUBsTgEjJsSGGGnQdEth8iinEphPgkxWnRwNxWUskJA4IiJKhk+/cUstPorJcXg0Lv6xuBR6sD70aeKGK1U+dSpiQmyIkYbF5TyghiGZH/nEITMWCIt/FDYkB5R+h6bUJcohGF1wb+P1IA3TIouisVBCRoPwVUiEpKTQg7eO3WTNvL63Ue40SYgJsSFGGjpSAtQA2sSyZprs9h5HY3EZHB6VYX8QnBTHtIHt8cLJC20trokW1STqxBImQSlgQQDHATy1yG0glCxzuCQcccjN3iFx9julqNAr88uLIYRnrx/EhNgQI3JUARQsx2xMv4lEEuCMSP+AXxLJ8S0olutApwq8UzV+LeqSVSdbpKPhivgrhgFYVJJO8A6CYjaUUThSKHUdNeJdOZXjPd5CzJgRpbSOjAbEPzKGjQqPzCstkpJib84qBdtObBRGFu8wqyiCdOFyp/QPjUgFDGzUbpX8gHzRsGRx4T5pshIkwCruoFuWfdsk4aKwjJWMigNuBe7SAikIaVI0XAygfNCIXePgmVrmcNCxwyuhGPJxxkQIhSJyIxSVIb9bahZWzNqQ1KDDRKCzoA/2TR2m9qrbC1euSW//kPi8vsnbTmh8LBqSWIRgmYdFalyhBM8YvFf8XgDjEV+JVxKOBGTauAxLunC1oHgsimVPcPyFpJ6rl4PfQQD2w/U+aaxfMOm5RTFpo6jfERtiBO5yjtD7Npe9su6bvdLTO6BY3V0wWQ6xFZzxggE/AMtsTuGQS2hJiWvwwOPwSwnvqT1xYMhhIY0yk0nrF0zAwuGY3Lg1ODW7zRgqvcSGGDmB1iAUOji8TfV4s1NeDEL7h+7eCRZ3OW8LXXP+UHBUwqEAotMioGSTOZ/5Ph4LS3BsOC1Ienqn0yEjoyEI/ew2TIkJsSFGTnCSH6gN9WFNlQ2NjgUlykWtTYpGuNVkzQU2i0iBbTc1uDmY3R4gMSE2xIhz8jBQ64dR3X7NhpSRaCwTfxhSJtVSxVdUlrXM0AvzFZVC3nEf0Fp26en0K9uYDRETYoO8wwQqiB2Ha9imsVerqUYqgvybjpw4ueEtLIMcSz80pytDf87ZzldUIpobCqwNmr511oUQE2KDp0ECFYVvYwdPBGQrpyyrgTA109QlrzmF/XtOiMYNCubUZzz7paRPSSyICbFBqiiBivFsCdjserbDz1wdp9Xh4WGlCOqNT8Sj4g+MigYBmyu58RKGYTqOx27LHnLNsN+vdpJzLZ/5iQUxSZ27iREoStYunC25yGMTuRPccjDL0AYeDIUnitPQuWujYfnPjqgUsNYsyYu8b9+Iy4EbYfGmQOfLoN09gDpDqFN/OVlWobKBm4SY4KYLYWKB1QWXwUs8W6IbzHKphNKd6r+5wUVY7f9HR1z+1puwOQFMbgVH89f+pPz7d1HxuKZyJhfaqHRypizuiAFAohvlJWQnUBObC308pcQDOJDyWRQ9gywYI290hsVNITMDYmoy4l9vwFEDk1gOTDltrcSAWKRObim9yVjfCXj3w+uF3JZfisGaEByjVm0fLE4E8RiU4pQO5oJZhevJfBAxIBYo+4RevhGo8zhDcpqnlPSH+bmOe6jggKeEx0YA1vS1YBDL2PCQnDx5Srq7b2LV7ML5mXa5cOFyXsAiBsQCLaP7jyIjUFE8/AxuOdd5SikfxCUFaVyUOCWGVb7ZomBV70gyIH/+8C/y8aFW6e68qvZELp27IPv2HZS9ez5QltPcJdN4zew7MSAWiJlY+5h59xRcnD86cuTIH+jNNpusHYMZ5mTrMbnvTJdUFrql3bdR6gsXWeEyKc6d1ORcQYf0xYaxt3eX3Ld4gXQU9crKDUuk/UJErl7rwnm9dmlqapiUL5sbCnH0nW7eHyE/3X4myMhRjLyJ8XkEjlSXgOhEolx/aJAnHxz8VD479JnU9LVLbaBP9u3/SC5d6hAXZsdMxGE34gjhvxNeJqvl3hX18g81LlnbvEIalzaomRXrsUxF2H7GPrPvxACZMMZvk1Urj+Kc26c87zYbqgJVhCDs28e/+kapDCNjo7CCDmHdp8mZc+ckPgM7GG1mXC5x95gTQa6L69swQOsGN6XO+H2K+KPGZ/xtBVQ3fBj34YxbG8+75UoEKhSOKKdVdiwMH8yhoWElpyKwKSWS2F6ZAc2WLDJXyb6yz+w7nk3RvK2AYhmtOHi4l4cCb2G7OxciF5SWFEtVVaUaJmUlpbIEbj+MryqrEA2c9WMT+8i+ss9oS6tVe9IBFcaq+QOenORpqFx9uslVv37maTjblyuARqDQLVlSJz+/b4Mt9cCq4bMVx76xj+wr+4xyLdWjTK+zjcdLDxw4UNvY2LgJpz2zbhu5p6GhXv7tX38vP/zQjZ0SLxzCFkisJyIhO4pU1jVPn5GzHPrYmjpKm/bccSagWMuBzz//nA5VDXClzuk8DIWvy+WE31GjEsS0MNilcZ10/IQD7VnxeEIZAc1rSbvl6engUy67d+++hj7uRhzPG6el6YDiZz9Q1u5K+Cj9AZ5yOZ+wmulMyi2t4qRXybfjx0/JauhSNTXVSiundk6GLASHYnTPiHhu8N133+1B3/7IPiJzxjWCHXNjAM6oV1GwBr/Lu3gokA6nOo0FQtI/iFkMfySvZ3yjkg6sdEEsKDBvUek50bIxzILH4MptYC63F7vHntvNSsAKVJ4olk7fTemG0O3t7cMwXix//tM+5SpUXV0pD276Oa14yrSjYUvMa3D2V23ywqEfO8k60Zy0a9euwddff30X7E27EH9df5buertF6VKMxw+h450wZBUC/SZ4efj0Uw3YpMDOMKf77ICKGIHCOy0AUO4CNMvwfr3wWVj25HIpbyiHBt4Ir+L5+J7LPAzjBnnwwXuwA6QpH6sgrJJmoDjkfQagyEkECZz0J/Tnv9C99sxdH39qFyimHuAZXB4vxe8m+A4V00MX2814gD07bFuRKD80pwZ9KSwe2LQ9Hvd4n4mjKST88Gw5PCTxcFwSMfBONCFOeKo4PThtBZ1LBXBUHLqWZ12xLFqxEG6K4GYMx6rKCpmPoK8fqaMFAkFsvmrKCUwhjfo0yLTKilLEu4Qy6a233up54403dqVAuqIabePfOBvYSGhIwuP8O5599tnfPvPMM4sfeeQRNcRC4ajCgSgq5sIPJ4xrTmwEpKNEGF/0GTDMxshDhxcn/Nsoe4zkgpuPBk4zRU8kYTxfFoHTsCwaTze+80MV4PDhw7J3795r77///h8x3P4HyTsnMufxBz8Q8eqWLVta8XYS3K34eyW2jW1kW9lmYJLVSaiZDD0j7tyD/xrfVBmEbTmJb58sgy8RfUHVes6Y8Mf6zdn1yy+/lLfffjuIT5vs+eKLL/4bbX4X7cnKhJstUHr/L+CjV1xt9wCwcuy8VPIoF92daTP/MYgA0d69Z8+eCKb/01AmX8c9ZzbLpYndNmYjo6zK5rZt1p9Fsiowm7i/988iGftEj/6fPrRlRCTDb3LpT59uywCQ1SMukXhE/qePAVqhkyaO/tl1DKkjJZM+L4kzw14ceJz0eUnsNkdxmOj/xeclrTDjdEhO4yLw/8wHS/8XerJhscuIU9cAAAAASUVORK5CYII=;" parent="1" vertex="1">
          <mxGeometry x="409.43" y="278" width="48" height="48" as="geometry" />
        </mxCell>
        <mxCell id="cFj89fqnj5NargIZEi_Q-8" value="" style="shape=image;aspect=fixed;image=data:image/png,iVBORw0KGgoAAAANSUhEUgAAAFcAAABXCAYAAABxyNlsAAAAAXNSR0IArs4c6QAAAIRlWElmTU0AKgAAAAgABQESAAMAAAABAAEAAAEaAAUAAAABAAAASgEbAAUAAAABAAAAUgEoAAMAAAABAAIAAIdpAAQAAAABAAAAWgAAAAAAAABIAAAAAQAAAEgAAAABAAOgAQADAAAAAQABAACgAgAEAAAAAQAAAFegAwAEAAAAAQAAAFcAAAAAUGiBFwAAAAlwSFlzAAALEwAACxMBAJqcGAAAFmFJREFUeAHtnWmQVOV6x5/pnunZV2CGgRlmEAYERSDiGES5iDcuKC4XRa7xJrlJpVKpSqUq3/ItVal8SVL5klTdxEoqiaUWbmCpiFJR8aJIRJDNjX0ZtlkZZl+6e/L7n54zNk33TPf0MnNzfYqXPn36nHf5ned93uddzjtZNj0ki2woeAheQhGhwOfzFQWDwTKOi0dGRnx8ZhP8WVlZQ3x2ezyezqGhoR6O+wj6DBCChJHRwMfUiQo0VSKQ+YQCQmVubu7cvLy8usLCwjnZ2dllBQUFFUVFRWX5+fk+QrbX64WlJwvYI4FAINjf3+8nDPX09HT29fV1+P3+zt7e3ssDAwPnBwcHLxFnC0HQ+wkCnnGZCrgOTEpaX1xcvGjWrFmLZ8yYUVdZWVlbXV1dUVVVVcK5opKSkhwA5wDbgGsANwAbYA2QBlgDpgF2uKura7i1tbWnubm568qVKx0tLS1N7e3t5zl3vLu7+wRpnSO4sDnMjGQS7myKtICw6NZbb105f/78lbW1tXU1NTVFHBfW1dX5gGtoq6HBhkmwnJwcQ1udEIkDDTaF4eFhwzQYGmtosQHXzp8/P3T27Nneixcv9jQ1NZ3n+ND3339/iDgE+jThamR86fieCbhVZHwV0H7nbgSId9xyyy2Vd9xxR86SJUs8s2fPdiC6IJMtpAtc0K9evWrfffdd8OjRo8NnzpxpAfrRLxAewlekc4DQnGx6492fTrjlJHwf1btx9erVjcuWLbv7tttuK1mxYoUtXrzYqerjZSyVv8mEHD9+3A4fPmzffPNN17Fjx77Yt2/ffszJftL5lHAtlem5caUDbi6Rr5g5c+aG5cuX34Oy3gnY8lWrVtnChQvddMf9dO0p1dmxrXgKN10vc1FeXm5z5851TIk0Px45deqUHThwwAB8DSU+eOTIkc/b2tp2cu9hwmA8ccR7TSrhqvW/hUbofmzqQ2vWrGm89957a++8807DDBju04R5UkOFbbTPPvvM0bTr1687jVc0uIoMD8N4iKYHt27dOud4wkS4QPFhJuzgwYNKq2nv3r37SXcXjeNufj5DSIl3IZ8yFSJtvReIv3jggQeee+KJJ1Y//fTTFZgDwwuICyzuk+3YscO2b99u0lh5BdJGt2HTp2CGB2kvQBxQeAqGCTI8jQnLowddUVFhCxYs0IMvpQYsRCkaiGvGtWvXBojgCkE+c1KSCrgzycETd91113OPPPLIU5s3b67j04sn4LhP8eROjdDbb79tH3zwwRhUgZOGCYSAUnjHTsstkzehoGOdl7smt+z06dOGK2e4dvEk6+RPD5+a5uW+Sh5mAw1hxeXLl2VjLhPkJ09akoW7gJSf27hx45aHkC1bthTJDKjQiYhs4NatW8dcL/deQS0tLXXik+bKz3Vds2ifcsdwvYyG04HvxjPRp9LBi7F58+YVkMat5H/WiRMnCrlP3sSkG7tk4C5Be37+/PPPb9mwYUMjZsBTX18f1Scdr3AyBy+88IJTvQXPFWmmqnn4Ofe3WJ8C3tnZ6ZiSeBtPNy7dK5PS0NDg4UHWl5WVzcYO59AOqPPR5l6XyOcPpYn/LrVMy6lGzz/zzDNbMAFLnnzySafljj+KH65Uo/Lhhx+OaZpMgaq6wMokxGrMfojhxiNBkv1tbGx0asKNv078TZ2YRYsWKe0qzE3NpUuXfJicVu4U5IRkMnCXo6G/pNHaDNT5WIOEzUB4Dt99913H2Vf3ViBV/QV2siK4auTkociTmIyoIVVjh3mooObU0Y3Oo0aokUuo05Eo3CXS2Mcff3zzs88+W7t27VqnsZlMAdx75CEIhqBIU6U5Ap2MqDtMt9qxo5ONR3nABsvml2K65sqWo8EaEIrbRCRSigXYwc2A3USolZslLUtW5NtKpLUqkNsZkAchEXCFREQPSuMMyYrKp3LSqakln5teeumlfhrNl4lX4xMTSrxwVb82oa2bMAML77///pSADc+dAAquwAi0vAQN5DD44oDS+akQAVZ50dqF1IhNL774ooYw/5MwoQbHA1cdhIcfe+yxDevWrVtGA5a0KYgFSYClsWrQqhnQkb8qH5bBF6cbnIgGu5ofK61EzstVU7kZvlzGUOYGTJl84DcI43aXJ1IH/b6aDsJj99133xpcLqfgiWQs3mulrXK71JjVMF6g4xFA4xIZo2eOJguYrptIpOXqVKRS9MBVfnEQD+JeTRiX30QNGo3uLX/w8MMPP6UOQj1+bKrl448/dho0Bs5tPvFX4mu6DVoBWittVadEgzQS2VJ1jScyE7qPQaOUZle1iG6zp6Ojoxp3b5Cu8kkSiNnJGA9uHk/rqfXr1z8H2Dr1vCYq0GRK4sBFy2Rf1cK7mqm0BFeicwIuwLLFGquVhyFNjpYnndPvdAiScuuilUdjEtjhAuAWM/jTSl6+4bpQqxxxw3hqvZxx1wcZ2WrQqFMiPaWINOL6Kk1zweoGAQq3se5vMhMMYTpBfqyukSZHmgyd27NnT1xpJ3KROIiHuIgP9y6PdX+sBq2MjD9KBI3r1q3zJePUx0rYPS9oN1lRzmUBN5q4kNVVVZBtpZExBr7HTIbuk0tH78roAMQ1UhYtrVjnxENcGIBvxP99lPHg41zbGXl9LLhrGeherfFY9VTSKWooJNlhg92CLQ2J1GbnwtH/pJkS3S97Lc2VuZDfrIEbab4AT7aXNppMzA9xEZ9vv/129UcffbSWC9+JvDiaelTyZBppDFbJzmoAJZ3y6KOPOpqVG9EhiTQLsfLgQnUbOeVXsxPqXcmOh5uWWHFM5rzSER9xEi/iqIyMJxrcVfRK7r799tvL1D9Pt6xcudKoJY4/61Z5pem4YnG4XeH50/2C7fb6wn9Lx7H4iJN4Ef+qyDQi4VZRzTTndTe+XNqeemQmVLXVE7oBbgybG3nvVH5XrRAn8RI38qKZ7jGJhNuAmktrixMdDx2LcRIHAhspwQS11r1f5iSTIk7iJW6k2xCednhONH2wCEO9TNPfmZRCNDdca5V2gIYpUXupONRVTbfbGMlGvMSN84sIY9Mw4XCrmEtaweqXWXK+MykzcakiZYiWPxJ45DWR32Vv5SZlGq54iZv4kacx0+DC1Wc9F6zEfuTKBmZSNKlYyDiu4EiksX7GZOVaJaK9Mgka7Mk0XPESN/Ej+/UEh6sLN0+L4uh+zlu6dKl7jmsyI/JTNUGIqo4lqKO+BAZf9GDUNVb3dCpE3MRPHEnf8V9dkEX0dhbjGxar15Np0biBnPJytM7VXuVBk5dafROP9kpbNTaR6MxzqsoqbqP8FhNnkeIV3CzCLKpTPVKY7k6DEo0mGpShalkhWhxuazUKJsjjia7XOgnBnSoRN/ETR/IgDc1y4NLC1rA4okbLON3hvqnIpHpVdAudqu320IJ0c7uYLpcGh2u1mz9prJx5zdhOpYib+ImjeJIXB66Hccp5c+bMqVB3MdN+YiQQaeA9a9bYPGyw8iLXykPGNUDTzeDMGGS0VcfyMxXiMR2RaaXyu/IqfuIonsTteNxeVHoOxEs08zodRA2TzEQz62t7ursdn1eZl5bK/5WpYKDaulioJ9druoj4iSM8q8mTV6NiRfSQyjDIRVNlb6PBkR3VFLmGEnXsRXvDPQGd498N9jlaPJk8J37iCE9NmxTJ5hZQ9WbgQnDu5m5oJjMXnhZLRGhpQ66Zqrxa3Uhhntiyo/0QeWGGvoufOIonSRZoXVQRJ0qxEwypanHf1EkQlu1DI/bltaD9R0eptfgqLGfEb56RUOdCORNLpi7NxxLaU1nl9i/nPXbketCuDYcexNTlPjRAL47iKa7ZtMDO60icnLLGrItx7696zfa2BuzzS4P26za/9Q6XWk3l79lDXV9Zw+AVK2WaKocls0Hwdmbl2RHPLNvuXWzN35n909kee6Ay2x6cl2t3lXttKR3MnCnQaLUL4oiv7RNX2dxibEWOnG/9mEk53m+2o8NsJ/On37MS9nI32tc2HMqCZ8QuemfYKxU/sTlD7VYZ7LZyr8e60dmrniJryiph0QDZ9watY3DE3rzst13+XKsE7DLmNR/B6j1IqNOqiwyJ+ImjeJJkcTYNg3zbrEz5t4PU8F3MNv0XS9r2d5l1wFJLuR3zmgusUnqOXc4ZzgVtICvHzuRWs5Z+Nj0eBsNvsL5ExvPwMYddPjPfWvAmunhgpwi7eGgVFHFNqdnv49I/DOhMaLM4iqfDlWJlQzwr3YMd/9sRsH8957f3B3zWGqDOykSGVxS3GhejatnQug6hgGwtF2bpYvdFhdCxTuv2wjyuLQUs98h7cNn3cdzHS6yv8RAVanhmP2NR1i+reBsmNGOvKFMu4iieRAxm5tyxD3rlM+UJKcJTvSP218cGbNsFVLSMOltIukrahRmZqgDlk63cYl4sHbKsfu4DsmfU9VK2R/jPl0Mh8nNskBqoF4GdhxUZl76PPsCL9KD/uYlwyWwDYzt/W2d2ZxrcenEUT1L2Z+PmDDHnNJKOeafDtOJ/vL/fDrVQ/ArAFgHth4Y/GorQOWVN8AuZ+inwGS/8EjjJP8wucD02AOARXRNPfIpV16Lkkp1tZodYBPlCg9nGFA6iyfcWR/EUVz3XbpZFDo91K53kk/+vA5fqL74CbCuap6pbiAGMF4SbvCAjIxD1o6kBjOsg1X8Iv9cxAYnGF4rOgXwFs/6nJ3mNEsipEsEVR/EkTr1V7+nkxJD67qhzqtKxfzs7bHuvkIa0JQeNTcYTEeTwkIpckq9mAP/VmRS8EzWaH/ETR/EUVw9dTLrv3dc56dfIfypEj+hXpzFyMpCqjmjdtBSy9Rlu4K+vpyZ34ieO4imuMgt9jJe2c4LvTtOQdEqftAXtknoGLlMBVpim8gY2OBUifuIonsTXJ7g9nLym/Qr0HlcqpKUfsJHr/kbtZyriH4tDD0wPUKVwRefCv7vnY31y/RF6h6kQ8RNH8SQ+R3MDnLzCBhBdqXiPQJkMKWk6aIYhwIyXDPptaXOvlQzwMGkvBbp0KGC13dTAeCFzXU+KvFDxE0fxJDcBsmhB7MQFXsns0EYQGtXHGIeVYrKHIcSTvXvc+8j1ksu99ue7L9j81j5rqsi3X91f6/i+f3mw2Sr7/LZvTqH9w13VeBfkY4J2OhVqoMZM/MRRPMl/UHBHsBEXIX6RzR5WsHCEAZ3pM/R4E2RYFWN2/uizS7b65DULoAezrg/a3/uD5ivhNdPOAQviqi3m8yru37+vpO87AdxUqIH8W+1QIo7iKa4OXA5aWeN6DulFpac93Ap6bfXtdI8RgVT3uH7A74zt+uWhIOphr2xhNCgVaunEOP5/sre8bd8rjlzZShhx638Phvj4hQsXurVYeFoLsPpzGB3L03D6DzKMAx8Q6FFRwa7Sw8uUlyJuLIQWv+Mk7XRNXLgDuBAneOfrAot5J6hEbvan6BOiLUD7sr401P11spFlw/24J06XPsRTmrurLnPza+ImfuJIlhy3y4UroOdQ60NsTzKolzWmtQBux/JZdq6q0HzYWmmwH49BgKW8pUN+e3VRhX1Bo3aTS5iGgomXuIkf0Z8jOArqwlWSzbwCf5gLWk+epNM9nQXX6VJFrv3dYwusvSzPCgcZicIsDFwfsAIat60NM+wfG5mAFfVw25GmMomXuIkfSTDAGZJwuGohTrDbxjHtYjTtBStwrKbI/uQPb7cvFs3A5w1YLi7Yf88vtb+5d471OMNnmSmFeImb+BFCLS0H8hbC5aT23WKt/1p2McroAujwTMR9DOCLZbn2Z79YYhuPtjl18f3bZ4bqZAY0VvnUbk9ff/11t7jx9YYqH665urYZ+3EQ+/HFl19+Oek1AZoUd4xfaEEP0ZIMp8aCUkqVyLphJt5dOdPeIzjGLhJseNpRjv06NwnREKM4iZe4EcWYSVB0kZqrcwfY0Ezau4o3BMu0+jBRqfZ32n29X1uBnz4pGRjJ1q4frB4nohZvoX2TV2XDCQ0AxJGDccacCv0DtrCryUr59DLxqYwE8wpt0JfHNAzLwZ0lBTe9jDNhoto+C63tFC8uPhB5QzS4LdopDi2/m7dsfqrXjhJdiTN3uN02duxzZkJHcI8KAyWW25/vaG6/x2cvzWy0PfnzMtLYqLasbT5kP71yAE1y9Jr303xWxJKpoMdrWug3Y1hrOB6KZDPud3UatIUMnA6M7qzXEnlDpFlwf9/DTnH7tKGZtpNKVJy1MlIQaYhu5oCX/Z15sOLAgDUEUjSAGkfGfIFhm9vXZrlB5uOUD0K2N8uZCfYFhy0nSM+OkKiIi/iIE/fuiXZ/LLidvHL5Hjfv/+STT4a0XithweGErSOhz9B3JpcSjiqZG9zUnAdORDfkhUeu724+401HPMRFfMSJ+1gscLPEgqsrj/Bu6y4iOKl9v9I1O3xzlqb3GXEQD3ERH3GKleNoNte9doAW8OP9+/cvxe7OZu3pDG0q8dsubOZmO3fubIfL/4gPPGLOMIwHVxzP0iK+zav11aw73cSS9Gw+f2v5MpxobNXlh8eH4iI+48GYCK7ao334cjW8zjQbsD9hr8a0bcUyXkan+je0VBprn3766V547BAXQsj9iJG5ieDqNqZx7QM2zZmD5lawPHIZmwmlbROhGPmc0tMMftv777+vRuwYHHaKB0FcxpV44CoCzY9ue+211/IZSc9nmeTC9evXx9z+Sj0Xhf8Pohnd3bt3265du05R/m3iQIhrvjheuOJ0Gsf59XfeeSefVXzPsVQy5sZtWkQtF8hdBzFMBt2F1biYNqQFdqpQ41YqJZmkkJZWVQ75Qzv0B53uOPkKLTlyXLAgx1r2GU0Elt6XUeYmwjaVn+vidvwTgav0v2PjnK1UkTzWQv2MlSW12tBMb9yEyxx6db97zz3WyUshmuzUyr98XuHUsaA3lpRZL6sOvWlWbq0l8wY91hiYa/Mr1Y3hBH62j4fP7kjO1lpa8hnNC5IpkMbSgDVR3u0qt8ofXs6JjlXWREX33EED93P2zXV2yIu235j8QU3a6WIxdN5rUAcCc+Gn2zmYxTx4muGqYEpfPTEva33d5Ny8yHTpgQtwuLiNl0wBcLeNgj3KNW4U4ZfHPL4x1piX3fCDEjhCgkMvv/xyPwA3MZW8jL3HnF2X3SulrbHW/GqJQfSK6N6d6k+lGJ9QLmcHajVer776qmsKEtJYNyWtV5mstAH2IgPFw2ipj43MavAmPHqdKTXrHiabrcndp5qmP3dAo+VHYz99/fXX36R8rxGbBsAnJcnAVYJatkOn5QTv210P8OJdNVWsQDsiRdrhSeUuQzdprODzzz+3N954ox37+h629lWSfpNwKZksJAtXaWs28zgrTXjh8eogvZhiIJfhrnn1dmOkPUsms6m+V8OG0lY8gSE2pP+eHajf4o90vEI6GjPoTja9VMBVHpgLsAtAPUW3sJn5+4Ag402UaixYr5qqEZkuooZMA93YVXvrrbfkZu3mb0W8Qp7lamkCMfExyCiFS0eJ5Zcl9RdOouQzZad+U//CSSSAck78+Ld5Iqmk+HsV8f34V6VSDDUyutmcWED48e+hRZJJ4fcC4tKgcNx/yU+7H7mdEvmjCupF0XnR549/yS/Kw9EUkzpqDmz84h//BmUUSKk4Ja9FQcDlHhYRfuP/eur/AUYoYDvvues5AAAAAElFTkSuQmCC;" parent="1" vertex="1">
          <mxGeometry x="308.43" y="402.75" width="42.5" height="42.5" as="geometry" />
        </mxCell>
        <mxCell id="cFj89fqnj5NargIZEi_Q-9" value="" style="shape=image;aspect=fixed;image=data:image/png,iVBORw0KGgoAAAANSUhEUgAAAEoAAABKCAYAAAAc0MJxAAAAAXNSR0IArs4c6QAAAIRlWElmTU0AKgAAAAgABQESAAMAAAABAAEAAAEaAAUAAAABAAAASgEbAAUAAAABAAAAUgEoAAMAAAABAAIAAIdpAAQAAAABAAAAWgAAAAAAAABIAAAAAQAAAEgAAAABAAOgAQADAAAAAQABAACgAgAEAAAAAQAAAEqgAwAEAAAAAQAAAEoAAAAAzffoSwAAAAlwSFlzAAALEwAACxMBAJqcGAAAEvpJREFUeAHtXPtzVFWe/3b37XR33oSEQB6QIAHEBHkNOj7wrRTWDDDWjGuVCs7q1Ey5W7W1tb/tf7A/7C/+sKW1jK46U0rBADXKiKUiESwEUYoA8jIJmAAh707S78d+Pid9w83N7c5NdzrO1vpNndy+557n537P93zP93zPdcjckxNVaghuBB9CmdvtLnW5XPMSiQSvjJd4PB51Op1+XAej0agfUcMIQYQoQgwhgTBn5JizmkQqUVcdQ2lp6R2LFi1aWlVVVVdUVFRZWFhYjqsXV7emaapNsVgsGQgEomNjYyFch3Dt6+3t7bpx40a73+//HuV0pUIfrnmnfANFzmlG+FlNTU3LqlWrmu64446VCxcurKmrq3MDLAeCzJ8/XzwejxQUFAi4SHUa3CWRSETC4bD09/cLAGJIdnV1RW/evHn9+++/v3D+/PnL169fb0OGkwhnEchpeaF8AMUyqxE2LF269JElS5asWbdu3Yrm5ubaZcuWSW1trRAcr9ebVYdCoZACrbu7W65cuSJnz57t/uabby5evXr1dHt7+2EU+jVCD0IyqwrSZJptoGpRzwN33nnnQxs3bnwKANXee++9nhUrVgiGlmBYpWlGdtEYnoIhKRcvXpTjx4+HAVj3iRMnDn333XdHUOJRhO7sSp6aa7aAKkDRD4N7tj311FOPkoM2bdokAGxqjRYxENiSTE5lAIfDIRDuFjmsowCQtLa2Cjns0KFDn4HL9iPl5wgR6xz2Y2cDqBYI5V/cf//9v3ryySdbHn/88YLGxkZb3DM0NCTffvutXL58WTikzESZBZkmd999tyxYsMD82PKeXNbR0SGffPJJ5OOPP247duzYXzAJ/BWJKcuyplyAYt6ta9eu/Q24aNvTTz/twzCzBRBbe/ToUXnvvfeUwKYAJ/eQyFlG7qJQ9/l88uKLL8qGDRtUGjv/CBiGo3z44YdBcNd+vJDdyHeAVdjJb05jn68n56zCVL7ziSeeeOWFF17YsnPnTjeHmT5jTU469e7gwYPyzjvvqPR6Hl6hT6nZj4KesyADfzMeQluBSQ6zQyxv8eLFsnr1andJSUkzhnctJoBC6GSdyB+wU4YxTTZANUAPeuW55577p5deemn1tm3bHLg3lpnxNwXvm2++qVQBchG5hxzDMnglOATGHDgRYFaT8vJygaqRsQ7jQ04iLS0tjurq6iUooxkzpQaV4yrSDBnTTfd7pkAtKysr+93LL7/8CkLtAw88MCNhy8a89tprMjIyMsF9xcXFCiSCpg+/dI0ml1CnWrNmje0hzrI4IVA1qa+vLwNYd0L/IlideDTA53ZoJkAtg170L+AijLSdlXhLdsqflIYcsX//fjWcyEkcVgTKKJMmZbC4IchQXBW4Fo8zRkHRJVjF4Nq7oLwWDg4OXkYGW2DZBaqBnESQXn311Xl25YS51dBxBG9TcQO5h8NoOi4yl0EhTYUVHTY/snWPGVpWrlzpw7Koqa2tLQnOuoKM0w5DO0BVUSaRduzYUZktSOzFV199JZ2dnWrYkZsok0gEi1xlBzQCRe0+l3ZQHgJsH+prOnfuXBRgnUczMgr48YWVaq7lPwdmt9+Afvv8889Xk+VzISqWOlFoc+onVy2F3uUBcHaHoN10el1WV/aFfWLf2EekyagqTQfU1ocffphALaYAzZWMHEPBjAbKAgwFclZLc7Oa6aYDgWVgis+1KSo/+8S+sY+I2Jqp0ExANVOZ3Lp166aHHnooUxkzfkZuwnQt9XV1E7oUdB1Zv369zJs3T3FaOsAI1MCALflrq13sG/vIviIDLR2WlA4oD0wfv6TGDVI6j2XuLCO5xKnGkoRcRUB45TDkkoWz6fLly9WUbhyqelW6PkUTzGwQ62Qf2Vf2GWV6rMpNJ8wfxbrtn6EGLLa7sLUq3Bx35swZJcwXgps47EgEioKdDdZJVyqp/3CYUYAbOSwYDKr7pqYmPUtOVyqlaIMbtq5yKMScBdvNBVrZPWphBdgOhFu4dptNYmeNHWbZHEpmCwE5iXENDQ0CA58QGJpTeCUncZjq3GiUe7m0lX1ln0+fPr0dVofzKGuSicaKo7ZAwP0j1nCQs1W51D0lLzt36tQppQNRTunEN2oGi88IKoEgt1ExJacRuM2bN6vhOVsgsS62DeW7enp6ymCmoan5HON1MgO1EEa2Hdu3b9/82GOPqcx6wtm4UoCzo6OjoxOcxc4WAQS7nWaHWIYVsLm2EUo1rafzsR7sxVLpFMob1cs0C/P199xzz2bOBBSa+SBOydSsddK5Rr+f7moX0OnKsXrOPrPvxADP1xvTGIFyYzZ6FFN0zWwKcGNl+m/qTUZZxRnPLtGqQK7KF7HvxIBYoA61dca6jDWugvBcQxt3vhrBcskRlZWVSh3Q68ESwvbQ4/Ijn0CxTcSAWODnxFLECNRG2rq5EZBvqsOCVgnzlLAOpab76eol59ECkM/hxzYQA2KBnxv1NulAVXLfjVtKnIHyTZzFfrZxo8RSa7849CRO/UAgbdX6YriioiJtmtl6QAyIBTFBmdy4nRh6dVgkLqdxK19C3NwJyABZu26dJAgWAOJMGEkzBHVOynVRbm5DuntiQCyICdLUMR05iqEOZosVNF/MJXG5shKreHILpLsMDQ4qxdLYhgTiOW1zJybfsslYb8qUw+FHoNT0oUFA0hegxjhtGzPl83cptOzeW7ckAM2bGjktmINY9PKeYaCvT5zguLkEif0lFsSE2OBWKUtujMWlUOLcXHPNNXHviADB4qiGXzGXJwBGcVnq2Vy3ifURC2ICzmqEU4ibw86H6boeWnN6SZrHlvb23JrQsjmbmRvBOK7zZqJrzVZziQksCouJEYEqg5SfP9fDLhCKybXuAWk726YMduk6xyHXAzA7rt2SkUBsTgEjJsSGGGnQdEth8iinEphPgkxWnRwNxWUskJA4IiJKhk+/cUstPorJcXg0Lv6xuBR6sD70aeKGK1U+dSpiQmyIkYbF5TyghiGZH/nEITMWCIt/FDYkB5R+h6bUJcohGF1wb+P1IA3TIouisVBCRoPwVUiEpKTQg7eO3WTNvL63Ue40SYgJsSFGGjpSAtQA2sSyZprs9h5HY3EZHB6VYX8QnBTHtIHt8cLJC20trokW1STqxBImQSlgQQDHATy1yG0glCxzuCQcccjN3iFx9julqNAr88uLIYRnrx/EhNgQI3JUARQsx2xMv4lEEuCMSP+AXxLJ8S0olutApwq8UzV+LeqSVSdbpKPhivgrhgFYVJJO8A6CYjaUUThSKHUdNeJdOZXjPd5CzJgRpbSOjAbEPzKGjQqPzCstkpJib84qBdtObBRGFu8wqyiCdOFyp/QPjUgFDGzUbpX8gHzRsGRx4T5pshIkwCruoFuWfdsk4aKwjJWMigNuBe7SAikIaVI0XAygfNCIXePgmVrmcNCxwyuhGPJxxkQIhSJyIxSVIb9bahZWzNqQ1KDDRKCzoA/2TR2m9qrbC1euSW//kPi8vsnbTmh8LBqSWIRgmYdFalyhBM8YvFf8XgDjEV+JVxKOBGTauAxLunC1oHgsimVPcPyFpJ6rl4PfQQD2w/U+aaxfMOm5RTFpo6jfERtiBO5yjtD7Npe9su6bvdLTO6BY3V0wWQ6xFZzxggE/AMtsTuGQS2hJiWvwwOPwSwnvqT1xYMhhIY0yk0nrF0zAwuGY3Lg1ODW7zRgqvcSGGDmB1iAUOji8TfV4s1NeDEL7h+7eCRZ3OW8LXXP+UHBUwqEAotMioGSTOZ/5Ph4LS3BsOC1Ienqn0yEjoyEI/ew2TIkJsSFGTnCSH6gN9WFNlQ2NjgUlykWtTYpGuNVkzQU2i0iBbTc1uDmY3R4gMSE2xIhz8jBQ64dR3X7NhpSRaCwTfxhSJtVSxVdUlrXM0AvzFZVC3nEf0Fp26en0K9uYDRETYoO8wwQqiB2Ha9imsVerqUYqgvybjpw4ueEtLIMcSz80pytDf87ZzldUIpobCqwNmr511oUQE2KDp0ECFYVvYwdPBGQrpyyrgTA109QlrzmF/XtOiMYNCubUZzz7paRPSSyICbFBqiiBivFsCdjserbDz1wdp9Xh4WGlCOqNT8Sj4g+MigYBmyu58RKGYTqOx27LHnLNsN+vdpJzLZ/5iQUxSZ27iREoStYunC25yGMTuRPccjDL0AYeDIUnitPQuWujYfnPjqgUsNYsyYu8b9+Iy4EbYfGmQOfLoN09gDpDqFN/OVlWobKBm4SY4KYLYWKB1QWXwUs8W6IbzHKphNKd6r+5wUVY7f9HR1z+1puwOQFMbgVH89f+pPz7d1HxuKZyJhfaqHRypizuiAFAohvlJWQnUBObC308pcQDOJDyWRQ9gywYI290hsVNITMDYmoy4l9vwFEDk1gOTDltrcSAWKRObim9yVjfCXj3w+uF3JZfisGaEByjVm0fLE4E8RiU4pQO5oJZhevJfBAxIBYo+4RevhGo8zhDcpqnlPSH+bmOe6jggKeEx0YA1vS1YBDL2PCQnDx5Srq7b2LV7ML5mXa5cOFyXsAiBsQCLaP7jyIjUFE8/AxuOdd5SikfxCUFaVyUOCWGVb7ZomBV70gyIH/+8C/y8aFW6e68qvZELp27IPv2HZS9ez5QltPcJdN4zew7MSAWiJlY+5h59xRcnD86cuTIH+jNNpusHYMZ5mTrMbnvTJdUFrql3bdR6gsXWeEyKc6d1ORcQYf0xYaxt3eX3Ld4gXQU9crKDUuk/UJErl7rwnm9dmlqapiUL5sbCnH0nW7eHyE/3X4myMhRjLyJ8XkEjlSXgOhEolx/aJAnHxz8VD479JnU9LVLbaBP9u3/SC5d6hAXZsdMxGE34gjhvxNeJqvl3hX18g81LlnbvEIalzaomRXrsUxF2H7GPrPvxACZMMZvk1Urj+Kc26c87zYbqgJVhCDs28e/+kapDCNjo7CCDmHdp8mZc+ckPgM7GG1mXC5x95gTQa6L69swQOsGN6XO+H2K+KPGZ/xtBVQ3fBj34YxbG8+75UoEKhSOKKdVdiwMH8yhoWElpyKwKSWS2F6ZAc2WLDJXyb6yz+w7nk3RvK2AYhmtOHi4l4cCb2G7OxciF5SWFEtVVaUaJmUlpbIEbj+MryqrEA2c9WMT+8i+ss9oS6tVe9IBFcaq+QOenORpqFx9uslVv37maTjblyuARqDQLVlSJz+/b4Mt9cCq4bMVx76xj+wr+4xyLdWjTK+zjcdLDxw4UNvY2LgJpz2zbhu5p6GhXv7tX38vP/zQjZ0SLxzCFkisJyIhO4pU1jVPn5GzHPrYmjpKm/bccSagWMuBzz//nA5VDXClzuk8DIWvy+WE31GjEsS0MNilcZ10/IQD7VnxeEIZAc1rSbvl6engUy67d+++hj7uRhzPG6el6YDiZz9Q1u5K+Cj9AZ5yOZ+wmulMyi2t4qRXybfjx0/JauhSNTXVSiundk6GLASHYnTPiHhu8N133+1B3/7IPiJzxjWCHXNjAM6oV1GwBr/Lu3gokA6nOo0FQtI/iFkMfySvZ3yjkg6sdEEsKDBvUek50bIxzILH4MptYC63F7vHntvNSsAKVJ4olk7fTemG0O3t7cMwXix//tM+5SpUXV0pD276Oa14yrSjYUvMa3D2V23ywqEfO8k60Zy0a9euwddff30X7E27EH9df5buertF6VKMxw+h450wZBUC/SZ4efj0Uw3YpMDOMKf77ICKGIHCOy0AUO4CNMvwfr3wWVj25HIpbyiHBt4Ir+L5+J7LPAzjBnnwwXuwA6QpH6sgrJJmoDjkfQagyEkECZz0J/Tnv9C99sxdH39qFyimHuAZXB4vxe8m+A4V00MX2814gD07bFuRKD80pwZ9KSwe2LQ9Hvd4n4mjKST88Gw5PCTxcFwSMfBONCFOeKo4PThtBZ1LBXBUHLqWZ12xLFqxEG6K4GYMx6rKCpmPoK8fqaMFAkFsvmrKCUwhjfo0yLTKilLEu4Qy6a233up54403dqVAuqIabePfOBvYSGhIwuP8O5599tnfPvPMM4sfeeQRNcRC4ajCgSgq5sIPJ4xrTmwEpKNEGF/0GTDMxshDhxcn/Nsoe4zkgpuPBk4zRU8kYTxfFoHTsCwaTze+80MV4PDhw7J3795r77///h8x3P4HyTsnMufxBz8Q8eqWLVta8XYS3K34eyW2jW1kW9lmYJLVSaiZDD0j7tyD/xrfVBmEbTmJb58sgy8RfUHVes6Y8Mf6zdn1yy+/lLfffjuIT5vs+eKLL/4bbX4X7cnKhJstUHr/L+CjV1xt9wCwcuy8VPIoF92daTP/MYgA0d69Z8+eCKb/01AmX8c9ZzbLpYndNmYjo6zK5rZt1p9Fsiowm7i/988iGftEj/6fPrRlRCTDb3LpT59uywCQ1SMukXhE/qePAVqhkyaO/tl1DKkjJZM+L4kzw14ceJz0eUnsNkdxmOj/xeclrTDjdEhO4yLw/8wHS/8XerJhscuIU9cAAAAASUVORK5CYII=;" parent="1" vertex="1">
          <mxGeometry x="411.43" y="400" width="48" height="48" as="geometry" />
        </mxCell>
      </root>
    </mxGraphModel>
  </diagram>
</mxfile>
